999
dxfrw 0.6.3
  0
SECTION
  2
HEADER
  9
$ACADVER
  1
AC1021
  9
$DWGCODEPAGE
  3
ANSI_1252
  9
$INSBASE
 10
0
 20
0
 30
0
  9
$EXTMIN
 10
10
 20
5.682842712474624
 30
0
  9
$EXTMAX
 10
181.0000000000003
 20
252
 30
0
  9
$LIMMIN
 10
0
 20
0
  9
$LIMMAX
 10
420
 20
297
  9
$ORTHOMODE
 70
    0
  9
$REGENMODE
 70
    1
  9
$FILLMODE
 70
    1
  9
$QTEXTMODE
 70
    0
  9
$MIRRTEXT
 70
    0
  9
$LTSCALE
 40
1
  9
$ATTMODE
 70
    0
  9
$TEXTSIZE
 40
2.5
  9
$TRACEWID
 40
15.68
  9
$TEXTSTYLE
  7
STANDARD
  9
$CLAYER
  8
Middle
  9
$CELTYPE
  6
BYLAYER
  9
$CECOLOR
 62
  256
  9
$CELTSCALE
 40
1
  9
$DISPSILH
 70
    0
  9
$DIMSCALE
 40
2.5
  9
$DIMASZ
 40
2.5
  9
$DIMEXO
 40
0.625
  9
$DIMDLI
 40
3.75
  9
$DIMRND
 40
0
  9
$DIMDLE
 40
0
  9
$DIMEXE
 40
1.25
  9
$DIMTP
 40
0
  9
$DIMTM
 40
0
  9
$DIMTXT
 40
2.5
  9
$DIMCEN
 40
2.5
  9
$DIMTSZ
 40
0
  9
$DIMTOL
 70
    0
  9
$DIMLIM
 70
    0
  9
$DIMTIH
 70
    0
  9
$DIMTOH
 70
    0
  9
$DIMSE1
 70
    0
  9
$DIMSE2
 70
    0
  9
$DIMTAD
 70
    1
  9
$DIMZIN
 70
    8
  9
$DIMBLK
  1

  9
$DIMASO
 70
    1
  9
$DIMSHO
 70
    1
  9
$DIMPOST
  1

  9
$DIMAPOST
  1

  9
$DIMALT
 70
    0
  9
$DIMALTD
 70
    3
  9
$DIMALTF
 40
0.03937
  9
$DIMLFAC
 40
1
  9
$DIMTOFL
 70
    1
  9
$DIMTVP
 40
0
  9
$DIMTIX
 70
    0
  9
$DIMSOXD
 70
    0
  9
$DIMSAH
 70
    0
  9
$DIMBLK1
  1

  9
$DIMBLK2
  1

  9
$DIMSTYLE
  2
STANDARD
  9
$DIMCLRD
 70
    0
  9
$DIMCLRE
 70
    0
  9
$DIMCLRT
 70
    0
  9
$DIMTFAC
 40
1
  9
$DIMGAP
 40
0.625
  9
$DIMJUST
 70
    0
  9
$DIMSD1
 70
    0
  9
$DIMSD2
 70
    0
  9
$DIMTOLJ
 70
    0
  9
$DIMTZIN
 70
    8
  9
$DIMALTZ
 70
    0
  9
$DIMALTTZ
 70
    0
  9
$DIMUPT
 70
    0
  9
$DIMDEC
 70
    2
  9
$DIMTDEC
 70
    2
  9
$DIMALTU
 70
    2
  9
$DIMALTTD
 70
    3
  9
$DIMTXSTY
  7
STANDARD
  9
$DIMAUNIT
 70
    0
  9
$DIMADEC
 70
    0
  9
$DIMALTRND
 40
0
  9
$DIMAZIN
 70
    0
  9
$DIMDSEP
 70
   44
  9
$DIMATFIT
 70
    3
  9
$DIMFRAC
 70
    0
  9
$DIMLDRBLK
  1
STANDARD
  9
$DIMLUNIT
 70
    2
  9
$DIMLWD
 70
   -2
  9
$DIMLWE
 70
   -2
  9
$DIMTMOVE
 70
    0
  9
$DIMFXL
 40
1
  9
$DIMFXLON
 70
    0
  9
$DIMJOGANG
 40
0.7854
  9
$DIMTFILL
 70
    0
  9
$DIMTFILLCLR
 70
    0
  9
$DIMARCSYM
 70
    0
  9
$DIMLTYPE
  6

  9
$DIMLTEX1
  6

  9
$DIMLTEX2
  6

  9
$LUNITS
 70
    2
  9
$LUPREC
 70
    4
  9
$SKETCHINC
 40
1
  9
$FILLETRAD
 40
0
  9
$AUNITS
 70
    0
  9
$AUPREC
 70
    2
  9
$MENU
  1
.
  9
$ELEVATION
 40
0
  9
$PELEVATION
 40
0
  9
$THICKNESS
 40
0
  9
$LIMCHECK
 70
    0
  9
$CHAMFERA
 40
0
  9
$CHAMFERB
 40
0
  9
$CHAMFERC
 40
0
  9
$CHAMFERD
 40
0
  9
$SKPOLY
 70
    0
  9
$USRTIMER
 70
    1
  9
$ANGBASE
 50
0
  9
$ANGDIR
 70
    0
  9
$PDMODE
 70
   34
  9
$PDSIZE
 40
0
  9
$PLINEWID
 40
0
  9
$SPLFRAME
 70
    0
  9
$SPLINETYPE
 70
    2
  9
$SPLINESEGS
 70
    8
  9
$HANDSEED
  5
20000
  9
$SURFTAB1
 70
    6
  9
$SURFTAB2
 70
    6
  9
$SURFTYPE
 70
    6
  9
$SURFU
 70
    6
  9
$SURFV
 70
    6
  9
$UCSBASE
  2

  9
$UCSNAME
  2

  9
$UCSORG
 10
0
 20
0
 30
0
  9
$UCSXDIR
 10
1
 20
0
 30
0
  9
$UCSYDIR
 10
0
 20
1
 30
0
  9
$UCSORTHOREF
  2

  9
$UCSORTHOVIEW
 70
    0
  9
$UCSORGTOP
 10
0
 20
0
 30
0
  9
$UCSORGBOTTOM
 10
0
 20
0
 30
0
  9
$UCSORGLEFT
 10
0
 20
0
 30
0
  9
$UCSORGRIGHT
 10
0
 20
0
 30
0
  9
$UCSORGFRONT
 10
0
 20
0
 30
0
  9
$UCSORGBACK
 10
0
 20
0
 30
0
  9
$PUCSBASE
  2

  9
$PUCSNAME
  2

  9
$PUCSORG
 10
0
 20
0
 30
0
  9
$PUCSXDIR
 10
1
 20
0
 30
0
  9
$PUCSYDIR
 10
0
 20
1
 30
0
  9
$PUCSORTHOREF
  2

  9
$PUCSORTHOVIEW
 70
    0
  9
$PUCSORGTOP
 10
0
 20
0
 30
0
  9
$PUCSORGBOTTOM
 10
0
 20
0
 30
0
  9
$PUCSORGLEFT
 10
0
 20
0
 30
0
  9
$PUCSORGRIGHT
 10
0
 20
0
 30
0
  9
$PUCSORGFRONT
 10
0
 20
0
 30
0
  9
$PUCSORGBACK
 10
0
 20
0
 30
0
  9
$USERI1
 70
    0
  9
$USERI2
 70
    0
  9
$USERI3
 70
    0
  9
$USERI4
 70
    0
  9
$USERI5
 70
    0
  9
$USERR1
 40
0
  9
$USERR2
 40
0
  9
$USERR3
 40
0
  9
$USERR4
 40
0
  9
$USERR5
 40
0
  9
$WORLDVIEW
 70
    1
  9
$SHADEDGE
 70
    3
  9
$SHADEDIF
 70
   70
  9
$TILEMODE
 70
    1
  9
$MAXACTVP
 70
   64
  9
$PINSBASE
 10
0
 20
0
 30
0
  9
$PLIMCHECK
 70
    0
  9
$PEXTMIN
 10
0
 20
0
 30
0
  9
$PEXTMAX
 10
0
 20
0
 30
0
  9
$GRIDMODE
 70
    1
  9
$SNAPSTYLE
 70
    0
  9
$PLIMMIN
 10
0
 20
0
  9
$PLIMMAX
 10
0.0185999628
 20
0.01394964952
  9
$UNITMODE
 70
    0
  9
$VISRETAIN
 70
    1
  9
$PLINEGEN
 70
    0
  9
$PSLTSCALE
 70
    1
  9
$TREEDEPTH
 70
 3020
  9
$CMLSTYLE
  2
Standard
  9
$CMLJUST
 70
    0
  9
$CMLSCALE
 40
20
  9
$PROXYGRAPHICS
 70
    1
  9
$MEASUREMENT
 70
    1
  9
$CELWEIGHT
370
   -1
  9
$ENDCAPS
280
    0
  9
$JOINSTYLE
280
    0
  9
$LWDISPLAY
290
    0
  9
$INSUNITS
 70
    4
  9
$HYPERLINKBASE
  1

  9
$STYLESHEET
  1

  9
$XEDIT
290
    1
  9
$CEPSNTYPE
380
    0
  9
$PSTYLEMODE
290
    1
  9
$EXTNAMES
290
    1
  9
$PSVPSCALE
 40
1
  9
$OLESTARTUP
290
    0
  9
$SORTENTS
280
  127
  9
$INDEXCTL
280
    0
  9
$HIDETEXT
280
    1
  9
$XCLIPFRAME
290
    0
  9
$HALOGAP
280
    0
  9
$OBSCOLOR
 70
  257
  9
$OBSLTYPE
280
    0
  9
$INTERSECTIONDISPLAY
280
    0
  9
$INTERSECTIONCOLOR
 70
  257
  9
$DIMASSOC
280
    1
  9
$PROJECTNAME
  1

  9
$CAMERADISPLAY
290
    0
  9
$LENSLENGTH
 40
50
  9
$CAMERAHEIGHT
 40
0
  9
$STEPSPERSEC
 40
2
  9
$STEPSIZE
 40
50
  9
$3DDWFPREC
 40
2
  9
$PSOLWIDTH
 40
5
  9
$PSOLHEIGHT
 40
80
  9
$LOFTANG1
 40
1.570796326794897
  9
$LOFTANG2
 40
1.570796326794897
  9
$LOFTMAG1
 40
0
  9
$LOFTMAG2
 40
0
  9
$LOFTPARAM
 70
    7
  9
$LOFTNORMALS
280
    1
  9
$LATITUDE
 40
1
  9
$LONGITUDE
 40
1
  9
$NORTHDIRECTION
 40
0
  9
$TIMEZONE
 70
-8000
  9
$LIGHTGLYPHDISPLAY
280
    1
  9
$TILEMODELIGHTSYNCH
280
    1
  9
$SOLIDHIST
280
    1
  9
$SHOWHIST
280
    1
  9
$DWFFRAME
280
    2
  9
$DGNFRAME
280
    0
  9
$REALWORLDSCALE
290
    1
  9
$INTERFERECOLOR
 62
    1
  9
$CSHADOW
280
    0
  9
$SHADOWPLANELOCATION
 40
0
  0
ENDSEC
  0
SECTION
  2
CLASSES
  0
ENDSEC
  0
SECTION
  2
TABLES
  0
TABLE
  2
VPORT
  5
8
330
0
100
AcDbSymbolTable
 70
    1
  0
VPORT
  5
31
330
2
100
AcDbSymbolTableRecord
100
AcDbViewportTableRecord
  2
*ACTIVE
 70
    0
 10
0
 20
0
 11
1
 21
1
 12
195.6419389891366
 22
162.0492481348955
 13
0
 23
0
 14
10
 24
10
 15
10
 25
10
 16
0
 26
0
 36
1
 17
0
 27
0
 37
0
 40
357.6911871240321
 41
1.678571428571429
 42
50
 43
0
 44
0
 50
0
 51
0
 71
    0
 72
  100
 73
    1
 74
    3
 75
    0
 76
    1
 77
    0
 78
    0
281
    0
 65
    1
110
0
120
0
130
0
111
1
121
0
131
0
112
0
122
1
132
0
 79
    0
146
0
348
10020
 60
    7
 61
    5
292
1
282
    1
141
0
142
0
 63
  250
421
3358443
  0
ENDTAB
  0
TABLE
  2
LTYPE
  5
5
330
0
100
AcDbSymbolTable
 70
    4
  0
LTYPE
  5
14
330
5
100
AcDbSymbolTableRecord
100
AcDbLinetypeTableRecord
  2
ByBlock
 70
    0
  3

 72
   65
 73
    0
 40
0
  0
LTYPE
  5
15
330
5
100
AcDbSymbolTableRecord
100
AcDbLinetypeTableRecord
  2
ByLayer
 70
    0
  3

 72
   65
 73
    0
 40
0
  0
LTYPE
  5
16
330
5
100
AcDbSymbolTableRecord
100
AcDbLinetypeTableRecord
  2
Continuous
 70
    0
  3
Solid line
 72
   65
 73
    0
 40
0
  0
LTYPE
  5
32
330
5
100
AcDbSymbolTableRecord
100
AcDbLinetypeTableRecord
  2
DOT
 70
    0
  3
Dot . . . . . . . . . . . . . . . . . . . . . .
 72
   65
 73
    2
 40
6.35
 49
0
 74
    0
 49
-6.35
 74
    0
  0
LTYPE
  5
33
330
5
100
AcDbSymbolTableRecord
100
AcDbLinetypeTableRecord
  2
DOTTINY
 70
    0
  3
Dot (.15x) .....................................
 72
   65
 73
    2
 40
0.9525
 49
0
 74
    0
 49
-0.9525
 74
    0
  0
LTYPE
  5
34
330
5
100
AcDbSymbolTableRecord
100
AcDbLinetypeTableRecord
  2
DOT2
 70
    0
  3
Dot (.5x) .....................................
 72
   65
 73
    2
 40
3.175
 49
0
 74
    0
 49
-3.175
 74
    0
  0
LTYPE
  5
35
330
5
100
AcDbSymbolTableRecord
100
AcDbLinetypeTableRecord
  2
DOTX2
 70
    0
  3
Dot (2x) .  .  .  .  .  .  .  .  .  .  .  .  .
 72
   65
 73
    2
 40
12.7
 49
0
 74
    0
 49
-12.7
 74
    0
  0
LTYPE
  5
36
330
5
100
AcDbSymbolTableRecord
100
AcDbLinetypeTableRecord
  2
DASHED
 70
    0
  3
Dashed _ _ _ _ _ _ _ _ _ _ _ _ _ _ _ _ _
 72
   65
 73
    2
 40
19.05
 49
12.7
 74
    0
 49
-6.35
 74
    0
  0
LTYPE
  5
37
330
5
100
AcDbSymbolTableRecord
100
AcDbLinetypeTableRecord
  2
DASHEDTINY
 70
    0
  3
Dashed (.15x) _ _ _ _ _ _ _ _ _ _ _ _ _ _ _ _ _
 72
   65
 73
    2
 40
2.8575
 49
1.905
 74
    0
 49
-0.9525
 74
    0
  0
LTYPE
  5
38
330
5
100
AcDbSymbolTableRecord
100
AcDbLinetypeTableRecord
  2
DASHED2
 70
    0
  3
Dashed (.5x) _ _ _ _ _ _ _ _ _ _ _ _ _ _ _ _ _
 72
   65
 73
    2
 40
9.524999999999999
 49
6.35
 74
    0
 49
-3.175
 74
    0
  0
LTYPE
  5
39
330
5
100
AcDbSymbolTableRecord
100
AcDbLinetypeTableRecord
  2
DASHEDX2
 70
    0
  3
Dashed (2x) ____  ____  ____  ____  ____  ___
 72
   65
 73
    2
 40
38.09999999999999
 49
25.4
 74
    0
 49
-12.7
 74
    0
  0
LTYPE
  5
3A
330
5
100
AcDbSymbolTableRecord
100
AcDbLinetypeTableRecord
  2
DASHDOT
 70
    0
  3
Dash dot __ . __ . __ . __ . __ . __ . __ . __
 72
   65
 73
    4
 40
25.4
 49
12.7
 74
    0
 49
-6.35
 74
    0
 49
0
 74
    0
 49
-6.35
 74
    0
  0
LTYPE
  5
3B
330
5
100
AcDbSymbolTableRecord
100
AcDbLinetypeTableRecord
  2
DASHDOTTINY
 70
    0
  3
Dash dot (.15x) _._._._._._._._._._._._._._._.
 72
   65
 73
    4
 40
3.81
 49
1.905
 74
    0
 49
-0.9525
 74
    0
 49
0
 74
    0
 49
-0.9525
 74
    0
  0
LTYPE
  5
3C
330
5
100
AcDbSymbolTableRecord
100
AcDbLinetypeTableRecord
  2
DASHDOT2
 70
    0
  3
Dash dot (.5x) _._._._._._._._._._._._._._._.
 72
   65
 73
    4
 40
12.7
 49
6.35
 74
    0
 49
-3.175
 74
    0
 49
0
 74
    0
 49
-3.175
 74
    0
  0
LTYPE
  5
3D
330
5
100
AcDbSymbolTableRecord
100
AcDbLinetypeTableRecord
  2
DASHDOTX2
 70
    0
  3
Dash dot (2x) ____  .  ____  .  ____  .  ___
 72
   65
 73
    4
 40
50.8
 49
25.4
 74
    0
 49
-12.7
 74
    0
 49
0
 74
    0
 49
-12.7
 74
    0
  0
LTYPE
  5
3E
330
5
100
AcDbSymbolTableRecord
100
AcDbLinetypeTableRecord
  2
DIVIDE
 70
    0
  3
Divide ____ . . ____ . . ____ . . ____ . . ____
 72
   65
 73
    6
 40
31.75
 49
12.7
 74
    0
 49
-6.35
 74
    0
 49
0
 74
    0
 49
-6.35
 74
    0
 49
0
 74
    0
 49
-6.35
 74
    0
  0
LTYPE
  5
3F
330
5
100
AcDbSymbolTableRecord
100
AcDbLinetypeTableRecord
  2
DIVIDETINY
 70
    0
  3
Divide (.15x) __..__..__..__..__..__..__..__.._
 72
   65
 73
    6
 40
4.7625
 49
1.905
 74
    0
 49
-0.9525
 74
    0
 49
0
 74
    0
 49
-0.9525
 74
    0
 49
0
 74
    0
 49
-0.9525
 74
    0
  0
LTYPE
  5
40
330
5
100
AcDbSymbolTableRecord
100
AcDbLinetypeTableRecord
  2
DIVIDE2
 70
    0
  3
Divide (.5x) __..__..__..__..__..__..__..__.._
 72
   65
 73
    6
 40
15.875
 49
6.35
 74
    0
 49
-3.175
 74
    0
 49
0
 74
    0
 49
-3.175
 74
    0
 49
0
 74
    0
 49
-3.175
 74
    0
  0
LTYPE
  5
41
330
5
100
AcDbSymbolTableRecord
100
AcDbLinetypeTableRecord
  2
DIVIDEX2
 70
    0
  3
Divide (2x) ________  .  .  ________  .  .  _
 72
   65
 73
    6
 40
63.5
 49
25.4
 74
    0
 49
-12.7
 74
    0
 49
0
 74
    0
 49
-12.7
 74
    0
 49
0
 74
    0
 49
-12.7
 74
    0
  0
LTYPE
  5
42
330
5
100
AcDbSymbolTableRecord
100
AcDbLinetypeTableRecord
  2
BORDER
 70
    0
  3
Border __ __ . __ __ . __ __ . __ __ . __ __ .
 72
   65
 73
    6
 40
44.45
 49
12.7
 74
    0
 49
-6.35
 74
    0
 49
12.7
 74
    0
 49
-6.35
 74
    0
 49
0
 74
    0
 49
-6.35
 74
    0
  0
LTYPE
  5
43
330
5
100
AcDbSymbolTableRecord
100
AcDbLinetypeTableRecord
  2
BORDERTINY
 70
    0
  3
Border (.15x) __.__.__.__.__.__.__.__.__.__.__.
 72
   65
 73
    6
 40
6.6675
 49
1.905
 74
    0
 49
-0.9525
 74
    0
 49
1.905
 74
    0
 49
-0.9525
 74
    0
 49
0
 74
    0
 49
-0.9525
 74
    0
  0
LTYPE
  5
44
330
5
100
AcDbSymbolTableRecord
100
AcDbLinetypeTableRecord
  2
BORDER2
 70
    0
  3
Border (.5x) __.__.__.__.__.__.__.__.__.__.__.
 72
   65
 73
    6
 40
22.225
 49
6.35
 74
    0
 49
-3.175
 74
    0
 49
6.35
 74
    0
 49
-3.175
 74
    0
 49
0
 74
    0
 49
-3.175
 74
    0
  0
LTYPE
  5
45
330
5
100
AcDbSymbolTableRecord
100
AcDbLinetypeTableRecord
  2
BORDERX2
 70
    0
  3
Border (2x) ____  ____  .  ____  ____  .  ___
 72
   65
 73
    6
 40
88.89999999999999
 49
25.4
 74
    0
 49
-12.7
 74
    0
 49
25.4
 74
    0
 49
-12.7
 74
    0
 49
0
 74
    0
 49
-12.7
 74
    0
  0
LTYPE
  5
46
330
5
100
AcDbSymbolTableRecord
100
AcDbLinetypeTableRecord
  2
CENTER
 70
    0
  3
Center ____ _ ____ _ ____ _ ____ _ ____ _ ____
 72
   65
 73
    4
 40
50.8
 49
31.75
 74
    0
 49
-6.35
 74
    0
 49
6.35
 74
    0
 49
-6.35
 74
    0
  0
LTYPE
  5
47
330
5
100
AcDbSymbolTableRecord
100
AcDbLinetypeTableRecord
  2
CENTERTINY
 70
    0
  3
Center (.15x) ___ _ ___ _ ___ _ ___ _ ___ _ ___
 72
   65
 73
    4
 40
7.619999999999999
 49
4.7625
 74
    0
 49
-0.9525
 74
    0
 49
0.9525
 74
    0
 49
-0.9525
 74
    0
  0
LTYPE
  5
48
330
5
100
AcDbSymbolTableRecord
100
AcDbLinetypeTableRecord
  2
CENTER2
 70
    0
  3
Center (.5x) ___ _ ___ _ ___ _ ___ _ ___ _ ___
 72
   65
 73
    4
 40
28.575
 49
19.05
 74
    0
 49
-3.175
 74
    0
 49
3.175
 74
    0
 49
-3.175
 74
    0
  0
LTYPE
  5
49
330
5
100
AcDbSymbolTableRecord
100
AcDbLinetypeTableRecord
  2
CENTERX2
 70
    0
  3
Center (2x) ________  __  ________  __  _____
 72
   65
 73
    4
 40
101.6
 49
63.5
 74
    0
 49
-12.7
 74
    0
 49
12.7
 74
    0
 49
-12.7
 74
    0
  0
ENDTAB
  0
TABLE
  2
LAYER
  5
2
330
0
100
AcDbSymbolTable
 70
    1
  0
LAYER
  5
10
330
2
100
AcDbSymbolTableRecord
100
AcDbLayerTableRecord
  2
0
 70
    0
 62
    7
  6
CONTINUOUS
370
    0
390
F
  0
LAYER
  5
4A
330
2
100
AcDbSymbolTableRecord
100
AcDbLayerTableRecord
  2
Closer
 70
    0
 62
    7
  6
CONTINUOUS
370
    0
390
F
  0
LAYER
  5
4B
330
2
100
AcDbSymbolTableRecord
100
AcDbLayerTableRecord
  2
Holder
 70
    0
 62
    7
  6
CONTINUOUS
370
    0
390
F
  0
LAYER
  5
4C
330
2
100
AcDbSymbolTableRecord
100
AcDbLayerTableRecord
  2
Lid_Back
 70
    0
 62
    7
  6
CONTINUOUS
370
    0
390
F
  0
LAYER
  5
4D
330
2
100
AcDbSymbolTableRecord
100
AcDbLayerTableRecord
  2
Lid_Front
 70
    0
 62
    7
  6
CONTINUOUS
370
    0
390
F
  0
LAYER
  5
4E
330
2
100
AcDbSymbolTableRecord
100
AcDbLayerTableRecord
  2
Middle
 70
    0
 62
    7
  6
CONTINUOUS
370
    0
390
F
  0
ENDTAB
  0
TABLE
  2
STYLE
  5
3
330
0
100
AcDbSymbolTable
 70
    3
  0
STYLE
  5
4F
330
2
100
AcDbSymbolTableRecord
100
AcDbTextStyleTableRecord
  2
Standard
 70
    0
 40
0
 41
1
 50
0
 71
    0
 42
1
  3
txt
  4

  0
ENDTAB
  0
TABLE
  2
VIEW
  5
6
330
0
100
AcDbSymbolTable
 70
    0
  0
ENDTAB
  0
TABLE
  2
UCS
  5
7
330
0
100
AcDbSymbolTable
 70
    0
  0
ENDTAB
  0
TABLE
  2
APPID
  5
9
330
0
100
AcDbSymbolTable
 70
    1
  0
APPID
  5
12
330
9
100
AcDbSymbolTableRecord
100
AcDbRegAppTableRecord
  2
ACAD
 70
    0
  0
APPID
  5
50
330
9
100
AcDbSymbolTableRecord
100
AcDbRegAppTableRecord
  2
LibreCad
 70
    0
  0
ENDTAB
  0
TABLE
  2
DIMSTYLE
  5
A
330
0
100
AcDbSymbolTable
 70
    1
100
AcDbDimStyleTable
 71
    1
  0
DIMSTYLE
105
51
330
A
100
AcDbSymbolTableRecord
100
AcDbDimStyleTableRecord
  2
Standard
 70
    0
 40
2.5
 41
2.5
 42
0.625
 43
0.38
 44
1.25
 45
0
 46
0
 47
0
 48
0
 49
1
140
2.5
141
0.09
142
0
143
25.4
144
1
145
0
146
1
147
0.625
148
0
 71
    0
 72
    0
 73
    0
 74
    1
 75
    0
 76
    0
 77
    0
 78
    8
 79
    0
170
    0
171
    2
172
    0
173
    0
174
    0
175
    0
176
    0
177
    0
178
    0
179
    0
271
    2
272
    4
273
    2
274
    2
275
    0
276
    0
277
    2
278
   44
279
    0
280
    0
281
    0
282
    0
283
    1
284
    0
285
    0
286
    0
288
    0
289
    3
340
STANDARD
341

371
   -2
372
   -2
  0
ENDTAB
  0
TABLE
  2
BLOCK_RECORD
  5
1
330
0
100
AcDbSymbolTable
 70
    2
  0
BLOCK_RECORD
  5
1F
330
1
100
AcDbSymbolTableRecord
100
AcDbBlockTableRecord
  2
*Model_Space
 70
    0
280
    1
281
    0
  0
BLOCK_RECORD
  5
1E
330
1
100
AcDbSymbolTableRecord
100
AcDbBlockTableRecord
  2
*Paper_Space
 70
    0
280
    1
281
    0
  0
ENDTAB
  0
ENDSEC
  0
SECTION
  2
BLOCKS
  0
BLOCK
  5
20
330
1F
100
AcDbEntity
  8
0
100
AcDbBlockBegin
  2
*Model_Space
 70
    0
 10
0
 20
0
 30
0
  3
*Model_Space
  1

  0
ENDBLK
  5
21
330
1F
100
AcDbEntity
  8
0
100
AcDbBlockEnd
  0
BLOCK
  5
1C
330
1B
100
AcDbEntity
  8
0
100
AcDbBlockBegin
  2
*Paper_Space
 70
    0
 10
0
 20
0
 30
0
  3
*Paper_Space
  1

  0
ENDBLK
  5
1D
330
1F
100
AcDbEntity
  8
0
100
AcDbBlockEnd
  0
ENDSEC
  0
SECTION
  2
ENTITIES
  0
LINE
  5
52
100
AcDbEntity
  8
Lid_Back
  6
ByLayer
 62
  256
370
   -1
100
AcDbLine
 10
86.59999999999999
 20
12.68284271247462
 11
86.59999999999999
 21
15.68284271247462
  0
LINE
  5
53
100
AcDbEntity
  8
Lid_Back
  6
ByLayer
 62
  256
370
   -1
100
AcDbLine
 10
91.8
 20
12.68284271247462
 11
86.59999999999999
 21
12.68284271247462
  0
LINE
  5
54
100
AcDbEntity
  8
Lid_Back
  6
ByLayer
 62
  256
370
   -1
100
AcDbLine
 10
91.8
 20
15.68284271247462
 11
91.8
 21
22.68284271247462
  0
LINE
  5
55
100
AcDbEntity
  8
Lid_Back
  6
ByLayer
 62
  256
370
   -1
100
AcDbLine
 10
91.8
 20
10.59999999999999
 11
91.8
 21
12.68284271247462
  0
LINE
  5
56
100
AcDbEntity
  8
Lid_Back
  6
ByLayer
 62
  256
370
   -1
100
AcDbLine
 10
86.59999999999999
 20
15.68284271247462
 11
91.8
 21
15.68284271247462
  0
LINE
  5
57
100
AcDbEntity
  8
Lid_Back
  6
ByLayer
 62
  256
370
   -1
100
AcDbLine
 10
148.6
 20
12.68284271247462
 11
148.6
 21
15.68284271247462
  0
LINE
  5
58
100
AcDbEntity
  8
Lid_Back
  6
ByLayer
 62
  256
370
   -1
100
AcDbLine
 10
139.4
 20
12.68284271247462
 11
148.6
 21
12.68284271247462
  0
LINE
  5
59
100
AcDbEntity
  8
Lid_Back
  6
ByLayer
 62
  256
370
   -1
100
AcDbLine
 10
139.4
 20
15.68284271247462
 11
148.6
 21
15.68284271247462
  0
LINE
  5
5A
100
AcDbEntity
  8
Lid_Back
  6
ByLayer
 62
  256
370
   -1
100
AcDbLine
 10
139.4
 20
10.59999999999999
 11
139.4
 21
12.68284271247462
  0
LINE
  5
5B
100
AcDbEntity
  8
Lid_Back
  6
ByLayer
 62
  256
370
   -1
100
AcDbLine
 10
139.4
 20
15.68284271247462
 11
139.4
 21
22.68284271247462
  0
LINE
  5
5C
100
AcDbEntity
  8
Lid_Back
  6
ByLayer
 62
  256
370
   -1
100
AcDbLine
 10
91.8
 20
22.68284271247462
 11
139.4
 21
22.68284271247462
  0
LINE
  5
5D
100
AcDbEntity
  8
Lid_Back
  6
ByLayer
 62
  256
370
   -1
100
AcDbLine
 10
140
 20
10
 11
139.4
 21
10.59999999999999
  0
LINE
  5
5E
100
AcDbEntity
  8
Lid_Back
  6
ByLayer
 62
  256
370
   -1
100
AcDbLine
 10
139.4
 20
7.76568542494924
 11
140
 21
8.365685424949234
  0
LINE
  5
5F
100
AcDbEntity
  8
Lid_Back
  6
ByLayer
 62
  256
370
   -1
100
AcDbLine
 10
140
 20
8.365685424949234
 11
140
 21
10
  0
LINE
  5
60
100
AcDbEntity
  8
Lid_Back
  6
ByLayer
 62
  256
370
   -1
100
AcDbLine
 10
91.8
 20
7.765685424949254
 11
91.19999999999999
 21
8.365685424949262
  0
LINE
  5
61
100
AcDbEntity
  8
Lid_Back
  6
ByLayer
 62
  256
370
   -1
100
AcDbLine
 10
91.19999999999999
 20
8.365685424949262
 11
91.2
 21
10
  0
LINE
  5
62
100
AcDbEntity
  8
Lid_Back
  6
ByLayer
 62
  256
370
   -1
100
AcDbLine
 10
91.2
 20
10
 11
91.8
 21
10.59999999999999
  0
LINE
  5
63
100
AcDbEntity
  8
Lid_Back
  6
ByLayer
 62
  256
370
   -1
100
AcDbLine
 10
139.4
 20
7.76568542494924
 11
138.9
 21
5.682842712474624
  0
LINE
  5
64
100
AcDbEntity
  8
Lid_Back
  6
ByLayer
 62
  256
370
   -1
100
AcDbLine
 10
92.3
 20
5.682842712474624
 11
138.9
 21
5.682842712474624
  0
LINE
  5
65
100
AcDbEntity
  8
Lid_Back
  6
ByLayer
 62
  256
370
   -1
100
AcDbLine
 10
91.8
 20
7.76568542494924
 11
92.3
 21
5.682842712474624
  0
LINE
  5
66
100
AcDbEntity
  8
Closer
  6
ByLayer
 62
  256
370
   -1
100
AcDbLine
 10
166.0000000000003
 20
17.0000000000003
 11
166.0000000000003
 21
21.00000000000007
  0
LINE
  5
67
100
AcDbEntity
  8
Closer
  6
ByLayer
 62
  256
370
   -1
100
AcDbLine
 10
169.0000000000003
 20
17.00000000000009
 11
169.0000000000003
 21
21.00000000000031
  0
ARC
  5
68
100
AcDbEntity
  8
Closer
  6
ByLayer
 62
  256
370
   -1
100
AcDbCircle
 10
167.5000000000003
 20
19.00000000000008
 40
2.5
100
AcDbArc
 50
233.1301023541561
 51
306.8698976458379
  0
ARC
  5
69
100
AcDbEntity
  8
Closer
  6
ByLayer
 62
  256
370
   -1
100
AcDbCircle
 10
167.5000000000003
 20
19.00000000000008
 40
2.5
100
AcDbArc
 50
53.1301023541626
 51
126.869897645844
  0
ARC
  5
6A
100
AcDbEntity
  8
Closer
  6
ByLayer
 62
  256
370
   -1
100
AcDbCircle
 10
167.5000000000003
 20
19.00000000000008
 40
9.340770846134705
100
AcDbArc
 50
254.4758890032473
 51
285.5241109967526
  0
LINE
  5
6B
100
AcDbEntity
  8
Closer
  6
ByLayer
 62
  256
370
   -1
100
AcDbLine
 10
165.0000000000003
 20
16.55051025721663
 11
165.0000000000003
 21
10.00000000000008
  0
LINE
  5
6C
100
AcDbEntity
  8
Closer
  6
ByLayer
 62
  256
370
   -1
100
AcDbLine
 10
170.0000000000003
 20
10.00000000000008
 11
170.0000000000003
 21
16.5505102572169
  0
ARC
  5
6D
100
AcDbEntity
  8
Closer
  6
ByLayer
 62
  256
370
   -1
100
AcDbCircle
 10
167.5000000000003
 20
19.00000000000008
 40
3.5
100
AcDbArc
 50
315.584691402807
 51
584.415308597194
  0
LINE
  5
6E
100
AcDbEntity
  8
Closer
  6
ByLayer
 62
  256
370
   -1
100
AcDbLine
 10
176.0000000000003
 20
17.0000000000003
 11
176.0000000000003
 21
21.00000000000007
  0
LINE
  5
6F
100
AcDbEntity
  8
Closer
  6
ByLayer
 62
  256
370
   -1
100
AcDbLine
 10
179.0000000000003
 20
17.00000000000009
 11
179.0000000000003
 21
21.00000000000031
  0
ARC
  5
70
100
AcDbEntity
  8
Closer
  6
ByLayer
 62
  256
370
   -1
100
AcDbCircle
 10
177.5000000000003
 20
19.00000000000008
 40
2.5
100
AcDbArc
 50
233.1301023541561
 51
306.8698976458379
  0
ARC
  5
71
100
AcDbEntity
  8
Closer
  6
ByLayer
 62
  256
370
   -1
100
AcDbCircle
 10
177.5000000000003
 20
19.00000000000008
 40
2.5
100
AcDbArc
 50
53.1301023541626
 51
126.869897645844
  0
ARC
  5
72
100
AcDbEntity
  8
Closer
  6
ByLayer
 62
  256
370
   -1
100
AcDbCircle
 10
177.5000000000003
 20
19.00000000000008
 40
9.340770846134705
100
AcDbArc
 50
254.4758890032473
 51
285.5241109967526
  0
LINE
  5
73
100
AcDbEntity
  8
Closer
  6
ByLayer
 62
  256
370
   -1
100
AcDbLine
 10
175.0000000000003
 20
16.55051025721663
 11
175.0000000000003
 21
10.00000000000008
  0
LINE
  5
74
100
AcDbEntity
  8
Closer
  6
ByLayer
 62
  256
370
   -1
100
AcDbLine
 10
180.0000000000003
 20
10.00000000000008
 11
180.0000000000003
 21
16.5505102572169
  0
ARC
  5
75
100
AcDbEntity
  8
Closer
  6
ByLayer
 62
  256
370
   -1
100
AcDbCircle
 10
177.5000000000003
 20
19.00000000000008
 40
3.5
100
AcDbArc
 50
315.584691402807
 51
584.415308597194
  0
LINE
  5
76
100
AcDbEntity
  8
Lid_Front
  6
ByLayer
 62
  256
370
   -1
100
AcDbLine
 10
90
 20
40
 11
90
 21
43
  0
LINE
  5
77
100
AcDbEntity
  8
Lid_Front
  6
ByLayer
 62
  256
370
   -1
100
AcDbLine
 10
95.2
 20
40
 11
90
 21
40
  0
LINE
  5
78
100
AcDbEntity
  8
Lid_Front
  6
ByLayer
 62
  256
370
   -1
100
AcDbLine
 10
95.2
 20
37.91715728752537
 11
95.2
 21
40
  0
LINE
  5
79
100
AcDbEntity
  8
Lid_Front
  6
ByLayer
 62
  256
370
   -1
100
AcDbLine
 10
95.2
 20
35
 11
95.2
 21
35.08284271247463
  0
LINE
  5
7A
100
AcDbEntity
  8
Lid_Front
  6
ByLayer
 62
  256
370
   -1
100
AcDbLine
 10
152
 20
40
 11
152
 21
43
  0
LINE
  5
7B
100
AcDbEntity
  8
Lid_Front
  6
ByLayer
 62
  256
370
   -1
100
AcDbLine
 10
142.8
 20
40
 11
152
 21
40
  0
LINE
  5
7C
100
AcDbEntity
  8
Lid_Front
  6
ByLayer
 62
  256
370
   -1
100
AcDbLine
 10
142.8
 20
37.91715728752537
 11
142.8
 21
40
  0
LINE
  5
7D
100
AcDbEntity
  8
Lid_Front
  6
ByLayer
 62
  256
370
   -1
100
AcDbLine
 10
142.8
 20
35
 11
142.8
 21
35.08284271247462
  0
LINE
  5
7E
100
AcDbEntity
  8
Lid_Front
  6
ByLayer
 62
  256
370
   -1
100
AcDbLine
 10
90
 20
43
 11
152
 21
43
  0
LINE
  5
7F
100
AcDbEntity
  8
Lid_Front
  6
ByLayer
 62
  256
370
   -1
100
AcDbLine
 10
95.2
 20
35
 11
142.8
 21
35
  0
LINE
  5
80
100
AcDbEntity
  8
Lid_Front
  6
ByLayer
 62
  256
370
   -1
100
AcDbLine
 10
94.60000000000001
 20
37.31715728752536
 11
95.2
 21
37.91715728752537
  0
LINE
  5
81
100
AcDbEntity
  8
Lid_Front
  6
ByLayer
 62
  256
370
   -1
100
AcDbLine
 10
94.59999999999999
 20
35.68284271247464
 11
94.60000000000001
 21
37.31715728752536
  0
LINE
  5
82
100
AcDbEntity
  8
Lid_Front
  6
ByLayer
 62
  256
370
   -1
100
AcDbLine
 10
95.2
 20
35.08284271247463
 11
94.59999999999999
 21
35.68284271247464
  0
LINE
  5
83
100
AcDbEntity
  8
Lid_Front
  6
ByLayer
 62
  256
370
   -1
100
AcDbLine
 10
143.4
 20
37.31715728752538
 11
142.8
 21
37.91715728752537
  0
LINE
  5
84
100
AcDbEntity
  8
Lid_Front
  6
ByLayer
 62
  256
370
   -1
100
AcDbLine
 10
142.8
 20
35.08284271247462
 11
143.4
 21
35.68284271247461
  0
LINE
  5
85
100
AcDbEntity
  8
Lid_Front
  6
ByLayer
 62
  256
370
   -1
100
AcDbLine
 10
143.4
 20
35.68284271247461
 11
143.4
 21
37.31715728752538
  0
LINE
  5
86
100
AcDbEntity
  8
Middle
  6
ByLayer
 62
  256
370
   -1
100
AcDbLine
 10
30
 20
110
 11
26
 21
106
  0
LINE
  5
87
100
AcDbEntity
  8
Middle
  6
ByLayer
 62
  256
370
   -1
100
AcDbLine
 10
26
 20
106
 11
15
 21
106
  0
LINE
  5
88
100
AcDbEntity
  8
Middle
  6
ByLayer
 62
  256
370
   -1
100
AcDbLine
 10
15
 20
180
 11
10
 21
180
  0
LINE
  5
89
100
AcDbEntity
  8
Middle
  6
ByLayer
 62
  256
370
   -1
100
AcDbLine
 10
52
 20
110
 11
30
 21
110
  0
LINE
  5
8A
100
AcDbEntity
  8
Middle
  6
ByLayer
 62
  256
370
   -1
100
AcDbLine
 10
52
 20
109.0171542277445
 11
51.47091382684197
 21
107.8655680032231
  0
LINE
  5
8B
100
AcDbEntity
  8
Middle
  6
ByLayer
 62
  256
370
   -1
100
AcDbLine
 10
52
 20
109.0171542277445
 11
52
 21
110
  0
LINE
  5
8C
100
AcDbEntity
  8
Middle
  6
ByLayer
 62
  256
370
   -1
100
AcDbLine
 10
55
 20
130
 11
22
 21
119
  0
ARC
  5
8D
100
AcDbEntity
  8
Middle
  6
ByLayer
 62
  256
370
   -1
100
AcDbCircle
 10
57.50000000000001
 20
115
 40
9.340770846134705
100
AcDbArc
 50
229.7998890032457
 51
233.9269316190484
  0
LINE
  5
8E
100
AcDbEntity
  8
Middle
  6
ByLayer
 62
  256
370
   -1
100
AcDbLine
 10
52
 20
106
 11
52
 21
107.4501655647292
  0
LINE
  5
8F
100
AcDbEntity
  8
Middle
  6
ByLayer
 62
  256
370
   -1
100
AcDbLine
 10
15
 20
106
 11
15
 21
175
  0
LINE
  5
90
100
AcDbEntity
  8
Middle
  6
ByLayer
 62
  256
370
   -1
100
AcDbLine
 10
15
 20
178
 11
15
 21
180
  0
LINE
  5
91
100
AcDbEntity
  8
Middle
  6
ByLayer
 62
  256
370
   -1
100
AcDbLine
 10
52
 20
98
 11
52
 21
106
  0
CIRCLE
  5
92
100
AcDbEntity
  8
Middle
  6
ByLayer
 62
  256
370
   -1
100
AcDbCircle
 10
62.90017796810004
 20
133.4685700018395
 40
1.6
  0
CIRCLE
  5
93
100
AcDbEntity
  8
Middle
  6
ByLayer
 62
  256
370
   -1
100
AcDbCircle
 10
39.99995215857586
 20
107.000104653943
 40
1.6
  0
CIRCLE
  5
94
100
AcDbEntity
  8
Middle
  6
ByLayer
 62
  256
370
   -1
100
AcDbCircle
 10
12.5
 20
146
 40
1.6
  0
CIRCLE
  5
95
100
AcDbEntity
  8
Middle
  6
ByLayer
 62
  256
370
   -1
100
AcDbCircle
 10
31
 20
118
 40
1.6
  0
LINE
  5
96
100
AcDbEntity
  8
Middle
  6
ByLayer
 62
  256
370
   -1
100
AcDbLine
 10
25
 20
115
 11
53.50000000000001
 21
115
  0
LINE
  5
97
100
AcDbEntity
  8
Middle
  6
ByLayer
 62
  256
370
   -1
100
AcDbLine
 10
10
 20
98
 11
52
 21
98
  0
LINE
  5
98
100
AcDbEntity
  8
Middle
  6
ByLayer
 62
  256
370
   -1
100
AcDbLine
 10
10
 20
180
 11
10
 21
98
  0
LINE
  5
99
100
AcDbEntity
  8
Middle
  6
ByLayer
 62
  256
370
   -1
100
AcDbLine
 10
68
 20
141
 11
68
 21
180
  0
LINE
  5
9A
100
AcDbEntity
  8
Middle
  6
ByLayer
 62
  256
370
   -1
100
AcDbLine
 10
63
 20
175
 11
63
 21
141
  0
LINE
  5
9B
100
AcDbEntity
  8
Middle
  6
ByLayer
 62
  256
370
   -1
100
AcDbLine
 10
55
 20
130
 11
63
 21
141
  0
LINE
  5
9C
100
AcDbEntity
  8
Middle
  6
ByLayer
 62
  256
370
   -1
100
AcDbLine
 10
68
 20
141
 11
68
 21
115
  0
ARC
  5
9D
100
AcDbEntity
  8
Middle
  6
ByLayer
 62
  256
370
   -1
100
AcDbCircle
 10
57.50000000000001
 20
115
 40
4
100
AcDbArc
 50
359.9999999999998
 51
179.9999999999999
  0
LINE
  5
9E
100
AcDbEntity
  8
Middle
  6
ByLayer
 62
  256
370
   -1
100
AcDbLine
 10
68
 20
115
 11
61.50000000000004
 21
115
  0
LINE
  5
9F
100
AcDbEntity
  8
Middle
  6
ByLayer
 62
  256
370
   -1
100
AcDbLine
 10
22
 20
113
 11
22
 21
119
  0
LINE
  5
A0
100
AcDbEntity
  8
Middle
  6
ByLayer
 62
  256
370
   -1
100
AcDbLine
 10
24.33333333333333
 20
113
 11
25
 21
115
  0
LINE
  5
A1
100
AcDbEntity
  8
Middle
  6
ByLayer
 62
  256
370
   -1
100
AcDbLine
 10
22
 20
113
 11
24.33333333333333
 21
113
  0
LINE
  5
A2
100
AcDbEntity
  8
Middle
  6
ByLayer
 62
  256
370
   -1
100
AcDbLine
 10
14.40000000000001
 20
177.4
 11
15
 21
178
  0
LINE
  5
A3
100
AcDbEntity
  8
Middle
  6
ByLayer
 62
  256
370
   -1
100
AcDbLine
 10
14.4
 20
175.6
 11
14.40000000000001
 21
177.4
  0
LINE
  5
A4
100
AcDbEntity
  8
Middle
  6
ByLayer
 62
  256
370
   -1
100
AcDbLine
 10
15
 20
175
 11
14.4
 21
175.6
  0
LINE
  5
A5
100
AcDbEntity
  8
Middle
  6
ByLayer
 62
  256
370
   -1
100
AcDbLine
 10
63
 20
175
 11
63.59999999999999
 21
175.6
  0
LINE
  5
A6
100
AcDbEntity
  8
Middle
  6
ByLayer
 62
  256
370
   -1
100
AcDbLine
 10
63.59999999999999
 20
175.6
 11
63.60000000000001
 21
177.4
  0
LINE
  5
A7
100
AcDbEntity
  8
Middle
  6
ByLayer
 62
  256
370
   -1
100
AcDbLine
 10
63.60000000000001
 20
177.4
 11
63
 21
178
  0
LINE
  5
A8
100
AcDbEntity
  8
Middle
  6
ByLayer
 62
  256
370
   -1
100
AcDbLine
 10
68
 20
180
 11
63.49999999999999
 21
180
  0
LINE
  5
A9
100
AcDbEntity
  8
Middle
  6
ByLayer
 62
  256
370
   -1
100
AcDbLine
 10
63
 20
178.5
 11
63
 21
178
  0
LINE
  5
AA
100
AcDbEntity
  8
Middle
  6
ByLayer
 62
  256
370
   -1
100
AcDbLine
 10
63
 20
178.5
 11
63.49999999999999
 21
180
  0
LINE
  5
AB
100
AcDbEntity
  8
Middle
  6
ByLayer
 62
  256
370
   -1
100
AcDbLine
 10
30
 20
22
 11
26
 21
18
  0
LINE
  5
AC
100
AcDbEntity
  8
Middle
  6
ByLayer
 62
  256
370
   -1
100
AcDbLine
 10
26
 20
18
 11
15
 21
18
  0
LINE
  5
AD
100
AcDbEntity
  8
Middle
  6
ByLayer
 62
  256
370
   -1
100
AcDbLine
 10
15
 20
92
 11
10
 21
92
  0
LINE
  5
AE
100
AcDbEntity
  8
Middle
  6
ByLayer
 62
  256
370
   -1
100
AcDbLine
 10
52
 20
22
 11
30
 21
22
  0
LINE
  5
AF
100
AcDbEntity
  8
Middle
  6
ByLayer
 62
  256
370
   -1
100
AcDbLine
 10
52
 20
21.01715422774446
 11
51.47091382684197
 21
19.86556800322305
  0
LINE
  5
B0
100
AcDbEntity
  8
Middle
  6
ByLayer
 62
  256
370
   -1
100
AcDbLine
 10
52
 20
21.01715422774446
 11
52
 21
22
  0
LINE
  5
B1
100
AcDbEntity
  8
Middle
  6
ByLayer
 62
  256
370
   -1
100
AcDbLine
 10
55
 20
42
 11
22
 21
31
  0
ARC
  5
B2
100
AcDbEntity
  8
Middle
  6
ByLayer
 62
  256
370
   -1
100
AcDbCircle
 10
57.50000000000001
 20
27
 40
9.340770846134705
100
AcDbArc
 50
229.7998890032457
 51
233.9269316190484
  0
LINE
  5
B3
100
AcDbEntity
  8
Middle
  6
ByLayer
 62
  256
370
   -1
100
AcDbLine
 10
52
 20
18
 11
52
 21
19.45016556472922
  0
LINE
  5
B4
100
AcDbEntity
  8
Middle
  6
ByLayer
 62
  256
370
   -1
100
AcDbLine
 10
15
 20
18
 11
15
 21
87
  0
LINE
  5
B5
100
AcDbEntity
  8
Middle
  6
ByLayer
 62
  256
370
   -1
100
AcDbLine
 10
15
 20
90
 11
15
 21
92
  0
LINE
  5
B6
100
AcDbEntity
  8
Middle
  6
ByLayer
 62
  256
370
   -1
100
AcDbLine
 10
52
 20
10
 11
52
 21
18
  0
CIRCLE
  5
B7
100
AcDbEntity
  8
Middle
  6
ByLayer
 62
  256
370
   -1
100
AcDbCircle
 10
62.90017796810004
 20
45.46857000183951
 40
1.6
  0
CIRCLE
  5
B8
100
AcDbEntity
  8
Middle
  6
ByLayer
 62
  256
370
   -1
100
AcDbCircle
 10
39.99995215857586
 20
19.00010465394304
 40
1.6
  0
CIRCLE
  5
B9
100
AcDbEntity
  8
Middle
  6
ByLayer
 62
  256
370
   -1
100
AcDbCircle
 10
12.5
 20
58
 40
1.6
  0
CIRCLE
  5
BA
100
AcDbEntity
  8
Middle
  6
ByLayer
 62
  256
370
   -1
100
AcDbCircle
 10
31
 20
30
 40
1.6
  0
LINE
  5
BB
100
AcDbEntity
  8
Middle
  6
ByLayer
 62
  256
370
   -1
100
AcDbLine
 10
25
 20
27
 11
53.50000000000001
 21
27
  0
LINE
  5
BC
100
AcDbEntity
  8
Middle
  6
ByLayer
 62
  256
370
   -1
100
AcDbLine
 10
10
 20
10
 11
52
 21
10
  0
LINE
  5
BD
100
AcDbEntity
  8
Middle
  6
ByLayer
 62
  256
370
   -1
100
AcDbLine
 10
10
 20
92
 11
10
 21
10
  0
LINE
  5
BE
100
AcDbEntity
  8
Middle
  6
ByLayer
 62
  256
370
   -1
100
AcDbLine
 10
68
 20
53
 11
68
 21
92
  0
LINE
  5
BF
100
AcDbEntity
  8
Middle
  6
ByLayer
 62
  256
370
   -1
100
AcDbLine
 10
63
 20
87
 11
63
 21
53
  0
LINE
  5
C0
100
AcDbEntity
  8
Middle
  6
ByLayer
 62
  256
370
   -1
100
AcDbLine
 10
55
 20
42
 11
63
 21
53
  0
LINE
  5
C1
100
AcDbEntity
  8
Middle
  6
ByLayer
 62
  256
370
   -1
100
AcDbLine
 10
68
 20
53
 11
68
 21
27.00000000000001
  0
ARC
  5
C2
100
AcDbEntity
  8
Middle
  6
ByLayer
 62
  256
370
   -1
100
AcDbCircle
 10
57.50000000000001
 20
27
 40
4
100
AcDbArc
 50
359.9999999999998
 51
179.9999999999999
  0
LINE
  5
C3
100
AcDbEntity
  8
Middle
  6
ByLayer
 62
  256
370
   -1
100
AcDbLine
 10
68
 20
27.00000000000001
 11
61.50000000000004
 21
26.99999999999999
  0
LINE
  5
C4
100
AcDbEntity
  8
Middle
  6
ByLayer
 62
  256
370
   -1
100
AcDbLine
 10
22
 20
25
 11
22
 21
31
  0
LINE
  5
C5
100
AcDbEntity
  8
Middle
  6
ByLayer
 62
  256
370
   -1
100
AcDbLine
 10
24.33333333333333
 20
25
 11
25
 21
27
  0
LINE
  5
C6
100
AcDbEntity
  8
Middle
  6
ByLayer
 62
  256
370
   -1
100
AcDbLine
 10
22
 20
25
 11
24.33333333333333
 21
25
  0
LINE
  5
C7
100
AcDbEntity
  8
Middle
  6
ByLayer
 62
  256
370
   -1
100
AcDbLine
 10
14.40000000000001
 20
89.40000000000001
 11
15
 21
90
  0
LINE
  5
C8
100
AcDbEntity
  8
Middle
  6
ByLayer
 62
  256
370
   -1
100
AcDbLine
 10
14.4
 20
87.60000000000001
 11
14.40000000000001
 21
89.40000000000001
  0
LINE
  5
C9
100
AcDbEntity
  8
Middle
  6
ByLayer
 62
  256
370
   -1
100
AcDbLine
 10
15
 20
87
 11
14.4
 21
87.60000000000001
  0
LINE
  5
CA
100
AcDbEntity
  8
Middle
  6
ByLayer
 62
  256
370
   -1
100
AcDbLine
 10
63
 20
87
 11
63.59999999999999
 21
87.59999999999999
  0
LINE
  5
CB
100
AcDbEntity
  8
Middle
  6
ByLayer
 62
  256
370
   -1
100
AcDbLine
 10
63.59999999999999
 20
87.59999999999999
 11
63.60000000000001
 21
89.39999999999998
  0
LINE
  5
CC
100
AcDbEntity
  8
Middle
  6
ByLayer
 62
  256
370
   -1
100
AcDbLine
 10
63.60000000000001
 20
89.39999999999998
 11
63
 21
90
  0
LINE
  5
CD
100
AcDbEntity
  8
Middle
  6
ByLayer
 62
  256
370
   -1
100
AcDbLine
 10
68
 20
92
 11
63.49999999999999
 21
92
  0
LINE
  5
CE
100
AcDbEntity
  8
Middle
  6
ByLayer
 62
  256
370
   -1
100
AcDbLine
 10
63
 20
90.50000000000001
 11
63
 21
90
  0
LINE
  5
CF
100
AcDbEntity
  8
Middle
  6
ByLayer
 62
  256
370
   -1
100
AcDbLine
 10
63
 20
90.50000000000001
 11
63.49999999999999
 21
92
  0
LINE
  5
D0
100
AcDbEntity
  8
Holder
  6
ByLayer
 62
  256
370
   -1
100
AcDbLine
 10
108
 20
168
 11
108
 21
158
  0
LINE
  5
D1
100
AcDbEntity
  8
Holder
  6
ByLayer
 62
  256
370
   -1
100
AcDbLine
 10
95
 20
168
 11
108
 21
168
  0
LINE
  5
D2
100
AcDbEntity
  8
Holder
  6
ByLayer
 62
  256
370
   -1
100
AcDbLine
 10
95
 20
158
 11
108
 21
158
  0
LINE
  5
D3
100
AcDbEntity
  8
Holder
  6
ByLayer
 62
  256
370
   -1
100
AcDbLine
 10
122
 20
158
 11
135
 21
158
  0
LINE
  5
D4
100
AcDbEntity
  8
Holder
  6
ByLayer
 62
  256
370
   -1
100
AcDbLine
 10
122
 20
168
 11
135
 21
168
  0
LINE
  5
D5
100
AcDbEntity
  8
Holder
  6
ByLayer
 62
  256
370
   -1
100
AcDbLine
 10
122
 20
168
 11
122
 21
158
  0
LINE
  5
D6
100
AcDbEntity
  8
Holder
  6
ByLayer
 62
  256
370
   -1
100
AcDbLine
 10
95
 20
158
 11
95
 21
60
  0
LINE
  5
D7
100
AcDbEntity
  8
Holder
  6
ByLayer
 62
  256
370
   -1
100
AcDbLine
 10
135
 20
158
 11
135
 21
60
  0
LINE
  5
D8
100
AcDbEntity
  8
Holder
  6
ByLayer
 62
  256
370
   -1
100
AcDbLine
 10
95
 20
60
 11
135
 21
60
  0
CIRCLE
  5
D9
100
AcDbEntity
  8
Holder
  6
ByLayer
 62
  256
370
   -1
100
AcDbCircle
 10
115
 20
100
 40
1.45
  0
CIRCLE
  5
DA
100
AcDbEntity
  8
Holder
  6
ByLayer
 62
  256
370
   -1
100
AcDbCircle
 10
115
 20
70
 40
1.45
  0
LINE
  5
DB
100
AcDbEntity
  8
Holder
  6
ByLayer
 62
  256
370
   -1
100
AcDbLine
 10
135
 20
206
 11
135
 21
168
  0
LINE
  5
DC
100
AcDbEntity
  8
Holder
  6
ByLayer
 62
  256
370
   -1
100
AcDbLine
 10
123
 20
206
 11
135
 21
206
  0
LINE
  5
DD
100
AcDbEntity
  8
Holder
  6
ByLayer
 62
  256
370
   -1
100
AcDbLine
 10
110.25
 20
187
 11
110.25
 21
202
  0
LINE
  5
DE
100
AcDbEntity
  8
Holder
  6
ByLayer
 62
  256
370
   -1
100
AcDbLine
 10
112.75
 20
202
 11
112.75
 21
187
  0
LINE
  5
DF
100
AcDbEntity
  8
Holder
  6
ByLayer
 62
  256
370
   -1
100
AcDbLine
 10
117.25
 20
202
 11
117.25
 21
187
  0
LINE
  5
E0
100
AcDbEntity
  8
Holder
  6
ByLayer
 62
  256
370
   -1
100
AcDbLine
 10
119.75
 20
187
 11
119.7500000000001
 21
202
  0
LINE
  5
E1
100
AcDbEntity
  8
Holder
  6
ByLayer
 62
  256
370
   -1
100
AcDbLine
 10
110.25
 20
247
 11
112.75
 21
247
  0
LINE
  5
E2
100
AcDbEntity
  8
Holder
  6
ByLayer
 62
  256
370
   -1
100
AcDbLine
 10
110.25
 20
202
 11
112.75
 21
202
  0
LINE
  5
E3
100
AcDbEntity
  8
Holder
  6
ByLayer
 62
  256
370
   -1
100
AcDbLine
 10
110.25
 20
187
 11
112.75
 21
187
  0
LINE
  5
E4
100
AcDbEntity
  8
Holder
  6
ByLayer
 62
  256
370
   -1
100
AcDbLine
 10
117.25
 20
247
 11
119.75
 21
247
  0
LINE
  5
E5
100
AcDbEntity
  8
Holder
  6
ByLayer
 62
  256
370
   -1
100
AcDbLine
 10
117.25
 20
202
 11
119.75
 21
202
  0
LINE
  5
E6
100
AcDbEntity
  8
Holder
  6
ByLayer
 62
  256
370
   -1
100
AcDbLine
 10
117.25
 20
187
 11
119.7500000000001
 21
187
  0
LINE
  5
E7
100
AcDbEntity
  8
Holder
  6
ByLayer
 62
  256
370
   -1
100
AcDbLine
 10
123
 20
230
 11
123
 21
206
  0
LINE
  5
E8
100
AcDbEntity
  8
Holder
  6
ByLayer
 62
  256
370
   -1
100
AcDbLine
 10
135
 20
230
 11
123
 21
230
  0
LINE
  5
E9
100
AcDbEntity
  8
Holder
  6
ByLayer
 62
  256
370
   -1
100
AcDbLine
 10
135
 20
252
 11
135
 21
230
  0
LINE
  5
EA
100
AcDbEntity
  8
Holder
  6
ByLayer
 62
  256
370
   -1
100
AcDbLine
 10
119.75
 20
247
 11
119.75
 21
252
  0
LINE
  5
EB
100
AcDbEntity
  8
Holder
  6
ByLayer
 62
  256
370
   -1
100
AcDbLine
 10
117.25
 20
252
 11
117.25
 21
247
  0
LINE
  5
EC
100
AcDbEntity
  8
Holder
  6
ByLayer
 62
  256
370
   -1
100
AcDbLine
 10
112.75
 20
252
 11
112.75
 21
247
  0
LINE
  5
ED
100
AcDbEntity
  8
Holder
  6
ByLayer
 62
  256
370
   -1
100
AcDbLine
 10
110.25
 20
247
 11
110.25
 21
252
  0
LINE
  5
EE
100
AcDbEntity
  8
Holder
  6
ByLayer
 62
  256
370
   -1
100
AcDbLine
 10
95
 20
252
 11
95
 21
168
  0
LINE
  5
EF
100
AcDbEntity
  8
Holder
  6
ByLayer
 62
  256
370
   -1
100
AcDbLine
 10
95
 20
252
 11
110.25
 21
252
  0
LINE
  5
F0
100
AcDbEntity
  8
Holder
  6
ByLayer
 62
  256
370
   -1
100
AcDbLine
 10
112.75
 20
252
 11
117.25
 21
252
  0
LINE
  5
F1
100
AcDbEntity
  8
Holder
  6
ByLayer
 62
  256
370
   -1
100
AcDbLine
 10
119.75
 20
252
 11
135
 21
252
  0
ARC
  5
F2
100
AcDbEntity
  8
Closer
  6
ByLayer
 62
  256
370
   -1
100
AcDbCircle
 10
162.5
 20
39
 40
9.340770846134705
100
AcDbArc
 50
254.4758890032473
 51
285.5241109967526
  0
LINE
  5
F3
100
AcDbEntity
  8
Closer
  6
ByLayer
 62
  256
370
   -1
100
AcDbLine
 10
160
 20
36.55051025721655
 11
160
 21
30
  0
LINE
  5
F4
100
AcDbEntity
  8
Closer
  6
ByLayer
 62
  256
370
   -1
100
AcDbLine
 10
165
 20
30
 11
165
 21
36.55051025721682
  0
ARC
  5
F5
100
AcDbEntity
  8
Closer
  6
ByLayer
 62
  256
370
   -1
100
AcDbCircle
 10
162.5
 20
39
 40
3.5
100
AcDbArc
 50
315.584691402807
 51
584.415308597194
  0
ARC
  5
F6
100
AcDbEntity
  8
Closer
  6
ByLayer
 62
  256
370
   -1
100
AcDbCircle
 10
172.5
 20
39
 40
9.340770846134705
100
AcDbArc
 50
254.4758890032473
 51
285.5241109967526
  0
LINE
  5
F7
100
AcDbEntity
  8
Closer
  6
ByLayer
 62
  256
370
   -1
100
AcDbLine
 10
170
 20
36.55051025721655
 11
170
 21
30
  0
LINE
  5
F8
100
AcDbEntity
  8
Closer
  6
ByLayer
 62
  256
370
   -1
100
AcDbLine
 10
175
 20
30
 11
175
 21
36.55051025721682
  0
ARC
  5
F9
100
AcDbEntity
  8
Closer
  6
ByLayer
 62
  256
370
   -1
100
AcDbCircle
 10
172.5
 20
39
 40
3.5
100
AcDbArc
 50
315.584691402807
 51
584.415308597194
  0
ARC
  5
FA
100
AcDbEntity
  8
Closer
  6
ByLayer
 62
  256
370
   -1
100
AcDbCircle
 10
162.5
 20
39
 40
2.6
100
AcDbArc
 50
52.0201275550405
 51
127.979872444862
  0
LINE
  5
FB
100
AcDbEntity
  8
Closer
  6
ByLayer
 62
  256
370
   -1
100
AcDbLine
 10
164.1
 20
36.95060984680877
 11
164.1
 21
41.04939015318402
  0
LINE
  5
FC
100
AcDbEntity
  8
Closer
  6
ByLayer
 62
  256
370
   -1
100
AcDbLine
 10
160.9
 20
36.95060984680703
 11
160.9
 21
41.04939015319121
  0
ARC
  5
FD
100
AcDbEntity
  8
Closer
  6
ByLayer
 62
  256
370
   -1
100
AcDbCircle
 10
162.5
 20
39
 40
2.6
100
AcDbArc
 50
232.0201275551618
 51
307.9798724448613
  0
ARC
  5
FE
100
AcDbEntity
  8
Closer
  6
ByLayer
 62
  256
370
   -1
100
AcDbCircle
 10
172.5
 20
39
 40
2.6
100
AcDbArc
 50
232.0201275551392
 51
307.9798724448613
  0
LINE
  5
FF
100
AcDbEntity
  8
Closer
  6
ByLayer
 62
  256
370
   -1
100
AcDbLine
 10
174.1
 20
36.95060984680877
 11
174.1
 21
41.049390153193
  0
LINE
  5
100
100
AcDbEntity
  8
Closer
  6
ByLayer
 62
  256
370
   -1
100
AcDbLine
 10
170.9
 20
36.95060984680877
 11
170.9
 21
41.04939015318942
  0
ARC
  5
101
100
AcDbEntity
  8
Closer
  6
ByLayer
 62
  256
370
   -1
100
AcDbCircle
 10
172.5
 20
39
 40
2.6
100
AcDbArc
 50
52.02012755516278
 51
127.9798724448858
  0
ENDSEC
  0
SECTION
  2
OBJECTS
  0
DICTIONARY
  5
C
330
0
100
AcDbDictionary
281
    1
  3
ACAD_GROUP
350
D
  0
DICTIONARY
  5
D
330
C
100
AcDbDictionary
281
    1
  0
ENDSEC
  0
EOF
