999
dxfrw 0.6.3
  0
SECTION
  2
HEADER
  9
$ACADVER
  1
AC1021
  9
$DWGCODEPAGE
  3
ANSI_1252
  9
$INSBASE
 10
0
 20
0
 30
0
  9
$EXTMIN
 10
70
 20
60
 30
0
  9
$EXTMAX
 10
180
 20
190
 30
0
  9
$LIMMIN
 10
0
 20
0
  9
$LIMMAX
 10
420
 20
297
  9
$ORTHOMODE
 70
    0
  9
$REGENMODE
 70
    1
  9
$FILLMODE
 70
    1
  9
$QTEXTMODE
 70
    0
  9
$MIRRTEXT
 70
    0
  9
$LTSCALE
 40
1
  9
$ATTMODE
 70
    0
  9
$TEXTSIZE
 40
2.5
  9
$TRACEWID
 40
15.68
  9
$TEXTSTYLE
  7
STANDARD
  9
$CLAYER
  8
box
  9
$CELTYPE
  6
BYLAYER
  9
$CECOLOR
 62
  256
  9
$CELTSCALE
 40
1
  9
$DISPSILH
 70
    0
  9
$DIMSCALE
 40
1
  9
$DIMASZ
 40
0
  9
$DIMEXO
 40
0.625
  9
$DIMDLI
 40
3.75
  9
$DIMRND
 40
0
  9
$DIMDLE
 40
0
  9
$DIMEXE
 40
1.25
  9
$DIMTP
 40
0
  9
$DIMTM
 40
0
  9
$DIMTXT
 40
2.5
  9
$DIMCEN
 40
2.5
  9
$DIMTSZ
 40
0
  9
$DIMTOL
 70
    0
  9
$DIMLIM
 70
    0
  9
$DIMTIH
 70
    0
  9
$DIMTOH
 70
    0
  9
$DIMSE1
 70
    0
  9
$DIMSE2
 70
    0
  9
$DIMTAD
 70
    1
  9
$DIMZIN
 70
   13
  9
$DIMBLK
  1

  9
$DIMASO
 70
    1
  9
$DIMSHO
 70
    1
  9
$DIMPOST
  1

  9
$DIMAPOST
  1

  9
$DIMALT
 70
    0
  9
$DIMALTD
 70
    3
  9
$DIMALTF
 40
0.03937
  9
$DIMLFAC
 40
1
  9
$DIMTOFL
 70
    1
  9
$DIMTVP
 40
0
  9
$DIMTIX
 70
    0
  9
$DIMSOXD
 70
    0
  9
$DIMSAH
 70
    0
  9
$DIMBLK1
  1

  9
$DIMBLK2
  1

  9
$DIMSTYLE
  2
STANDARD
  9
$DIMCLRD
 70
  256
  9
$DIMCLRE
 70
  256
  9
$DIMCLRT
 70
    0
  9
$DIMTFAC
 40
1
  9
$DIMGAP
 40
0.625
  9
$DIMJUST
 70
    0
  9
$DIMSD1
 70
    0
  9
$DIMSD2
 70
    0
  9
$DIMTOLJ
 70
    0
  9
$DIMTZIN
 70
    8
  9
$DIMALTZ
 70
    0
  9
$DIMALTTZ
 70
    0
  9
$DIMUPT
 70
    0
  9
$DIMDEC
 70
    2
  9
$DIMTDEC
 70
    2
  9
$DIMALTU
 70
    2
  9
$DIMALTTD
 70
    3
  9
$DIMTXSTY
  7
standard
  9
$DIMAUNIT
 70
    0
  9
$DIMADEC
 70
    2
  9
$DIMALTRND
 40
0
  9
$DIMAZIN
 70
    0
  9
$DIMDSEP
 70
    0
  9
$DIMATFIT
 70
    3
  9
$DIMFRAC
 70
    0
  9
$DIMLDRBLK
  1
STANDARD
  9
$DIMLUNIT
 70
    2
  9
$DIMLWD
 70
   -1
  9
$DIMLWE
 70
   -1
  9
$DIMTMOVE
 70
    0
  9
$DIMFXL
 40
1
  9
$DIMFXLON
 70
    0
  9
$DIMJOGANG
 40
0.7854
  9
$DIMTFILL
 70
    0
  9
$DIMTFILLCLR
 70
    0
  9
$DIMARCSYM
 70
    0
  9
$DIMLTYPE
  6

  9
$DIMLTEX1
  6

  9
$DIMLTEX2
  6

  9
$LUNITS
 70
    2
  9
$LUPREC
 70
    4
  9
$SKETCHINC
 40
1
  9
$FILLETRAD
 40
0
  9
$AUNITS
 70
    0
  9
$AUPREC
 70
    2
  9
$MENU
  1
.
  9
$ELEVATION
 40
0
  9
$PELEVATION
 40
0
  9
$THICKNESS
 40
0
  9
$LIMCHECK
 70
    0
  9
$CHAMFERA
 40
0
  9
$CHAMFERB
 40
0
  9
$CHAMFERC
 40
0
  9
$CHAMFERD
 40
0
  9
$SKPOLY
 70
    0
  9
$USRTIMER
 70
    1
  9
$ANGBASE
 50
0
  9
$ANGDIR
 70
    0
  9
$PDMODE
 70
   34
  9
$PDSIZE
 40
0
  9
$PLINEWID
 40
0
  9
$SPLFRAME
 70
    0
  9
$SPLINETYPE
 70
    2
  9
$SPLINESEGS
 70
    8
  9
$HANDSEED
  5
20000
  9
$SURFTAB1
 70
    6
  9
$SURFTAB2
 70
    6
  9
$SURFTYPE
 70
    6
  9
$SURFU
 70
    6
  9
$SURFV
 70
    6
  9
$UCSBASE
  2

  9
$UCSNAME
  2

  9
$UCSORG
 10
0
 20
0
 30
0
  9
$UCSXDIR
 10
1
 20
0
 30
0
  9
$UCSYDIR
 10
0
 20
1
 30
0
  9
$UCSORTHOREF
  2

  9
$UCSORTHOVIEW
 70
    0
  9
$UCSORGTOP
 10
0
 20
0
 30
0
  9
$UCSORGBOTTOM
 10
0
 20
0
 30
0
  9
$UCSORGLEFT
 10
0
 20
0
 30
0
  9
$UCSORGRIGHT
 10
0
 20
0
 30
0
  9
$UCSORGFRONT
 10
0
 20
0
 30
0
  9
$UCSORGBACK
 10
0
 20
0
 30
0
  9
$PUCSBASE
  2

  9
$PUCSNAME
  2

  9
$PUCSORG
 10
0
 20
0
 30
0
  9
$PUCSXDIR
 10
1
 20
0
 30
0
  9
$PUCSYDIR
 10
0
 20
1
 30
0
  9
$PUCSORTHOREF
  2

  9
$PUCSORTHOVIEW
 70
    0
  9
$PUCSORGTOP
 10
0
 20
0
 30
0
  9
$PUCSORGBOTTOM
 10
0
 20
0
 30
0
  9
$PUCSORGLEFT
 10
0
 20
0
 30
0
  9
$PUCSORGRIGHT
 10
0
 20
0
 30
0
  9
$PUCSORGFRONT
 10
0
 20
0
 30
0
  9
$PUCSORGBACK
 10
0
 20
0
 30
0
  9
$USERI1
 70
    0
  9
$USERI2
 70
    0
  9
$USERI3
 70
    0
  9
$USERI4
 70
    0
  9
$USERI5
 70
    0
  9
$USERR1
 40
0
  9
$USERR2
 40
0
  9
$USERR3
 40
0
  9
$USERR4
 40
0
  9
$USERR5
 40
0
  9
$WORLDVIEW
 70
    1
  9
$SHADEDGE
 70
    3
  9
$SHADEDIF
 70
   70
  9
$TILEMODE
 70
    1
  9
$MAXACTVP
 70
   64
  9
$PINSBASE
 10
-59.44167610419024
 20
-102.7321630804077
 30
0
  9
$PLIMCHECK
 70
    0
  9
$PEXTMIN
 10
0
 20
0
 30
0
  9
$PEXTMAX
 10
0
 20
0
 30
0
  9
$GRIDMODE
 70
    1
  9
$SNAPSTYLE
 70
    0
  9
$GRIDUNIT
 10
0
 20
0
  9
$PLIMMIN
 10
0
 20
0
  9
$PLIMMAX
 10
297
 20
210
  9
$UNITMODE
 70
    0
  9
$VISRETAIN
 70
    1
  9
$PLINEGEN
 70
    0
  9
$PSLTSCALE
 70
    1
  9
$TREEDEPTH
 70
 3020
  9
$CMLSTYLE
  2
Standard
  9
$CMLJUST
 70
    0
  9
$CMLSCALE
 40
20
  9
$PROXYGRAPHICS
 70
    1
  9
$MEASUREMENT
 70
    1
  9
$CELWEIGHT
370
   -1
  9
$ENDCAPS
280
    0
  9
$JOINSTYLE
280
    0
  9
$LWDISPLAY
290
    0
  9
$INSUNITS
 70
    4
  9
$HYPERLINKBASE
  1

  9
$STYLESHEET
  1

  9
$XEDIT
290
    1
  9
$CEPSNTYPE
380
    0
  9
$PSTYLEMODE
290
    1
  9
$EXTNAMES
290
    1
  9
$PSVPSCALE
 40
1.6761
  9
$OLESTARTUP
290
    0
  9
$SORTENTS
280
  127
  9
$INDEXCTL
280
    0
  9
$HIDETEXT
280
    1
  9
$XCLIPFRAME
290
    0
  9
$HALOGAP
280
    0
  9
$OBSCOLOR
 70
  257
  9
$OBSLTYPE
280
    0
  9
$INTERSECTIONDISPLAY
280
    0
  9
$INTERSECTIONCOLOR
 70
  257
  9
$DIMASSOC
280
    1
  9
$PROJECTNAME
  1

  9
$CAMERADISPLAY
290
    0
  9
$LENSLENGTH
 40
50
  9
$CAMERAHEIGHT
 40
0
  9
$STEPSPERSEC
 40
2
  9
$STEPSIZE
 40
50
  9
$3DDWFPREC
 40
2
  9
$PSOLWIDTH
 40
5
  9
$PSOLHEIGHT
 40
80
  9
$LOFTANG1
 40
1.570796326794897
  9
$LOFTANG2
 40
1.570796326794897
  9
$LOFTMAG1
 40
0
  9
$LOFTMAG2
 40
0
  9
$LOFTPARAM
 70
    7
  9
$LOFTNORMALS
280
    1
  9
$LATITUDE
 40
1
  9
$LONGITUDE
 40
1
  9
$NORTHDIRECTION
 40
0
  9
$TIMEZONE
 70
-8000
  9
$LIGHTGLYPHDISPLAY
280
    1
  9
$TILEMODELIGHTSYNCH
280
    1
  9
$SOLIDHIST
280
    1
  9
$SHOWHIST
280
    1
  9
$DWFFRAME
280
    2
  9
$DGNFRAME
280
    0
  9
$REALWORLDSCALE
290
    1
  9
$INTERFERECOLOR
 62
    1
  9
$CSHADOW
280
    0
  9
$SHADOWPLANELOCATION
 40
0
  0
ENDSEC
  0
SECTION
  2
CLASSES
  0
ENDSEC
  0
SECTION
  2
TABLES
  0
TABLE
  2
VPORT
  5
8
330
0
100
AcDbSymbolTable
 70
    1
  0
VPORT
  5
31
330
2
100
AcDbSymbolTableRecord
100
AcDbViewportTableRecord
  2
*ACTIVE
 70
    0
 10
0
 20
0
 11
1
 21
1
 12
141.6438848921098
 22
110.3971223021766
 13
0
 23
0
 14
10
 24
10
 15
10
 25
10
 16
0
 26
0
 36
1
 17
0
 27
0
 37
0
 40
169.0000000000281
 41
1.827338129496403
 42
50
 43
0
 44
0
 50
0
 51
0
 71
    0
 72
  100
 73
    1
 74
    3
 75
    0
 76
    1
 77
    0
 78
    0
281
    0
 65
    1
110
0
120
0
130
0
111
1
121
0
131
0
112
0
122
1
132
0
 79
    0
146
0
348
10020
 60
    7
 61
    5
292
1
282
    1
141
0
142
0
 63
  250
421
3358443
  0
ENDTAB
  0
TABLE
  2
LTYPE
  5
5
330
0
100
AcDbSymbolTable
 70
    4
  0
LTYPE
  5
14
330
5
100
AcDbSymbolTableRecord
100
AcDbLinetypeTableRecord
  2
ByBlock
 70
    0
  3

 72
   65
 73
    0
 40
0
  0
LTYPE
  5
15
330
5
100
AcDbSymbolTableRecord
100
AcDbLinetypeTableRecord
  2
ByLayer
 70
    0
  3

 72
   65
 73
    0
 40
0
  0
LTYPE
  5
16
330
5
100
AcDbSymbolTableRecord
100
AcDbLinetypeTableRecord
  2
Continuous
 70
    0
  3
Solid line
 72
   65
 73
    0
 40
0
  0
LTYPE
  5
32
330
5
100
AcDbSymbolTableRecord
100
AcDbLinetypeTableRecord
  2
DOT
 70
    0
  3
Dot . . . . . . . . . . . . . . . . . . . . . .
 72
   65
 73
    2
 40
6.35
 49
0
 74
    0
 49
-6.35
 74
    0
  0
LTYPE
  5
33
330
5
100
AcDbSymbolTableRecord
100
AcDbLinetypeTableRecord
  2
DOTTINY
 70
    0
  3
Dot (.15x) .....................................
 72
   65
 73
    2
 40
0.9525
 49
0
 74
    0
 49
-0.9525
 74
    0
  0
LTYPE
  5
34
330
5
100
AcDbSymbolTableRecord
100
AcDbLinetypeTableRecord
  2
DOT2
 70
    0
  3
Dot (.5x) .....................................
 72
   65
 73
    2
 40
3.175
 49
0
 74
    0
 49
-3.175
 74
    0
  0
LTYPE
  5
35
330
5
100
AcDbSymbolTableRecord
100
AcDbLinetypeTableRecord
  2
DOTX2
 70
    0
  3
Dot (2x) .  .  .  .  .  .  .  .  .  .  .  .  .
 72
   65
 73
    2
 40
12.7
 49
0
 74
    0
 49
-12.7
 74
    0
  0
LTYPE
  5
36
330
5
100
AcDbSymbolTableRecord
100
AcDbLinetypeTableRecord
  2
DASHED
 70
    0
  3
Dashed _ _ _ _ _ _ _ _ _ _ _ _ _ _ _ _ _
 72
   65
 73
    2
 40
19.05
 49
12.7
 74
    0
 49
-6.35
 74
    0
  0
LTYPE
  5
37
330
5
100
AcDbSymbolTableRecord
100
AcDbLinetypeTableRecord
  2
DASHEDTINY
 70
    0
  3
Dashed (.15x) _ _ _ _ _ _ _ _ _ _ _ _ _ _ _ _ _
 72
   65
 73
    2
 40
2.8575
 49
1.905
 74
    0
 49
-0.9525
 74
    0
  0
LTYPE
  5
38
330
5
100
AcDbSymbolTableRecord
100
AcDbLinetypeTableRecord
  2
DASHED2
 70
    0
  3
Dashed (.5x) _ _ _ _ _ _ _ _ _ _ _ _ _ _ _ _ _
 72
   65
 73
    2
 40
9.524999999999999
 49
6.35
 74
    0
 49
-3.175
 74
    0
  0
LTYPE
  5
39
330
5
100
AcDbSymbolTableRecord
100
AcDbLinetypeTableRecord
  2
DASHEDX2
 70
    0
  3
Dashed (2x) ____  ____  ____  ____  ____  ___
 72
   65
 73
    2
 40
38.09999999999999
 49
25.4
 74
    0
 49
-12.7
 74
    0
  0
LTYPE
  5
3A
330
5
100
AcDbSymbolTableRecord
100
AcDbLinetypeTableRecord
  2
DASHDOT
 70
    0
  3
Dash dot __ . __ . __ . __ . __ . __ . __ . __
 72
   65
 73
    4
 40
25.4
 49
12.7
 74
    0
 49
-6.35
 74
    0
 49
0
 74
    0
 49
-6.35
 74
    0
  0
LTYPE
  5
3B
330
5
100
AcDbSymbolTableRecord
100
AcDbLinetypeTableRecord
  2
DASHDOTTINY
 70
    0
  3
Dash dot (.15x) _._._._._._._._._._._._._._._.
 72
   65
 73
    4
 40
3.81
 49
1.905
 74
    0
 49
-0.9525
 74
    0
 49
0
 74
    0
 49
-0.9525
 74
    0
  0
LTYPE
  5
3C
330
5
100
AcDbSymbolTableRecord
100
AcDbLinetypeTableRecord
  2
DASHDOT2
 70
    0
  3
Dash dot (.5x) _._._._._._._._._._._._._._._.
 72
   65
 73
    4
 40
12.7
 49
6.35
 74
    0
 49
-3.175
 74
    0
 49
0
 74
    0
 49
-3.175
 74
    0
  0
LTYPE
  5
3D
330
5
100
AcDbSymbolTableRecord
100
AcDbLinetypeTableRecord
  2
DASHDOTX2
 70
    0
  3
Dash dot (2x) ____  .  ____  .  ____  .  ___
 72
   65
 73
    4
 40
50.8
 49
25.4
 74
    0
 49
-12.7
 74
    0
 49
0
 74
    0
 49
-12.7
 74
    0
  0
LTYPE
  5
3E
330
5
100
AcDbSymbolTableRecord
100
AcDbLinetypeTableRecord
  2
DIVIDE
 70
    0
  3
Divide ____ . . ____ . . ____ . . ____ . . ____
 72
   65
 73
    6
 40
31.75
 49
12.7
 74
    0
 49
-6.35
 74
    0
 49
0
 74
    0
 49
-6.35
 74
    0
 49
0
 74
    0
 49
-6.35
 74
    0
  0
LTYPE
  5
3F
330
5
100
AcDbSymbolTableRecord
100
AcDbLinetypeTableRecord
  2
DIVIDETINY
 70
    0
  3
Divide (.15x) __..__..__..__..__..__..__..__.._
 72
   65
 73
    6
 40
4.7625
 49
1.905
 74
    0
 49
-0.9525
 74
    0
 49
0
 74
    0
 49
-0.9525
 74
    0
 49
0
 74
    0
 49
-0.9525
 74
    0
  0
LTYPE
  5
40
330
5
100
AcDbSymbolTableRecord
100
AcDbLinetypeTableRecord
  2
DIVIDE2
 70
    0
  3
Divide (.5x) __..__..__..__..__..__..__..__.._
 72
   65
 73
    6
 40
15.875
 49
6.35
 74
    0
 49
-3.175
 74
    0
 49
0
 74
    0
 49
-3.175
 74
    0
 49
0
 74
    0
 49
-3.175
 74
    0
  0
LTYPE
  5
41
330
5
100
AcDbSymbolTableRecord
100
AcDbLinetypeTableRecord
  2
DIVIDEX2
 70
    0
  3
Divide (2x) ________  .  .  ________  .  .  _
 72
   65
 73
    6
 40
63.5
 49
25.4
 74
    0
 49
-12.7
 74
    0
 49
0
 74
    0
 49
-12.7
 74
    0
 49
0
 74
    0
 49
-12.7
 74
    0
  0
LTYPE
  5
42
330
5
100
AcDbSymbolTableRecord
100
AcDbLinetypeTableRecord
  2
BORDER
 70
    0
  3
Border __ __ . __ __ . __ __ . __ __ . __ __ .
 72
   65
 73
    6
 40
44.45
 49
12.7
 74
    0
 49
-6.35
 74
    0
 49
12.7
 74
    0
 49
-6.35
 74
    0
 49
0
 74
    0
 49
-6.35
 74
    0
  0
LTYPE
  5
43
330
5
100
AcDbSymbolTableRecord
100
AcDbLinetypeTableRecord
  2
BORDERTINY
 70
    0
  3
Border (.15x) __.__.__.__.__.__.__.__.__.__.__.
 72
   65
 73
    6
 40
6.6675
 49
1.905
 74
    0
 49
-0.9525
 74
    0
 49
1.905
 74
    0
 49
-0.9525
 74
    0
 49
0
 74
    0
 49
-0.9525
 74
    0
  0
LTYPE
  5
44
330
5
100
AcDbSymbolTableRecord
100
AcDbLinetypeTableRecord
  2
BORDER2
 70
    0
  3
Border (.5x) __.__.__.__.__.__.__.__.__.__.__.
 72
   65
 73
    6
 40
22.225
 49
6.35
 74
    0
 49
-3.175
 74
    0
 49
6.35
 74
    0
 49
-3.175
 74
    0
 49
0
 74
    0
 49
-3.175
 74
    0
  0
LTYPE
  5
45
330
5
100
AcDbSymbolTableRecord
100
AcDbLinetypeTableRecord
  2
BORDERX2
 70
    0
  3
Border (2x) ____  ____  .  ____  ____  .  ___
 72
   65
 73
    6
 40
88.89999999999999
 49
25.4
 74
    0
 49
-12.7
 74
    0
 49
25.4
 74
    0
 49
-12.7
 74
    0
 49
0
 74
    0
 49
-12.7
 74
    0
  0
LTYPE
  5
46
330
5
100
AcDbSymbolTableRecord
100
AcDbLinetypeTableRecord
  2
CENTER
 70
    0
  3
Center ____ _ ____ _ ____ _ ____ _ ____ _ ____
 72
   65
 73
    4
 40
50.8
 49
31.75
 74
    0
 49
-6.35
 74
    0
 49
6.35
 74
    0
 49
-6.35
 74
    0
  0
LTYPE
  5
47
330
5
100
AcDbSymbolTableRecord
100
AcDbLinetypeTableRecord
  2
CENTERTINY
 70
    0
  3
Center (.15x) ___ _ ___ _ ___ _ ___ _ ___ _ ___
 72
   65
 73
    4
 40
7.619999999999999
 49
4.7625
 74
    0
 49
-0.9525
 74
    0
 49
0.9525
 74
    0
 49
-0.9525
 74
    0
  0
LTYPE
  5
48
330
5
100
AcDbSymbolTableRecord
100
AcDbLinetypeTableRecord
  2
CENTER2
 70
    0
  3
Center (.5x) ___ _ ___ _ ___ _ ___ _ ___ _ ___
 72
   65
 73
    4
 40
28.575
 49
19.05
 74
    0
 49
-3.175
 74
    0
 49
3.175
 74
    0
 49
-3.175
 74
    0
  0
LTYPE
  5
49
330
5
100
AcDbSymbolTableRecord
100
AcDbLinetypeTableRecord
  2
CENTERX2
 70
    0
  3
Center (2x) ________  __  ________  __  _____
 72
   65
 73
    4
 40
101.6
 49
63.5
 74
    0
 49
-12.7
 74
    0
 49
12.7
 74
    0
 49
-12.7
 74
    0
  0
ENDTAB
  0
TABLE
  2
LAYER
  5
2
330
0
100
AcDbSymbolTable
 70
    1
  0
LAYER
  5
10
330
2
100
AcDbSymbolTableRecord
100
AcDbLayerTableRecord
  2
0
 70
    1
 62
    7
  6
CONTINUOUS
370
   18
390
F
  0
LAYER
  5
4A
330
2
100
AcDbSymbolTableRecord
100
AcDbLayerTableRecord
  2
box
 70
    0
 62
    7
  6
CONTINUOUS
370
    0
390
F
  0
LAYER
  5
4B
330
2
100
AcDbSymbolTableRecord
100
AcDbLayerTableRecord
  2
dimensions
 70
    0
 62
    8
  6
CONTINUOUS
370
    0
390
F
  0
LAYER
  5
4C
330
2
100
AcDbSymbolTableRecord
100
AcDbLayerTableRecord
  2
dimensions_exploded
 70
    1
 62
    7
  6
CONTINUOUS
370
    0
390
F
  0
LAYER
  5
4D
330
2
100
AcDbSymbolTableRecord
100
AcDbLayerTableRecord
  2
holes
 70
    1
 62
    7
  6
CONTINUOUS
370
    0
390
F
  0
ENDTAB
  0
TABLE
  2
STYLE
  5
3
330
0
100
AcDbSymbolTable
 70
    3
  0
STYLE
  5
4E
330
2
100
AcDbSymbolTableRecord
100
AcDbTextStyleTableRecord
  2
standard
 70
    0
 40
0
 41
1
 50
0
 71
    0
 42
1
  3
standard
  4

  0
ENDTAB
  0
TABLE
  2
VIEW
  5
6
330
0
100
AcDbSymbolTable
 70
    0
  0
ENDTAB
  0
TABLE
  2
UCS
  5
7
330
0
100
AcDbSymbolTable
 70
    0
  0
ENDTAB
  0
TABLE
  2
APPID
  5
9
330
0
100
AcDbSymbolTable
 70
    1
  0
APPID
  5
12
330
9
100
AcDbSymbolTableRecord
100
AcDbRegAppTableRecord
  2
ACAD
 70
    0
  0
APPID
  5
4F
330
9
100
AcDbSymbolTableRecord
100
AcDbRegAppTableRecord
  2
LibreCad
 70
    0
  0
ENDTAB
  0
TABLE
  2
DIMSTYLE
  5
A
330
0
100
AcDbSymbolTable
 70
    1
100
AcDbDimStyleTable
 71
    1
  0
DIMSTYLE
105
50
330
A
100
AcDbSymbolTableRecord
100
AcDbDimStyleTableRecord
  2
Standard
 70
    0
 40
1
 41
0
 42
0.625
 43
0.38
 44
1.25
 45
0
 46
0
 47
0
 48
0
 49
1
140
2.5
141
0.09
142
0
143
25.4
144
1
145
0
146
1
147
0.625
148
0
 71
    0
 72
    0
 73
    0
 74
    1
 75
    0
 76
    0
 77
    0
 78
   13
 79
    0
170
    0
171
    2
172
    0
173
    0
174
    0
175
    0
176
  256
177
  256
178
    0
179
    2
271
    2
272
    4
273
    2
274
    2
275
    0
276
    0
277
    2
278
    0
279
    0
280
    0
281
    0
282
    0
283
    1
284
    0
285
    0
286
    0
288
    0
289
    3
340
standard
341

371
   -1
372
   -1
  0
ENDTAB
  0
TABLE
  2
BLOCK_RECORD
  5
1
330
0
100
AcDbSymbolTable
 70
    2
  0
BLOCK_RECORD
  5
1F
330
1
100
AcDbSymbolTableRecord
100
AcDbBlockTableRecord
  2
*Model_Space
 70
    0
280
    1
281
    0
  0
BLOCK_RECORD
  5
1E
330
1
100
AcDbSymbolTableRecord
100
AcDbBlockTableRecord
  2
*Paper_Space
 70
    0
280
    1
281
    0
  0
BLOCK_RECORD
  5
51
330
1
100
AcDbSymbolTableRecord
100
AcDbBlockTableRecord
  2
*D2
 70
    0
280
    1
281
    0
  0
BLOCK_RECORD
  5
54
330
1
100
AcDbSymbolTableRecord
100
AcDbBlockTableRecord
  2
*D10
 70
    0
280
    1
281
    0
  0
BLOCK_RECORD
  5
57
330
1
100
AcDbSymbolTableRecord
100
AcDbBlockTableRecord
  2
*D1
 70
    0
280
    1
281
    0
  0
BLOCK_RECORD
  5
5A
330
1
100
AcDbSymbolTableRecord
100
AcDbBlockTableRecord
  2
*D3
 70
    0
280
    1
281
    0
  0
BLOCK_RECORD
  5
5D
330
1
100
AcDbSymbolTableRecord
100
AcDbBlockTableRecord
  2
*D9
 70
    0
280
    1
281
    0
  0
BLOCK_RECORD
  5
60
330
1
100
AcDbSymbolTableRecord
100
AcDbBlockTableRecord
  2
*D11
 70
    0
280
    1
281
    0
  0
BLOCK_RECORD
  5
63
330
1
100
AcDbSymbolTableRecord
100
AcDbBlockTableRecord
  2
*D12
 70
    0
280
    1
281
    0
  0
BLOCK_RECORD
  5
66
330
1
100
AcDbSymbolTableRecord
100
AcDbBlockTableRecord
  2
*D13
 70
    0
280
    1
281
    0
  0
BLOCK_RECORD
  5
69
330
1
100
AcDbSymbolTableRecord
100
AcDbBlockTableRecord
  2
*D14
 70
    0
280
    1
281
    0
  0
BLOCK_RECORD
  5
6C
330
1
100
AcDbSymbolTableRecord
100
AcDbBlockTableRecord
  2
*D15
 70
    0
280
    1
281
    0
  0
BLOCK_RECORD
  5
6F
330
1
100
AcDbSymbolTableRecord
100
AcDbBlockTableRecord
  2
*D5
 70
    0
280
    1
281
    0
  0
BLOCK_RECORD
  5
72
330
1
100
AcDbSymbolTableRecord
100
AcDbBlockTableRecord
  2
*D16
 70
    0
280
    1
281
    0
  0
BLOCK_RECORD
  5
75
330
1
100
AcDbSymbolTableRecord
100
AcDbBlockTableRecord
  2
*D6
 70
    0
280
    1
281
    0
  0
BLOCK_RECORD
  5
78
330
1
100
AcDbSymbolTableRecord
100
AcDbBlockTableRecord
  2
*D7
 70
    0
280
    1
281
    0
  0
BLOCK_RECORD
  5
7B
330
1
100
AcDbSymbolTableRecord
100
AcDbBlockTableRecord
  2
*D8
 70
    0
280
    1
281
    0
  0
BLOCK_RECORD
  5
7E
330
1
100
AcDbSymbolTableRecord
100
AcDbBlockTableRecord
  2
*D4
 70
    0
280
    1
281
    0
  0
ENDTAB
  0
ENDSEC
  0
SECTION
  2
BLOCKS
  0
BLOCK
  5
20
330
1F
100
AcDbEntity
  8
0
100
AcDbBlockBegin
  2
*Model_Space
 70
    0
 10
0
 20
0
 30
0
  3
*Model_Space
  1

  0
ENDBLK
  5
21
330
1F
100
AcDbEntity
  8
0
100
AcDbBlockEnd
  0
BLOCK
  5
1C
330
1B
100
AcDbEntity
  8
0
100
AcDbBlockBegin
  2
*Paper_Space
 70
    0
 10
0
 20
0
 30
0
  3
*Paper_Space
  1

  0
ENDBLK
  5
1D
330
1F
100
AcDbEntity
  8
0
100
AcDbBlockEnd
  0
BLOCK
  5
52
330
51
100
AcDbEntity
  8
0
100
AcDbBlockBegin
  2
*D2
 70
    1
 10
0
 20
0
  3
*D2
  1

  0
LINE
  5
81
100
AcDbEntity
  8
dimensions
  6
ByBlock
 62
  256
370
   -1
100
AcDbLine
 10
100
 20
86
 11
121.59
 21
86
  0
SOLID
  5
82
100
AcDbEntity
  8
dimensions
  6
ByBlock
 62
  256
370
   -1
100
AcDbTrace
 10
100
 20
86
 30
0
 11
100
 21
86
 31
0
 12
100
 22
86
 32
0
 13
100
 23
86
 33
0
  0
SOLID
  5
83
100
AcDbEntity
  8
dimensions
  6
ByBlock
 62
  256
370
   -1
100
AcDbTrace
 10
121.59
 20
86
 30
0
 11
121.59
 21
86
 31
0
 12
121.59
 22
86
 32
0
 13
121.59
 23
86
 33
0
  0
MTEXT
  5
84
100
AcDbEntity
  8
dimensions
  6
CONTINUOUS
 62
    0
370
   -2
100
AcDbMText
 10
110.795
 20
87.875
 30
0
 40
2.5
 41
7.222222222222378
 71
    5
 72
    1
  1
21.59
  7
standard
210
0
220
0
230
1
 50
0
 73
    2
 44
1
  0
LINE
  5
85
100
AcDbEntity
  8
dimensions
  6
ByBlock
 62
  256
370
   -1
100
AcDbLine
 10
100
 20
104.3749999403954
 11
100
 21
84.75
  0
LINE
  5
86
100
AcDbEntity
  8
dimensions
  6
ByBlock
 62
  256
370
   -1
100
AcDbLine
 10
121.59
 20
110.965
 11
121.59
 21
84.75
  0
ENDBLK
  5
53
330
51
100
AcDbEntity
  8
0
100
AcDbBlockEnd
  0
BLOCK
  5
55
330
54
100
AcDbEntity
  8
0
100
AcDbBlockBegin
  2
*D10
 70
    1
 10
0
 20
0
  3
*D10
  1

  0
LINE
  5
87
100
AcDbEntity
  8
dimensions
  6
ByBlock
 62
  256
370
   -1
100
AcDbLine
 10
100
 20
176
 11
138.25
 21
176
  0
SOLID
  5
88
100
AcDbEntity
  8
dimensions
  6
ByBlock
 62
  256
370
   -1
100
AcDbTrace
 10
100
 20
176
 30
0
 11
100
 21
176
 31
0
 12
100
 22
176
 32
0
 13
100
 23
176
 33
0
  0
SOLID
  5
89
100
AcDbEntity
  8
dimensions
  6
ByBlock
 62
  256
370
   -1
100
AcDbTrace
 10
138.25
 20
176
 30
0
 11
138.25
 21
176
 31
0
 12
138.25
 22
176
 32
0
 13
138.25
 23
176
 33
0
  0
MTEXT
  5
8A
100
AcDbEntity
  8
dimensions
  6
CONTINUOUS
 62
    0
370
   -2
100
AcDbMText
 10
119.125
 20
177.875
 30
0
 40
2.5
 41
7.777777777778088
 71
    5
 72
    1
  1
38.25
  7
standard
210
0
220
0
230
1
 50
0
 73
    2
 44
1
  0
LINE
  5
8B
100
AcDbEntity
  8
dimensions
  6
ByBlock
 62
  256
370
   -1
100
AcDbLine
 10
100
 20
161.625
 11
100
 21
177.25
  0
LINE
  5
8C
100
AcDbEntity
  8
dimensions
  6
ByBlock
 62
  256
370
   -1
100
AcDbLine
 10
138.25
 20
166.875
 11
138.25
 21
177.25
  0
ENDBLK
  5
56
330
54
100
AcDbEntity
  8
0
100
AcDbBlockEnd
  0
BLOCK
  5
58
330
57
100
AcDbEntity
  8
0
100
AcDbBlockBegin
  2
*D1
 70
    1
 10
0
 20
0
  3
*D1
  1

  0
LINE
  5
8D
100
AcDbEntity
  8
dimensions
  6
ByBlock
 62
  256
370
   -1
100
AcDbLine
 10
100
 20
93
 11
111.59
 21
93
  0
SOLID
  5
8E
100
AcDbEntity
  8
dimensions
  6
ByBlock
 62
  256
370
   -1
100
AcDbTrace
 10
100
 20
93
 30
0
 11
100
 21
93
 31
0
 12
100
 22
93
 32
0
 13
100
 23
93
 33
0
  0
SOLID
  5
8F
100
AcDbEntity
  8
dimensions
  6
ByBlock
 62
  256
370
   -1
100
AcDbTrace
 10
111.59
 20
93
 30
0
 11
111.59
 21
93
 31
0
 12
111.59
 22
93
 32
0
 13
111.59
 23
93
 33
0
  0
MTEXT
  5
90
100
AcDbEntity
  8
dimensions
  6
CONTINUOUS
 62
    0
370
   -2
100
AcDbMText
 10
105.795
 20
94.875
 30
0
 40
2.5
 41
6.666666666666822
 71
    5
 72
    1
  1
11.59
  7
standard
210
0
220
0
230
1
 50
0
 73
    2
 44
1
  0
LINE
  5
91
100
AcDbEntity
  8
dimensions
  6
ByBlock
 62
  256
370
   -1
100
AcDbLine
 10
100
 20
104.3749999403954
 11
100
 21
91.75
  0
LINE
  5
92
100
AcDbEntity
  8
dimensions
  6
ByBlock
 62
  256
370
   -1
100
AcDbLine
 10
111.59
 20
110.965
 11
111.59
 21
91.75
  0
ENDBLK
  5
59
330
57
100
AcDbEntity
  8
0
100
AcDbBlockEnd
  0
BLOCK
  5
5B
330
5A
100
AcDbEntity
  8
0
100
AcDbBlockBegin
  2
*D3
 70
    1
 10
0
 20
0
  3
*D3
  1

  0
LINE
  5
93
100
AcDbEntity
  8
dimensions
  6
ByBlock
 62
  256
370
   -1
100
AcDbLine
 10
100
 20
80
 11
150.59
 21
80
  0
SOLID
  5
94
100
AcDbEntity
  8
dimensions
  6
ByBlock
 62
  256
370
   -1
100
AcDbTrace
 10
100
 20
80
 30
0
 11
100
 21
80
 31
0
 12
100
 22
80
 32
0
 13
100
 23
80
 33
0
  0
SOLID
  5
95
100
AcDbEntity
  8
dimensions
  6
ByBlock
 62
  256
370
   -1
100
AcDbTrace
 10
150.59
 20
80
 30
0
 11
150.59
 21
80
 31
0
 12
150.59
 22
80
 32
0
 13
150.59
 23
80
 33
0
  0
MTEXT
  5
96
100
AcDbEntity
  8
dimensions
  6
CONTINUOUS
 62
    0
370
   -2
100
AcDbMText
 10
125.295
 20
81.875
 30
0
 40
2.5
 41
7.777777777778088
 71
    5
 72
    1
  1
50.59
  7
standard
210
0
220
0
230
1
 50
0
 73
    2
 44
1
  0
LINE
  5
97
100
AcDbEntity
  8
dimensions
  6
ByBlock
 62
  256
370
   -1
100
AcDbLine
 10
100
 20
99.375
 11
100
 21
78.75
  0
LINE
  5
98
100
AcDbEntity
  8
dimensions
  6
ByBlock
 62
  256
370
   -1
100
AcDbLine
 10
150.59
 20
99.375
 11
150.59
 21
78.75
  0
ENDBLK
  5
5C
330
5A
100
AcDbEntity
  8
0
100
AcDbBlockEnd
  0
BLOCK
  5
5E
330
5D
100
AcDbEntity
  8
0
100
AcDbBlockBegin
  2
*D9
 70
    1
 10
0
 20
0
  3
*D9
  1

  0
LINE
  5
99
100
AcDbEntity
  8
dimensions
  6
ByBlock
 62
  256
370
   -1
100
AcDbLine
 10
100
 20
170
 11
128
 21
170
  0
SOLID
  5
9A
100
AcDbEntity
  8
dimensions
  6
ByBlock
 62
  256
370
   -1
100
AcDbTrace
 10
100
 20
170
 30
0
 11
100
 21
170
 31
0
 12
100
 22
170
 32
0
 13
100
 23
170
 33
0
  0
SOLID
  5
9B
100
AcDbEntity
  8
dimensions
  6
ByBlock
 62
  256
370
   -1
100
AcDbTrace
 10
128
 20
170
 30
0
 11
128
 21
170
 31
0
 12
128
 22
170
 32
0
 13
128
 23
170
 33
0
  0
MTEXT
  5
9C
100
AcDbEntity
  8
dimensions
  6
CONTINUOUS
 62
    0
370
   -2
100
AcDbMText
 10
114
 20
171.875
 30
0
 40
2.5
 41
3.055555555555556
 71
    5
 72
    1
  1
28
  7
standard
210
0
220
0
230
1
 50
0
 73
    2
 44
1
  0
LINE
  5
9D
100
AcDbEntity
  8
dimensions
  6
ByBlock
 62
  256
370
   -1
100
AcDbLine
 10
100
 20
158.625
 11
100
 21
171.25
  0
LINE
  5
9E
100
AcDbEntity
  8
dimensions
  6
ByBlock
 62
  256
370
   -1
100
AcDbLine
 10
128
 20
166.875
 11
128
 21
171.25
  0
ENDBLK
  5
5F
330
5D
100
AcDbEntity
  8
0
100
AcDbBlockEnd
  0
BLOCK
  5
61
330
60
100
AcDbEntity
  8
0
100
AcDbBlockBegin
  2
*D11
 70
    1
 10
0
 20
0
  3
*D11
  1

  0
LINE
  5
9F
100
AcDbEntity
  8
dimensions
  6
CONTINUOUS
 62
    7
370
    0
100
AcDbLine
 10
132.9252864000017
 20
166.25
 11
139
 21
156
  0
SOLID
  5
A0
100
AcDbEntity
  8
dimensions
  6
CONTINUOUS
 62
    7
370
    0
100
AcDbTrace
 10
132.9252864000017
 20
166.25
 30
0
 11
132.9252864000017
 21
166.25
 31
0
 12
132.9252864000017
 22
166.25
 32
0
 13
132.9252864000017
 23
166.25
 33
0
  0
ENDBLK
  5
62
330
60
100
AcDbEntity
  8
0
100
AcDbBlockEnd
  0
BLOCK
  5
64
330
63
100
AcDbEntity
  8
0
100
AcDbBlockBegin
  2
*D12
 70
    1
 10
0
 20
0
  3
*D12
  1

  0
LINE
  5
A1
100
AcDbEntity
  8
dimensions
  6
CONTINUOUS
 62
    7
370
    0
100
AcDbLine
 10
154
 20
100
 11
151
 21
110
  0
SOLID
  5
A2
100
AcDbEntity
  8
dimensions
  6
CONTINUOUS
 62
    7
370
    0
100
AcDbTrace
 10
154
 20
100
 30
0
 11
154
 21
100
 31
0
 12
154
 22
100
 32
0
 13
154
 23
100
 33
0
  0
ENDBLK
  5
65
330
63
100
AcDbEntity
  8
0
100
AcDbBlockEnd
  0
BLOCK
  5
67
330
66
100
AcDbEntity
  8
0
100
AcDbBlockBegin
  2
*D13
 70
    1
 10
0
 20
0
  3
*D13
  1

  0
LINE
  5
A3
100
AcDbEntity
  8
dimensions
  6
ByBlock
 62
  256
370
   -1
100
AcDbLine
 10
106.5900000000014
 20
161
 11
116.5899999999986
 21
161
  0
SOLID
  5
A4
100
AcDbEntity
  8
dimensions
  6
ByBlock
 62
  256
370
   -1
100
AcDbTrace
 10
106.5900000000014
 20
161
 30
0
 11
106.5900000000014
 21
161
 31
0
 12
106.5900000000014
 22
161
 32
0
 13
106.5900000000014
 23
161
 33
0
  0
SOLID
  5
A5
100
AcDbEntity
  8
dimensions
  6
ByBlock
 62
  256
370
   -1
100
AcDbTrace
 10
116.5899999999986
 20
161
 30
0
 11
116.5899999999986
 21
161
 31
0
 12
116.5899999999986
 22
161
 32
0
 13
116.5899999999986
 23
161
 33
0
  0
MTEXT
  5
A6
100
AcDbEntity
  8
dimensions
  6
CONTINUOUS
 62
    0
370
   -2
100
AcDbMText
 10
111.59
 20
162.875
 30
0
 40
2.5
 41
2.5
 71
    5
 72
    1
  1
10
  7
standard
210
0
220
0
230
1
 50
0
 73
    2
 44
1
  0
LINE
  5
A7
100
AcDbEntity
  8
dimensions
  6
ByBlock
 62
  256
370
   -1
100
AcDbLine
 10
106.5900000000014
 20
155.215
 11
106.5900000000014
 21
162.25
  0
LINE
  5
A8
100
AcDbEntity
  8
dimensions
  6
ByBlock
 62
  256
370
   -1
100
AcDbLine
 10
116.5899999999986
 20
155.215
 11
116.5899999999986
 21
162.25
  0
ENDBLK
  5
68
330
66
100
AcDbEntity
  8
0
100
AcDbBlockEnd
  0
BLOCK
  5
6A
330
69
100
AcDbEntity
  8
0
100
AcDbBlockBegin
  2
*D14
 70
    1
 10
0
 20
0
  3
*D14
  1

  0
LINE
  5
A9
100
AcDbEntity
  8
dimensions
  6
ByBlock
 62
  256
370
   -1
100
AcDbLine
 10
106.5900000000002
 20
119
 11
116.5899999999998
 21
119
  0
SOLID
  5
AA
100
AcDbEntity
  8
dimensions
  6
ByBlock
 62
  256
370
   -1
100
AcDbTrace
 10
106.5900000000002
 20
119
 30
0
 11
106.5900000000002
 21
119
 31
0
 12
106.5900000000002
 22
119
 32
0
 13
106.5900000000002
 23
119
 33
0
  0
SOLID
  5
AB
100
AcDbEntity
  8
dimensions
  6
ByBlock
 62
  256
370
   -1
100
AcDbTrace
 10
116.5899999999998
 20
119
 30
0
 11
116.5899999999998
 21
119
 31
0
 12
116.5899999999998
 22
119
 32
0
 13
116.5899999999998
 23
119
 33
0
  0
MTEXT
  5
AC
100
AcDbEntity
  8
dimensions
  6
CONTINUOUS
 62
    0
370
   -2
100
AcDbMText
 10
111.59
 20
120.875
 30
0
 40
2.5
 41
2.5
 71
    5
 72
    1
  1
10
  7
standard
210
0
220
0
230
1
 50
0
 73
    2
 44
1
  0
LINE
  5
AD
100
AcDbEntity
  8
dimensions
  6
ByBlock
 62
  256
370
   -1
100
AcDbLine
 10
106.5900000000002
 20
112.215
 11
106.5900000000002
 21
120.25
  0
LINE
  5
AE
100
AcDbEntity
  8
dimensions
  6
ByBlock
 62
  256
370
   -1
100
AcDbLine
 10
116.5899999999998
 20
112.215
 11
116.5899999999998
 21
120.25
  0
ENDBLK
  5
6B
330
69
100
AcDbEntity
  8
0
100
AcDbBlockEnd
  0
BLOCK
  5
6D
330
6C
100
AcDbEntity
  8
0
100
AcDbBlockBegin
  2
*D15
 70
    1
 10
0
 20
0
  3
*D15
  1

  0
LINE
  5
AF
100
AcDbEntity
  8
dimensions
  6
ByBlock
 62
  256
370
   -1
100
AcDbLine
 10
120.09
 20
161
 11
123.09
 21
161
  0
SOLID
  5
B0
100
AcDbEntity
  8
dimensions
  6
ByBlock
 62
  256
370
   -1
100
AcDbTrace
 10
120.09
 20
161
 30
0
 11
120.09
 21
161
 31
0
 12
120.09
 22
161
 32
0
 13
120.09
 23
161
 33
0
  0
SOLID
  5
B1
100
AcDbEntity
  8
dimensions
  6
ByBlock
 62
  256
370
   -1
100
AcDbTrace
 10
123.09
 20
161
 30
0
 11
123.09
 21
161
 31
0
 12
123.09
 22
161
 32
0
 13
123.09
 23
161
 33
0
  0
MTEXT
  5
B2
100
AcDbEntity
  8
dimensions
  6
CONTINUOUS
 62
    0
370
   -2
100
AcDbMText
 10
121.59
 20
162.875
 30
0
 40
2.5
 41
1.111111111111266
 71
    5
 72
    1
  1
3
  7
standard
210
0
220
0
230
1
 50
0
 73
    2
 44
1
  0
LINE
  5
B3
100
AcDbEntity
  8
dimensions
  6
ByBlock
 62
  256
370
   -1
100
AcDbLine
 10
120.09
 20
155.215
 11
120.09
 21
162.25
  0
LINE
  5
B4
100
AcDbEntity
  8
dimensions
  6
ByBlock
 62
  256
370
   -1
100
AcDbLine
 10
123.09
 20
155.215
 11
123.09
 21
162.25
  0
ENDBLK
  5
6E
330
6C
100
AcDbEntity
  8
0
100
AcDbBlockEnd
  0
BLOCK
  5
70
330
6F
100
AcDbEntity
  8
0
100
AcDbBlockBegin
  2
*D5
 70
    1
 10
0
 20
0
  3
*D5
  1

  0
LINE
  5
B5
100
AcDbEntity
  8
dimensions
  6
ByBlock
 62
  256
370
   -1
100
AcDbLine
 10
100
 20
70
 11
166.25
 21
70
  0
SOLID
  5
B6
100
AcDbEntity
  8
dimensions
  6
ByBlock
 62
  256
370
   -1
100
AcDbTrace
 10
100
 20
70
 30
0
 11
100
 21
70
 31
0
 12
100
 22
70
 32
0
 13
100
 23
70
 33
0
  0
SOLID
  5
B7
100
AcDbEntity
  8
dimensions
  6
ByBlock
 62
  256
370
   -1
100
AcDbTrace
 10
166.25
 20
70
 30
0
 11
166.25
 21
70
 31
0
 12
166.25
 22
70
 32
0
 13
166.25
 23
70
 33
0
  0
MTEXT
  5
B8
100
AcDbEntity
  8
dimensions
  6
CONTINUOUS
 62
    0
370
   -2
100
AcDbMText
 10
133.125
 20
71.875
 30
0
 40
2.5
 41
7.777777777778244
 71
    5
 72
    1
  1
66.25
  7
standard
210
0
220
0
230
1
 50
0
 73
    2
 44
1
  0
LINE
  5
B9
100
AcDbEntity
  8
dimensions
  6
ByBlock
 62
  256
370
   -1
100
AcDbLine
 10
100
 20
99.375
 11
100
 21
68.75
  0
LINE
  5
BA
100
AcDbEntity
  8
dimensions
  6
ByBlock
 62
  256
370
   -1
100
AcDbLine
 10
166.25
 20
104.3749990463257
 11
166.25
 21
68.75
  0
ENDBLK
  5
71
330
6F
100
AcDbEntity
  8
0
100
AcDbBlockEnd
  0
BLOCK
  5
73
330
72
100
AcDbEntity
  8
0
100
AcDbBlockBegin
  2
*D16
 70
    1
 10
0
 20
0
  3
*D16
  1

  0
LINE
  5
BB
100
AcDbEntity
  8
dimensions
  6
ByBlock
 62
  256
370
   -1
100
AcDbLine
 10
120.09
 20
119
 11
123.09
 21
119
  0
SOLID
  5
BC
100
AcDbEntity
  8
dimensions
  6
ByBlock
 62
  256
370
   -1
100
AcDbTrace
 10
120.09
 20
119
 30
0
 11
120.09
 21
119
 31
0
 12
120.09
 22
119
 32
0
 13
120.09
 23
119
 33
0
  0
SOLID
  5
BD
100
AcDbEntity
  8
dimensions
  6
ByBlock
 62
  256
370
   -1
100
AcDbTrace
 10
123.09
 20
119
 30
0
 11
123.09
 21
119
 31
0
 12
123.09
 22
119
 32
0
 13
123.09
 23
119
 33
0
  0
MTEXT
  5
BE
100
AcDbEntity
  8
dimensions
  6
CONTINUOUS
 62
    0
370
   -2
100
AcDbMText
 10
121.59
 20
120.875
 30
0
 40
2.5
 41
1.111111111111266
 71
    5
 72
    1
  1
3
  7
standard
210
0
220
0
230
1
 50
0
 73
    2
 44
1
  0
LINE
  5
BF
100
AcDbEntity
  8
dimensions
  6
ByBlock
 62
  256
370
   -1
100
AcDbLine
 10
120.09
 20
112.215
 11
120.09
 21
120.25
  0
LINE
  5
C0
100
AcDbEntity
  8
dimensions
  6
ByBlock
 62
  256
370
   -1
100
AcDbLine
 10
123.09
 20
112.215
 11
123.09
 21
120.25
  0
ENDBLK
  5
74
330
72
100
AcDbEntity
  8
0
100
AcDbBlockEnd
  0
BLOCK
  5
76
330
75
100
AcDbEntity
  8
0
100
AcDbBlockBegin
  2
*D6
 70
    1
 10
0
 20
0
  3
*D6
  1

  0
LINE
  5
C1
100
AcDbEntity
  8
dimensions
  6
ByBlock
 62
  256
370
   -1
100
AcDbLine
 10
95
 20
100
 11
95
 21
111.59
  0
SOLID
  5
C2
100
AcDbEntity
  8
dimensions
  6
ByBlock
 62
  256
370
   -1
100
AcDbTrace
 10
95
 20
100
 30
0
 11
95
 21
100
 31
0
 12
95
 22
100
 32
0
 13
95
 23
100
 33
0
  0
SOLID
  5
C3
100
AcDbEntity
  8
dimensions
  6
ByBlock
 62
  256
370
   -1
100
AcDbTrace
 10
95
 20
111.59
 30
0
 11
95
 21
111.59
 31
0
 12
95
 22
111.59
 32
0
 13
95
 23
111.59
 33
0
  0
MTEXT
  5
C4
100
AcDbEntity
  8
dimensions
  6
CONTINUOUS
 62
    0
370
   -2
100
AcDbMText
 10
93.125
 20
105.795
 30
0
 40
2.5
 41
6.666666666666822
 71
    5
 72
    1
  1
11.59
  7
standard
210
0
220
0
230
1
 50
90
 73
    2
 44
1
  0
LINE
  5
C5
100
AcDbEntity
  8
dimensions
  6
ByBlock
 62
  256
370
   -1
100
AcDbLine
 10
99.375
 20
100
 11
93.75
 21
100
  0
LINE
  5
C6
100
AcDbEntity
  8
dimensions
  6
ByBlock
 62
  256
370
   -1
100
AcDbLine
 10
105.965
 20
111.59
 11
93.75
 21
111.59
  0
ENDBLK
  5
77
330
75
100
AcDbEntity
  8
0
100
AcDbBlockEnd
  0
BLOCK
  5
79
330
78
100
AcDbEntity
  8
0
100
AcDbBlockBegin
  2
*D7
 70
    1
 10
0
 20
0
  3
*D7
  1

  0
LINE
  5
C7
100
AcDbEntity
  8
dimensions
  6
ByBlock
 62
  256
370
   -1
100
AcDbLine
 10
90
 20
100
 11
90
 21
154.59
  0
SOLID
  5
C8
100
AcDbEntity
  8
dimensions
  6
ByBlock
 62
  256
370
   -1
100
AcDbTrace
 10
90
 20
100
 30
0
 11
90
 21
100
 31
0
 12
90
 22
100
 32
0
 13
90
 23
100
 33
0
  0
SOLID
  5
C9
100
AcDbEntity
  8
dimensions
  6
ByBlock
 62
  256
370
   -1
100
AcDbTrace
 10
90
 20
154.59
 30
0
 11
90
 21
154.59
 31
0
 12
90
 22
154.59
 32
0
 13
90
 23
154.59
 33
0
  0
MTEXT
  5
CA
100
AcDbEntity
  8
dimensions
  6
CONTINUOUS
 62
    0
370
   -2
100
AcDbMText
 10
88.125
 20
127.295
 30
0
 40
2.5
 41
8.055555555555866
 71
    5
 72
    1
  1
54.59
  7
standard
210
0
220
0
230
1
 50
90
 73
    2
 44
1
  0
LINE
  5
CB
100
AcDbEntity
  8
dimensions
  6
ByBlock
 62
  256
370
   -1
100
AcDbLine
 10
99.375
 20
100
 11
88.75
 21
100
  0
LINE
  5
CC
100
AcDbEntity
  8
dimensions
  6
ByBlock
 62
  256
370
   -1
100
AcDbLine
 10
110.965
 20
154.59
 11
88.75
 21
154.59
  0
ENDBLK
  5
7A
330
78
100
AcDbEntity
  8
0
100
AcDbBlockEnd
  0
BLOCK
  5
7C
330
7B
100
AcDbEntity
  8
0
100
AcDbBlockBegin
  2
*D8
 70
    1
 10
0
 20
0
  3
*D8
  1

  0
LINE
  5
CD
100
AcDbEntity
  8
dimensions
  6
ByBlock
 62
  256
370
   -1
100
AcDbLine
 10
85
 20
100
 11
85
 21
166.25
  0
SOLID
  5
CE
100
AcDbEntity
  8
dimensions
  6
ByBlock
 62
  256
370
   -1
100
AcDbTrace
 10
85
 20
100
 30
0
 11
85
 21
100
 31
0
 12
85
 22
100
 32
0
 13
85
 23
100
 33
0
  0
SOLID
  5
CF
100
AcDbEntity
  8
dimensions
  6
ByBlock
 62
  256
370
   -1
100
AcDbTrace
 10
85
 20
166.25
 30
0
 11
85
 21
166.25
 31
0
 12
85
 22
166.25
 32
0
 13
85
 23
166.25
 33
0
  0
MTEXT
  5
D0
100
AcDbEntity
  8
dimensions
  6
CONTINUOUS
 62
    0
370
   -2
100
AcDbMText
 10
83.125
 20
133.125
 30
0
 40
2.5
 41
7.777777777778244
 71
    5
 72
    1
  1
66.25
  7
standard
210
0
220
0
230
1
 50
90
 73
    2
 44
1
  0
LINE
  5
D1
100
AcDbEntity
  8
dimensions
  6
ByBlock
 62
  256
370
   -1
100
AcDbLine
 10
99.375
 20
100
 11
83.75
 21
100
  0
LINE
  5
D2
100
AcDbEntity
  8
dimensions
  6
ByBlock
 62
  256
370
   -1
100
AcDbLine
 10
104.3750009536743
 20
166.25
 11
83.75
 21
166.25
  0
ENDBLK
  5
7D
330
7B
100
AcDbEntity
  8
0
100
AcDbBlockEnd
  0
BLOCK
  5
7F
330
7E
100
AcDbEntity
  8
0
100
AcDbBlockBegin
  2
*D4
 70
    1
 10
0
 20
0
  3
*D4
  1

  0
LINE
  5
D3
100
AcDbEntity
  8
dimensions
  6
ByBlock
 62
  256
370
   -1
100
AcDbLine
 10
100
 20
75
 11
156.59
 21
75
  0
SOLID
  5
D4
100
AcDbEntity
  8
dimensions
  6
ByBlock
 62
  256
370
   -1
100
AcDbTrace
 10
100
 20
75
 30
0
 11
100
 21
75
 31
0
 12
100
 22
75
 32
0
 13
100
 23
75
 33
0
  0
SOLID
  5
D5
100
AcDbEntity
  8
dimensions
  6
ByBlock
 62
  256
370
   -1
100
AcDbTrace
 10
156.59
 20
75
 30
0
 11
156.59
 21
75
 31
0
 12
156.59
 22
75
 32
0
 13
156.59
 23
75
 33
0
  0
MTEXT
  5
D6
100
AcDbEntity
  8
dimensions
  6
CONTINUOUS
 62
    0
370
   -2
100
AcDbMText
 10
128.295
 20
76.875
 30
0
 40
2.5
 41
7.777777777778243
 71
    5
 72
    1
  1
56.59
  7
standard
210
0
220
0
230
1
 50
0
 73
    2
 44
1
  0
LINE
  5
D7
100
AcDbEntity
  8
dimensions
  6
ByBlock
 62
  256
370
   -1
100
AcDbLine
 10
100
 20
99.375
 11
100
 21
73.75
  0
LINE
  5
D8
100
AcDbEntity
  8
dimensions
  6
ByBlock
 62
  256
370
   -1
100
AcDbLine
 10
156.59
 20
99.375
 11
156.59
 21
73.75
  0
ENDBLK
  5
80
330
7E
100
AcDbEntity
  8
0
100
AcDbBlockEnd
  0
ENDSEC
  0
SECTION
  2
ENTITIES
  0
DIMENSION
  5
D9
100
AcDbEntity
  8
dimensions
  6
ByLayer
 62
  256
370
   -1
100
AcDbDimension
  2
*D1
 10
111.59
 20
93
 30
0
 11
105.795
 21
94.875
 31
0
 70
   32
 71
    5
 72
    0
  3
Standard
 53
0
210
0
220
0
230
1
100
AcDbAlignedDimension
 13
100
 23
104.9999999403954
 33
0
 14
111.59
 24
111.59
 34
0
100
AcDbRotatedDimension
  0
DIMENSION
  5
DA
100
AcDbEntity
  8
dimensions
  6
ByLayer
 62
  256
370
   -1
100
AcDbDimension
  2
*D2
 10
121.59
 20
86
 30
0
 11
110.795
 21
87.875
 31
0
 70
   32
 71
    5
 72
    0
  3
Standard
 53
0
210
0
220
0
230
1
100
AcDbAlignedDimension
 13
100
 23
104.9999999403954
 33
0
 14
121.59
 24
111.59
 34
0
100
AcDbRotatedDimension
  0
DIMENSION
  5
DB
100
AcDbEntity
  8
dimensions
  6
ByLayer
 62
  256
370
   -1
100
AcDbDimension
  2
*D3
 10
150.59
 20
80
 30
0
 11
125.295
 21
81.875
 31
0
 70
   32
 71
    5
 72
    0
  3
Standard
 53
0
210
0
220
0
230
1
100
AcDbAlignedDimension
 13
100
 23
100
 33
0
 14
150.59
 24
100
 34
0
100
AcDbRotatedDimension
  0
DIMENSION
  5
DC
100
AcDbEntity
  8
dimensions
  6
ByLayer
 62
  256
370
   -1
100
AcDbDimension
  2
*D4
 10
156.59
 20
75
 30
0
 11
128.295
 21
76.875
 31
0
 70
   32
 71
    5
 72
    0
  3
Standard
 53
0
210
0
220
0
230
1
100
AcDbAlignedDimension
 13
100
 23
100
 33
0
 14
156.59
 24
100
 34
0
100
AcDbRotatedDimension
  0
DIMENSION
  5
DD
100
AcDbEntity
  8
dimensions
  6
ByLayer
 62
  256
370
   -1
100
AcDbDimension
  2
*D5
 10
166.25
 20
70
 30
0
 11
133.125
 21
71.875
 31
0
 70
   32
 71
    5
 72
    0
  3
Standard
 53
0
210
0
220
0
230
1
100
AcDbAlignedDimension
 13
100
 23
100
 33
0
 14
166.25
 24
104.9999990463257
 34
0
100
AcDbRotatedDimension
  0
DIMENSION
  5
DE
100
AcDbEntity
  8
dimensions
  6
ByLayer
 62
  256
370
   -1
100
AcDbDimension
  2
*D6
 10
95
 20
111.59
 30
0
 11
93.125
 21
105.795
 31
0
 70
   32
 71
    5
 72
    0
  3
Standard
 53
0
210
0
220
0
230
1
100
AcDbAlignedDimension
 13
100
 23
100
 33
0
 14
106.59
 24
111.59
 34
0
 50
90
100
AcDbRotatedDimension
  0
DIMENSION
  5
DF
100
AcDbEntity
  8
dimensions
  6
ByLayer
 62
  256
370
   -1
100
AcDbDimension
  2
*D7
 10
90
 20
154.59
 30
0
 11
88.125
 21
127.295
 31
0
 70
   32
 71
    5
 72
    0
  3
Standard
 53
0
210
0
220
0
230
1
100
AcDbAlignedDimension
 13
100
 23
100
 33
0
 14
111.59
 24
154.59
 34
0
 50
90
100
AcDbRotatedDimension
  0
DIMENSION
  5
E0
100
AcDbEntity
  8
dimensions
  6
ByLayer
 62
  256
370
   -1
100
AcDbDimension
  2
*D8
 10
85
 20
166.25
 30
0
 11
83.125
 21
133.125
 31
0
 70
   32
 71
    5
 72
    0
  3
Standard
 53
0
210
0
220
0
230
1
100
AcDbAlignedDimension
 13
100
 23
100
 33
0
 14
105.0000009536743
 24
166.25
 34
0
 50
90
100
AcDbRotatedDimension
  0
DIMENSION
  5
E1
100
AcDbEntity
  8
dimensions
  6
ByLayer
 62
  256
370
   -1
100
AcDbDimension
  2
*D9
 10
128
 20
170
 30
0
 11
114
 21
171.875
 31
0
 70
   32
 71
    5
 72
    0
  3
Standard
 53
0
210
0
220
0
230
1
100
AcDbAlignedDimension
 13
100
 23
158
 33
0
 14
128
 24
166.25
 34
0
100
AcDbRotatedDimension
  0
DIMENSION
  5
E2
100
AcDbEntity
  8
dimensions
  6
ByLayer
 62
  256
370
   -1
100
AcDbDimension
  2
*D10
 10
138.25
 20
176
 30
0
 11
119.125
 21
177.875
 31
0
 70
   32
 71
    5
 72
    0
  3
Standard
 53
0
210
0
220
0
230
1
100
AcDbAlignedDimension
 13
100
 23
161
 33
0
 14
138.25
 24
166.25
 34
0
100
AcDbRotatedDimension
  0
MTEXT
  5
E3
100
AcDbEntity
  8
dimensions
  6
ByLayer
 62
  256
370
   -1
100
AcDbMText
 10
132
 20
156
 30
0
 40
2.5
 41
15.76388888888928
 71
    1
 72
    1
  1
6mm deep
  7
standard
210
0
220
0
230
1
 50
0
 73
    2
 44
1
  0
LEADER
  5
E4
100
AcDbEntity
  8
dimensions
  6
ByLayer
 62
  256
370
   -1
100
AcDbLeader
  3
Standard
 71
    1
 72
    0
 73
    3
 74
    0
 75
    0
 40
1
 41
10
 76
2
 76
2
 10
132.9252864000017
 20
166.25
 30
0
 10
139
 20
156
 30
0
  0
MTEXT
  5
E5
100
AcDbEntity
  8
dimensions
  6
ByLayer
 62
  256
370
   -1
100
AcDbMText
 10
143
 20
114
 30
0
 40
2.5
 41
16.59722222222246
 71
    1
 72
    1
  1
11mm deep
  7
standard
210
0
220
0
230
1
 50
0
 73
    2
 44
1
  0
LEADER
  5
E6
100
AcDbEntity
  8
dimensions
  6
ByLayer
 62
  256
370
   -1
100
AcDbLeader
  3
Standard
 71
    1
 72
    0
 73
    3
 74
    0
 75
    0
 40
1
 41
10
 76
2
 76
2
 10
154
 20
100
 30
0
 10
151
 20
110
 30
0
  0
CIRCLE
  5
E7
100
AcDbEntity
  8
box
  6
ByLayer
 62
  256
370
   -1
100
AcDbCircle
 10
108.12
 20
140.88
 40
3
  0
CIRCLE
  5
E8
100
AcDbEntity
  8
box
  6
ByLayer
 62
  256
370
   -1
100
AcDbCircle
 10
158.13
 20
140.88
 40
3
  0
ARC
  5
E9
100
AcDbEntity
  8
box
  6
ByLayer
 62
  256
370
   -1
100
AcDbCircle
 10
105
 20
161.25
 40
5
100
AcDbArc
 50
90
 51
180
  0
ARC
  5
EA
100
AcDbEntity
  8
box
  6
ByLayer
 62
  256
370
   -1
100
AcDbCircle
 10
161.25
 20
161.25
 40
5
100
AcDbArc
 50
0
 51
90
  0
ARC
  5
EB
100
AcDbEntity
  8
box
  6
ByLayer
 62
  256
370
   -1
100
AcDbCircle
 10
161.25
 20
105
 40
5
100
AcDbArc
 50
270
 51
0
  0
ARC
  5
EC
100
AcDbEntity
  8
box
  6
ByLayer
 62
  256
370
   -1
100
AcDbCircle
 10
105
 20
105
 40
5
100
AcDbArc
 50
180
 51
270
  0
LINE
  5
ED
100
AcDbEntity
  8
box
  6
ByLayer
 62
  256
370
   -1
100
AcDbLine
 10
105
 20
166.25
 11
161.2500019073486
 21
166.25
  0
LINE
  5
EE
100
AcDbEntity
  8
box
  6
ByLayer
 62
  256
370
   -1
100
AcDbLine
 10
166.25
 20
161.25
 11
166.25
 21
104.9999990463257
  0
LINE
  5
EF
100
AcDbEntity
  8
box
  6
ByLayer
 62
  256
370
   -1
100
AcDbLine
 10
161.25
 20
100
 11
105
 21
100
  0
LINE
  5
F0
100
AcDbEntity
  8
box
  6
ByLayer
 62
  256
370
   -1
100
AcDbLine
 10
100
 20
105
 11
100
 21
161.25
  0
DIMENSION
  5
F1
100
AcDbEntity
  8
dimensions
  6
ByLayer
 62
  256
370
   -1
100
AcDbDimension
  2
*D13
 10
116.5899999999986
 20
161
 30
0
 11
111.59
 21
162.875
 31
0
 70
   32
 71
    5
 72
    0
  3
Standard
 53
0
210
0
220
0
230
1
100
AcDbAlignedDimension
 13
106.5900000000014
 23
154.59
 33
0
 14
116.5899999999986
 24
154.59
 34
0
100
AcDbRotatedDimension
  0
DIMENSION
  5
F2
100
AcDbEntity
  8
dimensions
  6
ByLayer
 62
  256
370
   -1
100
AcDbDimension
  2
*D14
 10
116.5899999999998
 20
119
 30
0
 11
111.59
 21
120.875
 31
0
 70
   32
 71
    5
 72
    0
  3
Standard
 53
0
210
0
220
0
230
1
100
AcDbAlignedDimension
 13
106.5900000000002
 23
111.59
 33
0
 14
116.5899999999998
 24
111.59
 34
0
100
AcDbRotatedDimension
  0
CIRCLE
  5
F3
100
AcDbEntity
  8
holes
  6
ByLayer
 62
  256
370
   -1
100
AcDbCircle
 10
111.59
 20
111.59
 40
5
  0
CIRCLE
  5
F4
100
AcDbEntity
  8
holes
  6
ByLayer
 62
  256
370
   -1
100
AcDbCircle
 10
111.59
 20
154.59
 40
5
  0
CIRCLE
  5
F5
100
AcDbEntity
  8
holes
  6
ByLayer
 62
  256
370
   -1
100
AcDbCircle
 10
121.59
 20
111.59
 40
1.5
  0
CIRCLE
  5
F6
100
AcDbEntity
  8
holes
  6
ByLayer
 62
  256
370
   -1
100
AcDbCircle
 10
121.59
 20
154.59
 40
1.5
  0
LINE
  5
F7
100
AcDbEntity
  8
holes
  6
ByLayer
 62
  256
370
   -1
100
AcDbLine
 10
150.59
 20
101.5
 11
150.59
 21
98.5
  0
LINE
  5
F8
100
AcDbEntity
  8
holes
  6
ByLayer
 62
  256
370
   -1
100
AcDbLine
 10
156.59
 20
101.5
 11
156.59
 21
98.5
  0
LINE
  5
F9
100
AcDbEntity
  8
holes
  6
ByLayer
 62
  256
370
   -1
100
AcDbLine
 10
128
 20
167.75
 11
128
 21
164.75
  0
LINE
  5
FA
100
AcDbEntity
  8
holes
  6
ByLayer
 62
  256
370
   -1
100
AcDbLine
 10
138.25
 20
167.75
 11
138.25
 21
164.75
  0
LINE
  5
FB
100
AcDbEntity
  8
holes
  6
ByLayer
 62
  256
370
   -1
100
AcDbLine
 10
121.59
 20
153.09
 11
121.59
 21
156.09
  0
LINE
  5
FC
100
AcDbEntity
  8
holes
  6
ByLayer
 62
  256
370
   -1
100
AcDbLine
 10
120.09
 20
154.59
 11
123.09
 21
154.59
  0
LINE
  5
FD
100
AcDbEntity
  8
holes
  6
ByLayer
 62
  256
370
   -1
100
AcDbLine
 10
121.59
 20
110.09
 11
121.59
 21
113.09
  0
LINE
  5
FE
100
AcDbEntity
  8
holes
  6
ByLayer
 62
  256
370
   -1
100
AcDbLine
 10
120.09
 20
111.59
 11
123.09
 21
111.59
  0
LINE
  5
FF
100
AcDbEntity
  8
holes
  6
ByLayer
 62
  256
370
   -1
100
AcDbLine
 10
106.5900000000002
 20
154.59
 11
116.5899999999998
 21
154.59
  0
LINE
  5
100
100
AcDbEntity
  8
holes
  6
ByLayer
 62
  256
370
   -1
100
AcDbLine
 10
111.59
 20
149.5900000000001
 11
111.59
 21
159.5899999999999
  0
LINE
  5
101
100
AcDbEntity
  8
holes
  6
ByLayer
 62
  256
370
   -1
100
AcDbLine
 10
106.5900000000002
 20
111.59
 11
116.5899999999998
 21
111.59
  0
LINE
  5
102
100
AcDbEntity
  8
holes
  6
ByLayer
 62
  256
370
   -1
100
AcDbLine
 10
111.59
 20
106.5900000000001
 11
111.59
 21
116.5899999999999
  0
DIMENSION
  5
103
100
AcDbEntity
  8
dimensions
  6
ByLayer
 62
  256
370
   -1
100
AcDbDimension
  2
*D15
 10
123.09
 20
161
 30
0
 11
121.59
 21
162.875
 31
0
 70
   32
 71
    5
 72
    0
  3
Standard
 53
0
210
0
220
0
230
1
100
AcDbAlignedDimension
 13
120.09
 23
154.59
 33
0
 14
123.09
 24
154.59
 34
0
100
AcDbRotatedDimension
  0
DIMENSION
  5
104
100
AcDbEntity
  8
dimensions
  6
ByLayer
 62
  256
370
   -1
100
AcDbDimension
  2
*D16
 10
123.09
 20
119
 30
0
 11
121.59
 21
120.875
 31
0
 70
   32
 71
    5
 72
    0
  3
Standard
 53
0
210
0
220
0
230
1
100
AcDbAlignedDimension
 13
120.09
 23
111.59
 33
0
 14
123.09
 24
111.59
 34
0
100
AcDbRotatedDimension
  0
LINE
  5
105
100
AcDbEntity
  8
dimensions_exploded
  6
ByLayer
 62
  256
370
   -1
100
AcDbLine
 10
100
 20
93
 11
111.59
 21
93
  0
SOLID
  5
106
100
AcDbEntity
  8
dimensions_exploded
  6
ByLayer
 62
  256
370
   -1
100
AcDbTrace
 10
100
 20
93
 30
0
 11
100
 21
93
 31
0
 12
100
 22
93
 32
0
 13
100
 23
93
 33
0
  0
SOLID
  5
107
100
AcDbEntity
  8
dimensions_exploded
  6
ByLayer
 62
  256
370
   -1
100
AcDbTrace
 10
111.59
 20
93
 30
0
 11
111.59
 21
93
 31
0
 12
111.59
 22
93
 32
0
 13
111.59
 23
93
 33
0
  0
LINE
  5
108
100
AcDbEntity
  8
dimensions_exploded
  6
ByLayer
 62
  256
370
   -1
100
AcDbLine
 10
100
 20
104.3749999403954
 11
100
 21
91.75
  0
LINE
  5
109
100
AcDbEntity
  8
dimensions_exploded
  6
ByLayer
 62
  256
370
   -1
100
AcDbLine
 10
111.59
 20
110.965
 11
111.59
 21
91.75
  0
LINE
  5
10A
100
AcDbEntity
  8
dimensions_exploded
  6
ByLayer
 62
  256
370
   -1
100
AcDbLine
 10
100
 20
86
 11
121.59
 21
86
  0
SOLID
  5
10B
100
AcDbEntity
  8
dimensions_exploded
  6
ByLayer
 62
  256
370
   -1
100
AcDbTrace
 10
100
 20
86
 30
0
 11
100
 21
86
 31
0
 12
100
 22
86
 32
0
 13
100
 23
86
 33
0
  0
SOLID
  5
10C
100
AcDbEntity
  8
dimensions_exploded
  6
ByLayer
 62
  256
370
   -1
100
AcDbTrace
 10
121.59
 20
86
 30
0
 11
121.59
 21
86
 31
0
 12
121.59
 22
86
 32
0
 13
121.59
 23
86
 33
0
  0
LINE
  5
10D
100
AcDbEntity
  8
dimensions_exploded
  6
ByLayer
 62
  256
370
   -1
100
AcDbLine
 10
100
 20
104.3749999403954
 11
100
 21
84.75
  0
LINE
  5
10E
100
AcDbEntity
  8
dimensions_exploded
  6
ByLayer
 62
  256
370
   -1
100
AcDbLine
 10
121.59
 20
110.965
 11
121.59
 21
84.75
  0
LINE
  5
10F
100
AcDbEntity
  8
dimensions_exploded
  6
ByLayer
 62
  256
370
   -1
100
AcDbLine
 10
100
 20
80
 11
150.59
 21
80
  0
SOLID
  5
110
100
AcDbEntity
  8
dimensions_exploded
  6
ByLayer
 62
  256
370
   -1
100
AcDbTrace
 10
100
 20
80
 30
0
 11
100
 21
80
 31
0
 12
100
 22
80
 32
0
 13
100
 23
80
 33
0
  0
SOLID
  5
111
100
AcDbEntity
  8
dimensions_exploded
  6
ByLayer
 62
  256
370
   -1
100
AcDbTrace
 10
150.59
 20
80
 30
0
 11
150.59
 21
80
 31
0
 12
150.59
 22
80
 32
0
 13
150.59
 23
80
 33
0
  0
LINE
  5
112
100
AcDbEntity
  8
dimensions_exploded
  6
ByLayer
 62
  256
370
   -1
100
AcDbLine
 10
100
 20
99.375
 11
100
 21
78.75
  0
LINE
  5
113
100
AcDbEntity
  8
dimensions_exploded
  6
ByLayer
 62
  256
370
   -1
100
AcDbLine
 10
150.59
 20
99.375
 11
150.59
 21
78.75
  0
LINE
  5
114
100
AcDbEntity
  8
dimensions_exploded
  6
ByLayer
 62
  256
370
   -1
100
AcDbLine
 10
100
 20
75
 11
156.59
 21
75
  0
SOLID
  5
115
100
AcDbEntity
  8
dimensions_exploded
  6
ByLayer
 62
  256
370
   -1
100
AcDbTrace
 10
100
 20
75
 30
0
 11
100
 21
75
 31
0
 12
100
 22
75
 32
0
 13
100
 23
75
 33
0
  0
SOLID
  5
116
100
AcDbEntity
  8
dimensions_exploded
  6
ByLayer
 62
  256
370
   -1
100
AcDbTrace
 10
156.59
 20
75
 30
0
 11
156.59
 21
75
 31
0
 12
156.59
 22
75
 32
0
 13
156.59
 23
75
 33
0
  0
LINE
  5
117
100
AcDbEntity
  8
dimensions_exploded
  6
ByLayer
 62
  256
370
   -1
100
AcDbLine
 10
100
 20
99.375
 11
100
 21
73.75
  0
LINE
  5
118
100
AcDbEntity
  8
dimensions_exploded
  6
ByLayer
 62
  256
370
   -1
100
AcDbLine
 10
156.59
 20
99.375
 11
156.59
 21
73.75
  0
LINE
  5
119
100
AcDbEntity
  8
dimensions_exploded
  6
ByLayer
 62
  256
370
   -1
100
AcDbLine
 10
100
 20
70
 11
166.25
 21
70
  0
SOLID
  5
11A
100
AcDbEntity
  8
dimensions_exploded
  6
ByLayer
 62
  256
370
   -1
100
AcDbTrace
 10
100
 20
70
 30
0
 11
100
 21
70
 31
0
 12
100
 22
70
 32
0
 13
100
 23
70
 33
0
  0
SOLID
  5
11B
100
AcDbEntity
  8
dimensions_exploded
  6
ByLayer
 62
  256
370
   -1
100
AcDbTrace
 10
166.25
 20
70
 30
0
 11
166.25
 21
70
 31
0
 12
166.25
 22
70
 32
0
 13
166.25
 23
70
 33
0
  0
LINE
  5
11C
100
AcDbEntity
  8
dimensions_exploded
  6
ByLayer
 62
  256
370
   -1
100
AcDbLine
 10
100
 20
99.375
 11
100
 21
68.75
  0
LINE
  5
11D
100
AcDbEntity
  8
dimensions_exploded
  6
ByLayer
 62
  256
370
   -1
100
AcDbLine
 10
166.25
 20
104.3749990463257
 11
166.25
 21
68.75
  0
LINE
  5
11E
100
AcDbEntity
  8
dimensions_exploded
  6
ByLayer
 62
  256
370
   -1
100
AcDbLine
 10
95
 20
100
 11
95
 21
111.59
  0
SOLID
  5
11F
100
AcDbEntity
  8
dimensions_exploded
  6
ByLayer
 62
  256
370
   -1
100
AcDbTrace
 10
95
 20
100
 30
0
 11
95
 21
100
 31
0
 12
95
 22
100
 32
0
 13
95
 23
100
 33
0
  0
SOLID
  5
120
100
AcDbEntity
  8
dimensions_exploded
  6
ByLayer
 62
  256
370
   -1
100
AcDbTrace
 10
95
 20
111.59
 30
0
 11
95
 21
111.59
 31
0
 12
95
 22
111.59
 32
0
 13
95
 23
111.59
 33
0
  0
LINE
  5
121
100
AcDbEntity
  8
dimensions_exploded
  6
ByLayer
 62
  256
370
   -1
100
AcDbLine
 10
99.375
 20
100
 11
93.75
 21
100
  0
LINE
  5
122
100
AcDbEntity
  8
dimensions_exploded
  6
ByLayer
 62
  256
370
   -1
100
AcDbLine
 10
105.965
 20
111.59
 11
93.75
 21
111.59
  0
LINE
  5
123
100
AcDbEntity
  8
dimensions_exploded
  6
ByLayer
 62
  256
370
   -1
100
AcDbLine
 10
90
 20
100
 11
90
 21
154.59
  0
SOLID
  5
124
100
AcDbEntity
  8
dimensions_exploded
  6
ByLayer
 62
  256
370
   -1
100
AcDbTrace
 10
90
 20
100
 30
0
 11
90
 21
100
 31
0
 12
90
 22
100
 32
0
 13
90
 23
100
 33
0
  0
SOLID
  5
125
100
AcDbEntity
  8
dimensions_exploded
  6
ByLayer
 62
  256
370
   -1
100
AcDbTrace
 10
90
 20
154.59
 30
0
 11
90
 21
154.59
 31
0
 12
90
 22
154.59
 32
0
 13
90
 23
154.59
 33
0
  0
LINE
  5
126
100
AcDbEntity
  8
dimensions_exploded
  6
ByLayer
 62
  256
370
   -1
100
AcDbLine
 10
99.375
 20
100
 11
88.75
 21
100
  0
LINE
  5
127
100
AcDbEntity
  8
dimensions_exploded
  6
ByLayer
 62
  256
370
   -1
100
AcDbLine
 10
110.965
 20
154.59
 11
88.75
 21
154.59
  0
LINE
  5
128
100
AcDbEntity
  8
dimensions_exploded
  6
ByLayer
 62
  256
370
   -1
100
AcDbLine
 10
85
 20
100
 11
85
 21
166.25
  0
SOLID
  5
129
100
AcDbEntity
  8
dimensions_exploded
  6
ByLayer
 62
  256
370
   -1
100
AcDbTrace
 10
85
 20
100
 30
0
 11
85
 21
100
 31
0
 12
85
 22
100
 32
0
 13
85
 23
100
 33
0
  0
SOLID
  5
12A
100
AcDbEntity
  8
dimensions_exploded
  6
ByLayer
 62
  256
370
   -1
100
AcDbTrace
 10
85
 20
166.25
 30
0
 11
85
 21
166.25
 31
0
 12
85
 22
166.25
 32
0
 13
85
 23
166.25
 33
0
  0
LINE
  5
12B
100
AcDbEntity
  8
dimensions_exploded
  6
ByLayer
 62
  256
370
   -1
100
AcDbLine
 10
99.375
 20
100
 11
83.75
 21
100
  0
LINE
  5
12C
100
AcDbEntity
  8
dimensions_exploded
  6
ByLayer
 62
  256
370
   -1
100
AcDbLine
 10
104.3750009536743
 20
166.25
 11
83.75
 21
166.25
  0
LINE
  5
12D
100
AcDbEntity
  8
dimensions_exploded
  6
ByLayer
 62
  256
370
   -1
100
AcDbLine
 10
100
 20
170
 11
128
 21
170
  0
SOLID
  5
12E
100
AcDbEntity
  8
dimensions_exploded
  6
ByLayer
 62
  256
370
   -1
100
AcDbTrace
 10
100
 20
170
 30
0
 11
100
 21
170
 31
0
 12
100
 22
170
 32
0
 13
100
 23
170
 33
0
  0
SOLID
  5
12F
100
AcDbEntity
  8
dimensions_exploded
  6
ByLayer
 62
  256
370
   -1
100
AcDbTrace
 10
128
 20
170
 30
0
 11
128
 21
170
 31
0
 12
128
 22
170
 32
0
 13
128
 23
170
 33
0
  0
LINE
  5
130
100
AcDbEntity
  8
dimensions_exploded
  6
ByLayer
 62
  256
370
   -1
100
AcDbLine
 10
100
 20
158.625
 11
100
 21
171.25
  0
LINE
  5
131
100
AcDbEntity
  8
dimensions_exploded
  6
ByLayer
 62
  256
370
   -1
100
AcDbLine
 10
128
 20
166.875
 11
128
 21
171.25
  0
LINE
  5
132
100
AcDbEntity
  8
dimensions_exploded
  6
ByLayer
 62
  256
370
   -1
100
AcDbLine
 10
100
 20
176
 11
138.25
 21
176
  0
SOLID
  5
133
100
AcDbEntity
  8
dimensions_exploded
  6
ByLayer
 62
  256
370
   -1
100
AcDbTrace
 10
100
 20
176
 30
0
 11
100
 21
176
 31
0
 12
100
 22
176
 32
0
 13
100
 23
176
 33
0
  0
SOLID
  5
134
100
AcDbEntity
  8
dimensions_exploded
  6
ByLayer
 62
  256
370
   -1
100
AcDbTrace
 10
138.25
 20
176
 30
0
 11
138.25
 21
176
 31
0
 12
138.25
 22
176
 32
0
 13
138.25
 23
176
 33
0
  0
LINE
  5
135
100
AcDbEntity
  8
dimensions_exploded
  6
ByLayer
 62
  256
370
   -1
100
AcDbLine
 10
100
 20
161.625
 11
100
 21
177.25
  0
LINE
  5
136
100
AcDbEntity
  8
dimensions_exploded
  6
ByLayer
 62
  256
370
   -1
100
AcDbLine
 10
138.25
 20
166.875
 11
138.25
 21
177.25
  0
LINE
  5
137
100
AcDbEntity
  8
dimensions_exploded
  6
ByLayer
 62
  256
370
   -1
100
AcDbLine
 10
132
 20
154.8888888888889
 11
132.5555555555555
 21
154.8888888888889
  0
ARC
  5
138
100
AcDbEntity
  8
dimensions_exploded
  6
ByLayer
 62
  256
370
   -1
100
AcDbCircle
 10
132.5555559705973
 20
154.3333337483751
 40
0.5555551405139421
100
AcDbArc
 50
359.999957195713
 51
90.00004280428698
  0
LINE
  5
139
100
AcDbEntity
  8
dimensions_exploded
  6
ByLayer
 62
  256
370
   -1
100
AcDbLine
 10
133.1111111111111
 20
154.3333333333333
 11
133.1111111111111
 21
154.0555555555555
  0
ARC
  5
13A
100
AcDbEntity
  8
dimensions_exploded
  6
ByLayer
 62
  256
370
   -1
100
AcDbCircle
 10
132.5555555555555
 20
154.0555555555555
 40
0.5555555555555556
100
AcDbArc
 50
180
 51
0
  0
LINE
  5
13B
100
AcDbEntity
  8
dimensions_exploded
  6
ByLayer
 62
  256
370
   -1
100
AcDbLine
 10
132
 20
154.0555555555555
 11
132
 21
154.8888888888889
  0
ARC
  5
13C
100
AcDbEntity
  8
dimensions_exploded
  6
ByLayer
 62
  256
370
   -1
100
AcDbCircle
 10
133.1574083333342
 20
154.8888881944438
 40
1.157408333334375
100
AcDbArc
 50
106.2602390857831
 51
179.9999656225289
  0
LINE
  5
13D
100
AcDbEntity
  8
dimensions_exploded
  6
ByLayer
 62
  256
370
   -1
100
AcDbLine
 10
134.7777777777779
 20
153.5
 11
134.7777777777779
 21
155.1666666666667
  0
LINE
  5
13E
100
AcDbEntity
  8
dimensions_exploded
  6
ByLayer
 62
  256
370
   -1
100
AcDbLine
 10
133.9444444444446
 20
153.5
 11
133.9444444444446
 21
155.1666666666667
  0
LINE
  5
13F
100
AcDbEntity
  8
dimensions_exploded
  6
ByLayer
 62
  256
370
   -1
100
AcDbLine
 10
133.9444444444446
 20
155.1666666666667
 11
135.1944444444446
 21
155.1666666666667
  0
ARC
  5
140
100
AcDbEntity
  8
dimensions_exploded
  6
ByLayer
 62
  256
370
   -1
100
AcDbCircle
 10
135.1944447557259
 20
154.7500003112813
 40
0.4166663553854564
100
AcDbArc
 50
359.999957195713
 51
90.00004280428696
  0
LINE
  5
141
100
AcDbEntity
  8
dimensions_exploded
  6
ByLayer
 62
  256
370
   -1
100
AcDbLine
 10
135.6111111111113
 20
154.75
 11
135.6111111111113
 21
153.5
  0
LINE
  5
142
100
AcDbEntity
  8
dimensions_exploded
  6
ByLayer
 62
  256
370
   -1
100
AcDbLine
 10
137.2777777777781
 20
153.5
 11
137.2777777777781
 21
155.1666666666667
  0
LINE
  5
143
100
AcDbEntity
  8
dimensions_exploded
  6
ByLayer
 62
  256
370
   -1
100
AcDbLine
 10
136.4444444444447
 20
153.5
 11
136.4444444444447
 21
155.1666666666667
  0
LINE
  5
144
100
AcDbEntity
  8
dimensions_exploded
  6
ByLayer
 62
  256
370
   -1
100
AcDbLine
 10
136.4444444444447
 20
155.1666666666667
 11
137.6944444444447
 21
155.1666666666667
  0
ARC
  5
145
100
AcDbEntity
  8
dimensions_exploded
  6
ByLayer
 62
  256
370
   -1
100
AcDbCircle
 10
137.694444755726
 20
154.7500003112813
 40
0.4166663553854564
100
AcDbArc
 50
359.999957195713
 51
90.00004280428696
  0
LINE
  5
146
100
AcDbEntity
  8
dimensions_exploded
  6
ByLayer
 62
  256
370
   -1
100
AcDbLine
 10
138.1111111111114
 20
154.75
 11
138.1111111111114
 21
153.5
  0
LINE
  5
147
100
AcDbEntity
  8
dimensions_exploded
  6
ByLayer
 62
  256
370
   -1
100
AcDbLine
 10
141.9305555555559
 20
156
 11
141.9305555555559
 21
153.5
  0
LINE
  5
148
100
AcDbEntity
  8
dimensions_exploded
  6
ByLayer
 62
  256
370
   -1
100
AcDbLine
 10
141.9305555555559
 20
153.5
 11
141.2361111111115
 21
153.5
  0
ARC
  5
149
100
AcDbEntity
  8
dimensions_exploded
  6
ByLayer
 62
  256
370
   -1
100
AcDbCircle
 10
141.2361107998302
 20
153.9166663553853
 40
0.4166663553854564
100
AcDbArc
 50
179.999957195713
 51
270.000042804287
  0
LINE
  5
14A
100
AcDbEntity
  8
dimensions_exploded
  6
ByLayer
 62
  256
370
   -1
100
AcDbLine
 10
140.8194444444448
 20
153.9166666666667
 11
140.8194444444448
 21
154.75
  0
ARC
  5
14B
100
AcDbEntity
  8
dimensions_exploded
  6
ByLayer
 62
  256
370
   -1
100
AcDbCircle
 10
141.2361107998302
 20
154.7500003112813
 40
0.4166663553854564
100
AcDbArc
 50
89.99995719571302
 51
180.000042804287
  0
LINE
  5
14C
100
AcDbEntity
  8
dimensions_exploded
  6
ByLayer
 62
  256
370
   -1
100
AcDbLine
 10
141.2361111111115
 20
155.1666666666667
 11
141.9305555555559
 21
155.1666666666667
  0
LINE
  5
14D
100
AcDbEntity
  8
dimensions_exploded
  6
ByLayer
 62
  256
370
   -1
100
AcDbLine
 10
143.8750000000004
 20
153.5
 11
143.1805555555559
 21
153.5
  0
ARC
  5
14E
100
AcDbEntity
  8
dimensions_exploded
  6
ByLayer
 62
  256
370
   -1
100
AcDbCircle
 10
143.1805552442746
 20
153.9166663553853
 40
0.4166663553854564
100
AcDbArc
 50
179.999957195713
 51
270.000042804287
  0
LINE
  5
14F
100
AcDbEntity
  8
dimensions_exploded
  6
ByLayer
 62
  256
370
   -1
100
AcDbLine
 10
142.7638888888893
 20
153.9166666666667
 11
142.7638888888893
 21
154.6111111111111
  0
ARC
  5
150
100
AcDbEntity
  8
dimensions_exploded
  6
ByLayer
 62
  256
370
   -1
100
AcDbCircle
 10
143.3194444444448
 20
154.6111111111111
 40
0.5555555555555556
100
AcDbArc
 50
0
 51
180
  0
LINE
  5
151
100
AcDbEntity
  8
dimensions_exploded
  6
ByLayer
 62
  256
370
   -1
100
AcDbLine
 10
143.8750000000004
 20
154.6111111111111
 11
143.8750000000004
 21
154.3333333333333
  0
LINE
  5
152
100
AcDbEntity
  8
dimensions_exploded
  6
ByLayer
 62
  256
370
   -1
100
AcDbLine
 10
143.8750000000004
 20
154.3333333333333
 11
142.7638888888893
 21
154.3333333333333
  0
LINE
  5
153
100
AcDbEntity
  8
dimensions_exploded
  6
ByLayer
 62
  256
370
   -1
100
AcDbLine
 10
145.8194444444448
 20
153.5
 11
145.1250000000004
 21
153.5
  0
ARC
  5
154
100
AcDbEntity
  8
dimensions_exploded
  6
ByLayer
 62
  256
370
   -1
100
AcDbCircle
 10
145.124999688719
 20
153.9166663553853
 40
0.4166663553854564
100
AcDbArc
 50
179.999957195713
 51
270.000042804287
  0
LINE
  5
155
100
AcDbEntity
  8
dimensions_exploded
  6
ByLayer
 62
  256
370
   -1
100
AcDbLine
 10
144.7083333333337
 20
153.9166666666667
 11
144.7083333333337
 21
154.6111111111111
  0
ARC
  5
156
100
AcDbEntity
  8
dimensions_exploded
  6
ByLayer
 62
  256
370
   -1
100
AcDbCircle
 10
145.2638888888893
 20
154.6111111111111
 40
0.5555555555555556
100
AcDbArc
 50
0
 51
180
  0
LINE
  5
157
100
AcDbEntity
  8
dimensions_exploded
  6
ByLayer
 62
  256
370
   -1
100
AcDbLine
 10
145.8194444444448
 20
154.6111111111111
 11
145.8194444444448
 21
154.3333333333333
  0
LINE
  5
158
100
AcDbEntity
  8
dimensions_exploded
  6
ByLayer
 62
  256
370
   -1
100
AcDbLine
 10
145.8194444444448
 20
154.3333333333333
 11
144.7083333333337
 21
154.3333333333333
  0
LINE
  5
159
100
AcDbEntity
  8
dimensions_exploded
  6
ByLayer
 62
  256
370
   -1
100
AcDbLine
 10
146.6527777777782
 20
152.6666666666667
 11
146.6527777777782
 21
155.1666666666667
  0
LINE
  5
15A
100
AcDbEntity
  8
dimensions_exploded
  6
ByLayer
 62
  256
370
   -1
100
AcDbLine
 10
146.6527777777782
 20
155.1666666666667
 11
147.3472222222226
 21
155.1666666666667
  0
ARC
  5
15B
100
AcDbEntity
  8
dimensions_exploded
  6
ByLayer
 62
  256
370
   -1
100
AcDbCircle
 10
147.3472125751117
 20
154.7499903528891
 40
0.4166763138892406
100
AcDbArc
 50
0.001326542259511873
 51
89.99867345774048
  0
LINE
  5
15C
100
AcDbEntity
  8
dimensions_exploded
  6
ByLayer
 62
  256
370
   -1
100
AcDbLine
 10
147.7638888888893
 20
154.75
 11
147.7638888888893
 21
153.9166666666667
  0
ARC
  5
15D
100
AcDbEntity
  8
dimensions_exploded
  6
ByLayer
 62
  256
370
   -1
100
AcDbCircle
 10
147.3472125751117
 20
153.9166763137776
 40
0.4166763138892406
100
AcDbArc
 50
270.0013265422595
 51
359.9986734577404
  0
LINE
  5
15E
100
AcDbEntity
  8
dimensions_exploded
  6
ByLayer
 62
  256
370
   -1
100
AcDbLine
 10
147.3472222222226
 20
153.5
 11
146.6527777777782
 21
153.5
  0
LINE
  5
15F
100
AcDbEntity
  8
dimensions_exploded
  6
ByLayer
 62
  256
370
   -1
100
AcDbLine
 10
132.9252864000017
 20
166.25
 11
139
 21
156
  0
SOLID
  5
160
100
AcDbEntity
  8
dimensions_exploded
  6
ByLayer
 62
  256
370
   -1
100
AcDbTrace
 10
132.9252864000017
 20
166.25
 30
0
 11
132.9252864000017
 21
166.25
 31
0
 12
132.9252864000017
 22
166.25
 32
0
 13
132.9252864000017
 23
166.25
 33
0
  0
LINE
  5
161
100
AcDbEntity
  8
dimensions_exploded
  6
ByLayer
 62
  256
370
   -1
100
AcDbLine
 10
143
 20
113.4444444444444
 11
143.5555555555555
 21
114
  0
LINE
  5
162
100
AcDbEntity
  8
dimensions_exploded
  6
ByLayer
 62
  256
370
   -1
100
AcDbLine
 10
143.5555555555555
 20
114
 11
143.5555555555555
 21
111.5
  0
LINE
  5
163
100
AcDbEntity
  8
dimensions_exploded
  6
ByLayer
 62
  256
370
   -1
100
AcDbLine
 10
144.3888888888889
 20
113.4444444444444
 11
144.9444444444444
 21
114
  0
LINE
  5
164
100
AcDbEntity
  8
dimensions_exploded
  6
ByLayer
 62
  256
370
   -1
100
AcDbLine
 10
144.9444444444444
 20
114
 11
144.9444444444444
 21
111.5
  0
LINE
  5
165
100
AcDbEntity
  8
dimensions_exploded
  6
ByLayer
 62
  256
370
   -1
100
AcDbLine
 10
146.6111111111111
 20
111.5
 11
146.6111111111111
 21
113.1666666666667
  0
LINE
  5
166
100
AcDbEntity
  8
dimensions_exploded
  6
ByLayer
 62
  256
370
   -1
100
AcDbLine
 10
145.7777777777778
 20
111.5
 11
145.7777777777778
 21
113.1666666666667
  0
LINE
  5
167
100
AcDbEntity
  8
dimensions_exploded
  6
ByLayer
 62
  256
370
   -1
100
AcDbLine
 10
145.7777777777778
 20
113.1666666666667
 11
147.0277777777778
 21
113.1666666666667
  0
ARC
  5
168
100
AcDbEntity
  8
dimensions_exploded
  6
ByLayer
 62
  256
370
   -1
100
AcDbCircle
 10
147.0277780890591
 20
112.7500003112813
 40
0.4166663553854564
100
AcDbArc
 50
359.999957195713
 51
90.00004280428696
  0
LINE
  5
169
100
AcDbEntity
  8
dimensions_exploded
  6
ByLayer
 62
  256
370
   -1
100
AcDbLine
 10
147.4444444444444
 20
112.75
 11
147.4444444444444
 21
111.5
  0
LINE
  5
16A
100
AcDbEntity
  8
dimensions_exploded
  6
ByLayer
 62
  256
370
   -1
100
AcDbLine
 10
149.1111111111112
 20
111.5
 11
149.1111111111112
 21
113.1666666666667
  0
LINE
  5
16B
100
AcDbEntity
  8
dimensions_exploded
  6
ByLayer
 62
  256
370
   -1
100
AcDbLine
 10
148.2777777777779
 20
111.5
 11
148.2777777777779
 21
113.1666666666667
  0
LINE
  5
16C
100
AcDbEntity
  8
dimensions_exploded
  6
ByLayer
 62
  256
370
   -1
100
AcDbLine
 10
148.2777777777779
 20
113.1666666666667
 11
149.5277777777779
 21
113.1666666666667
  0
ARC
  5
16D
100
AcDbEntity
  8
dimensions_exploded
  6
ByLayer
 62
  256
370
   -1
100
AcDbCircle
 10
149.5277780890592
 20
112.7500003112813
 40
0.4166663553854564
100
AcDbArc
 50
359.999957195713
 51
90.00004280428696
  0
LINE
  5
16E
100
AcDbEntity
  8
dimensions_exploded
  6
ByLayer
 62
  256
370
   -1
100
AcDbLine
 10
149.9444444444445
 20
112.75
 11
149.9444444444445
 21
111.5
  0
LINE
  5
16F
100
AcDbEntity
  8
dimensions_exploded
  6
ByLayer
 62
  256
370
   -1
100
AcDbLine
 10
153.7638888888891
 20
114
 11
153.7638888888891
 21
111.5
  0
LINE
  5
170
100
AcDbEntity
  8
dimensions_exploded
  6
ByLayer
 62
  256
370
   -1
100
AcDbLine
 10
153.7638888888891
 20
111.5
 11
153.0694444444447
 21
111.5
  0
ARC
  5
171
100
AcDbEntity
  8
dimensions_exploded
  6
ByLayer
 62
  256
370
   -1
100
AcDbCircle
 10
153.0694441331633
 20
111.9166663553853
 40
0.4166663553854564
100
AcDbArc
 50
179.999957195713
 51
270.000042804287
  0
LINE
  5
172
100
AcDbEntity
  8
dimensions_exploded
  6
ByLayer
 62
  256
370
   -1
100
AcDbLine
 10
152.652777777778
 20
111.9166666666667
 11
152.652777777778
 21
112.75
  0
ARC
  5
173
100
AcDbEntity
  8
dimensions_exploded
  6
ByLayer
 62
  256
370
   -1
100
AcDbCircle
 10
153.0694441331633
 20
112.7500003112813
 40
0.4166663553854564
100
AcDbArc
 50
89.99995719571302
 51
180.000042804287
  0
LINE
  5
174
100
AcDbEntity
  8
dimensions_exploded
  6
ByLayer
 62
  256
370
   -1
100
AcDbLine
 10
153.0694444444447
 20
113.1666666666667
 11
153.7638888888891
 21
113.1666666666667
  0
LINE
  5
175
100
AcDbEntity
  8
dimensions_exploded
  6
ByLayer
 62
  256
370
   -1
100
AcDbLine
 10
155.7083333333336
 20
111.5
 11
155.0138888888891
 21
111.5
  0
ARC
  5
176
100
AcDbEntity
  8
dimensions_exploded
  6
ByLayer
 62
  256
370
   -1
100
AcDbCircle
 10
155.0138885776078
 20
111.9166663553853
 40
0.4166663553854564
100
AcDbArc
 50
179.999957195713
 51
270.000042804287
  0
LINE
  5
177
100
AcDbEntity
  8
dimensions_exploded
  6
ByLayer
 62
  256
370
   -1
100
AcDbLine
 10
154.5972222222225
 20
111.9166666666667
 11
154.5972222222225
 21
112.6111111111111
  0
ARC
  5
178
100
AcDbEntity
  8
dimensions_exploded
  6
ByLayer
 62
  256
370
   -1
100
AcDbCircle
 10
155.152777777778
 20
112.6111111111111
 40
0.5555555555555556
100
AcDbArc
 50
0
 51
180
  0
LINE
  5
179
100
AcDbEntity
  8
dimensions_exploded
  6
ByLayer
 62
  256
370
   -1
100
AcDbLine
 10
155.7083333333336
 20
112.6111111111111
 11
155.7083333333336
 21
112.3333333333333
  0
LINE
  5
17A
100
AcDbEntity
  8
dimensions_exploded
  6
ByLayer
 62
  256
370
   -1
100
AcDbLine
 10
155.7083333333336
 20
112.3333333333333
 11
154.5972222222225
 21
112.3333333333333
  0
LINE
  5
17B
100
AcDbEntity
  8
dimensions_exploded
  6
ByLayer
 62
  256
370
   -1
100
AcDbLine
 10
157.652777777778
 20
111.5
 11
156.9583333333336
 21
111.5
  0
ARC
  5
17C
100
AcDbEntity
  8
dimensions_exploded
  6
ByLayer
 62
  256
370
   -1
100
AcDbCircle
 10
156.9583330220522
 20
111.9166663553853
 40
0.4166663553854564
100
AcDbArc
 50
179.999957195713
 51
270.000042804287
  0
LINE
  5
17D
100
AcDbEntity
  8
dimensions_exploded
  6
ByLayer
 62
  256
370
   -1
100
AcDbLine
 10
156.5416666666669
 20
111.9166666666667
 11
156.5416666666669
 21
112.6111111111111
  0
ARC
  5
17E
100
AcDbEntity
  8
dimensions_exploded
  6
ByLayer
 62
  256
370
   -1
100
AcDbCircle
 10
157.0972222222225
 20
112.6111111111111
 40
0.5555555555555556
100
AcDbArc
 50
0
 51
180
  0
LINE
  5
17F
100
AcDbEntity
  8
dimensions_exploded
  6
ByLayer
 62
  256
370
   -1
100
AcDbLine
 10
157.652777777778
 20
112.6111111111111
 11
157.652777777778
 21
112.3333333333333
  0
LINE
  5
180
100
AcDbEntity
  8
dimensions_exploded
  6
ByLayer
 62
  256
370
   -1
100
AcDbLine
 10
157.652777777778
 20
112.3333333333333
 11
156.5416666666669
 21
112.3333333333333
  0
LINE
  5
181
100
AcDbEntity
  8
dimensions_exploded
  6
ByLayer
 62
  256
370
   -1
100
AcDbLine
 10
158.4861111111113
 20
110.6666666666667
 11
158.4861111111113
 21
113.1666666666667
  0
LINE
  5
182
100
AcDbEntity
  8
dimensions_exploded
  6
ByLayer
 62
  256
370
   -1
100
AcDbLine
 10
158.4861111111113
 20
113.1666666666667
 11
159.1805555555558
 21
113.1666666666667
  0
ARC
  5
183
100
AcDbEntity
  8
dimensions_exploded
  6
ByLayer
 62
  256
370
   -1
100
AcDbCircle
 10
159.1805459084449
 20
112.7499903528891
 40
0.4166763138892406
100
AcDbArc
 50
0.001326542259511873
 51
89.99867345774048
  0
LINE
  5
184
100
AcDbEntity
  8
dimensions_exploded
  6
ByLayer
 62
  256
370
   -1
100
AcDbLine
 10
159.5972222222225
 20
112.75
 11
159.5972222222225
 21
111.9166666666667
  0
ARC
  5
185
100
AcDbEntity
  8
dimensions_exploded
  6
ByLayer
 62
  256
370
   -1
100
AcDbCircle
 10
159.1805459084449
 20
111.9166763137776
 40
0.4166763138892406
100
AcDbArc
 50
270.0013265422595
 51
359.9986734577404
  0
LINE
  5
186
100
AcDbEntity
  8
dimensions_exploded
  6
ByLayer
 62
  256
370
   -1
100
AcDbLine
 10
159.1805555555558
 20
111.5
 11
158.4861111111113
 21
111.5
  0
LINE
  5
187
100
AcDbEntity
  8
dimensions_exploded
  6
ByLayer
 62
  256
370
   -1
100
AcDbLine
 10
154
 20
100
 11
151
 21
110
  0
SOLID
  5
188
100
AcDbEntity
  8
dimensions_exploded
  6
ByLayer
 62
  256
370
   -1
100
AcDbTrace
 10
154
 20
100
 30
0
 11
154
 21
100
 31
0
 12
154
 22
100
 32
0
 13
154
 23
100
 33
0
  0
LINE
  5
189
100
AcDbEntity
  8
dimensions_exploded
  6
ByLayer
 62
  256
370
   -1
100
AcDbLine
 10
106.5900000000014
 20
161
 11
116.5899999999986
 21
161
  0
SOLID
  5
18A
100
AcDbEntity
  8
dimensions_exploded
  6
ByLayer
 62
  256
370
   -1
100
AcDbTrace
 10
106.5900000000014
 20
161
 30
0
 11
106.5900000000014
 21
161
 31
0
 12
106.5900000000014
 22
161
 32
0
 13
106.5900000000014
 23
161
 33
0
  0
SOLID
  5
18B
100
AcDbEntity
  8
dimensions_exploded
  6
ByLayer
 62
  256
370
   -1
100
AcDbTrace
 10
116.5899999999986
 20
161
 30
0
 11
116.5899999999986
 21
161
 31
0
 12
116.5899999999986
 22
161
 32
0
 13
116.5899999999986
 23
161
 33
0
  0
LINE
  5
18C
100
AcDbEntity
  8
dimensions_exploded
  6
ByLayer
 62
  256
370
   -1
100
AcDbLine
 10
106.5900000000014
 20
155.215
 11
106.5900000000014
 21
162.25
  0
LINE
  5
18D
100
AcDbEntity
  8
dimensions_exploded
  6
ByLayer
 62
  256
370
   -1
100
AcDbLine
 10
116.5899999999986
 20
155.215
 11
116.5899999999986
 21
162.25
  0
LINE
  5
18E
100
AcDbEntity
  8
dimensions_exploded
  6
ByLayer
 62
  256
370
   -1
100
AcDbLine
 10
106.5900000000002
 20
119
 11
116.5899999999998
 21
119
  0
SOLID
  5
18F
100
AcDbEntity
  8
dimensions_exploded
  6
ByLayer
 62
  256
370
   -1
100
AcDbTrace
 10
106.5900000000002
 20
119
 30
0
 11
106.5900000000002
 21
119
 31
0
 12
106.5900000000002
 22
119
 32
0
 13
106.5900000000002
 23
119
 33
0
  0
SOLID
  5
190
100
AcDbEntity
  8
dimensions_exploded
  6
ByLayer
 62
  256
370
   -1
100
AcDbTrace
 10
116.5899999999998
 20
119
 30
0
 11
116.5899999999998
 21
119
 31
0
 12
116.5899999999998
 22
119
 32
0
 13
116.5899999999998
 23
119
 33
0
  0
LINE
  5
191
100
AcDbEntity
  8
dimensions_exploded
  6
ByLayer
 62
  256
370
   -1
100
AcDbLine
 10
106.5900000000002
 20
112.215
 11
106.5900000000002
 21
120.25
  0
LINE
  5
192
100
AcDbEntity
  8
dimensions_exploded
  6
ByLayer
 62
  256
370
   -1
100
AcDbLine
 10
116.5899999999998
 20
112.215
 11
116.5899999999998
 21
120.25
  0
LINE
  5
193
100
AcDbEntity
  8
dimensions_exploded
  6
ByLayer
 62
  256
370
   -1
100
AcDbLine
 10
120.09
 20
161
 11
123.09
 21
161
  0
SOLID
  5
194
100
AcDbEntity
  8
dimensions_exploded
  6
ByLayer
 62
  256
370
   -1
100
AcDbTrace
 10
120.09
 20
161
 30
0
 11
120.09
 21
161
 31
0
 12
120.09
 22
161
 32
0
 13
120.09
 23
161
 33
0
  0
SOLID
  5
195
100
AcDbEntity
  8
dimensions_exploded
  6
ByLayer
 62
  256
370
   -1
100
AcDbTrace
 10
123.09
 20
161
 30
0
 11
123.09
 21
161
 31
0
 12
123.09
 22
161
 32
0
 13
123.09
 23
161
 33
0
  0
LINE
  5
196
100
AcDbEntity
  8
dimensions_exploded
  6
ByLayer
 62
  256
370
   -1
100
AcDbLine
 10
120.09
 20
155.215
 11
120.09
 21
162.25
  0
LINE
  5
197
100
AcDbEntity
  8
dimensions_exploded
  6
ByLayer
 62
  256
370
   -1
100
AcDbLine
 10
123.09
 20
155.215
 11
123.09
 21
162.25
  0
LINE
  5
198
100
AcDbEntity
  8
dimensions_exploded
  6
ByLayer
 62
  256
370
   -1
100
AcDbLine
 10
120.09
 20
119
 11
123.09
 21
119
  0
SOLID
  5
199
100
AcDbEntity
  8
dimensions_exploded
  6
ByLayer
 62
  256
370
   -1
100
AcDbTrace
 10
120.09
 20
119
 30
0
 11
120.09
 21
119
 31
0
 12
120.09
 22
119
 32
0
 13
120.09
 23
119
 33
0
  0
SOLID
  5
19A
100
AcDbEntity
  8
dimensions_exploded
  6
ByLayer
 62
  256
370
   -1
100
AcDbTrace
 10
123.09
 20
119
 30
0
 11
123.09
 21
119
 31
0
 12
123.09
 22
119
 32
0
 13
123.09
 23
119
 33
0
  0
LINE
  5
19B
100
AcDbEntity
  8
dimensions_exploded
  6
ByLayer
 62
  256
370
   -1
100
AcDbLine
 10
120.09
 20
112.215
 11
120.09
 21
120.25
  0
LINE
  5
19C
100
AcDbEntity
  8
dimensions_exploded
  6
ByLayer
 62
  256
370
   -1
100
AcDbLine
 10
123.09
 20
112.215
 11
123.09
 21
120.25
  0
LINE
  5
19D
100
AcDbEntity
  8
dimensions_exploded
  6
ByLayer
 62
  256
370
   -1
100
AcDbLine
 10
102.4616666666666
 20
95.56944444444444
 11
103.0172222222221
 21
96.125
  0
LINE
  5
19E
100
AcDbEntity
  8
dimensions_exploded
  6
ByLayer
 62
  256
370
   -1
100
AcDbLine
 10
103.0172222222221
 20
96.125
 11
103.0172222222221
 21
93.625
  0
LINE
  5
19F
100
AcDbEntity
  8
dimensions_exploded
  6
ByLayer
 62
  256
370
   -1
100
AcDbLine
 10
103.8505555555555
 20
95.56944444444444
 11
104.406111111111
 21
96.125
  0
LINE
  5
1A0
100
AcDbEntity
  8
dimensions_exploded
  6
ByLayer
 62
  256
370
   -1
100
AcDbLine
 10
104.406111111111
 20
96.125
 11
104.406111111111
 21
93.625
  0
LINE
  5
1A1
100
AcDbEntity
  8
dimensions_exploded
  6
ByLayer
 62
  256
370
   -1
100
AcDbLine
 10
105.2394444444444
 20
93.625
 11
105.2394444444444
 21
93.76388888888889
  0
LINE
  5
1A2
100
AcDbEntity
  8
dimensions_exploded
  6
ByLayer
 62
  256
370
   -1
100
AcDbLine
 10
107.1838888888888
 20
96.125
 11
106.0727777777777
 21
96.125
  0
LINE
  5
1A3
100
AcDbEntity
  8
dimensions_exploded
  6
ByLayer
 62
  256
370
   -1
100
AcDbLine
 10
106.0727777777777
 20
96.125
 11
106.0727777777777
 21
95.01388888888889
  0
LINE
  5
1A4
100
AcDbEntity
  8
dimensions_exploded
  6
ByLayer
 62
  256
370
   -1
100
AcDbLine
 10
106.0727777777777
 20
95.01388888888889
 11
106.6283333333333
 21
95.01388888888889
  0
ARC
  5
1A5
100
AcDbEntity
  8
dimensions_exploded
  6
ByLayer
 62
  256
370
   -1
100
AcDbCircle
 10
106.628333748375
 20
94.4583337483751
 40
0.5555551405139421
100
AcDbArc
 50
359.999957195713
 51
90.00004280428698
  0
LINE
  5
1A6
100
AcDbEntity
  8
dimensions_exploded
  6
ByLayer
 62
  256
370
   -1
100
AcDbLine
 10
107.1838888888888
 20
94.45833333333333
 11
107.1838888888888
 21
94.18055555555556
  0
ARC
  5
1A7
100
AcDbEntity
  8
dimensions_exploded
  6
ByLayer
 62
  256
370
   -1
100
AcDbCircle
 10
106.628333748375
 20
94.18055514051379
 40
0.5555551405139421
100
AcDbArc
 50
269.999957195713
 51
4.280428697680878e-05
  0
LINE
  5
1A8
100
AcDbEntity
  8
dimensions_exploded
  6
ByLayer
 62
  256
370
   -1
100
AcDbLine
 10
106.6283333333333
 20
93.625
 11
106.0727777777777
 21
93.625
  0
LINE
  5
1A9
100
AcDbEntity
  8
dimensions_exploded
  6
ByLayer
 62
  256
370
   -1
100
AcDbLine
 10
109.1283333333334
 20
94.73611111111111
 11
108.5727777777779
 21
94.73611111111111
  0
ARC
  5
1AA
100
AcDbEntity
  8
dimensions_exploded
  6
ByLayer
 62
  256
370
   -1
100
AcDbCircle
 10
108.5727773627361
 20
95.2916662516249
 40
0.5555551405139421
100
AcDbArc
 50
179.999957195713
 51
270.000042804287
  0
LINE
  5
1AB
100
AcDbEntity
  8
dimensions_exploded
  6
ByLayer
 62
  256
370
   -1
100
AcDbLine
 10
108.0172222222223
 20
95.29166666666667
 11
108.0172222222223
 21
95.56944444444444
  0
ARC
  5
1AC
100
AcDbEntity
  8
dimensions_exploded
  6
ByLayer
 62
  256
370
   -1
100
AcDbCircle
 10
108.5727777777779
 20
95.56944444444444
 40
0.5555555555555556
100
AcDbArc
 50
0
 51
180
  0
LINE
  5
1AD
100
AcDbEntity
  8
dimensions_exploded
  6
ByLayer
 62
  256
370
   -1
100
AcDbLine
 10
109.1283333333334
 20
95.56944444444444
 11
109.1283333333334
 21
94.73611111111111
  0
ARC
  5
1AE
100
AcDbEntity
  8
dimensions_exploded
  6
ByLayer
 62
  256
370
   -1
100
AcDbCircle
 10
107.9709249999992
 20
94.73611180555618
 40
1.157408333334375
100
AcDbArc
 50
286.2602390857832
 51
359.9999656225289
  0
LINE
  5
1AF
100
AcDbEntity
  8
dimensions_exploded
  6
ByLayer
 62
  256
370
   -1
100
AcDbLine
 10
107.1838888888888
 20
88.70833333333333
 11
107.2583194444444
 21
88.84722222222223
  0
ARC
  5
1B0
100
AcDbEntity
  8
dimensions_exploded
  6
ByLayer
 62
  256
370
   -1
100
AcDbCircle
 10
107.7394444444444
 20
88.56944444444444
 40
0.5555553612846883
100
AcDbArc
 50
329.9999884324239
 51
149.9999884324239
  0
LINE
  5
1B1
100
AcDbEntity
  8
dimensions_exploded
  6
ByLayer
 62
  256
370
   -1
100
AcDbLine
 10
108.2205694444444
 20
88.29166666666667
 11
107.1838888888888
 21
86.625
  0
LINE
  5
1B2
100
AcDbEntity
  8
dimensions_exploded
  6
ByLayer
 62
  256
370
   -1
100
AcDbLine
 10
107.1838888888888
 20
86.625
 11
108.2949999999999
 21
86.625
  0
LINE
  5
1B3
100
AcDbEntity
  8
dimensions_exploded
  6
ByLayer
 62
  256
370
   -1
100
AcDbLine
 10
109.1283333333333
 20
88.56944444444444
 11
109.6838888888888
 21
89.125
  0
LINE
  5
1B4
100
AcDbEntity
  8
dimensions_exploded
  6
ByLayer
 62
  256
370
   -1
100
AcDbLine
 10
109.6838888888888
 20
89.125
 11
109.6838888888888
 21
86.625
  0
LINE
  5
1B5
100
AcDbEntity
  8
dimensions_exploded
  6
ByLayer
 62
  256
370
   -1
100
AcDbLine
 10
110.5172222222221
 20
86.625
 11
110.5172222222221
 21
86.76388888888889
  0
LINE
  5
1B6
100
AcDbEntity
  8
dimensions_exploded
  6
ByLayer
 62
  256
370
   -1
100
AcDbLine
 10
112.4616666666666
 20
89.125
 11
111.3505555555555
 21
89.125
  0
LINE
  5
1B7
100
AcDbEntity
  8
dimensions_exploded
  6
ByLayer
 62
  256
370
   -1
100
AcDbLine
 10
111.3505555555555
 20
89.125
 11
111.3505555555555
 21
88.01388888888889
  0
LINE
  5
1B8
100
AcDbEntity
  8
dimensions_exploded
  6
ByLayer
 62
  256
370
   -1
100
AcDbLine
 10
111.3505555555555
 20
88.01388888888889
 11
111.906111111111
 21
88.01388888888889
  0
ARC
  5
1B9
100
AcDbEntity
  8
dimensions_exploded
  6
ByLayer
 62
  256
370
   -1
100
AcDbCircle
 10
111.9061115261528
 20
87.4583337483751
 40
0.5555551405139421
100
AcDbArc
 50
359.999957195713
 51
90.00004280428698
  0
LINE
  5
1BA
100
AcDbEntity
  8
dimensions_exploded
  6
ByLayer
 62
  256
370
   -1
100
AcDbLine
 10
112.4616666666666
 20
87.45833333333333
 11
112.4616666666666
 21
87.18055555555556
  0
ARC
  5
1BB
100
AcDbEntity
  8
dimensions_exploded
  6
ByLayer
 62
  256
370
   -1
100
AcDbCircle
 10
111.9061115261528
 20
87.18055514051379
 40
0.5555551405139421
100
AcDbArc
 50
269.999957195713
 51
4.280428697680878e-05
  0
LINE
  5
1BC
100
AcDbEntity
  8
dimensions_exploded
  6
ByLayer
 62
  256
370
   -1
100
AcDbLine
 10
111.906111111111
 20
86.625
 11
111.3505555555555
 21
86.625
  0
LINE
  5
1BD
100
AcDbEntity
  8
dimensions_exploded
  6
ByLayer
 62
  256
370
   -1
100
AcDbLine
 10
114.4061111111112
 20
87.73611111111111
 11
113.8505555555556
 21
87.73611111111111
  0
ARC
  5
1BE
100
AcDbEntity
  8
dimensions_exploded
  6
ByLayer
 62
  256
370
   -1
100
AcDbCircle
 10
113.8505551405139
 20
88.2916662516249
 40
0.5555551405139421
100
AcDbArc
 50
179.999957195713
 51
270.000042804287
  0
LINE
  5
1BF
100
AcDbEntity
  8
dimensions_exploded
  6
ByLayer
 62
  256
370
   -1
100
AcDbLine
 10
113.2950000000001
 20
88.29166666666667
 11
113.2950000000001
 21
88.56944444444444
  0
ARC
  5
1C0
100
AcDbEntity
  8
dimensions_exploded
  6
ByLayer
 62
  256
370
   -1
100
AcDbCircle
 10
113.8505555555556
 20
88.56944444444444
 40
0.5555555555555556
100
AcDbArc
 50
0
 51
180
  0
LINE
  5
1C1
100
AcDbEntity
  8
dimensions_exploded
  6
ByLayer
 62
  256
370
   -1
100
AcDbLine
 10
114.4061111111112
 20
88.56944444444444
 11
114.4061111111112
 21
87.73611111111111
  0
ARC
  5
1C2
100
AcDbEntity
  8
dimensions_exploded
  6
ByLayer
 62
  256
370
   -1
100
AcDbCircle
 10
113.248702777777
 20
87.73611180555618
 40
1.157408333334375
100
AcDbArc
 50
286.2602390857832
 51
359.9999656225289
  0
LINE
  5
1C3
100
AcDbEntity
  8
dimensions_exploded
  6
ByLayer
 62
  256
370
   -1
100
AcDbLine
 10
122.5172222222221
 20
83.125
 11
121.406111111111
 21
83.125
  0
LINE
  5
1C4
100
AcDbEntity
  8
dimensions_exploded
  6
ByLayer
 62
  256
370
   -1
100
AcDbLine
 10
121.406111111111
 20
83.125
 11
121.406111111111
 21
82.01388888888889
  0
LINE
  5
1C5
100
AcDbEntity
  8
dimensions_exploded
  6
ByLayer
 62
  256
370
   -1
100
AcDbLine
 10
121.406111111111
 20
82.01388888888889
 11
121.9616666666665
 21
82.01388888888889
  0
ARC
  5
1C6
100
AcDbEntity
  8
dimensions_exploded
  6
ByLayer
 62
  256
370
   -1
100
AcDbCircle
 10
121.9616670817083
 20
81.4583337483751
 40
0.5555551405139421
100
AcDbArc
 50
359.999957195713
 51
90.00004280428698
  0
LINE
  5
1C7
100
AcDbEntity
  8
dimensions_exploded
  6
ByLayer
 62
  256
370
   -1
100
AcDbLine
 10
122.5172222222221
 20
81.45833333333333
 11
122.5172222222221
 21
81.18055555555556
  0
ARC
  5
1C8
100
AcDbEntity
  8
dimensions_exploded
  6
ByLayer
 62
  256
370
   -1
100
AcDbCircle
 10
121.9616670817083
 20
81.18055514051379
 40
0.5555551405139421
100
AcDbArc
 50
269.999957195713
 51
4.280428697680878e-05
  0
LINE
  5
1C9
100
AcDbEntity
  8
dimensions_exploded
  6
ByLayer
 62
  256
370
   -1
100
AcDbLine
 10
121.9616666666665
 20
80.625
 11
121.406111111111
 21
80.625
  0
ARC
  5
1CA
100
AcDbEntity
  8
dimensions_exploded
  6
ByLayer
 62
  256
370
   -1
100
AcDbCircle
 10
123.9061111111111
 20
82.77777777777777
 40
0.3472222222222222
100
AcDbArc
 50
36.86989764584401
 51
143.130102354156
  0
ARC
  5
1CB
100
AcDbEntity
  8
dimensions_exploded
  6
ByLayer
 62
  256
370
   -1
100
AcDbCircle
 10
125.7116666666667
 20
81.875
 40
2.361111111111111
100
AcDbArc
 50
151.927513064147
 51
208.072486935853
  0
ARC
  5
1CC
100
AcDbEntity
  8
dimensions_exploded
  6
ByLayer
 62
  256
370
   -1
100
AcDbCircle
 10
123.9061111111111
 20
80.97222222222223
 40
0.3472222222222222
100
AcDbArc
 50
216.869897645844
 51
323.130102354156
  0
ARC
  5
1CD
100
AcDbEntity
  8
dimensions_exploded
  6
ByLayer
 62
  256
370
   -1
100
AcDbCircle
 10
122.1005555555556
 20
81.875
 40
2.361111111111111
100
AcDbArc
 50
331.927513064147
 51
28.07248693585297
  0
LINE
  5
1CE
100
AcDbEntity
  8
dimensions_exploded
  6
ByLayer
 62
  256
370
   -1
100
AcDbLine
 10
125.295
 20
80.625
 11
125.295
 21
80.76388888888889
  0
LINE
  5
1CF
100
AcDbEntity
  8
dimensions_exploded
  6
ByLayer
 62
  256
370
   -1
100
AcDbLine
 10
127.2394444444444
 20
83.125
 11
126.1283333333333
 21
83.125
  0
LINE
  5
1D0
100
AcDbEntity
  8
dimensions_exploded
  6
ByLayer
 62
  256
370
   -1
100
AcDbLine
 10
126.1283333333333
 20
83.125
 11
126.1283333333333
 21
82.01388888888889
  0
LINE
  5
1D1
100
AcDbEntity
  8
dimensions_exploded
  6
ByLayer
 62
  256
370
   -1
100
AcDbLine
 10
126.1283333333333
 20
82.01388888888889
 11
126.6838888888889
 21
82.01388888888889
  0
ARC
  5
1D2
100
AcDbEntity
  8
dimensions_exploded
  6
ByLayer
 62
  256
370
   -1
100
AcDbCircle
 10
126.6838893039307
 20
81.4583337483751
 40
0.5555551405139421
100
AcDbArc
 50
359.999957195713
 51
90.00004280428698
  0
LINE
  5
1D3
100
AcDbEntity
  8
dimensions_exploded
  6
ByLayer
 62
  256
370
   -1
100
AcDbLine
 10
127.2394444444444
 20
81.45833333333333
 11
127.2394444444444
 21
81.18055555555556
  0
ARC
  5
1D4
100
AcDbEntity
  8
dimensions_exploded
  6
ByLayer
 62
  256
370
   -1
100
AcDbCircle
 10
126.6838893039307
 20
81.18055514051379
 40
0.5555551405139421
100
AcDbArc
 50
269.999957195713
 51
4.280428697680878e-05
  0
LINE
  5
1D5
100
AcDbEntity
  8
dimensions_exploded
  6
ByLayer
 62
  256
370
   -1
100
AcDbLine
 10
126.6838888888889
 20
80.625
 11
126.1283333333333
 21
80.625
  0
LINE
  5
1D6
100
AcDbEntity
  8
dimensions_exploded
  6
ByLayer
 62
  256
370
   -1
100
AcDbLine
 10
129.183888888889
 20
81.73611111111111
 11
128.6283333333335
 21
81.73611111111111
  0
ARC
  5
1D7
100
AcDbEntity
  8
dimensions_exploded
  6
ByLayer
 62
  256
370
   -1
100
AcDbCircle
 10
128.6283329182917
 20
82.2916662516249
 40
0.5555551405139421
100
AcDbArc
 50
179.999957195713
 51
270.000042804287
  0
LINE
  5
1D8
100
AcDbEntity
  8
dimensions_exploded
  6
ByLayer
 62
  256
370
   -1
100
AcDbLine
 10
128.0727777777779
 20
82.29166666666667
 11
128.0727777777779
 21
82.56944444444444
  0
ARC
  5
1D9
100
AcDbEntity
  8
dimensions_exploded
  6
ByLayer
 62
  256
370
   -1
100
AcDbCircle
 10
128.6283333333335
 20
82.56944444444444
 40
0.5555555555555556
100
AcDbArc
 50
0
 51
180
  0
LINE
  5
1DA
100
AcDbEntity
  8
dimensions_exploded
  6
ByLayer
 62
  256
370
   -1
100
AcDbLine
 10
129.183888888889
 20
82.56944444444444
 11
129.183888888889
 21
81.73611111111111
  0
ARC
  5
1DB
100
AcDbEntity
  8
dimensions_exploded
  6
ByLayer
 62
  256
370
   -1
100
AcDbCircle
 10
128.0264805555549
 20
81.73611180555618
 40
1.157408333334375
100
AcDbArc
 50
286.2602390857832
 51
359.9999656225289
  0
LINE
  5
1DC
100
AcDbEntity
  8
dimensions_exploded
  6
ByLayer
 62
  256
370
   -1
100
AcDbLine
 10
125.517222222222
 20
78.125
 11
124.4061111111109
 21
78.125
  0
LINE
  5
1DD
100
AcDbEntity
  8
dimensions_exploded
  6
ByLayer
 62
  256
370
   -1
100
AcDbLine
 10
124.4061111111109
 20
78.125
 11
124.4061111111109
 21
77.01388888888889
  0
LINE
  5
1DE
100
AcDbEntity
  8
dimensions_exploded
  6
ByLayer
 62
  256
370
   -1
100
AcDbLine
 10
124.4061111111109
 20
77.01388888888889
 11
124.9616666666664
 21
77.01388888888889
  0
ARC
  5
1DF
100
AcDbEntity
  8
dimensions_exploded
  6
ByLayer
 62
  256
370
   -1
100
AcDbCircle
 10
124.9616670817082
 20
76.4583337483751
 40
0.5555551405139421
100
AcDbArc
 50
359.999957195713
 51
90.00004280428698
  0
LINE
  5
1E0
100
AcDbEntity
  8
dimensions_exploded
  6
ByLayer
 62
  256
370
   -1
100
AcDbLine
 10
125.517222222222
 20
76.45833333333333
 11
125.517222222222
 21
76.18055555555556
  0
ARC
  5
1E1
100
AcDbEntity
  8
dimensions_exploded
  6
ByLayer
 62
  256
370
   -1
100
AcDbCircle
 10
124.9616670817082
 20
76.18055514051379
 40
0.5555551405139421
100
AcDbArc
 50
269.999957195713
 51
4.280428697680878e-05
  0
LINE
  5
1E2
100
AcDbEntity
  8
dimensions_exploded
  6
ByLayer
 62
  256
370
   -1
100
AcDbLine
 10
124.9616666666664
 20
75.625
 11
124.4061111111109
 21
75.625
  0
LINE
  5
1E3
100
AcDbEntity
  8
dimensions_exploded
  6
ByLayer
 62
  256
370
   -1
100
AcDbLine
 10
126.3505555555555
 20
77.01388888888889
 11
126.906111111111
 21
77.01388888888889
  0
ARC
  5
1E4
100
AcDbEntity
  8
dimensions_exploded
  6
ByLayer
 62
  256
370
   -1
100
AcDbCircle
 10
126.9061115261528
 20
76.4583337483751
 40
0.5555551405139421
100
AcDbArc
 50
359.999957195713
 51
90.00004280428698
  0
LINE
  5
1E5
100
AcDbEntity
  8
dimensions_exploded
  6
ByLayer
 62
  256
370
   -1
100
AcDbLine
 10
127.4616666666666
 20
76.45833333333333
 11
127.4616666666666
 21
76.18055555555556
  0
ARC
  5
1E6
100
AcDbEntity
  8
dimensions_exploded
  6
ByLayer
 62
  256
370
   -1
100
AcDbCircle
 10
126.906111111111
 20
76.18055555555556
 40
0.5555555555555556
100
AcDbArc
 50
180
 51
0
  0
LINE
  5
1E7
100
AcDbEntity
  8
dimensions_exploded
  6
ByLayer
 62
  256
370
   -1
100
AcDbLine
 10
126.3505555555555
 20
76.18055555555556
 11
126.3505555555555
 21
77.01388888888889
  0
ARC
  5
1E8
100
AcDbEntity
  8
dimensions_exploded
  6
ByLayer
 62
  256
370
   -1
100
AcDbCircle
 10
127.5079638888896
 20
77.01388819444382
 40
1.157408333334375
100
AcDbArc
 50
106.2602390857831
 51
179.9999656225289
  0
LINE
  5
1E9
100
AcDbEntity
  8
dimensions_exploded
  6
ByLayer
 62
  256
370
   -1
100
AcDbLine
 10
128.2950000000001
 20
75.625
 11
128.2950000000001
 21
75.76388888888889
  0
LINE
  5
1EA
100
AcDbEntity
  8
dimensions_exploded
  6
ByLayer
 62
  256
370
   -1
100
AcDbLine
 10
130.2394444444445
 20
78.125
 11
129.1283333333334
 21
78.125
  0
LINE
  5
1EB
100
AcDbEntity
  8
dimensions_exploded
  6
ByLayer
 62
  256
370
   -1
100
AcDbLine
 10
129.1283333333334
 20
78.125
 11
129.1283333333334
 21
77.01388888888889
  0
LINE
  5
1EC
100
AcDbEntity
  8
dimensions_exploded
  6
ByLayer
 62
  256
370
   -1
100
AcDbLine
 10
129.1283333333334
 20
77.01388888888889
 11
129.6838888888889
 21
77.01388888888889
  0
ARC
  5
1ED
100
AcDbEntity
  8
dimensions_exploded
  6
ByLayer
 62
  256
370
   -1
100
AcDbCircle
 10
129.6838893039307
 20
76.4583337483751
 40
0.5555551405139421
100
AcDbArc
 50
359.999957195713
 51
90.00004280428698
  0
LINE
  5
1EE
100
AcDbEntity
  8
dimensions_exploded
  6
ByLayer
 62
  256
370
   -1
100
AcDbLine
 10
130.2394444444445
 20
76.45833333333333
 11
130.2394444444445
 21
76.18055555555556
  0
ARC
  5
1EF
100
AcDbEntity
  8
dimensions_exploded
  6
ByLayer
 62
  256
370
   -1
100
AcDbCircle
 10
129.6838893039307
 20
76.18055514051379
 40
0.5555551405139421
100
AcDbArc
 50
269.999957195713
 51
4.280428697680878e-05
  0
LINE
  5
1F0
100
AcDbEntity
  8
dimensions_exploded
  6
ByLayer
 62
  256
370
   -1
100
AcDbLine
 10
129.6838888888889
 20
75.625
 11
129.1283333333334
 21
75.625
  0
LINE
  5
1F1
100
AcDbEntity
  8
dimensions_exploded
  6
ByLayer
 62
  256
370
   -1
100
AcDbLine
 10
132.1838888888891
 20
76.73611111111111
 11
131.6283333333335
 21
76.73611111111111
  0
ARC
  5
1F2
100
AcDbEntity
  8
dimensions_exploded
  6
ByLayer
 62
  256
370
   -1
100
AcDbCircle
 10
131.6283329182918
 20
77.2916662516249
 40
0.5555551405139421
100
AcDbArc
 50
179.999957195713
 51
270.000042804287
  0
LINE
  5
1F3
100
AcDbEntity
  8
dimensions_exploded
  6
ByLayer
 62
  256
370
   -1
100
AcDbLine
 10
131.072777777778
 20
77.29166666666667
 11
131.072777777778
 21
77.56944444444444
  0
ARC
  5
1F4
100
AcDbEntity
  8
dimensions_exploded
  6
ByLayer
 62
  256
370
   -1
100
AcDbCircle
 10
131.6283333333335
 20
77.56944444444444
 40
0.5555555555555556
100
AcDbArc
 50
0
 51
180
  0
LINE
  5
1F5
100
AcDbEntity
  8
dimensions_exploded
  6
ByLayer
 62
  256
370
   -1
100
AcDbLine
 10
132.1838888888891
 20
77.56944444444444
 11
132.1838888888891
 21
76.73611111111111
  0
ARC
  5
1F6
100
AcDbEntity
  8
dimensions_exploded
  6
ByLayer
 62
  256
370
   -1
100
AcDbCircle
 10
131.0264805555549
 20
76.73611180555618
 40
1.157408333334375
100
AcDbArc
 50
286.2602390857832
 51
359.9999656225289
  0
LINE
  5
1F7
100
AcDbEntity
  8
dimensions_exploded
  6
ByLayer
 62
  256
370
   -1
100
AcDbLine
 10
129.2361111111109
 20
72.01388888888889
 11
129.7916666666664
 21
72.01388888888889
  0
ARC
  5
1F8
100
AcDbEntity
  8
dimensions_exploded
  6
ByLayer
 62
  256
370
   -1
100
AcDbCircle
 10
129.7916670817082
 20
71.4583337483751
 40
0.5555551405139421
100
AcDbArc
 50
359.999957195713
 51
90.00004280428698
  0
LINE
  5
1F9
100
AcDbEntity
  8
dimensions_exploded
  6
ByLayer
 62
  256
370
   -1
100
AcDbLine
 10
130.347222222222
 20
71.45833333333333
 11
130.347222222222
 21
71.18055555555556
  0
ARC
  5
1FA
100
AcDbEntity
  8
dimensions_exploded
  6
ByLayer
 62
  256
370
   -1
100
AcDbCircle
 10
129.7916666666664
 20
71.18055555555556
 40
0.5555555555555556
100
AcDbArc
 50
180
 51
0
  0
LINE
  5
1FB
100
AcDbEntity
  8
dimensions_exploded
  6
ByLayer
 62
  256
370
   -1
100
AcDbLine
 10
129.2361111111109
 20
71.18055555555556
 11
129.2361111111109
 21
72.01388888888889
  0
ARC
  5
1FC
100
AcDbEntity
  8
dimensions_exploded
  6
ByLayer
 62
  256
370
   -1
100
AcDbCircle
 10
130.393519444445
 20
72.01388819444382
 40
1.157408333334375
100
AcDbArc
 50
106.2602390857831
 51
179.9999656225289
  0
LINE
  5
1FD
100
AcDbEntity
  8
dimensions_exploded
  6
ByLayer
 62
  256
370
   -1
100
AcDbLine
 10
131.1805555555555
 20
72.01388888888889
 11
131.736111111111
 21
72.01388888888889
  0
ARC
  5
1FE
100
AcDbEntity
  8
dimensions_exploded
  6
ByLayer
 62
  256
370
   -1
100
AcDbCircle
 10
131.7361115261528
 20
71.4583337483751
 40
0.5555551405139421
100
AcDbArc
 50
359.999957195713
 51
90.00004280428698
  0
LINE
  5
1FF
100
AcDbEntity
  8
dimensions_exploded
  6
ByLayer
 62
  256
370
   -1
100
AcDbLine
 10
132.2916666666666
 20
71.45833333333333
 11
132.2916666666666
 21
71.18055555555556
  0
ARC
  5
200
100
AcDbEntity
  8
dimensions_exploded
  6
ByLayer
 62
  256
370
   -1
100
AcDbCircle
 10
131.736111111111
 20
71.18055555555556
 40
0.5555555555555556
100
AcDbArc
 50
180
 51
0
  0
LINE
  5
201
100
AcDbEntity
  8
dimensions_exploded
  6
ByLayer
 62
  256
370
   -1
100
AcDbLine
 10
131.1805555555555
 20
71.18055555555556
 11
131.1805555555555
 21
72.01388888888889
  0
ARC
  5
202
100
AcDbEntity
  8
dimensions_exploded
  6
ByLayer
 62
  256
370
   -1
100
AcDbCircle
 10
132.3379638888896
 20
72.01388819444382
 40
1.157408333334375
100
AcDbArc
 50
106.2602390857831
 51
179.9999656225289
  0
LINE
  5
203
100
AcDbEntity
  8
dimensions_exploded
  6
ByLayer
 62
  256
370
   -1
100
AcDbLine
 10
133.1250000000001
 20
70.625
 11
133.1250000000001
 21
70.76388888888889
  0
LINE
  5
204
100
AcDbEntity
  8
dimensions_exploded
  6
ByLayer
 62
  256
370
   -1
100
AcDbLine
 10
133.9583333333334
 20
72.70833333333333
 11
134.032763888889
 21
72.84722222222223
  0
ARC
  5
205
100
AcDbEntity
  8
dimensions_exploded
  6
ByLayer
 62
  256
370
   -1
100
AcDbCircle
 10
134.5138888888889
 20
72.56944444444444
 40
0.5555553612846883
100
AcDbArc
 50
329.9999884324239
 51
149.9999884324239
  0
LINE
  5
206
100
AcDbEntity
  8
dimensions_exploded
  6
ByLayer
 62
  256
370
   -1
100
AcDbLine
 10
134.995013888889
 20
72.29166666666667
 11
133.9583333333334
 21
70.625
  0
LINE
  5
207
100
AcDbEntity
  8
dimensions_exploded
  6
ByLayer
 62
  256
370
   -1
100
AcDbLine
 10
133.9583333333334
 20
70.625
 11
135.0694444444445
 21
70.625
  0
LINE
  5
208
100
AcDbEntity
  8
dimensions_exploded
  6
ByLayer
 62
  256
370
   -1
100
AcDbLine
 10
137.013888888889
 20
73.125
 11
135.9027777777779
 21
73.125
  0
LINE
  5
209
100
AcDbEntity
  8
dimensions_exploded
  6
ByLayer
 62
  256
370
   -1
100
AcDbLine
 10
135.9027777777779
 20
73.125
 11
135.9027777777779
 21
72.01388888888889
  0
LINE
  5
20A
100
AcDbEntity
  8
dimensions_exploded
  6
ByLayer
 62
  256
370
   -1
100
AcDbLine
 10
135.9027777777779
 20
72.01388888888889
 11
136.4583333333334
 21
72.01388888888889
  0
ARC
  5
20B
100
AcDbEntity
  8
dimensions_exploded
  6
ByLayer
 62
  256
370
   -1
100
AcDbCircle
 10
136.4583337483752
 20
71.4583337483751
 40
0.5555551405139421
100
AcDbArc
 50
359.999957195713
 51
90.00004280428698
  0
LINE
  5
20C
100
AcDbEntity
  8
dimensions_exploded
  6
ByLayer
 62
  256
370
   -1
100
AcDbLine
 10
137.013888888889
 20
71.45833333333333
 11
137.013888888889
 21
71.18055555555556
  0
ARC
  5
20D
100
AcDbEntity
  8
dimensions_exploded
  6
ByLayer
 62
  256
370
   -1
100
AcDbCircle
 10
136.4583337483752
 20
71.18055514051379
 40
0.5555551405139421
100
AcDbArc
 50
269.999957195713
 51
4.280428697680878e-05
  0
LINE
  5
20E
100
AcDbEntity
  8
dimensions_exploded
  6
ByLayer
 62
  256
370
   -1
100
AcDbLine
 10
136.4583333333334
 20
70.625
 11
135.9027777777779
 21
70.625
  0
LINE
  5
20F
100
AcDbEntity
  8
dimensions_exploded
  6
ByLayer
 62
  256
370
   -1
100
AcDbLine
 10
92.43055555555556
 20
102.4616666666666
 11
91.875
 21
103.0172222222221
  0
LINE
  5
210
100
AcDbEntity
  8
dimensions_exploded
  6
ByLayer
 62
  256
370
   -1
100
AcDbLine
 10
91.875
 20
103.0172222222221
 11
94.375
 21
103.0172222222221
  0
LINE
  5
211
100
AcDbEntity
  8
dimensions_exploded
  6
ByLayer
 62
  256
370
   -1
100
AcDbLine
 10
92.43055555555556
 20
103.8505555555555
 11
91.875
 21
104.406111111111
  0
LINE
  5
212
100
AcDbEntity
  8
dimensions_exploded
  6
ByLayer
 62
  256
370
   -1
100
AcDbLine
 10
91.875
 20
104.406111111111
 11
94.375
 21
104.406111111111
  0
LINE
  5
213
100
AcDbEntity
  8
dimensions_exploded
  6
ByLayer
 62
  256
370
   -1
100
AcDbLine
 10
94.375
 20
105.2394444444444
 11
94.23611111111111
 21
105.2394444444444
  0
LINE
  5
214
100
AcDbEntity
  8
dimensions_exploded
  6
ByLayer
 62
  256
370
   -1
100
AcDbLine
 10
91.875
 20
107.1838888888888
 11
91.875
 21
106.0727777777777
  0
LINE
  5
215
100
AcDbEntity
  8
dimensions_exploded
  6
ByLayer
 62
  256
370
   -1
100
AcDbLine
 10
91.875
 20
106.0727777777777
 11
92.98611111111111
 21
106.0727777777777
  0
LINE
  5
216
100
AcDbEntity
  8
dimensions_exploded
  6
ByLayer
 62
  256
370
   -1
100
AcDbLine
 10
92.98611111111111
 20
106.0727777777777
 11
92.98611111111111
 21
106.6283333333333
  0
ARC
  5
217
100
AcDbEntity
  8
dimensions_exploded
  6
ByLayer
 62
  256
370
   -1
100
AcDbCircle
 10
93.5416662516249
 20
106.628333748375
 40
0.5555551405139421
100
AcDbArc
 50
89.99995719571302
 51
180.000042804287
  0
LINE
  5
218
100
AcDbEntity
  8
dimensions_exploded
  6
ByLayer
 62
  256
370
   -1
100
AcDbLine
 10
93.54166666666667
 20
107.1838888888888
 11
93.81944444444444
 21
107.1838888888888
  0
ARC
  5
219
100
AcDbEntity
  8
dimensions_exploded
  6
ByLayer
 62
  256
370
   -1
100
AcDbCircle
 10
93.81944485948621
 20
106.628333748375
 40
0.5555551405139421
100
AcDbArc
 50
359.999957195713
 51
90.00004280428698
  0
LINE
  5
21A
100
AcDbEntity
  8
dimensions_exploded
  6
ByLayer
 62
  256
370
   -1
100
AcDbLine
 10
94.375
 20
106.6283333333333
 11
94.375
 21
106.0727777777777
  0
LINE
  5
21B
100
AcDbEntity
  8
dimensions_exploded
  6
ByLayer
 62
  256
370
   -1
100
AcDbLine
 10
93.26388888888889
 20
109.1283333333334
 11
93.26388888888889
 21
108.5727777777779
  0
ARC
  5
21C
100
AcDbEntity
  8
dimensions_exploded
  6
ByLayer
 62
  256
370
   -1
100
AcDbCircle
 10
92.7083337483751
 20
108.5727773627361
 40
0.5555551405139421
100
AcDbArc
 50
269.999957195713
 51
4.280428697680878e-05
  0
LINE
  5
21D
100
AcDbEntity
  8
dimensions_exploded
  6
ByLayer
 62
  256
370
   -1
100
AcDbLine
 10
92.70833333333333
 20
108.0172222222223
 11
92.43055555555556
 21
108.0172222222223
  0
ARC
  5
21E
100
AcDbEntity
  8
dimensions_exploded
  6
ByLayer
 62
  256
370
   -1
100
AcDbCircle
 10
92.43055555555556
 20
108.5727777777779
 40
0.5555555555555556
100
AcDbArc
 50
90
 51
270
  0
LINE
  5
21F
100
AcDbEntity
  8
dimensions_exploded
  6
ByLayer
 62
  256
370
   -1
100
AcDbLine
 10
92.43055555555556
 20
109.1283333333334
 11
93.26388888888889
 21
109.1283333333334
  0
ARC
  5
220
100
AcDbEntity
  8
dimensions_exploded
  6
ByLayer
 62
  256
370
   -1
100
AcDbCircle
 10
93.26388819444382
 20
107.9709249999992
 40
1.157408333334375
100
AcDbArc
 50
16.26023908578313
 51
89.99996562252883
  0
LINE
  5
221
100
AcDbEntity
  8
dimensions_exploded
  6
ByLayer
 62
  256
370
   -1
100
AcDbLine
 10
86.875
 20
124.3783333333332
 11
86.875
 21
123.2672222222221
  0
LINE
  5
222
100
AcDbEntity
  8
dimensions_exploded
  6
ByLayer
 62
  256
370
   -1
100
AcDbLine
 10
86.875
 20
123.2672222222221
 11
87.98611111111111
 21
123.2672222222221
  0
LINE
  5
223
100
AcDbEntity
  8
dimensions_exploded
  6
ByLayer
 62
  256
370
   -1
100
AcDbLine
 10
87.98611111111111
 20
123.2672222222221
 11
87.98611111111111
 21
123.8227777777776
  0
ARC
  5
224
100
AcDbEntity
  8
dimensions_exploded
  6
ByLayer
 62
  256
370
   -1
100
AcDbCircle
 10
88.5416662516249
 20
123.8227781928194
 40
0.5555551405139421
100
AcDbArc
 50
89.99995719571302
 51
180.000042804287
  0
LINE
  5
225
100
AcDbEntity
  8
dimensions_exploded
  6
ByLayer
 62
  256
370
   -1
100
AcDbLine
 10
88.54166666666667
 20
124.3783333333332
 11
88.81944444444444
 21
124.3783333333332
  0
ARC
  5
226
100
AcDbEntity
  8
dimensions_exploded
  6
ByLayer
 62
  256
370
   -1
100
AcDbCircle
 10
88.81944485948621
 20
123.8227781928194
 40
0.5555551405139421
100
AcDbArc
 50
359.999957195713
 51
90.00004280428698
  0
LINE
  5
227
100
AcDbEntity
  8
dimensions_exploded
  6
ByLayer
 62
  256
370
   -1
100
AcDbLine
 10
89.375
 20
123.8227777777776
 11
89.375
 21
123.2672222222221
  0
LINE
  5
228
100
AcDbEntity
  8
dimensions_exploded
  6
ByLayer
 62
  256
370
   -1
100
AcDbLine
 10
86.875
 20
125.7672222222222
 11
88.81944444444444
 21
125.2116666666667
  0
LINE
  5
229
100
AcDbEntity
  8
dimensions_exploded
  6
ByLayer
 62
  256
370
   -1
100
AcDbLine
 10
88.81944444444444
 20
125.2116666666667
 11
88.81944444444444
 21
126.6005555555556
  0
LINE
  5
22A
100
AcDbEntity
  8
dimensions_exploded
  6
ByLayer
 62
  256
370
   -1
100
AcDbLine
 10
88.26388888888889
 20
126.1838888888889
 11
89.375
 21
126.1838888888889
  0
LINE
  5
22B
100
AcDbEntity
  8
dimensions_exploded
  6
ByLayer
 62
  256
370
   -1
100
AcDbLine
 10
89.375
 20
127.4338888888889
 11
89.23611111111111
 21
127.4338888888889
  0
LINE
  5
22C
100
AcDbEntity
  8
dimensions_exploded
  6
ByLayer
 62
  256
370
   -1
100
AcDbLine
 10
86.875
 20
129.3783333333333
 11
86.875
 21
128.2672222222222
  0
LINE
  5
22D
100
AcDbEntity
  8
dimensions_exploded
  6
ByLayer
 62
  256
370
   -1
100
AcDbLine
 10
86.875
 20
128.2672222222222
 11
87.98611111111111
 21
128.2672222222222
  0
LINE
  5
22E
100
AcDbEntity
  8
dimensions_exploded
  6
ByLayer
 62
  256
370
   -1
100
AcDbLine
 10
87.98611111111111
 20
128.2672222222222
 11
87.98611111111111
 21
128.8227777777778
  0
ARC
  5
22F
100
AcDbEntity
  8
dimensions_exploded
  6
ByLayer
 62
  256
370
   -1
100
AcDbCircle
 10
88.54166625162489
 20
128.8227781928196
 40
0.5555551405139421
100
AcDbArc
 50
89.99995719571302
 51
180.000042804287
  0
LINE
  5
230
100
AcDbEntity
  8
dimensions_exploded
  6
ByLayer
 62
  256
370
   -1
100
AcDbLine
 10
88.54166666666666
 20
129.3783333333333
 11
88.81944444444446
 21
129.3783333333333
  0
ARC
  5
231
100
AcDbEntity
  8
dimensions_exploded
  6
ByLayer
 62
  256
370
   -1
100
AcDbCircle
 10
88.8194448594862
 20
128.8227781928196
 40
0.5555551405139421
100
AcDbArc
 50
359.999957195713
 51
90.00004280428698
  0
LINE
  5
232
100
AcDbEntity
  8
dimensions_exploded
  6
ByLayer
 62
  256
370
   -1
100
AcDbLine
 10
89.375
 20
128.8227777777778
 11
89.375
 21
128.2672222222222
  0
LINE
  5
233
100
AcDbEntity
  8
dimensions_exploded
  6
ByLayer
 62
  256
370
   -1
100
AcDbLine
 10
88.26388888888889
 20
131.3227777777779
 11
88.26388888888889
 21
130.7672222222224
  0
ARC
  5
234
100
AcDbEntity
  8
dimensions_exploded
  6
ByLayer
 62
  256
370
   -1
100
AcDbCircle
 10
87.70833374837511
 20
130.7672218071806
 40
0.5555551405139421
100
AcDbArc
 50
269.999957195713
 51
4.280428697680878e-05
  0
LINE
  5
235
100
AcDbEntity
  8
dimensions_exploded
  6
ByLayer
 62
  256
370
   -1
100
AcDbLine
 10
87.70833333333334
 20
130.2116666666668
 11
87.43055555555554
 21
130.2116666666668
  0
ARC
  5
236
100
AcDbEntity
  8
dimensions_exploded
  6
ByLayer
 62
  256
370
   -1
100
AcDbCircle
 10
87.43055555555554
 20
130.7672222222224
 40
0.5555555555555556
100
AcDbArc
 50
90
 51
270
  0
LINE
  5
237
100
AcDbEntity
  8
dimensions_exploded
  6
ByLayer
 62
  256
370
   -1
100
AcDbLine
 10
87.43055555555554
 20
131.3227777777779
 11
88.26388888888889
 21
131.3227777777779
  0
ARC
  5
238
100
AcDbEntity
  8
dimensions_exploded
  6
ByLayer
 62
  256
370
   -1
100
AcDbCircle
 10
88.26388819444384
 20
130.1653694444438
 40
1.157408333334375
100
AcDbArc
 50
16.26023908578313
 51
89.99996562252883
  0
LINE
  5
239
100
AcDbEntity
  8
dimensions_exploded
  6
ByLayer
 62
  256
370
   -1
100
AcDbLine
 10
82.98611111111111
 20
129.2361111111109
 11
82.98611111111111
 21
129.7916666666665
  0
ARC
  5
23A
100
AcDbEntity
  8
dimensions_exploded
  6
ByLayer
 62
  256
370
   -1
100
AcDbCircle
 10
83.54166625162489
 20
129.7916670817082
 40
0.5555551405139421
100
AcDbArc
 50
89.99995719571302
 51
180.000042804287
  0
LINE
  5
23B
100
AcDbEntity
  8
dimensions_exploded
  6
ByLayer
 62
  256
370
   -1
100
AcDbLine
 10
83.54166666666666
 20
130.347222222222
 11
83.81944444444446
 21
130.347222222222
  0
ARC
  5
23C
100
AcDbEntity
  8
dimensions_exploded
  6
ByLayer
 62
  256
370
   -1
100
AcDbCircle
 10
83.81944444444446
 20
129.7916666666665
 40
0.5555555555555556
100
AcDbArc
 50
270
 51
90
  0
LINE
  5
23D
100
AcDbEntity
  8
dimensions_exploded
  6
ByLayer
 62
  256
370
   -1
100
AcDbLine
 10
83.81944444444446
 20
129.2361111111109
 11
82.98611111111111
 21
129.2361111111109
  0
ARC
  5
23E
100
AcDbEntity
  8
dimensions_exploded
  6
ByLayer
 62
  256
370
   -1
100
AcDbCircle
 10
82.98611180555619
 20
130.393519444445
 40
1.157408333334375
100
AcDbArc
 50
196.2602390857831
 51
269.9999656225289
  0
LINE
  5
23F
100
AcDbEntity
  8
dimensions_exploded
  6
ByLayer
 62
  256
370
   -1
100
AcDbLine
 10
82.98611111111111
 20
131.1805555555555
 11
82.98611111111111
 21
131.7361111111111
  0
ARC
  5
240
100
AcDbEntity
  8
dimensions_exploded
  6
ByLayer
 62
  256
370
   -1
100
AcDbCircle
 10
83.54166625162489
 20
131.7361115261528
 40
0.5555551405139421
100
AcDbArc
 50
89.99995719571302
 51
180.000042804287
  0
LINE
  5
241
100
AcDbEntity
  8
dimensions_exploded
  6
ByLayer
 62
  256
370
   -1
100
AcDbLine
 10
83.54166666666666
 20
132.2916666666666
 11
83.81944444444446
 21
132.2916666666666
  0
ARC
  5
242
100
AcDbEntity
  8
dimensions_exploded
  6
ByLayer
 62
  256
370
   -1
100
AcDbCircle
 10
83.81944444444446
 20
131.736111111111
 40
0.5555555555555556
100
AcDbArc
 50
270
 51
90
  0
LINE
  5
243
100
AcDbEntity
  8
dimensions_exploded
  6
ByLayer
 62
  256
370
   -1
100
AcDbLine
 10
83.81944444444446
 20
131.1805555555555
 11
82.98611111111111
 21
131.1805555555555
  0
ARC
  5
244
100
AcDbEntity
  8
dimensions_exploded
  6
ByLayer
 62
  256
370
   -1
100
AcDbCircle
 10
82.98611180555616
 20
132.3379638888896
 40
1.157408333334375
100
AcDbArc
 50
196.2602390857831
 51
269.9999656225289
  0
LINE
  5
245
100
AcDbEntity
  8
dimensions_exploded
  6
ByLayer
 62
  256
370
   -1
100
AcDbLine
 10
84.375
 20
133.1250000000001
 11
84.23611111111111
 21
133.1250000000001
  0
LINE
  5
246
100
AcDbEntity
  8
dimensions_exploded
  6
ByLayer
 62
  256
370
   -1
100
AcDbLine
 10
82.29166666666666
 20
133.9583333333334
 11
82.15277777777777
 21
134.032763888889
  0
ARC
  5
247
100
AcDbEntity
  8
dimensions_exploded
  6
ByLayer
 62
  256
370
   -1
100
AcDbCircle
 10
82.43055555555554
 20
134.513888888889
 40
0.5555553612846883
100
AcDbArc
 50
59.99998843242389
 51
239.9999884324239
  0
LINE
  5
248
100
AcDbEntity
  8
dimensions_exploded
  6
ByLayer
 62
  256
370
   -1
100
AcDbLine
 10
82.70833333333334
 20
134.995013888889
 11
84.375
 21
133.9583333333334
  0
LINE
  5
249
100
AcDbEntity
  8
dimensions_exploded
  6
ByLayer
 62
  256
370
   -1
100
AcDbLine
 10
84.375
 20
133.9583333333334
 11
84.375
 21
135.0694444444445
  0
LINE
  5
24A
100
AcDbEntity
  8
dimensions_exploded
  6
ByLayer
 62
  256
370
   -1
100
AcDbLine
 10
81.875
 20
137.013888888889
 11
81.875
 21
135.9027777777779
  0
LINE
  5
24B
100
AcDbEntity
  8
dimensions_exploded
  6
ByLayer
 62
  256
370
   -1
100
AcDbLine
 10
81.875
 20
135.9027777777779
 11
82.98611111111111
 21
135.9027777777779
  0
LINE
  5
24C
100
AcDbEntity
  8
dimensions_exploded
  6
ByLayer
 62
  256
370
   -1
100
AcDbLine
 10
82.98611111111111
 20
135.9027777777779
 11
82.98611111111111
 21
136.4583333333334
  0
ARC
  5
24D
100
AcDbEntity
  8
dimensions_exploded
  6
ByLayer
 62
  256
370
   -1
100
AcDbCircle
 10
83.54166625162489
 20
136.4583337483752
 40
0.5555551405139421
100
AcDbArc
 50
89.99995719571302
 51
180.000042804287
  0
LINE
  5
24E
100
AcDbEntity
  8
dimensions_exploded
  6
ByLayer
 62
  256
370
   -1
100
AcDbLine
 10
83.54166666666666
 20
137.013888888889
 11
83.81944444444446
 21
137.013888888889
  0
ARC
  5
24F
100
AcDbEntity
  8
dimensions_exploded
  6
ByLayer
 62
  256
370
   -1
100
AcDbCircle
 10
83.8194448594862
 20
136.4583337483752
 40
0.5555551405139421
100
AcDbArc
 50
359.999957195713
 51
90.00004280428698
  0
LINE
  5
250
100
AcDbEntity
  8
dimensions_exploded
  6
ByLayer
 62
  256
370
   -1
100
AcDbLine
 10
84.375
 20
136.4583333333334
 11
84.375
 21
135.9027777777779
  0
LINE
  5
251
100
AcDbEntity
  8
dimensions_exploded
  6
ByLayer
 62
  256
370
   -1
100
AcDbLine
 10
112.4722222222222
 20
172.7083333333333
 11
112.5466527777778
 21
172.8472222222222
  0
ARC
  5
252
100
AcDbEntity
  8
dimensions_exploded
  6
ByLayer
 62
  256
370
   -1
100
AcDbCircle
 10
113.0277777777778
 20
172.5694444444445
 40
0.5555553612846883
100
AcDbArc
 50
329.9999884324239
 51
149.9999884324239
  0
LINE
  5
253
100
AcDbEntity
  8
dimensions_exploded
  6
ByLayer
 62
  256
370
   -1
100
AcDbLine
 10
113.5089027777778
 20
172.2916666666667
 11
112.4722222222222
 21
170.625
  0
LINE
  5
254
100
AcDbEntity
  8
dimensions_exploded
  6
ByLayer
 62
  256
370
   -1
100
AcDbLine
 10
112.4722222222222
 20
170.625
 11
113.5833333333333
 21
170.625
  0
LINE
  5
255
100
AcDbEntity
  8
dimensions_exploded
  6
ByLayer
 62
  256
370
   -1
100
AcDbLine
 10
115.5277777777778
 20
171.1805555555555
 11
115.5277777777778
 21
171.4583333333333
  0
ARC
  5
256
100
AcDbEntity
  8
dimensions_exploded
  6
ByLayer
 62
  256
370
   -1
100
AcDbCircle
 10
114.9722222222222
 20
171.4583333333333
 40
0.5555555555555556
100
AcDbArc
 50
0
 51
180
  0
LINE
  5
257
100
AcDbEntity
  8
dimensions_exploded
  6
ByLayer
 62
  256
370
   -1
100
AcDbLine
 10
114.4166666666667
 20
171.4583333333333
 11
114.4166666666667
 21
171.1805555555555
  0
ARC
  5
258
100
AcDbEntity
  8
dimensions_exploded
  6
ByLayer
 62
  256
370
   -1
100
AcDbCircle
 10
114.9722222222222
 20
171.1805555555555
 40
0.5555555555555556
100
AcDbArc
 50
180
 51
0
  0
ARC
  5
259
100
AcDbEntity
  8
dimensions_exploded
  6
ByLayer
 62
  256
370
   -1
100
AcDbCircle
 10
114.9722222222222
 20
172.5694444444445
 40
0.5555555555555556
100
AcDbArc
 50
270
 51
90
  0
ARC
  5
25A
100
AcDbEntity
  8
dimensions_exploded
  6
ByLayer
 62
  256
370
   -1
100
AcDbCircle
 10
114.9722222222222
 20
172.5694444444445
 40
0.5555555555555556
100
AcDbArc
 50
90
 51
270
  0
LINE
  5
25B
100
AcDbEntity
  8
dimensions_exploded
  6
ByLayer
 62
  256
370
   -1
100
AcDbLine
 10
115.236111111111
 20
179.125
 11
115.7916666666665
 21
179.125
  0
ARC
  5
25C
100
AcDbEntity
  8
dimensions_exploded
  6
ByLayer
 62
  256
370
   -1
100
AcDbCircle
 10
115.7916666666665
 20
178.5694444444445
 40
0.5555555555555556
100
AcDbArc
 50
270
 51
90
  0
LINE
  5
25D
100
AcDbEntity
  8
dimensions_exploded
  6
ByLayer
 62
  256
370
   -1
100
AcDbLine
 10
115.5138888888887
 20
178.0138888888889
 11
115.7916666666665
 21
178.0138888888889
  0
ARC
  5
25E
100
AcDbEntity
  8
dimensions_exploded
  6
ByLayer
 62
  256
370
   -1
100
AcDbCircle
 10
115.7916670817083
 20
177.4583337483751
 40
0.5555551405139421
100
AcDbArc
 50
359.999957195713
 51
90.00004280428698
  0
LINE
  5
25F
100
AcDbEntity
  8
dimensions_exploded
  6
ByLayer
 62
  256
370
   -1
100
AcDbLine
 10
116.3472222222221
 20
177.4583333333333
 11
116.3472222222221
 21
177.1805555555555
  0
ARC
  5
260
100
AcDbEntity
  8
dimensions_exploded
  6
ByLayer
 62
  256
370
   -1
100
AcDbCircle
 10
115.7916670817083
 20
177.1805551405138
 40
0.5555551405139421
100
AcDbArc
 50
269.999957195713
 51
4.280428697680878e-05
  0
LINE
  5
261
100
AcDbEntity
  8
dimensions_exploded
  6
ByLayer
 62
  256
370
   -1
100
AcDbLine
 10
115.7916666666665
 20
176.625
 11
115.236111111111
 21
176.625
  0
LINE
  5
262
100
AcDbEntity
  8
dimensions_exploded
  6
ByLayer
 62
  256
370
   -1
100
AcDbLine
 10
118.2916666666667
 20
177.1805555555555
 11
118.2916666666667
 21
177.4583333333333
  0
ARC
  5
263
100
AcDbEntity
  8
dimensions_exploded
  6
ByLayer
 62
  256
370
   -1
100
AcDbCircle
 10
117.7361111111111
 20
177.4583333333333
 40
0.5555555555555556
100
AcDbArc
 50
0
 51
180
  0
LINE
  5
264
100
AcDbEntity
  8
dimensions_exploded
  6
ByLayer
 62
  256
370
   -1
100
AcDbLine
 10
117.1805555555556
 20
177.4583333333333
 11
117.1805555555556
 21
177.1805555555555
  0
ARC
  5
265
100
AcDbEntity
  8
dimensions_exploded
  6
ByLayer
 62
  256
370
   -1
100
AcDbCircle
 10
117.7361111111111
 20
177.1805555555555
 40
0.5555555555555556
100
AcDbArc
 50
180
 51
0
  0
ARC
  5
266
100
AcDbEntity
  8
dimensions_exploded
  6
ByLayer
 62
  256
370
   -1
100
AcDbCircle
 10
117.7361111111111
 20
178.5694444444445
 40
0.5555555555555556
100
AcDbArc
 50
270
 51
90
  0
ARC
  5
267
100
AcDbEntity
  8
dimensions_exploded
  6
ByLayer
 62
  256
370
   -1
100
AcDbCircle
 10
117.7361111111111
 20
178.5694444444445
 40
0.5555555555555556
100
AcDbArc
 50
90
 51
270
  0
LINE
  5
268
100
AcDbEntity
  8
dimensions_exploded
  6
ByLayer
 62
  256
370
   -1
100
AcDbLine
 10
119.125
 20
176.625
 11
119.125
 21
176.7638888888889
  0
LINE
  5
269
100
AcDbEntity
  8
dimensions_exploded
  6
ByLayer
 62
  256
370
   -1
100
AcDbLine
 10
119.9583333333333
 20
178.7083333333333
 11
120.0327638888889
 21
178.8472222222222
  0
ARC
  5
26A
100
AcDbEntity
  8
dimensions_exploded
  6
ByLayer
 62
  256
370
   -1
100
AcDbCircle
 10
120.5138888888889
 20
178.5694444444445
 40
0.5555553612846883
100
AcDbArc
 50
329.9999884324239
 51
149.9999884324239
  0
LINE
  5
26B
100
AcDbEntity
  8
dimensions_exploded
  6
ByLayer
 62
  256
370
   -1
100
AcDbLine
 10
120.9950138888889
 20
178.2916666666667
 11
119.9583333333333
 21
176.625
  0
LINE
  5
26C
100
AcDbEntity
  8
dimensions_exploded
  6
ByLayer
 62
  256
370
   -1
100
AcDbLine
 10
119.9583333333333
 20
176.625
 11
121.0694444444444
 21
176.625
  0
LINE
  5
26D
100
AcDbEntity
  8
dimensions_exploded
  6
ByLayer
 62
  256
370
   -1
100
AcDbLine
 10
123.0138888888889
 20
179.125
 11
121.9027777777778
 21
179.125
  0
LINE
  5
26E
100
AcDbEntity
  8
dimensions_exploded
  6
ByLayer
 62
  256
370
   -1
100
AcDbLine
 10
121.9027777777778
 20
179.125
 11
121.9027777777778
 21
178.0138888888889
  0
LINE
  5
26F
100
AcDbEntity
  8
dimensions_exploded
  6
ByLayer
 62
  256
370
   -1
100
AcDbLine
 10
121.9027777777778
 20
178.0138888888889
 11
122.4583333333333
 21
178.0138888888889
  0
ARC
  5
270
100
AcDbEntity
  8
dimensions_exploded
  6
ByLayer
 62
  256
370
   -1
100
AcDbCircle
 10
122.4583337483751
 20
177.4583337483751
 40
0.5555551405139421
100
AcDbArc
 50
359.999957195713
 51
90.00004280428698
  0
LINE
  5
271
100
AcDbEntity
  8
dimensions_exploded
  6
ByLayer
 62
  256
370
   -1
100
AcDbLine
 10
123.0138888888889
 20
177.4583333333333
 11
123.0138888888889
 21
177.1805555555555
  0
ARC
  5
272
100
AcDbEntity
  8
dimensions_exploded
  6
ByLayer
 62
  256
370
   -1
100
AcDbCircle
 10
122.4583337483751
 20
177.1805551405138
 40
0.5555551405139421
100
AcDbArc
 50
269.999957195713
 51
4.280428697680878e-05
  0
LINE
  5
273
100
AcDbEntity
  8
dimensions_exploded
  6
ByLayer
 62
  256
370
   -1
100
AcDbLine
 10
122.4583333333333
 20
176.625
 11
121.9027777777778
 21
176.625
  0
LINE
  5
274
100
AcDbEntity
  8
dimensions_exploded
  6
ByLayer
 62
  256
370
   -1
100
AcDbLine
 10
110.34
 20
163.5694444444445
 11
110.8955555555556
 21
164.125
  0
LINE
  5
275
100
AcDbEntity
  8
dimensions_exploded
  6
ByLayer
 62
  256
370
   -1
100
AcDbLine
 10
110.8955555555556
 20
164.125
 11
110.8955555555556
 21
161.625
  0
ARC
  5
276
100
AcDbEntity
  8
dimensions_exploded
  6
ByLayer
 62
  256
370
   -1
100
AcDbCircle
 10
112.2844444444444
 20
163.7777777777778
 40
0.3472222222222222
100
AcDbArc
 50
36.86989764584401
 51
143.130102354156
  0
ARC
  5
277
100
AcDbEntity
  8
dimensions_exploded
  6
ByLayer
 62
  256
370
   -1
100
AcDbCircle
 10
114.09
 20
162.875
 40
2.361111111111111
100
AcDbArc
 50
151.927513064147
 51
208.072486935853
  0
ARC
  5
278
100
AcDbEntity
  8
dimensions_exploded
  6
ByLayer
 62
  256
370
   -1
100
AcDbCircle
 10
112.2844444444444
 20
161.9722222222222
 40
0.3472222222222222
100
AcDbArc
 50
216.869897645844
 51
323.130102354156
  0
ARC
  5
279
100
AcDbEntity
  8
dimensions_exploded
  6
ByLayer
 62
  256
370
   -1
100
AcDbCircle
 10
110.4788888888889
 20
162.875
 40
2.361111111111111
100
AcDbArc
 50
331.927513064147
 51
28.07248693585297
  0
LINE
  5
27A
100
AcDbEntity
  8
dimensions_exploded
  6
ByLayer
 62
  256
370
   -1
100
AcDbLine
 10
110.34
 20
121.5694444444444
 11
110.8955555555556
 21
122.125
  0
LINE
  5
27B
100
AcDbEntity
  8
dimensions_exploded
  6
ByLayer
 62
  256
370
   -1
100
AcDbLine
 10
110.8955555555556
 20
122.125
 11
110.8955555555556
 21
119.625
  0
ARC
  5
27C
100
AcDbEntity
  8
dimensions_exploded
  6
ByLayer
 62
  256
370
   -1
100
AcDbCircle
 10
112.2844444444444
 20
121.7777777777778
 40
0.3472222222222222
100
AcDbArc
 50
36.86989764584401
 51
143.130102354156
  0
ARC
  5
27D
100
AcDbEntity
  8
dimensions_exploded
  6
ByLayer
 62
  256
370
   -1
100
AcDbCircle
 10
114.09
 20
120.875
 40
2.361111111111111
100
AcDbArc
 50
151.927513064147
 51
208.072486935853
  0
ARC
  5
27E
100
AcDbEntity
  8
dimensions_exploded
  6
ByLayer
 62
  256
370
   -1
100
AcDbCircle
 10
112.2844444444444
 20
119.9722222222222
 40
0.3472222222222222
100
AcDbArc
 50
216.869897645844
 51
323.130102354156
  0
ARC
  5
27F
100
AcDbEntity
  8
dimensions_exploded
  6
ByLayer
 62
  256
370
   -1
100
AcDbCircle
 10
110.4788888888889
 20
120.875
 40
2.361111111111111
100
AcDbArc
 50
331.927513064147
 51
28.07248693585297
  0
LINE
  5
280
100
AcDbEntity
  8
dimensions_exploded
  6
ByLayer
 62
  256
370
   -1
100
AcDbLine
 10
121.0344444444444
 20
164.125
 11
121.5899999999999
 21
164.125
  0
ARC
  5
281
100
AcDbEntity
  8
dimensions_exploded
  6
ByLayer
 62
  256
370
   -1
100
AcDbCircle
 10
121.5899999999999
 20
163.5694444444445
 40
0.5555555555555556
100
AcDbArc
 50
270
 51
90
  0
LINE
  5
282
100
AcDbEntity
  8
dimensions_exploded
  6
ByLayer
 62
  256
370
   -1
100
AcDbLine
 10
121.3122222222221
 20
163.0138888888889
 11
121.5899999999999
 21
163.0138888888889
  0
ARC
  5
283
100
AcDbEntity
  8
dimensions_exploded
  6
ByLayer
 62
  256
370
   -1
100
AcDbCircle
 10
121.5900004150417
 20
162.4583337483751
 40
0.5555551405139421
100
AcDbArc
 50
359.999957195713
 51
90.00004280428698
  0
LINE
  5
284
100
AcDbEntity
  8
dimensions_exploded
  6
ByLayer
 62
  256
370
   -1
100
AcDbLine
 10
122.1455555555555
 20
162.4583333333333
 11
122.1455555555555
 21
162.1805555555555
  0
ARC
  5
285
100
AcDbEntity
  8
dimensions_exploded
  6
ByLayer
 62
  256
370
   -1
100
AcDbCircle
 10
121.5900004150417
 20
162.1805551405138
 40
0.5555551405139421
100
AcDbArc
 50
269.999957195713
 51
4.280428697680878e-05
  0
LINE
  5
286
100
AcDbEntity
  8
dimensions_exploded
  6
ByLayer
 62
  256
370
   -1
100
AcDbLine
 10
121.5899999999999
 20
161.625
 11
121.0344444444444
 21
161.625
  0
LINE
  5
287
100
AcDbEntity
  8
dimensions_exploded
  6
ByLayer
 62
  256
370
   -1
100
AcDbLine
 10
121.0344444444444
 20
122.125
 11
121.5899999999999
 21
122.125
  0
ARC
  5
288
100
AcDbEntity
  8
dimensions_exploded
  6
ByLayer
 62
  256
370
   -1
100
AcDbCircle
 10
121.5899999999999
 20
121.5694444444444
 40
0.5555555555555556
100
AcDbArc
 50
270
 51
90
  0
LINE
  5
289
100
AcDbEntity
  8
dimensions_exploded
  6
ByLayer
 62
  256
370
   -1
100
AcDbLine
 10
121.3122222222221
 20
121.0138888888889
 11
121.5899999999999
 21
121.0138888888889
  0
ARC
  5
28A
100
AcDbEntity
  8
dimensions_exploded
  6
ByLayer
 62
  256
370
   -1
100
AcDbCircle
 10
121.5900004150417
 20
120.4583337483751
 40
0.5555551405139421
100
AcDbArc
 50
359.999957195713
 51
90.00004280428698
  0
LINE
  5
28B
100
AcDbEntity
  8
dimensions_exploded
  6
ByLayer
 62
  256
370
   -1
100
AcDbLine
 10
122.1455555555555
 20
120.4583333333333
 11
122.1455555555555
 21
120.1805555555556
  0
ARC
  5
28C
100
AcDbEntity
  8
dimensions_exploded
  6
ByLayer
 62
  256
370
   -1
100
AcDbCircle
 10
121.5900004150417
 20
120.1805551405138
 40
0.5555551405139421
100
AcDbArc
 50
269.999957195713
 51
4.280428697680878e-05
  0
LINE
  5
28D
100
AcDbEntity
  8
dimensions_exploded
  6
ByLayer
 62
  256
370
   -1
100
AcDbLine
 10
121.5899999999999
 20
119.625
 11
121.0344444444444
 21
119.625
  0
LINE
  5
28E
100
AcDbEntity
  8
box
  6
ByLayer
 62
  256
370
   -1
100
AcDbLine
 10
70
 20
190
 11
70
 21
60
  0
LINE
  5
28F
100
AcDbEntity
  8
box
  6
ByLayer
 62
  256
370
   -1
100
AcDbLine
 10
70
 20
60
 11
180
 21
60
  0
LINE
  5
290
100
AcDbEntity
  8
box
  6
ByLayer
 62
  256
370
   -1
100
AcDbLine
 10
180
 20
60
 11
180
 21
190
  0
LINE
  5
291
100
AcDbEntity
  8
box
  6
ByLayer
 62
  256
370
   -1
100
AcDbLine
 10
180
 20
190
 11
70
 21
190
  0
SOLID
  5
292
100
AcDbEntity
  8
dimensions_exploded
  6
ByLayer
 62
  256
370
   -1
100
AcDbTrace
 10
100
 20
93
 30
0
 11
100
 21
93
 31
0
 12
100
 22
93
 32
0
 13
100
 23
93
 33
0
  0
LINE
  5
293
100
AcDbEntity
  8
dimensions_exploded
  6
ByLayer
 62
  256
370
   -1
100
AcDbLine
 10
70
 20
190
 11
70
 21
60
  0
LINE
  5
294
100
AcDbEntity
  8
dimensions_exploded
  6
ByLayer
 62
  256
370
   -1
100
AcDbLine
 10
70
 20
60
 11
180
 21
60
  0
LINE
  5
295
100
AcDbEntity
  8
dimensions_exploded
  6
ByLayer
 62
  256
370
   -1
100
AcDbLine
 10
180
 20
60
 11
180
 21
190
  0
LINE
  5
296
100
AcDbEntity
  8
dimensions_exploded
  6
ByLayer
 62
  256
370
   -1
100
AcDbLine
 10
180
 20
190
 11
70
 21
190
  0
SOLID
  5
297
100
AcDbEntity
  8
holes
  6
ByLayer
 62
  256
370
   -1
100
AcDbTrace
 10
100
 20
93
 30
0
 11
100
 21
93
 31
0
 12
100
 22
93
 32
0
 13
100
 23
93
 33
0
  0
LINE
  5
298
100
AcDbEntity
  8
holes
  6
ByLayer
 62
  256
370
   -1
100
AcDbLine
 10
70
 20
190
 11
70
 21
60
  0
LINE
  5
299
100
AcDbEntity
  8
holes
  6
ByLayer
 62
  256
370
   -1
100
AcDbLine
 10
70
 20
60
 11
180
 21
60
  0
LINE
  5
29A
100
AcDbEntity
  8
holes
  6
ByLayer
 62
  256
370
   -1
100
AcDbLine
 10
180
 20
60
 11
180
 21
190
  0
LINE
  5
29B
100
AcDbEntity
  8
holes
  6
ByLayer
 62
  256
370
   -1
100
AcDbLine
 10
180
 20
190
 11
70
 21
190
  0
ENDSEC
  0
SECTION
  2
OBJECTS
  0
DICTIONARY
  5
C
330
0
100
AcDbDictionary
281
    1
  3
ACAD_GROUP
350
D
  0
DICTIONARY
  5
D
330
C
100
AcDbDictionary
281
    1
  0
ENDSEC
  0
EOF
