999
dxfrw 0.6.3
  0
SECTION
  2
HEADER
  9
$ACADVER
  1
AC1021
  9
$DWGCODEPAGE
  3
ANSI_1252
  9
$INSBASE
 10
0
 20
0
 30
0
  9
$EXTMIN
 10
-30
 20
-30
 30
0
  9
$EXTMAX
 10
60
 20
100
 30
0
  9
$LIMMIN
 10
0
 20
0
  9
$LIMMAX
 10
420
 20
297
  9
$ORTHOMODE
 70
    0
  9
$REGENMODE
 70
    1
  9
$FILLMODE
 70
    1
  9
$QTEXTMODE
 70
    0
  9
$MIRRTEXT
 70
    0
  9
$LTSCALE
 40
1
  9
$ATTMODE
 70
    0
  9
$TEXTSIZE
 40
2.5
  9
$TRACEWID
 40
15.68
  9
$TEXTSTYLE
  7
STANDARD
  9
$CLAYER
  8
dimensions exploded
  9
$CELTYPE
  6
BYLAYER
  9
$CECOLOR
 62
  256
  9
$CELTSCALE
 40
1
  9
$DISPSILH
 70
    0
  9
$DIMSCALE
 40
1
  9
$DIMASZ
 40
0
  9
$DIMEXO
 40
0.625
  9
$DIMDLI
 40
3.75
  9
$DIMRND
 40
0
  9
$DIMDLE
 40
0
  9
$DIMEXE
 40
1.25
  9
$DIMTP
 40
0
  9
$DIMTM
 40
0
  9
$DIMTXT
 40
2.5
  9
$DIMCEN
 40
2.5
  9
$DIMTSZ
 40
0
  9
$DIMTOL
 70
    0
  9
$DIMLIM
 70
    0
  9
$DIMTIH
 70
    0
  9
$DIMTOH
 70
    0
  9
$DIMSE1
 70
    0
  9
$DIMSE2
 70
    0
  9
$DIMTAD
 70
    1
  9
$DIMZIN
 70
    8
  9
$DIMBLK
  1

  9
$DIMASO
 70
    1
  9
$DIMSHO
 70
    1
  9
$DIMPOST
  1

  9
$DIMAPOST
  1

  9
$DIMALT
 70
    0
  9
$DIMALTD
 70
    3
  9
$DIMALTF
 40
0.03937
  9
$DIMLFAC
 40
1
  9
$DIMTOFL
 70
    1
  9
$DIMTVP
 40
0
  9
$DIMTIX
 70
    0
  9
$DIMSOXD
 70
    0
  9
$DIMSAH
 70
    0
  9
$DIMBLK1
  1

  9
$DIMBLK2
  1

  9
$DIMSTYLE
  2
STANDARD
  9
$DIMCLRD
 70
    0
  9
$DIMCLRE
 70
    0
  9
$DIMCLRT
 70
    0
  9
$DIMTFAC
 40
1
  9
$DIMGAP
 40
0.625
  9
$DIMJUST
 70
    0
  9
$DIMSD1
 70
    0
  9
$DIMSD2
 70
    0
  9
$DIMTOLJ
 70
    0
  9
$DIMTZIN
 70
    8
  9
$DIMALTZ
 70
    0
  9
$DIMALTTZ
 70
    0
  9
$DIMUPT
 70
    0
  9
$DIMDEC
 70
    2
  9
$DIMTDEC
 70
    2
  9
$DIMALTU
 70
    2
  9
$DIMALTTD
 70
    3
  9
$DIMTXSTY
  7
standard
  9
$DIMAUNIT
 70
    0
  9
$DIMADEC
 70
    2
  9
$DIMALTRND
 40
0
  9
$DIMAZIN
 70
    0
  9
$DIMDSEP
 70
    0
  9
$DIMATFIT
 70
    3
  9
$DIMFRAC
 70
    0
  9
$DIMLDRBLK
  1
STANDARD
  9
$DIMLUNIT
 70
    2
  9
$DIMLWD
 70
   -2
  9
$DIMLWE
 70
   -2
  9
$DIMTMOVE
 70
    0
  9
$DIMFXL
 40
1
  9
$DIMFXLON
 70
    0
  9
$DIMJOGANG
 40
0.7854
  9
$DIMTFILL
 70
    0
  9
$DIMTFILLCLR
 70
    0
  9
$DIMARCSYM
 70
    0
  9
$DIMLTYPE
  6

  9
$DIMLTEX1
  6

  9
$DIMLTEX2
  6

  9
$LUNITS
 70
    2
  9
$LUPREC
 70
    4
  9
$SKETCHINC
 40
1
  9
$FILLETRAD
 40
0
  9
$AUNITS
 70
    0
  9
$AUPREC
 70
    2
  9
$MENU
  1
.
  9
$ELEVATION
 40
0
  9
$PELEVATION
 40
0
  9
$THICKNESS
 40
0
  9
$LIMCHECK
 70
    0
  9
$CHAMFERA
 40
0
  9
$CHAMFERB
 40
0
  9
$CHAMFERC
 40
0
  9
$CHAMFERD
 40
0
  9
$SKPOLY
 70
    0
  9
$USRTIMER
 70
    1
  9
$ANGBASE
 50
0
  9
$ANGDIR
 70
    0
  9
$PDMODE
 70
   34
  9
$PDSIZE
 40
0
  9
$PLINEWID
 40
0
  9
$SPLFRAME
 70
    0
  9
$SPLINETYPE
 70
    2
  9
$SPLINESEGS
 70
    8
  9
$HANDSEED
  5
20000
  9
$SURFTAB1
 70
    6
  9
$SURFTAB2
 70
    6
  9
$SURFTYPE
 70
    6
  9
$SURFU
 70
    6
  9
$SURFV
 70
    6
  9
$UCSBASE
  2

  9
$UCSNAME
  2

  9
$UCSORG
 10
0
 20
0
 30
0
  9
$UCSXDIR
 10
1
 20
0
 30
0
  9
$UCSYDIR
 10
0
 20
1
 30
0
  9
$UCSORTHOREF
  2

  9
$UCSORTHOVIEW
 70
    0
  9
$UCSORGTOP
 10
0
 20
0
 30
0
  9
$UCSORGBOTTOM
 10
0
 20
0
 30
0
  9
$UCSORGLEFT
 10
0
 20
0
 30
0
  9
$UCSORGRIGHT
 10
0
 20
0
 30
0
  9
$UCSORGFRONT
 10
0
 20
0
 30
0
  9
$UCSORGBACK
 10
0
 20
0
 30
0
  9
$PUCSBASE
  2

  9
$PUCSNAME
  2

  9
$PUCSORG
 10
0
 20
0
 30
0
  9
$PUCSXDIR
 10
1
 20
0
 30
0
  9
$PUCSYDIR
 10
0
 20
1
 30
0
  9
$PUCSORTHOREF
  2

  9
$PUCSORTHOVIEW
 70
    0
  9
$PUCSORGTOP
 10
0
 20
0
 30
0
  9
$PUCSORGBOTTOM
 10
0
 20
0
 30
0
  9
$PUCSORGLEFT
 10
0
 20
0
 30
0
  9
$PUCSORGRIGHT
 10
0
 20
0
 30
0
  9
$PUCSORGFRONT
 10
0
 20
0
 30
0
  9
$PUCSORGBACK
 10
0
 20
0
 30
0
  9
$USERI1
 70
    0
  9
$USERI2
 70
    0
  9
$USERI3
 70
    0
  9
$USERI4
 70
    0
  9
$USERI5
 70
    0
  9
$USERR1
 40
0
  9
$USERR2
 40
0
  9
$USERR3
 40
0
  9
$USERR4
 40
0
  9
$USERR5
 40
0
  9
$WORLDVIEW
 70
    1
  9
$SHADEDGE
 70
    3
  9
$SHADEDIF
 70
   70
  9
$TILEMODE
 70
    1
  9
$MAXACTVP
 70
   64
  9
$PINSBASE
 10
131.3170189098999
 20
47.48331479421579
 30
0
  9
$PLIMCHECK
 70
    0
  9
$PEXTMIN
 10
0
 20
0
 30
0
  9
$PEXTMAX
 10
0
 20
0
 30
0
  9
$GRIDMODE
 70
    1
  9
$SNAPSTYLE
 70
    0
  9
$GRIDUNIT
 10
0
 20
0
  9
$PLIMMIN
 10
0
 20
0
  9
$PLIMMAX
 10
297
 20
210
  9
$UNITMODE
 70
    0
  9
$VISRETAIN
 70
    1
  9
$PLINEGEN
 70
    0
  9
$PSLTSCALE
 70
    1
  9
$TREEDEPTH
 70
 3020
  9
$CMLSTYLE
  2
Standard
  9
$CMLJUST
 70
    0
  9
$CMLSCALE
 40
20
  9
$PROXYGRAPHICS
 70
    1
  9
$MEASUREMENT
 70
    1
  9
$CELWEIGHT
370
   -1
  9
$ENDCAPS
280
    0
  9
$JOINSTYLE
280
    0
  9
$LWDISPLAY
290
    0
  9
$INSUNITS
 70
    0
  9
$HYPERLINKBASE
  1

  9
$STYLESHEET
  1

  9
$XEDIT
290
    1
  9
$CEPSNTYPE
380
    0
  9
$PSTYLEMODE
290
    1
  9
$EXTNAMES
290
    1
  9
$PSVPSCALE
 40
1.64627
  9
$OLESTARTUP
290
    0
  9
$SORTENTS
280
  127
  9
$INDEXCTL
280
    0
  9
$HIDETEXT
280
    1
  9
$XCLIPFRAME
290
    0
  9
$HALOGAP
280
    0
  9
$OBSCOLOR
 70
  257
  9
$OBSLTYPE
280
    0
  9
$INTERSECTIONDISPLAY
280
    0
  9
$INTERSECTIONCOLOR
 70
  257
  9
$DIMASSOC
280
    1
  9
$PROJECTNAME
  1

  9
$CAMERADISPLAY
290
    0
  9
$LENSLENGTH
 40
50
  9
$CAMERAHEIGHT
 40
0
  9
$STEPSPERSEC
 40
2
  9
$STEPSIZE
 40
50
  9
$3DDWFPREC
 40
2
  9
$PSOLWIDTH
 40
5
  9
$PSOLHEIGHT
 40
80
  9
$LOFTANG1
 40
1.570796326794897
  9
$LOFTANG2
 40
1.570796326794897
  9
$LOFTMAG1
 40
0
  9
$LOFTMAG2
 40
0
  9
$LOFTPARAM
 70
    7
  9
$LOFTNORMALS
280
    1
  9
$LATITUDE
 40
1
  9
$LONGITUDE
 40
1
  9
$NORTHDIRECTION
 40
0
  9
$TIMEZONE
 70
-8000
  9
$LIGHTGLYPHDISPLAY
280
    1
  9
$TILEMODELIGHTSYNCH
280
    1
  9
$SOLIDHIST
280
    1
  9
$SHOWHIST
280
    1
  9
$DWFFRAME
280
    2
  9
$DGNFRAME
280
    0
  9
$REALWORLDSCALE
290
    1
  9
$INTERFERECOLOR
 62
    1
  9
$CSHADOW
280
    0
  9
$SHADOWPLANELOCATION
 40
0
  0
ENDSEC
  0
SECTION
  2
CLASSES
  0
ENDSEC
  0
SECTION
  2
TABLES
  0
TABLE
  2
VPORT
  5
8
330
0
100
AcDbSymbolTable
 70
    1
  0
VPORT
  5
31
330
2
100
AcDbSymbolTableRecord
100
AcDbViewportTableRecord
  2
*ACTIVE
 70
    0
 10
0
 20
0
 11
1
 21
1
 12
74.16546762590198
 22
65.4115107913693
 13
0
 23
0
 14
10
 24
10
 15
10
 25
10
 16
0
 26
0
 36
1
 17
0
 27
0
 37
0
 40
169.0000000000062
 41
1.827338129496403
 42
50
 43
0
 44
0
 50
0
 51
0
 71
    0
 72
  100
 73
    1
 74
    3
 75
    0
 76
    1
 77
    0
 78
    0
281
    0
 65
    1
110
0
120
0
130
0
111
1
121
0
131
0
112
0
122
1
132
0
 79
    0
146
0
348
10020
 60
    7
 61
    5
292
1
282
    1
141
0
142
0
 63
  250
421
3358443
  0
ENDTAB
  0
TABLE
  2
LTYPE
  5
5
330
0
100
AcDbSymbolTable
 70
    4
  0
LTYPE
  5
14
330
5
100
AcDbSymbolTableRecord
100
AcDbLinetypeTableRecord
  2
ByBlock
 70
    0
  3

 72
   65
 73
    0
 40
0
  0
LTYPE
  5
15
330
5
100
AcDbSymbolTableRecord
100
AcDbLinetypeTableRecord
  2
ByLayer
 70
    0
  3

 72
   65
 73
    0
 40
0
  0
LTYPE
  5
16
330
5
100
AcDbSymbolTableRecord
100
AcDbLinetypeTableRecord
  2
Continuous
 70
    0
  3
Solid line
 72
   65
 73
    0
 40
0
  0
LTYPE
  5
32
330
5
100
AcDbSymbolTableRecord
100
AcDbLinetypeTableRecord
  2
DOT
 70
    0
  3
Dot . . . . . . . . . . . . . . . . . . . . . .
 72
   65
 73
    2
 40
6.35
 49
0
 74
    0
 49
-6.35
 74
    0
  0
LTYPE
  5
33
330
5
100
AcDbSymbolTableRecord
100
AcDbLinetypeTableRecord
  2
DOTTINY
 70
    0
  3
Dot (.15x) .....................................
 72
   65
 73
    2
 40
0.9525
 49
0
 74
    0
 49
-0.9525
 74
    0
  0
LTYPE
  5
34
330
5
100
AcDbSymbolTableRecord
100
AcDbLinetypeTableRecord
  2
DOT2
 70
    0
  3
Dot (.5x) .....................................
 72
   65
 73
    2
 40
3.175
 49
0
 74
    0
 49
-3.175
 74
    0
  0
LTYPE
  5
35
330
5
100
AcDbSymbolTableRecord
100
AcDbLinetypeTableRecord
  2
DOTX2
 70
    0
  3
Dot (2x) .  .  .  .  .  .  .  .  .  .  .  .  .
 72
   65
 73
    2
 40
12.7
 49
0
 74
    0
 49
-12.7
 74
    0
  0
LTYPE
  5
36
330
5
100
AcDbSymbolTableRecord
100
AcDbLinetypeTableRecord
  2
DASHED
 70
    0
  3
Dashed _ _ _ _ _ _ _ _ _ _ _ _ _ _ _ _ _
 72
   65
 73
    2
 40
19.05
 49
12.7
 74
    0
 49
-6.35
 74
    0
  0
LTYPE
  5
37
330
5
100
AcDbSymbolTableRecord
100
AcDbLinetypeTableRecord
  2
DASHEDTINY
 70
    0
  3
Dashed (.15x) _ _ _ _ _ _ _ _ _ _ _ _ _ _ _ _ _
 72
   65
 73
    2
 40
2.8575
 49
1.905
 74
    0
 49
-0.9525
 74
    0
  0
LTYPE
  5
38
330
5
100
AcDbSymbolTableRecord
100
AcDbLinetypeTableRecord
  2
DASHED2
 70
    0
  3
Dashed (.5x) _ _ _ _ _ _ _ _ _ _ _ _ _ _ _ _ _
 72
   65
 73
    2
 40
9.524999999999999
 49
6.35
 74
    0
 49
-3.175
 74
    0
  0
LTYPE
  5
39
330
5
100
AcDbSymbolTableRecord
100
AcDbLinetypeTableRecord
  2
DASHEDX2
 70
    0
  3
Dashed (2x) ____  ____  ____  ____  ____  ___
 72
   65
 73
    2
 40
38.09999999999999
 49
25.4
 74
    0
 49
-12.7
 74
    0
  0
LTYPE
  5
3A
330
5
100
AcDbSymbolTableRecord
100
AcDbLinetypeTableRecord
  2
DASHDOT
 70
    0
  3
Dash dot __ . __ . __ . __ . __ . __ . __ . __
 72
   65
 73
    4
 40
25.4
 49
12.7
 74
    0
 49
-6.35
 74
    0
 49
0
 74
    0
 49
-6.35
 74
    0
  0
LTYPE
  5
3B
330
5
100
AcDbSymbolTableRecord
100
AcDbLinetypeTableRecord
  2
DASHDOTTINY
 70
    0
  3
Dash dot (.15x) _._._._._._._._._._._._._._._.
 72
   65
 73
    4
 40
3.81
 49
1.905
 74
    0
 49
-0.9525
 74
    0
 49
0
 74
    0
 49
-0.9525
 74
    0
  0
LTYPE
  5
3C
330
5
100
AcDbSymbolTableRecord
100
AcDbLinetypeTableRecord
  2
DASHDOT2
 70
    0
  3
Dash dot (.5x) _._._._._._._._._._._._._._._.
 72
   65
 73
    4
 40
12.7
 49
6.35
 74
    0
 49
-3.175
 74
    0
 49
0
 74
    0
 49
-3.175
 74
    0
  0
LTYPE
  5
3D
330
5
100
AcDbSymbolTableRecord
100
AcDbLinetypeTableRecord
  2
DASHDOTX2
 70
    0
  3
Dash dot (2x) ____  .  ____  .  ____  .  ___
 72
   65
 73
    4
 40
50.8
 49
25.4
 74
    0
 49
-12.7
 74
    0
 49
0
 74
    0
 49
-12.7
 74
    0
  0
LTYPE
  5
3E
330
5
100
AcDbSymbolTableRecord
100
AcDbLinetypeTableRecord
  2
DIVIDE
 70
    0
  3
Divide ____ . . ____ . . ____ . . ____ . . ____
 72
   65
 73
    6
 40
31.75
 49
12.7
 74
    0
 49
-6.35
 74
    0
 49
0
 74
    0
 49
-6.35
 74
    0
 49
0
 74
    0
 49
-6.35
 74
    0
  0
LTYPE
  5
3F
330
5
100
AcDbSymbolTableRecord
100
AcDbLinetypeTableRecord
  2
DIVIDETINY
 70
    0
  3
Divide (.15x) __..__..__..__..__..__..__..__.._
 72
   65
 73
    6
 40
4.7625
 49
1.905
 74
    0
 49
-0.9525
 74
    0
 49
0
 74
    0
 49
-0.9525
 74
    0
 49
0
 74
    0
 49
-0.9525
 74
    0
  0
LTYPE
  5
40
330
5
100
AcDbSymbolTableRecord
100
AcDbLinetypeTableRecord
  2
DIVIDE2
 70
    0
  3
Divide (.5x) __..__..__..__..__..__..__..__.._
 72
   65
 73
    6
 40
15.875
 49
6.35
 74
    0
 49
-3.175
 74
    0
 49
0
 74
    0
 49
-3.175
 74
    0
 49
0
 74
    0
 49
-3.175
 74
    0
  0
LTYPE
  5
41
330
5
100
AcDbSymbolTableRecord
100
AcDbLinetypeTableRecord
  2
DIVIDEX2
 70
    0
  3
Divide (2x) ________  .  .  ________  .  .  _
 72
   65
 73
    6
 40
63.5
 49
25.4
 74
    0
 49
-12.7
 74
    0
 49
0
 74
    0
 49
-12.7
 74
    0
 49
0
 74
    0
 49
-12.7
 74
    0
  0
LTYPE
  5
42
330
5
100
AcDbSymbolTableRecord
100
AcDbLinetypeTableRecord
  2
BORDER
 70
    0
  3
Border __ __ . __ __ . __ __ . __ __ . __ __ .
 72
   65
 73
    6
 40
44.45
 49
12.7
 74
    0
 49
-6.35
 74
    0
 49
12.7
 74
    0
 49
-6.35
 74
    0
 49
0
 74
    0
 49
-6.35
 74
    0
  0
LTYPE
  5
43
330
5
100
AcDbSymbolTableRecord
100
AcDbLinetypeTableRecord
  2
BORDERTINY
 70
    0
  3
Border (.15x) __.__.__.__.__.__.__.__.__.__.__.
 72
   65
 73
    6
 40
6.6675
 49
1.905
 74
    0
 49
-0.9525
 74
    0
 49
1.905
 74
    0
 49
-0.9525
 74
    0
 49
0
 74
    0
 49
-0.9525
 74
    0
  0
LTYPE
  5
44
330
5
100
AcDbSymbolTableRecord
100
AcDbLinetypeTableRecord
  2
BORDER2
 70
    0
  3
Border (.5x) __.__.__.__.__.__.__.__.__.__.__.
 72
   65
 73
    6
 40
22.225
 49
6.35
 74
    0
 49
-3.175
 74
    0
 49
6.35
 74
    0
 49
-3.175
 74
    0
 49
0
 74
    0
 49
-3.175
 74
    0
  0
LTYPE
  5
45
330
5
100
AcDbSymbolTableRecord
100
AcDbLinetypeTableRecord
  2
BORDERX2
 70
    0
  3
Border (2x) ____  ____  .  ____  ____  .  ___
 72
   65
 73
    6
 40
88.89999999999999
 49
25.4
 74
    0
 49
-12.7
 74
    0
 49
25.4
 74
    0
 49
-12.7
 74
    0
 49
0
 74
    0
 49
-12.7
 74
    0
  0
LTYPE
  5
46
330
5
100
AcDbSymbolTableRecord
100
AcDbLinetypeTableRecord
  2
CENTER
 70
    0
  3
Center ____ _ ____ _ ____ _ ____ _ ____ _ ____
 72
   65
 73
    4
 40
50.8
 49
31.75
 74
    0
 49
-6.35
 74
    0
 49
6.35
 74
    0
 49
-6.35
 74
    0
  0
LTYPE
  5
47
330
5
100
AcDbSymbolTableRecord
100
AcDbLinetypeTableRecord
  2
CENTERTINY
 70
    0
  3
Center (.15x) ___ _ ___ _ ___ _ ___ _ ___ _ ___
 72
   65
 73
    4
 40
7.619999999999999
 49
4.7625
 74
    0
 49
-0.9525
 74
    0
 49
0.9525
 74
    0
 49
-0.9525
 74
    0
  0
LTYPE
  5
48
330
5
100
AcDbSymbolTableRecord
100
AcDbLinetypeTableRecord
  2
CENTER2
 70
    0
  3
Center (.5x) ___ _ ___ _ ___ _ ___ _ ___ _ ___
 72
   65
 73
    4
 40
28.575
 49
19.05
 74
    0
 49
-3.175
 74
    0
 49
3.175
 74
    0
 49
-3.175
 74
    0
  0
LTYPE
  5
49
330
5
100
AcDbSymbolTableRecord
100
AcDbLinetypeTableRecord
  2
CENTERX2
 70
    0
  3
Center (2x) ________  __  ________  __  _____
 72
   65
 73
    4
 40
101.6
 49
63.5
 74
    0
 49
-12.7
 74
    0
 49
12.7
 74
    0
 49
-12.7
 74
    0
  0
ENDTAB
  0
TABLE
  2
LAYER
  5
2
330
0
100
AcDbSymbolTable
 70
    1
  0
LAYER
  5
10
330
2
100
AcDbSymbolTableRecord
100
AcDbLayerTableRecord
  2
0
 70
    1
 62
    7
  6
CONTINUOUS
370
   18
390
F
  0
LAYER
  5
4A
330
2
100
AcDbSymbolTableRecord
100
AcDbLayerTableRecord
  2
box
 70
    1
 62
    7
  6
CONTINUOUS
370
    0
390
F
  0
LAYER
  5
4B
330
2
100
AcDbSymbolTableRecord
100
AcDbLayerTableRecord
  2
dimensions
 70
    1
 62
    7
  6
CONTINUOUS
370
    0
390
F
  0
LAYER
  5
4C
330
2
100
AcDbSymbolTableRecord
100
AcDbLayerTableRecord
  2
dimensions exploded
 70
    0
 62
    7
  6
CONTINUOUS
370
    0
390
F
  0
LAYER
  5
4D
330
2
100
AcDbSymbolTableRecord
100
AcDbLayerTableRecord
  2
holes
 70
    1
 62
    7
  6
CONTINUOUS
370
    0
390
F
  0
ENDTAB
  0
TABLE
  2
STYLE
  5
3
330
0
100
AcDbSymbolTable
 70
    3
  0
STYLE
  5
4E
330
2
100
AcDbSymbolTableRecord
100
AcDbTextStyleTableRecord
  2
standard
 70
    0
 40
0
 41
1
 50
0
 71
    0
 42
1
  3
standard
  4

  0
ENDTAB
  0
TABLE
  2
VIEW
  5
6
330
0
100
AcDbSymbolTable
 70
    0
  0
ENDTAB
  0
TABLE
  2
UCS
  5
7
330
0
100
AcDbSymbolTable
 70
    0
  0
ENDTAB
  0
TABLE
  2
APPID
  5
9
330
0
100
AcDbSymbolTable
 70
    1
  0
APPID
  5
12
330
9
100
AcDbSymbolTableRecord
100
AcDbRegAppTableRecord
  2
ACAD
 70
    0
  0
APPID
  5
4F
330
9
100
AcDbSymbolTableRecord
100
AcDbRegAppTableRecord
  2
LibreCad
 70
    0
  0
ENDTAB
  0
TABLE
  2
DIMSTYLE
  5
A
330
0
100
AcDbSymbolTable
 70
    1
100
AcDbDimStyleTable
 71
    1
  0
DIMSTYLE
105
50
330
A
100
AcDbSymbolTableRecord
100
AcDbDimStyleTableRecord
  2
Standard
 70
    0
 40
1
 41
0
 42
0.625
 43
0.38
 44
1.25
 45
0
 46
0
 47
0
 48
0
 49
1
140
2.5
141
0.09
142
0
143
25.4
144
1
145
0
146
1
147
0.625
148
0
 71
    0
 72
    0
 73
    0
 74
    1
 75
    0
 76
    0
 77
    0
 78
    8
 79
    0
170
    0
171
    2
172
    0
173
    0
174
    0
175
    0
176
    0
177
    0
178
    0
179
    2
271
    2
272
    4
273
    2
274
    2
275
    0
276
    0
277
    2
278
    0
279
    0
280
    0
281
    0
282
    0
283
    1
284
    0
285
    0
286
    0
288
    0
289
    3
340
standard
341

371
   -2
372
   -2
  0
ENDTAB
  0
TABLE
  2
BLOCK_RECORD
  5
1
330
0
100
AcDbSymbolTable
 70
    2
  0
BLOCK_RECORD
  5
1F
330
1
100
AcDbSymbolTableRecord
100
AcDbBlockTableRecord
  2
*Model_Space
 70
    0
280
    1
281
    0
  0
BLOCK_RECORD
  5
1E
330
1
100
AcDbSymbolTableRecord
100
AcDbBlockTableRecord
  2
*Paper_Space
 70
    0
280
    1
281
    0
  0
BLOCK_RECORD
  5
51
330
1
100
AcDbSymbolTableRecord
100
AcDbBlockTableRecord
  2
*D6
 70
    0
280
    1
281
    0
  0
BLOCK_RECORD
  5
54
330
1
100
AcDbSymbolTableRecord
100
AcDbBlockTableRecord
  2
*D3
 70
    0
280
    1
281
    0
  0
BLOCK_RECORD
  5
57
330
1
100
AcDbSymbolTableRecord
100
AcDbBlockTableRecord
  2
*D12
 70
    0
280
    1
281
    0
  0
BLOCK_RECORD
  5
5A
330
1
100
AcDbSymbolTableRecord
100
AcDbBlockTableRecord
  2
*D15
 70
    0
280
    1
281
    0
  0
BLOCK_RECORD
  5
5D
330
1
100
AcDbSymbolTableRecord
100
AcDbBlockTableRecord
  2
*D2
 70
    0
280
    1
281
    0
  0
BLOCK_RECORD
  5
60
330
1
100
AcDbSymbolTableRecord
100
AcDbBlockTableRecord
  2
*D13
 70
    0
280
    1
281
    0
  0
BLOCK_RECORD
  5
63
330
1
100
AcDbSymbolTableRecord
100
AcDbBlockTableRecord
  2
*D7
 70
    0
280
    1
281
    0
  0
BLOCK_RECORD
  5
66
330
1
100
AcDbSymbolTableRecord
100
AcDbBlockTableRecord
  2
*D9
 70
    0
280
    1
281
    0
  0
BLOCK_RECORD
  5
69
330
1
100
AcDbSymbolTableRecord
100
AcDbBlockTableRecord
  2
*D4
 70
    0
280
    1
281
    0
  0
BLOCK_RECORD
  5
6C
330
1
100
AcDbSymbolTableRecord
100
AcDbBlockTableRecord
  2
*D8
 70
    0
280
    1
281
    0
  0
BLOCK_RECORD
  5
6F
330
1
100
AcDbSymbolTableRecord
100
AcDbBlockTableRecord
  2
*D10
 70
    0
280
    1
281
    0
  0
BLOCK_RECORD
  5
72
330
1
100
AcDbSymbolTableRecord
100
AcDbBlockTableRecord
  2
*D1
 70
    0
280
    1
281
    0
  0
BLOCK_RECORD
  5
75
330
1
100
AcDbSymbolTableRecord
100
AcDbBlockTableRecord
  2
*D5
 70
    0
280
    1
281
    0
  0
BLOCK_RECORD
  5
78
330
1
100
AcDbSymbolTableRecord
100
AcDbBlockTableRecord
  2
*D11
 70
    0
280
    1
281
    0
  0
BLOCK_RECORD
  5
7B
330
1
100
AcDbSymbolTableRecord
100
AcDbBlockTableRecord
  2
*D14
 70
    0
280
    1
281
    0
  0
ENDTAB
  0
ENDSEC
  0
SECTION
  2
BLOCKS
  0
BLOCK
  5
20
330
1F
100
AcDbEntity
  8
0
100
AcDbBlockBegin
  2
*Model_Space
 70
    0
 10
0
 20
0
 30
0
  3
*Model_Space
  1

  0
ENDBLK
  5
21
330
1F
100
AcDbEntity
  8
0
100
AcDbBlockEnd
  0
BLOCK
  5
1C
330
1B
100
AcDbEntity
  8
0
100
AcDbBlockBegin
  2
*Paper_Space
 70
    0
 10
0
 20
0
 30
0
  3
*Paper_Space
  1

  0
ENDBLK
  5
1D
330
1F
100
AcDbEntity
  8
0
100
AcDbBlockEnd
  0
BLOCK
  5
52
330
51
100
AcDbEntity
  8
0
100
AcDbBlockBegin
  2
*D6
 70
    1
 10
0
 20
0
  3
*D6
  1

  0
LINE
  5
7E
100
AcDbEntity
  8
dimensions
  6
ByBlock
 62
    0
370
   -2
100
AcDbLine
 10
7.105427357601002e-15
 20
88
 11
28.42
 21
88
  0
SOLID
  5
7F
100
AcDbEntity
  8
dimensions
  6
ByBlock
 62
    0
370
   -2
100
AcDbTrace
 10
7.105427357601002e-15
 20
88
 30
0
 11
7.105427357601002e-15
 21
88
 31
0
 12
7.105427357601002e-15
 22
88
 32
0
 13
7.105427357601002e-15
 23
88
 33
0
  0
SOLID
  5
80
100
AcDbEntity
  8
dimensions
  6
ByBlock
 62
    0
370
   -2
100
AcDbTrace
 10
28.42
 20
88
 30
0
 11
28.42
 21
88
 31
0
 12
28.42
 22
88
 32
0
 13
28.42
 23
88
 33
0
  0
MTEXT
  5
81
100
AcDbEntity
  8
dimensions
  6
CONTINUOUS
 62
    0
370
   -2
100
AcDbMText
 10
14.21
 20
89.875
 30
0
 40
2.5
 41
8.055555555555557
 71
    5
 72
    1
  1
28.42
  7
standard
210
0
220
0
230
1
 50
0
 73
    2
 44
1
  0
LINE
  5
82
100
AcDbEntity
  8
dimensions
  6
ByBlock
 62
    0
370
   -2
100
AcDbLine
 10
4.546038467077885e-16
 20
77.625
 11
8.014635051016579e-15
 21
89.25
  0
LINE
  5
83
100
AcDbEntity
  8
dimensions
  6
ByBlock
 62
    0
370
   -2
100
AcDbLine
 10
28.42
 20
79.125
 11
28.42
 21
89.25
  0
ENDBLK
  5
53
330
51
100
AcDbEntity
  8
0
100
AcDbBlockEnd
  0
BLOCK
  5
55
330
54
100
AcDbEntity
  8
0
100
AcDbBlockBegin
  2
*D3
 70
    1
 10
0
 20
0
  3
*D3
  1

  0
LINE
  5
84
100
AcDbEntity
  8
dimensions
  6
ByBlock
 62
    0
370
   -2
100
AcDbLine
 10
0
 20
21
 11
6.440000000000001
 21
21
  0
SOLID
  5
85
100
AcDbEntity
  8
dimensions
  6
ByBlock
 62
    0
370
   -2
100
AcDbTrace
 10
0
 20
21
 30
0
 11
0
 21
21
 31
0
 12
0
 22
21
 32
0
 13
0
 23
21
 33
0
  0
SOLID
  5
86
100
AcDbEntity
  8
dimensions
  6
ByBlock
 62
    0
370
   -2
100
AcDbTrace
 10
6.440000000000001
 20
21
 30
0
 11
6.440000000000001
 21
21
 31
0
 12
6.440000000000001
 22
21
 32
0
 13
6.440000000000001
 23
21
 33
0
  0
MTEXT
  5
87
100
AcDbEntity
  8
dimensions
  6
CONTINUOUS
 62
    0
370
   -2
100
AcDbMText
 10
3.220000000000001
 20
22.875
 30
0
 40
2.5
 41
6.388888888889044
 71
    5
 72
    1
  1
6.44
  7
standard
210
0
220
0
230
1
 50
0
 73
    2
 44
1
  0
LINE
  5
88
100
AcDbEntity
  8
dimensions
  6
ByBlock
 62
    0
370
   -2
100
AcDbLine
 10
-1.148106374200643e-16
 20
25.375
 11
-2.296212748401287e-16
 21
19.75
  0
LINE
  5
89
100
AcDbEntity
  8
dimensions
  6
ByBlock
 62
    0
370
   -2
100
AcDbLine
 10
6.440000000000001
 20
25.825
 11
6.440000000000001
 21
19.75
  0
ENDBLK
  5
56
330
54
100
AcDbEntity
  8
0
100
AcDbBlockEnd
  0
BLOCK
  5
58
330
57
100
AcDbEntity
  8
0
100
AcDbBlockBegin
  2
*D12
 70
    1
 10
0
 20
0
  3
*D12
  1

  0
LINE
  5
8A
100
AcDbEntity
  8
dimensions
  6
ByBlock
 62
    0
370
   -2
100
AcDbLine
 10
-16
 20
0
 11
-16
 21
80
  0
SOLID
  5
8B
100
AcDbEntity
  8
dimensions
  6
ByBlock
 62
    0
370
   -2
100
AcDbTrace
 10
-16
 20
0
 30
0
 11
-16
 21
0
 31
0
 12
-16
 22
0
 32
0
 13
-16
 23
0
 33
0
  0
SOLID
  5
8C
100
AcDbEntity
  8
dimensions
  6
ByBlock
 62
    0
370
   -2
100
AcDbTrace
 10
-16
 20
80
 30
0
 11
-16
 21
80
 31
0
 12
-16
 22
80
 32
0
 13
-16
 23
80
 33
0
  0
MTEXT
  5
8D
100
AcDbEntity
  8
dimensions
  6
CONTINUOUS
 62
    0
370
   -2
100
AcDbMText
 10
-17.875
 20
40
 30
0
 40
2.5
 41
3.055555555555556
 71
    5
 72
    1
  1
80
  7
standard
210
0
220
0
230
1
 50
90
 73
    2
 44
1
  0
LINE
  5
8E
100
AcDbEntity
  8
dimensions
  6
ByBlock
 62
    0
370
   -2
100
AcDbLine
 10
2.375
 20
7.654042494670958e-17
 11
-17.25
 21
1.530808498934192e-16
  0
LINE
  5
8F
100
AcDbEntity
  8
dimensions
  6
ByBlock
 62
    0
370
   -2
100
AcDbLine
 10
2.375
 20
80
 11
-17.25
 21
80
  0
ENDBLK
  5
59
330
57
100
AcDbEntity
  8
0
100
AcDbBlockEnd
  0
BLOCK
  5
5B
330
5A
100
AcDbEntity
  8
0
100
AcDbBlockBegin
  2
*D15
 70
    1
 10
0
 20
0
  3
*D15
  1

  0
LINE
  5
90
100
AcDbEntity
  8
dimensions
  6
ByBlock
 62
    0
370
   -2
100
AcDbLine
 10
18.23
 20
60
 11
28.23
 21
60
  0
SOLID
  5
91
100
AcDbEntity
  8
dimensions
  6
ByBlock
 62
    0
370
   -2
100
AcDbTrace
 10
18.23
 20
60
 30
0
 11
18.23
 21
60
 31
0
 12
18.23
 22
60
 32
0
 13
18.23
 23
60
 33
0
  0
SOLID
  5
92
100
AcDbEntity
  8
dimensions
  6
ByBlock
 62
    0
370
   -2
100
AcDbTrace
 10
28.23
 20
60
 30
0
 11
28.23
 21
60
 31
0
 12
28.23
 22
60
 32
0
 13
28.23
 23
60
 33
0
  0
MTEXT
  5
93
100
AcDbEntity
  8
dimensions
  6
CONTINUOUS
 62
    0
370
   -2
100
AcDbMText
 10
23.23
 20
61.875
 30
0
 40
2.5
 41
2.5
 71
    5
 72
    1
  1
10
  7
standard
210
0
220
0
230
1
 50
0
 73
    2
 44
1
  0
LINE
  5
94
100
AcDbEntity
  8
dimensions
  6
ByBlock
 62
    0
370
   -2
100
AcDbLine
 10
18.23
 20
53.515
 11
18.23
 21
61.25
  0
LINE
  5
95
100
AcDbEntity
  8
dimensions
  6
ByBlock
 62
    0
370
   -2
100
AcDbLine
 10
28.23
 20
53.515
 11
28.23
 21
61.25
  0
ENDBLK
  5
5C
330
5A
100
AcDbEntity
  8
0
100
AcDbBlockEnd
  0
BLOCK
  5
5E
330
5D
100
AcDbEntity
  8
0
100
AcDbBlockBegin
  2
*D2
 70
    1
 10
0
 20
0
  3
*D2
  1

  0
LINE
  5
96
100
AcDbEntity
  8
dimensions
  6
ByBlock
 62
    0
370
   -2
100
AcDbLine
 10
0
 20
-11
 11
22.92
 21
-11
  0
SOLID
  5
97
100
AcDbEntity
  8
dimensions
  6
ByBlock
 62
    0
370
   -2
100
AcDbTrace
 10
0
 20
-11
 30
0
 11
0
 21
-11
 31
0
 12
0
 22
-11
 32
0
 13
0
 23
-11
 33
0
  0
SOLID
  5
98
100
AcDbEntity
  8
dimensions
  6
ByBlock
 62
    0
370
   -2
100
AcDbTrace
 10
22.92
 20
-11
 30
0
 11
22.92
 21
-11
 31
0
 12
22.92
 22
-11
 32
0
 13
22.92
 23
-11
 33
0
  0
MTEXT
  5
99
100
AcDbEntity
  8
dimensions
  6
CONTINUOUS
 62
    0
370
   -2
100
AcDbMText
 10
11.46
 20
-9.125
 30
0
 40
2.5
 41
7.777777777777779
 71
    5
 72
    1
  1
22.92
  7
standard
210
0
220
0
230
1
 50
0
 73
    2
 44
1
  0
LINE
  5
9A
100
AcDbEntity
  8
dimensions
  6
ByBlock
 62
    0
370
   -2
100
AcDbLine
 10
-1.148106374200643e-16
 20
2.375
 11
-2.296212748401287e-16
 21
-12.25
  0
LINE
  5
9B
100
AcDbEntity
  8
dimensions
  6
ByBlock
 62
    0
370
   -2
100
AcDbLine
 10
22.92
 20
-2.125
 11
22.92
 21
-12.25
  0
ENDBLK
  5
5F
330
5D
100
AcDbEntity
  8
0
100
AcDbBlockEnd
  0
BLOCK
  5
61
330
60
100
AcDbEntity
  8
0
100
AcDbBlockBegin
  2
*D13
 70
    1
 10
0
 20
0
  3
*D13
  1

  0
ENDBLK
  5
62
330
60
100
AcDbEntity
  8
0
100
AcDbBlockEnd
  0
BLOCK
  5
64
330
63
100
AcDbEntity
  8
0
100
AcDbBlockBegin
  2
*D7
 70
    1
 10
0
 20
0
  3
*D7
  1

  0
LINE
  5
9C
100
AcDbEntity
  8
dimensions
  6
ByBlock
 62
    0
370
   -2
100
AcDbLine
 10
-3.000000000000002
 20
0
 11
-3
 21
27.95
  0
SOLID
  5
9D
100
AcDbEntity
  8
dimensions
  6
ByBlock
 62
    0
370
   -2
100
AcDbTrace
 10
-3.000000000000002
 20
0
 30
0
 11
-3.000000000000002
 21
0
 31
0
 12
-3.000000000000002
 22
0
 32
0
 13
-3.000000000000002
 23
0
 33
0
  0
SOLID
  5
9E
100
AcDbEntity
  8
dimensions
  6
ByBlock
 62
    0
370
   -2
100
AcDbTrace
 10
-3
 20
27.95
 30
0
 11
-3
 21
27.95
 31
0
 12
-3
 22
27.95
 32
0
 13
-3
 23
27.95
 33
0
  0
MTEXT
  5
9F
100
AcDbEntity
  8
dimensions
  6
CONTINUOUS
 62
    0
370
   -2
100
AcDbMText
 10
-4.875000000000001
 20
13.975
 30
0
 40
2.5
 41
7.777777777777933
 71
    5
 72
    1
  1
27.95
  7
standard
210
0
220
0
230
1
 50
90
 73
    2
 44
1
  0
LINE
  5
A0
100
AcDbEntity
  8
dimensions
  6
ByBlock
 62
    0
370
   -2
100
AcDbLine
 10
2.375
 20
7.654042494670958e-17
 11
-4.250000000000002
 21
1.530808498934192e-16
  0
LINE
  5
A1
100
AcDbEntity
  8
dimensions
  6
ByBlock
 62
    0
370
   -2
100
AcDbLine
 10
4.315000000000001
 20
27.95
 11
-4.25
 21
27.95
  0
ENDBLK
  5
65
330
63
100
AcDbEntity
  8
0
100
AcDbBlockEnd
  0
BLOCK
  5
67
330
66
100
AcDbEntity
  8
0
100
AcDbBlockBegin
  2
*D9
 70
    1
 10
0
 20
0
  3
*D9
  1

  0
LINE
  5
A2
100
AcDbEntity
  8
dimensions
  6
CONTINUOUS
 62
    7
370
    0
100
AcDbLine
 10
18
 20
0
 11
19
 21
9
  0
SOLID
  5
A3
100
AcDbEntity
  8
dimensions
  6
CONTINUOUS
 62
    7
370
    0
100
AcDbTrace
 10
18
 20
0
 30
0
 11
18
 21
0
 31
0
 12
18
 22
0
 32
0
 13
18
 23
0
 33
0
  0
ENDBLK
  5
68
330
66
100
AcDbEntity
  8
0
100
AcDbBlockEnd
  0
BLOCK
  5
6A
330
69
100
AcDbEntity
  8
0
100
AcDbBlockBegin
  2
*D4
 70
    1
 10
0
 20
0
  3
*D4
  1

  0
LINE
  5
A4
100
AcDbEntity
  8
dimensions
  6
ByBlock
 62
    0
370
   -2
100
AcDbLine
 10
0
 20
44
 11
23.23
 21
44
  0
SOLID
  5
A5
100
AcDbEntity
  8
dimensions
  6
ByBlock
 62
    0
370
   -2
100
AcDbTrace
 10
0
 20
44
 30
0
 11
0
 21
44
 31
0
 12
0
 22
44
 32
0
 13
0
 23
44
 33
0
  0
SOLID
  5
A6
100
AcDbEntity
  8
dimensions
  6
ByBlock
 62
    0
370
   -2
100
AcDbTrace
 10
23.23
 20
44
 30
0
 11
23.23
 21
44
 31
0
 12
23.23
 22
44
 32
0
 13
23.23
 23
44
 33
0
  0
MTEXT
  5
A7
100
AcDbEntity
  8
dimensions
  6
CONTINUOUS
 62
    0
370
   -2
100
AcDbMText
 10
11.615
 20
45.875
 30
0
 40
2.5
 41
7.777777777778089
 71
    5
 72
    1
  1
23.23
  7
standard
210
0
220
0
230
1
 50
0
 73
    2
 44
1
  0
LINE
  5
A8
100
AcDbEntity
  8
dimensions
  6
ByBlock
 62
    0
370
   -2
100
AcDbLine
 10
-1.148106374200643e-16
 20
47.375
 11
-2.296212748401287e-16
 21
42.75
  0
LINE
  5
A9
100
AcDbEntity
  8
dimensions
  6
ByBlock
 62
    0
370
   -2
100
AcDbLine
 10
23.23
 20
47.265
 11
23.23
 21
42.75
  0
ENDBLK
  5
6B
330
69
100
AcDbEntity
  8
0
100
AcDbBlockEnd
  0
BLOCK
  5
6D
330
6C
100
AcDbEntity
  8
0
100
AcDbBlockBegin
  2
*D8
 70
    1
 10
0
 20
0
  3
*D8
  1

  0
LINE
  5
AA
100
AcDbEntity
  8
dimensions
  6
ByBlock
 62
    0
370
   -2
100
AcDbLine
 10
-9.000000000000004
 20
-7.105427357601002e-15
 11
-9
 21
52.89
  0
SOLID
  5
AB
100
AcDbEntity
  8
dimensions
  6
ByBlock
 62
    0
370
   -2
100
AcDbTrace
 10
-9.000000000000004
 20
-7.105427357601002e-15
 30
0
 11
-9.000000000000004
 21
-7.105427357601002e-15
 31
0
 12
-9.000000000000004
 22
-7.105427357601002e-15
 32
0
 13
-9.000000000000004
 23
-7.105427357601002e-15
 33
0
  0
SOLID
  5
AC
100
AcDbEntity
  8
dimensions
  6
ByBlock
 62
    0
370
   -2
100
AcDbTrace
 10
-9
 20
52.89
 30
0
 11
-9
 21
52.89
 31
0
 12
-9
 22
52.89
 32
0
 13
-9
 23
52.89
 33
0
  0
MTEXT
  5
AD
100
AcDbEntity
  8
dimensions
  6
CONTINUOUS
 62
    0
370
   -2
100
AcDbMText
 10
-10.875
 20
26.445
 30
0
 40
2.5
 41
7.777777777777933
 71
    5
 72
    1
  1
52.89
  7
standard
210
0
220
0
230
1
 50
90
 73
    2
 44
1
  0
LINE
  5
AE
100
AcDbEntity
  8
dimensions
  6
ByBlock
 62
    0
370
   -2
100
AcDbLine
 10
9.375
 20
7.654042494670958e-17
 11
-10.25
 21
-6.952346507707583e-15
  0
LINE
  5
AF
100
AcDbEntity
  8
dimensions
  6
ByBlock
 62
    0
370
   -2
100
AcDbLine
 10
17.60499999999992
 20
52.89
 11
-10.25
 21
52.89
  0
ENDBLK
  5
6E
330
6C
100
AcDbEntity
  8
0
100
AcDbBlockEnd
  0
BLOCK
  5
70
330
6F
100
AcDbEntity
  8
0
100
AcDbBlockBegin
  2
*D10
 70
    1
 10
0
 20
0
  3
*D10
  1

  0
LINE
  5
B0
100
AcDbEntity
  8
dimensions
  6
CONTINUOUS
 62
    7
370
    0
100
AcDbLine
 10
20
 20
80
 11
26
 21
70
  0
SOLID
  5
B1
100
AcDbEntity
  8
dimensions
  6
CONTINUOUS
 62
    7
370
    0
100
AcDbTrace
 10
20
 20
80
 30
0
 11
20
 21
80
 31
0
 12
20
 22
80
 32
0
 13
20
 23
80
 33
0
  0
ENDBLK
  5
71
330
6F
100
AcDbEntity
  8
0
100
AcDbBlockEnd
  0
BLOCK
  5
73
330
72
100
AcDbEntity
  8
0
100
AcDbBlockBegin
  2
*D1
 70
    1
 10
0
 20
0
  3
*D1
  1

  0
LINE
  5
B2
100
AcDbEntity
  8
dimensions
  6
ByBlock
 62
    0
370
   -2
100
AcDbLine
 10
0
 20
-5
 11
12.92
 21
-5
  0
SOLID
  5
B3
100
AcDbEntity
  8
dimensions
  6
ByBlock
 62
    0
370
   -2
100
AcDbTrace
 10
0
 20
-5
 30
0
 11
0
 21
-5
 31
0
 12
0
 22
-5
 32
0
 13
0
 23
-5
 33
0
  0
SOLID
  5
B4
100
AcDbEntity
  8
dimensions
  6
ByBlock
 62
    0
370
   -2
100
AcDbTrace
 10
12.92
 20
-5
 30
0
 11
12.92
 21
-5
 31
0
 12
12.92
 22
-5
 32
0
 13
12.92
 23
-5
 33
0
  0
MTEXT
  5
B5
100
AcDbEntity
  8
dimensions
  6
CONTINUOUS
 62
    0
370
   -2
100
AcDbMText
 10
6.46
 20
-3.125
 30
0
 40
2.5
 41
7.222222222222222
 71
    5
 72
    1
  1
12.92
  7
standard
210
0
220
0
230
1
 50
0
 73
    2
 44
1
  0
LINE
  5
B6
100
AcDbEntity
  8
dimensions
  6
ByBlock
 62
    0
370
   -2
100
AcDbLine
 10
-1.148106374200643e-16
 20
2.375
 11
-2.296212748401287e-16
 21
-6.25
  0
LINE
  5
B7
100
AcDbEntity
  8
dimensions
  6
ByBlock
 62
    0
370
   -2
100
AcDbLine
 10
12.92
 20
-2.125
 11
12.92
 21
-6.25
  0
ENDBLK
  5
74
330
72
100
AcDbEntity
  8
0
100
AcDbBlockEnd
  0
BLOCK
  5
76
330
75
100
AcDbEntity
  8
0
100
AcDbBlockBegin
  2
*D5
 70
    1
 10
0
 20
0
  3
*D5
  1

  0
LINE
  5
B8
100
AcDbEntity
  8
dimensions
  6
ByBlock
 62
    0
370
   -2
100
AcDbLine
 10
0
 20
83
 11
10.72
 21
83
  0
SOLID
  5
B9
100
AcDbEntity
  8
dimensions
  6
ByBlock
 62
    0
370
   -2
100
AcDbTrace
 10
0
 20
83
 30
0
 11
0
 21
83
 31
0
 12
0
 22
83
 32
0
 13
0
 23
83
 33
0
  0
SOLID
  5
BA
100
AcDbEntity
  8
dimensions
  6
ByBlock
 62
    0
370
   -2
100
AcDbTrace
 10
10.72
 20
83
 30
0
 11
10.72
 21
83
 31
0
 12
10.72
 22
83
 32
0
 13
10.72
 23
83
 33
0
  0
MTEXT
  5
BB
100
AcDbEntity
  8
dimensions
  6
CONTINUOUS
 62
    0
370
   -2
100
AcDbMText
 10
5.36
 20
84.875
 30
0
 40
2.5
 41
7.222222222222222
 71
    5
 72
    1
  1
10.72
  7
standard
210
0
220
0
230
1
 50
0
 73
    2
 44
1
  0
LINE
  5
BC
100
AcDbEntity
  8
dimensions
  6
ByBlock
 62
    0
370
   -2
100
AcDbLine
 10
3.827021247335479e-17
 20
76.625
 11
7.654042494670958e-17
 21
84.25
  0
LINE
  5
BD
100
AcDbEntity
  8
dimensions
  6
ByBlock
 62
    0
370
   -2
100
AcDbLine
 10
10.72
 20
79.125
 11
10.72
 21
84.25
  0
ENDBLK
  5
77
330
75
100
AcDbEntity
  8
0
100
AcDbBlockEnd
  0
BLOCK
  5
79
330
78
100
AcDbEntity
  8
0
100
AcDbBlockBegin
  2
*D11
 70
    1
 10
0
 20
0
  3
*D11
  1

  0
LINE
  5
BE
100
AcDbEntity
  8
dimensions
  6
ByBlock
 62
    0
370
   -2
100
AcDbLine
 10
0
 20
-20
 11
40
 21
-20
  0
SOLID
  5
BF
100
AcDbEntity
  8
dimensions
  6
ByBlock
 62
    0
370
   -2
100
AcDbTrace
 10
0
 20
-20
 30
0
 11
0
 21
-20
 31
0
 12
0
 22
-20
 32
0
 13
0
 23
-20
 33
0
  0
SOLID
  5
C0
100
AcDbEntity
  8
dimensions
  6
ByBlock
 62
    0
370
   -2
100
AcDbTrace
 10
40
 20
-20
 30
0
 11
40
 21
-20
 31
0
 12
40
 22
-20
 32
0
 13
40
 23
-20
 33
0
  0
MTEXT
  5
C1
100
AcDbEntity
  8
dimensions
  6
CONTINUOUS
 62
    0
370
   -2
100
AcDbMText
 10
20
 20
-18.125
 30
0
 40
2.5
 41
3.333333333333333
 71
    5
 72
    1
  1
40
  7
standard
210
0
220
0
230
1
 50
0
 73
    2
 44
1
  0
LINE
  5
C2
100
AcDbEntity
  8
dimensions
  6
ByBlock
 62
    0
370
   -2
100
AcDbLine
 10
-1.148106374200643e-16
 20
-0.625
 11
-2.296212748401287e-16
 21
-21.25
  0
LINE
  5
C3
100
AcDbEntity
  8
dimensions
  6
ByBlock
 62
    0
370
   -2
100
AcDbLine
 10
40
 20
2.374999325650432
 11
40
 21
-21.25
  0
ENDBLK
  5
7A
330
78
100
AcDbEntity
  8
0
100
AcDbBlockEnd
  0
BLOCK
  5
7C
330
7B
100
AcDbEntity
  8
0
100
AcDbBlockBegin
  2
*D14
 70
    1
 10
0
 20
0
  3
*D14
  1

  0
LINE
  5
C4
100
AcDbEntity
  8
dimensions
  6
ByBlock
 62
    0
370
   -2
100
AcDbLine
 10
4.940000000000001
 20
31
 11
7.940000000000001
 21
31
  0
SOLID
  5
C5
100
AcDbEntity
  8
dimensions
  6
ByBlock
 62
    0
370
   -2
100
AcDbTrace
 10
4.940000000000001
 20
31
 30
0
 11
4.940000000000001
 21
31
 31
0
 12
4.940000000000001
 22
31
 32
0
 13
4.940000000000001
 23
31
 33
0
  0
SOLID
  5
C6
100
AcDbEntity
  8
dimensions
  6
ByBlock
 62
    0
370
   -2
100
AcDbTrace
 10
7.940000000000001
 20
31
 30
0
 11
7.940000000000001
 21
31
 31
0
 12
7.940000000000001
 22
31
 32
0
 13
7.940000000000001
 23
31
 33
0
  0
MTEXT
  5
C7
100
AcDbEntity
  8
dimensions
  6
CONTINUOUS
 62
    0
370
   -2
100
AcDbMText
 10
6.440000000000001
 20
32.875
 30
0
 40
2.5
 41
1.111111111111266
 71
    5
 72
    1
  1
3
  7
standard
210
0
220
0
230
1
 50
0
 73
    2
 44
1
  0
LINE
  5
C8
100
AcDbEntity
  8
dimensions
  6
ByBlock
 62
    0
370
   -2
100
AcDbLine
 10
4.940000000000001
 20
28.575
 11
4.940000000000001
 21
32.25
  0
LINE
  5
C9
100
AcDbEntity
  8
dimensions
  6
ByBlock
 62
    0
370
   -2
100
AcDbLine
 10
7.940000000000001
 20
28.575
 11
7.940000000000001
 21
32.25
  0
ENDBLK
  5
7D
330
7B
100
AcDbEntity
  8
0
100
AcDbBlockEnd
  0
ENDSEC
  0
SECTION
  2
ENTITIES
  0
DIMENSION
  5
CA
100
AcDbEntity
  8
dimensions
  6
ByLayer
 62
  256
370
   -1
100
AcDbDimension
  2
*D1
 10
12.92
 20
-5
 30
0
 11
6.46
 21
-3.125
 31
0
 70
   32
 71
    5
 72
    0
  3
Standard
 53
0
210
0
220
0
230
1
100
AcDbAlignedDimension
 13
0
 23
3
 33
0
 14
12.92
 24
-1.5
 34
0
100
AcDbRotatedDimension
  0
DIMENSION
  5
CB
100
AcDbEntity
  8
dimensions
  6
ByLayer
 62
  256
370
   -1
100
AcDbDimension
  2
*D2
 10
22.92
 20
-11
 30
0
 11
11.46
 21
-9.125
 31
0
 70
   32
 71
    5
 72
    0
  3
Standard
 53
0
210
0
220
0
230
1
100
AcDbAlignedDimension
 13
0
 23
3
 33
0
 14
22.92
 24
-1.5
 34
0
100
AcDbRotatedDimension
  0
DIMENSION
  5
CC
100
AcDbEntity
  8
dimensions
  6
ByLayer
 62
  256
370
   -1
100
AcDbDimension
  2
*D3
 10
6.440000000000001
 20
21
 30
0
 11
3.220000000000001
 21
22.875
 31
0
 70
   32
 71
    5
 72
    0
  3
Standard
 53
0
210
0
220
0
230
1
100
AcDbAlignedDimension
 13
0
 23
26
 33
0
 14
6.440000000000001
 24
26.45
 34
0
100
AcDbRotatedDimension
  0
DIMENSION
  5
CD
100
AcDbEntity
  8
dimensions
  6
ByLayer
 62
  256
370
   -1
100
AcDbDimension
  2
*D4
 10
23.23
 20
44
 30
0
 11
11.615
 21
45.875
 31
0
 70
   32
 71
    5
 72
    0
  3
Standard
 53
0
210
0
220
0
230
1
100
AcDbAlignedDimension
 13
0
 23
48
 33
0
 14
23.23
 24
47.89
 34
0
100
AcDbRotatedDimension
  0
DIMENSION
  5
CE
100
AcDbEntity
  8
dimensions
  6
ByLayer
 62
  256
370
   -1
100
AcDbDimension
  2
*D5
 10
10.72
 20
83
 30
0
 11
5.36
 21
84.875
 31
0
 70
   32
 71
    5
 72
    0
  3
Standard
 53
0
210
0
220
0
230
1
100
AcDbAlignedDimension
 13
0
 23
76
 33
0
 14
10.72
 24
78.5
 34
0
100
AcDbRotatedDimension
  0
DIMENSION
  5
CF
100
AcDbEntity
  8
dimensions
  6
ByLayer
 62
  256
370
   -1
100
AcDbDimension
  2
*D6
 10
28.42
 20
88
 30
0
 11
14.21
 21
89.875
 31
0
 70
   32
 71
    5
 72
    0
  3
Standard
 53
0
210
0
220
0
230
1
100
AcDbAlignedDimension
 13
0
 23
77
 33
0
 14
28.42
 24
78.5
 34
0
100
AcDbRotatedDimension
  0
DIMENSION
  5
D0
100
AcDbEntity
  8
dimensions
  6
ByLayer
 62
  256
370
   -1
100
AcDbDimension
  2
*D7
 10
-3
 20
27.95
 30
0
 11
-4.875000000000001
 21
13.975
 31
0
 70
   32
 71
    5
 72
    0
  3
Standard
 53
0
210
0
220
0
230
1
100
AcDbAlignedDimension
 13
3
 23
0
 33
0
 14
4.940000000000001
 24
27.95
 34
0
 50
90
100
AcDbRotatedDimension
  0
DIMENSION
  5
D1
100
AcDbEntity
  8
dimensions
  6
ByLayer
 62
  256
370
   -1
100
AcDbDimension
  2
*D8
 10
-9
 20
52.89000000000001
 30
0
 11
-10.875
 21
26.445
 31
0
 70
   32
 71
    5
 72
    0
  3
Standard
 53
0
210
0
220
0
230
1
100
AcDbAlignedDimension
 13
10
 23
0
 33
0
 14
18.22999999999992
 24
52.89
 34
0
 50
90
100
AcDbRotatedDimension
  0
MTEXT
  5
D2
100
AcDbEntity
  8
dimensions
  6
ByLayer
 62
  256
370
   -1
100
AcDbMText
 10
18
 20
70
 30
0
 40
2.5
 41
16.59722222222246
 71
    1
 72
    1
  1
11mm deep
  7
standard
210
0
220
0
230
1
 50
0
 73
    2
 44
1
  0
MTEXT
  5
D3
100
AcDbEntity
  8
dimensions
  6
ByLayer
 62
  256
370
   -1
100
AcDbMText
 10
12
 20
12
 30
0
 40
2.5
 41
15.76388888888928
 71
    1
 72
    1
  1
6mm deep
  7
standard
210
0
220
0
230
1
 50
0
 73
    2
 44
1
  0
LEADER
  5
D4
100
AcDbEntity
  8
dimensions
  6
ByLayer
 62
  256
370
   -1
100
AcDbLeader
  3
Standard
 71
    1
 72
    0
 73
    3
 74
    0
 75
    0
 40
1
 41
10
 76
2
 76
2
 10
18
 20
0
 30
0
 10
19
 20
9
 30
0
  0
LEADER
  5
D5
100
AcDbEntity
  8
dimensions
  6
ByLayer
 62
  256
370
   -1
100
AcDbLeader
  3
Standard
 71
    1
 72
    0
 73
    3
 74
    0
 75
    0
 40
1
 41
10
 76
2
 76
2
 10
20
 20
80
 30
0
 10
26
 20
70
 30
0
  0
DIMENSION
  5
D6
100
AcDbEntity
  8
dimensions
  6
ByLayer
 62
  256
370
   -1
100
AcDbDimension
  2
*D11
 10
40
 20
-20
 30
0
 11
20
 21
-18.125
 31
0
 70
   32
 71
    5
 72
    0
  3
Standard
 53
0
210
0
220
0
230
1
100
AcDbAlignedDimension
 13
0
 23
0
 33
0
 14
40
 24
2.999999325650432
 34
0
100
AcDbRotatedDimension
  0
DIMENSION
  5
D7
100
AcDbEntity
  8
dimensions
  6
ByLayer
 62
  256
370
   -1
100
AcDbDimension
  2
*D12
 10
-16
 20
80
 30
0
 11
-17.875
 21
40
 31
0
 70
   32
 71
    5
 72
    0
  3
Standard
 53
0
210
0
220
0
230
1
100
AcDbAlignedDimension
 13
3
 23
0
 33
0
 14
3
 24
80
 34
0
 50
90
100
AcDbRotatedDimension
  0
CIRCLE
  5
D8
100
AcDbEntity
  8
box
  6
ByLayer
 62
  256
370
   -1
100
AcDbCircle
 10
34.25
 20
5.75
 40
3
  0
CIRCLE
  5
D9
100
AcDbEntity
  8
box
  6
ByLayer
 62
  256
370
   -1
100
AcDbCircle
 10
5.75
 20
74.25
 40
3
  0
ARC
  5
DA
100
AcDbEntity
  8
box
  6
ByLayer
 62
  256
370
   -1
100
AcDbCircle
 10
3
 20
77
 40
3
100
AcDbArc
 50
90
 51
180
  0
ARC
  5
DB
100
AcDbEntity
  8
box
  6
ByLayer
 62
  256
370
   -1
100
AcDbCircle
 10
37
 20
77
 40
3
100
AcDbArc
 50
0
 51
90
  0
ARC
  5
DC
100
AcDbEntity
  8
box
  6
ByLayer
 62
  256
370
   -1
100
AcDbCircle
 10
37
 20
3
 40
3
100
AcDbArc
 50
270
 51
0
  0
ARC
  5
DD
100
AcDbEntity
  8
box
  6
ByLayer
 62
  256
370
   -1
100
AcDbCircle
 10
3
 20
3
 40
3
100
AcDbArc
 50
180
 51
270
  0
LINE
  5
DE
100
AcDbEntity
  8
box
  6
ByLayer
 62
  256
370
   -1
100
AcDbLine
 10
37
 20
0
 11
3
 21
0
  0
LINE
  5
DF
100
AcDbEntity
  8
box
  6
ByLayer
 62
  256
370
   -1
100
AcDbLine
 10
0
 20
3
 11
0
 21
77
  0
LINE
  5
E0
100
AcDbEntity
  8
box
  6
ByLayer
 62
  256
370
   -1
100
AcDbLine
 10
40
 20
77
 11
40
 21
2.999999325650432
  0
LINE
  5
E1
100
AcDbEntity
  8
box
  6
ByLayer
 62
  256
370
   -1
100
AcDbLine
 10
3
 20
80
 11
37.00000000000001
 21
80
  0
LEADER
  5
E2
100
AcDbEntity
  8
box
  6
ByLayer
 62
  256
370
   -1
100
AcDbLeader
  3
Standard
 71
    1
 72
    0
 73
    3
 74
    0
 75
    0
 40
1
 41
10
 76
0
 76
0
  0
CIRCLE
  5
E3
100
AcDbEntity
  8
holes
  6
ByLayer
 62
  256
370
   -1
100
AcDbCircle
 10
23.23
 20
52.89
 40
5
  0
CIRCLE
  5
E4
100
AcDbEntity
  8
holes
  6
ByLayer
 62
  256
370
   -1
100
AcDbCircle
 10
6.440000000000001
 20
27.95
 40
1.5
  0
LINE
  5
E5
100
AcDbEntity
  8
holes
  6
ByLayer
 62
  256
370
   -1
100
AcDbLine
 10
6.440000000000001
 20
26.45
 11
6.440000000000001
 21
29.45
  0
LINE
  5
E6
100
AcDbEntity
  8
holes
  6
ByLayer
 62
  256
370
   -1
100
AcDbLine
 10
4.940000000000001
 20
27.95
 11
7.940000000000001
 21
27.95
  0
LINE
  5
E7
100
AcDbEntity
  8
holes
  6
ByLayer
 62
  256
370
   -1
100
AcDbLine
 10
23.23
 20
47.89
 11
23.23
 21
57.8899999999999
  0
LINE
  5
E8
100
AcDbEntity
  8
holes
  6
ByLayer
 62
  256
370
   -1
100
AcDbLine
 10
18.22999999999992
 20
52.89
 11
28.22999999999981
 21
52.89000000000001
  0
LINE
  5
E9
100
AcDbEntity
  8
holes
  6
ByLayer
 62
  256
370
   -1
100
AcDbLine
 10
12.92
 20
1.5
 11
12.92
 21
-1.5
  0
LINE
  5
EA
100
AcDbEntity
  8
holes
  6
ByLayer
 62
  256
370
   -1
100
AcDbLine
 10
22.92
 20
1.5
 11
22.92
 21
-1.5
  0
LINE
  5
EB
100
AcDbEntity
  8
holes
  6
ByLayer
 62
  256
370
   -1
100
AcDbLine
 10
10.72
 20
78.5
 11
10.72
 21
81.5
  0
LINE
  5
EC
100
AcDbEntity
  8
holes
  6
ByLayer
 62
  256
370
   -1
100
AcDbLine
 10
28.42
 20
78.5
 11
28.42
 21
81.5
  0
LINE
  5
ED
100
AcDbEntity
  8
box
  6
ByLayer
 62
  256
370
   -1
100
AcDbLine
 10
-30
 20
-30
 11
-30
 21
100
  0
LINE
  5
EE
100
AcDbEntity
  8
box
  6
ByLayer
 62
  256
370
   -1
100
AcDbLine
 10
-30
 20
100
 11
60
 21
100
  0
LINE
  5
EF
100
AcDbEntity
  8
box
  6
ByLayer
 62
  256
370
   -1
100
AcDbLine
 10
60
 20
100
 11
60
 21
-30
  0
LINE
  5
F0
100
AcDbEntity
  8
box
  6
ByLayer
 62
  256
370
   -1
100
AcDbLine
 10
60
 20
-30
 11
-30
 21
-30
  0
LINE
  5
F1
100
AcDbEntity
  8
dimensions
  6
ByLayer
 62
  256
370
   -1
100
AcDbLine
 10
-30
 20
-30
 11
-30
 21
100
  0
LINE
  5
F2
100
AcDbEntity
  8
dimensions
  6
ByLayer
 62
  256
370
   -1
100
AcDbLine
 10
-30
 20
100
 11
60
 21
100
  0
LINE
  5
F3
100
AcDbEntity
  8
dimensions
  6
ByLayer
 62
  256
370
   -1
100
AcDbLine
 10
60
 20
100
 11
60
 21
-30
  0
LINE
  5
F4
100
AcDbEntity
  8
dimensions
  6
ByLayer
 62
  256
370
   -1
100
AcDbLine
 10
60
 20
-30
 11
-30
 21
-30
  0
LINE
  5
F5
100
AcDbEntity
  8
holes
  6
ByLayer
 62
  256
370
   -1
100
AcDbLine
 10
-30
 20
-30
 11
-30
 21
100
  0
LINE
  5
F6
100
AcDbEntity
  8
holes
  6
ByLayer
 62
  256
370
   -1
100
AcDbLine
 10
-30
 20
100
 11
60
 21
100
  0
LINE
  5
F7
100
AcDbEntity
  8
holes
  6
ByLayer
 62
  256
370
   -1
100
AcDbLine
 10
60
 20
100
 11
60
 21
-30
  0
LINE
  5
F8
100
AcDbEntity
  8
holes
  6
ByLayer
 62
  256
370
   -1
100
AcDbLine
 10
60
 20
-30
 11
-30
 21
-30
  0
DIMENSION
  5
F9
100
AcDbEntity
  8
dimensions
  6
ByLayer
 62
  256
370
   -1
100
AcDbDimension
  2
*D14
 10
7.940000000000001
 20
31
 30
0
 11
6.440000000000001
 21
32.875
 31
0
 70
   32
 71
    5
  3
Standard
 53
0
210
0
220
0
230
1
100
AcDbAlignedDimension
 13
4.940000000000001
 23
27.95
 33
0
 14
7.940000000000001
 24
27.95
 34
0
100
AcDbRotatedDimension
  0
DIMENSION
  5
FA
100
AcDbEntity
  8
dimensions
  6
ByLayer
 62
  256
370
   -1
100
AcDbDimension
  2
*D15
 10
28.23
 20
60
 30
0
 11
23.23
 21
61.875
 31
0
 70
   32
 71
    5
  3
Standard
 53
0
210
0
220
0
230
1
100
AcDbAlignedDimension
 13
18.23
 23
52.89
 33
0
 14
28.23
 24
52.89
 34
0
100
AcDbRotatedDimension
  0
LINE
  5
FB
100
AcDbEntity
  8
dimensions exploded
  6
ByLayer
 62
  256
370
   -1
100
AcDbLine
 10
-30
 20
-30
 11
-30
 21
100
  0
LINE
  5
FC
100
AcDbEntity
  8
dimensions exploded
  6
ByLayer
 62
  256
370
   -1
100
AcDbLine
 10
-30
 20
100
 11
60
 21
100
  0
LINE
  5
FD
100
AcDbEntity
  8
dimensions exploded
  6
ByLayer
 62
  256
370
   -1
100
AcDbLine
 10
60
 20
100
 11
60
 21
-30
  0
LINE
  5
FE
100
AcDbEntity
  8
dimensions exploded
  6
ByLayer
 62
  256
370
   -1
100
AcDbLine
 10
60
 20
-30
 11
-30
 21
-30
  0
LINE
  5
FF
100
AcDbEntity
  8
dimensions exploded
  6
ByLayer
 62
  256
370
   -1
100
AcDbLine
 10
0
 20
-5
 11
12.92
 21
-5
  0
SOLID
  5
100
100
AcDbEntity
  8
dimensions exploded
  6
ByLayer
 62
  256
370
   -1
100
AcDbTrace
 10
0
 20
-5
 30
0
 11
0
 21
-5
 31
0
 12
0
 22
-5
 32
0
 13
0
 23
-5
 33
0
  0
SOLID
  5
101
100
AcDbEntity
  8
dimensions exploded
  6
ByLayer
 62
  256
370
   -1
100
AcDbTrace
 10
12.92
 20
-5
 30
0
 11
12.92
 21
-5
 31
0
 12
12.92
 22
-5
 32
0
 13
12.92
 23
-5
 33
0
  0
LINE
  5
102
100
AcDbEntity
  8
dimensions exploded
  6
ByLayer
 62
  256
370
   -1
100
AcDbLine
 10
-1.148106374200643e-16
 20
2.375
 11
-2.296212748401287e-16
 21
-6.25
  0
LINE
  5
103
100
AcDbEntity
  8
dimensions exploded
  6
ByLayer
 62
  256
370
   -1
100
AcDbLine
 10
12.92
 20
-2.125
 11
12.92
 21
-6.25
  0
LINE
  5
104
100
AcDbEntity
  8
dimensions exploded
  6
ByLayer
 62
  256
370
   -1
100
AcDbLine
 10
0
 20
-11
 11
22.92
 21
-11
  0
SOLID
  5
105
100
AcDbEntity
  8
dimensions exploded
  6
ByLayer
 62
  256
370
   -1
100
AcDbTrace
 10
0
 20
-11
 30
0
 11
0
 21
-11
 31
0
 12
0
 22
-11
 32
0
 13
0
 23
-11
 33
0
  0
SOLID
  5
106
100
AcDbEntity
  8
dimensions exploded
  6
ByLayer
 62
  256
370
   -1
100
AcDbTrace
 10
22.92
 20
-11
 30
0
 11
22.92
 21
-11
 31
0
 12
22.92
 22
-11
 32
0
 13
22.92
 23
-11
 33
0
  0
LINE
  5
107
100
AcDbEntity
  8
dimensions exploded
  6
ByLayer
 62
  256
370
   -1
100
AcDbLine
 10
-1.148106374200643e-16
 20
2.375
 11
-2.296212748401287e-16
 21
-12.25
  0
LINE
  5
108
100
AcDbEntity
  8
dimensions exploded
  6
ByLayer
 62
  256
370
   -1
100
AcDbLine
 10
22.92
 20
-2.125
 11
22.92
 21
-12.25
  0
LINE
  5
109
100
AcDbEntity
  8
dimensions exploded
  6
ByLayer
 62
  256
370
   -1
100
AcDbLine
 10
0
 20
21
 11
6.440000000000001
 21
21
  0
SOLID
  5
10A
100
AcDbEntity
  8
dimensions exploded
  6
ByLayer
 62
  256
370
   -1
100
AcDbTrace
 10
0
 20
21
 30
0
 11
0
 21
21
 31
0
 12
0
 22
21
 32
0
 13
0
 23
21
 33
0
  0
SOLID
  5
10B
100
AcDbEntity
  8
dimensions exploded
  6
ByLayer
 62
  256
370
   -1
100
AcDbTrace
 10
6.440000000000001
 20
21
 30
0
 11
6.440000000000001
 21
21
 31
0
 12
6.440000000000001
 22
21
 32
0
 13
6.440000000000001
 23
21
 33
0
  0
LINE
  5
10C
100
AcDbEntity
  8
dimensions exploded
  6
ByLayer
 62
  256
370
   -1
100
AcDbLine
 10
-1.148106374200643e-16
 20
25.375
 11
-2.296212748401287e-16
 21
19.75
  0
LINE
  5
10D
100
AcDbEntity
  8
dimensions exploded
  6
ByLayer
 62
  256
370
   -1
100
AcDbLine
 10
6.440000000000001
 20
25.825
 11
6.440000000000001
 21
19.75
  0
LINE
  5
10E
100
AcDbEntity
  8
dimensions exploded
  6
ByLayer
 62
  256
370
   -1
100
AcDbLine
 10
0
 20
44
 11
23.23
 21
44
  0
SOLID
  5
10F
100
AcDbEntity
  8
dimensions exploded
  6
ByLayer
 62
  256
370
   -1
100
AcDbTrace
 10
0
 20
44
 30
0
 11
0
 21
44
 31
0
 12
0
 22
44
 32
0
 13
0
 23
44
 33
0
  0
SOLID
  5
110
100
AcDbEntity
  8
dimensions exploded
  6
ByLayer
 62
  256
370
   -1
100
AcDbTrace
 10
23.23
 20
44
 30
0
 11
23.23
 21
44
 31
0
 12
23.23
 22
44
 32
0
 13
23.23
 23
44
 33
0
  0
LINE
  5
111
100
AcDbEntity
  8
dimensions exploded
  6
ByLayer
 62
  256
370
   -1
100
AcDbLine
 10
-1.148106374200643e-16
 20
47.375
 11
-2.296212748401287e-16
 21
42.75
  0
LINE
  5
112
100
AcDbEntity
  8
dimensions exploded
  6
ByLayer
 62
  256
370
   -1
100
AcDbLine
 10
23.23
 20
47.265
 11
23.23
 21
42.75
  0
LINE
  5
113
100
AcDbEntity
  8
dimensions exploded
  6
ByLayer
 62
  256
370
   -1
100
AcDbLine
 10
0
 20
83
 11
10.72
 21
83
  0
SOLID
  5
114
100
AcDbEntity
  8
dimensions exploded
  6
ByLayer
 62
  256
370
   -1
100
AcDbTrace
 10
0
 20
83
 30
0
 11
0
 21
83
 31
0
 12
0
 22
83
 32
0
 13
0
 23
83
 33
0
  0
SOLID
  5
115
100
AcDbEntity
  8
dimensions exploded
  6
ByLayer
 62
  256
370
   -1
100
AcDbTrace
 10
10.72
 20
83
 30
0
 11
10.72
 21
83
 31
0
 12
10.72
 22
83
 32
0
 13
10.72
 23
83
 33
0
  0
LINE
  5
116
100
AcDbEntity
  8
dimensions exploded
  6
ByLayer
 62
  256
370
   -1
100
AcDbLine
 10
3.827021247335479e-17
 20
76.625
 11
7.654042494670958e-17
 21
84.25
  0
LINE
  5
117
100
AcDbEntity
  8
dimensions exploded
  6
ByLayer
 62
  256
370
   -1
100
AcDbLine
 10
10.72
 20
79.125
 11
10.72
 21
84.25
  0
LINE
  5
118
100
AcDbEntity
  8
dimensions exploded
  6
ByLayer
 62
  256
370
   -1
100
AcDbLine
 10
7.105427357601002e-15
 20
88
 11
28.42
 21
88
  0
SOLID
  5
119
100
AcDbEntity
  8
dimensions exploded
  6
ByLayer
 62
  256
370
   -1
100
AcDbTrace
 10
7.105427357601002e-15
 20
88
 30
0
 11
7.105427357601002e-15
 21
88
 31
0
 12
7.105427357601002e-15
 22
88
 32
0
 13
7.105427357601002e-15
 23
88
 33
0
  0
SOLID
  5
11A
100
AcDbEntity
  8
dimensions exploded
  6
ByLayer
 62
  256
370
   -1
100
AcDbTrace
 10
28.42
 20
88
 30
0
 11
28.42
 21
88
 31
0
 12
28.42
 22
88
 32
0
 13
28.42
 23
88
 33
0
  0
LINE
  5
11B
100
AcDbEntity
  8
dimensions exploded
  6
ByLayer
 62
  256
370
   -1
100
AcDbLine
 10
4.546038467077885e-16
 20
77.625
 11
8.014635051016579e-15
 21
89.25
  0
LINE
  5
11C
100
AcDbEntity
  8
dimensions exploded
  6
ByLayer
 62
  256
370
   -1
100
AcDbLine
 10
28.42
 20
79.125
 11
28.42
 21
89.25
  0
LINE
  5
11D
100
AcDbEntity
  8
dimensions exploded
  6
ByLayer
 62
  256
370
   -1
100
AcDbLine
 10
-3.000000000000002
 20
0
 11
-3
 21
27.95
  0
SOLID
  5
11E
100
AcDbEntity
  8
dimensions exploded
  6
ByLayer
 62
  256
370
   -1
100
AcDbTrace
 10
-3.000000000000002
 20
0
 30
0
 11
-3.000000000000002
 21
0
 31
0
 12
-3.000000000000002
 22
0
 32
0
 13
-3.000000000000002
 23
0
 33
0
  0
SOLID
  5
11F
100
AcDbEntity
  8
dimensions exploded
  6
ByLayer
 62
  256
370
   -1
100
AcDbTrace
 10
-3
 20
27.95
 30
0
 11
-3
 21
27.95
 31
0
 12
-3
 22
27.95
 32
0
 13
-3
 23
27.95
 33
0
  0
LINE
  5
120
100
AcDbEntity
  8
dimensions exploded
  6
ByLayer
 62
  256
370
   -1
100
AcDbLine
 10
2.375
 20
7.654042494670958e-17
 11
-4.250000000000002
 21
1.530808498934192e-16
  0
LINE
  5
121
100
AcDbEntity
  8
dimensions exploded
  6
ByLayer
 62
  256
370
   -1
100
AcDbLine
 10
4.315000000000001
 20
27.95
 11
-4.25
 21
27.95
  0
LINE
  5
122
100
AcDbEntity
  8
dimensions exploded
  6
ByLayer
 62
  256
370
   -1
100
AcDbLine
 10
-9.000000000000004
 20
-7.105427357601002e-15
 11
-9
 21
52.89
  0
SOLID
  5
123
100
AcDbEntity
  8
dimensions exploded
  6
ByLayer
 62
  256
370
   -1
100
AcDbTrace
 10
-9.000000000000004
 20
-7.105427357601002e-15
 30
0
 11
-9.000000000000004
 21
-7.105427357601002e-15
 31
0
 12
-9.000000000000004
 22
-7.105427357601002e-15
 32
0
 13
-9.000000000000004
 23
-7.105427357601002e-15
 33
0
  0
SOLID
  5
124
100
AcDbEntity
  8
dimensions exploded
  6
ByLayer
 62
  256
370
   -1
100
AcDbTrace
 10
-9
 20
52.89
 30
0
 11
-9
 21
52.89
 31
0
 12
-9
 22
52.89
 32
0
 13
-9
 23
52.89
 33
0
  0
LINE
  5
125
100
AcDbEntity
  8
dimensions exploded
  6
ByLayer
 62
  256
370
   -1
100
AcDbLine
 10
9.375
 20
7.654042494670958e-17
 11
-10.25
 21
-6.952346507707583e-15
  0
LINE
  5
126
100
AcDbEntity
  8
dimensions exploded
  6
ByLayer
 62
  256
370
   -1
100
AcDbLine
 10
17.60499999999992
 20
52.89
 11
-10.25
 21
52.89
  0
LINE
  5
127
100
AcDbEntity
  8
dimensions exploded
  6
ByLayer
 62
  256
370
   -1
100
AcDbLine
 10
18
 20
69.44444444444444
 11
18.55555555555556
 21
70
  0
LINE
  5
128
100
AcDbEntity
  8
dimensions exploded
  6
ByLayer
 62
  256
370
   -1
100
AcDbLine
 10
18.55555555555556
 20
70
 11
18.55555555555556
 21
67.5
  0
LINE
  5
129
100
AcDbEntity
  8
dimensions exploded
  6
ByLayer
 62
  256
370
   -1
100
AcDbLine
 10
19.38888888888889
 20
69.44444444444444
 11
19.94444444444445
 21
70
  0
LINE
  5
12A
100
AcDbEntity
  8
dimensions exploded
  6
ByLayer
 62
  256
370
   -1
100
AcDbLine
 10
19.94444444444445
 20
70
 11
19.94444444444445
 21
67.5
  0
LINE
  5
12B
100
AcDbEntity
  8
dimensions exploded
  6
ByLayer
 62
  256
370
   -1
100
AcDbLine
 10
21.61111111111111
 20
67.5
 11
21.61111111111111
 21
69.16666666666667
  0
LINE
  5
12C
100
AcDbEntity
  8
dimensions exploded
  6
ByLayer
 62
  256
370
   -1
100
AcDbLine
 10
20.77777777777778
 20
67.5
 11
20.77777777777778
 21
69.16666666666667
  0
LINE
  5
12D
100
AcDbEntity
  8
dimensions exploded
  6
ByLayer
 62
  256
370
   -1
100
AcDbLine
 10
20.77777777777778
 20
69.16666666666667
 11
22.02777777777778
 21
69.16666666666667
  0
ARC
  5
12E
100
AcDbEntity
  8
dimensions exploded
  6
ByLayer
 62
  256
370
   -1
100
AcDbCircle
 10
22.0277780890591
 20
68.75000031128133
 40
0.4166663553854564
100
AcDbArc
 50
359.999957195713
 51
90.00004280428696
  0
LINE
  5
12F
100
AcDbEntity
  8
dimensions exploded
  6
ByLayer
 62
  256
370
   -1
100
AcDbLine
 10
22.44444444444445
 20
68.75
 11
22.44444444444445
 21
67.5
  0
LINE
  5
130
100
AcDbEntity
  8
dimensions exploded
  6
ByLayer
 62
  256
370
   -1
100
AcDbLine
 10
24.11111111111122
 20
67.5
 11
24.11111111111122
 21
69.16666666666667
  0
LINE
  5
131
100
AcDbEntity
  8
dimensions exploded
  6
ByLayer
 62
  256
370
   -1
100
AcDbLine
 10
23.27777777777789
 20
67.5
 11
23.27777777777789
 21
69.16666666666667
  0
LINE
  5
132
100
AcDbEntity
  8
dimensions exploded
  6
ByLayer
 62
  256
370
   -1
100
AcDbLine
 10
23.27777777777789
 20
69.16666666666667
 11
24.52777777777789
 21
69.16666666666667
  0
ARC
  5
133
100
AcDbEntity
  8
dimensions exploded
  6
ByLayer
 62
  256
370
   -1
100
AcDbCircle
 10
24.52777808905922
 20
68.75000031128133
 40
0.4166663553854564
100
AcDbArc
 50
359.999957195713
 51
90.00004280428696
  0
LINE
  5
134
100
AcDbEntity
  8
dimensions exploded
  6
ByLayer
 62
  256
370
   -1
100
AcDbLine
 10
24.94444444444456
 20
68.75
 11
24.94444444444456
 21
67.5
  0
LINE
  5
135
100
AcDbEntity
  8
dimensions exploded
  6
ByLayer
 62
  256
370
   -1
100
AcDbLine
 10
28.76388888888912
 20
70
 11
28.76388888888912
 21
67.5
  0
LINE
  5
136
100
AcDbEntity
  8
dimensions exploded
  6
ByLayer
 62
  256
370
   -1
100
AcDbLine
 10
28.76388888888912
 20
67.5
 11
28.06944444444468
 21
67.5
  0
ARC
  5
137
100
AcDbEntity
  8
dimensions exploded
  6
ByLayer
 62
  256
370
   -1
100
AcDbCircle
 10
28.06944413316335
 20
67.91666635538535
 40
0.4166663553854564
100
AcDbArc
 50
179.999957195713
 51
270.000042804287
  0
LINE
  5
138
100
AcDbEntity
  8
dimensions exploded
  6
ByLayer
 62
  256
370
   -1
100
AcDbLine
 10
27.65277777777801
 20
67.91666666666667
 11
27.65277777777801
 21
68.75
  0
ARC
  5
139
100
AcDbEntity
  8
dimensions exploded
  6
ByLayer
 62
  256
370
   -1
100
AcDbCircle
 10
28.06944413316335
 20
68.75000031128133
 40
0.4166663553854564
100
AcDbArc
 50
89.99995719571302
 51
180.000042804287
  0
LINE
  5
13A
100
AcDbEntity
  8
dimensions exploded
  6
ByLayer
 62
  256
370
   -1
100
AcDbLine
 10
28.06944444444468
 20
69.16666666666667
 11
28.76388888888912
 21
69.16666666666667
  0
LINE
  5
13B
100
AcDbEntity
  8
dimensions exploded
  6
ByLayer
 62
  256
370
   -1
100
AcDbLine
 10
30.70833333333357
 20
67.5
 11
30.01388888888912
 21
67.5
  0
ARC
  5
13C
100
AcDbEntity
  8
dimensions exploded
  6
ByLayer
 62
  256
370
   -1
100
AcDbCircle
 10
30.01388857760779
 20
67.91666635538535
 40
0.4166663553854564
100
AcDbArc
 50
179.999957195713
 51
270.000042804287
  0
LINE
  5
13D
100
AcDbEntity
  8
dimensions exploded
  6
ByLayer
 62
  256
370
   -1
100
AcDbLine
 10
29.59722222222246
 20
67.91666666666667
 11
29.59722222222246
 21
68.61111111111111
  0
ARC
  5
13E
100
AcDbEntity
  8
dimensions exploded
  6
ByLayer
 62
  256
370
   -1
100
AcDbCircle
 10
30.15277777777801
 20
68.61111111111111
 40
0.5555555555555556
100
AcDbArc
 50
0
 51
180
  0
LINE
  5
13F
100
AcDbEntity
  8
dimensions exploded
  6
ByLayer
 62
  256
370
   -1
100
AcDbLine
 10
30.70833333333357
 20
68.61111111111111
 11
30.70833333333357
 21
68.33333333333333
  0
LINE
  5
140
100
AcDbEntity
  8
dimensions exploded
  6
ByLayer
 62
  256
370
   -1
100
AcDbLine
 10
30.70833333333357
 20
68.33333333333333
 11
29.59722222222246
 21
68.33333333333333
  0
LINE
  5
141
100
AcDbEntity
  8
dimensions exploded
  6
ByLayer
 62
  256
370
   -1
100
AcDbLine
 10
32.65277777777801
 20
67.5
 11
31.95833333333357
 21
67.5
  0
ARC
  5
142
100
AcDbEntity
  8
dimensions exploded
  6
ByLayer
 62
  256
370
   -1
100
AcDbCircle
 10
31.95833302205224
 20
67.91666635538535
 40
0.4166663553854564
100
AcDbArc
 50
179.999957195713
 51
270.000042804287
  0
LINE
  5
143
100
AcDbEntity
  8
dimensions exploded
  6
ByLayer
 62
  256
370
   -1
100
AcDbLine
 10
31.5416666666669
 20
67.91666666666667
 11
31.5416666666669
 21
68.61111111111111
  0
ARC
  5
144
100
AcDbEntity
  8
dimensions exploded
  6
ByLayer
 62
  256
370
   -1
100
AcDbCircle
 10
32.09722222222246
 20
68.61111111111111
 40
0.5555555555555556
100
AcDbArc
 50
0
 51
180
  0
LINE
  5
145
100
AcDbEntity
  8
dimensions exploded
  6
ByLayer
 62
  256
370
   -1
100
AcDbLine
 10
32.65277777777801
 20
68.61111111111111
 11
32.65277777777801
 21
68.33333333333333
  0
LINE
  5
146
100
AcDbEntity
  8
dimensions exploded
  6
ByLayer
 62
  256
370
   -1
100
AcDbLine
 10
32.65277777777801
 20
68.33333333333333
 11
31.5416666666669
 21
68.33333333333333
  0
LINE
  5
147
100
AcDbEntity
  8
dimensions exploded
  6
ByLayer
 62
  256
370
   -1
100
AcDbLine
 10
33.48611111111134
 20
66.66666666666667
 11
33.48611111111134
 21
69.16666666666667
  0
LINE
  5
148
100
AcDbEntity
  8
dimensions exploded
  6
ByLayer
 62
  256
370
   -1
100
AcDbLine
 10
33.48611111111134
 20
69.16666666666667
 11
34.18055555555578
 21
69.16666666666667
  0
ARC
  5
149
100
AcDbEntity
  8
dimensions exploded
  6
ByLayer
 62
  256
370
   -1
100
AcDbCircle
 10
34.18054590844489
 20
68.7499903528891
 40
0.4166763138892406
100
AcDbArc
 50
0.001326542259511873
 51
89.99867345774048
  0
LINE
  5
14A
100
AcDbEntity
  8
dimensions exploded
  6
ByLayer
 62
  256
370
   -1
100
AcDbLine
 10
34.59722222222246
 20
68.75
 11
34.59722222222246
 21
67.91666666666667
  0
ARC
  5
14B
100
AcDbEntity
  8
dimensions exploded
  6
ByLayer
 62
  256
370
   -1
100
AcDbCircle
 10
34.18054590844489
 20
67.91667631377756
 40
0.4166763138892406
100
AcDbArc
 50
270.0013265422595
 51
359.9986734577404
  0
LINE
  5
14C
100
AcDbEntity
  8
dimensions exploded
  6
ByLayer
 62
  256
370
   -1
100
AcDbLine
 10
34.18055555555578
 20
67.5
 11
33.48611111111134
 21
67.5
  0
LINE
  5
14D
100
AcDbEntity
  8
dimensions exploded
  6
ByLayer
 62
  256
370
   -1
100
AcDbLine
 10
12
 20
10.88888888888889
 11
12.55555555555556
 21
10.88888888888889
  0
ARC
  5
14E
100
AcDbEntity
  8
dimensions exploded
  6
ByLayer
 62
  256
370
   -1
100
AcDbCircle
 10
12.55555597059733
 20
10.3333337483751
 40
0.5555551405139421
100
AcDbArc
 50
359.999957195713
 51
90.00004280428698
  0
LINE
  5
14F
100
AcDbEntity
  8
dimensions exploded
  6
ByLayer
 62
  256
370
   -1
100
AcDbLine
 10
13.11111111111111
 20
10.33333333333333
 11
13.11111111111111
 21
10.05555555555556
  0
ARC
  5
150
100
AcDbEntity
  8
dimensions exploded
  6
ByLayer
 62
  256
370
   -1
100
AcDbCircle
 10
12.55555555555556
 20
10.05555555555556
 40
0.5555555555555556
100
AcDbArc
 50
180
 51
0
  0
LINE
  5
151
100
AcDbEntity
  8
dimensions exploded
  6
ByLayer
 62
  256
370
   -1
100
AcDbLine
 10
12
 20
10.05555555555556
 11
12
 21
10.88888888888889
  0
ARC
  5
152
100
AcDbEntity
  8
dimensions exploded
  6
ByLayer
 62
  256
370
   -1
100
AcDbCircle
 10
13.15740833333417
 20
10.88888819444382
 40
1.157408333334375
100
AcDbArc
 50
106.2602390857831
 51
179.9999656225289
  0
LINE
  5
153
100
AcDbEntity
  8
dimensions exploded
  6
ByLayer
 62
  256
370
   -1
100
AcDbLine
 10
14.77777777777793
 20
9.5
 11
14.77777777777793
 21
11.16666666666667
  0
LINE
  5
154
100
AcDbEntity
  8
dimensions exploded
  6
ByLayer
 62
  256
370
   -1
100
AcDbLine
 10
13.9444444444446
 20
9.5
 11
13.9444444444446
 21
11.16666666666667
  0
LINE
  5
155
100
AcDbEntity
  8
dimensions exploded
  6
ByLayer
 62
  256
370
   -1
100
AcDbLine
 10
13.9444444444446
 20
11.16666666666667
 11
15.1944444444446
 21
11.16666666666667
  0
ARC
  5
156
100
AcDbEntity
  8
dimensions exploded
  6
ByLayer
 62
  256
370
   -1
100
AcDbCircle
 10
15.19444475572593
 20
10.75000031128133
 40
0.4166663553854564
100
AcDbArc
 50
359.999957195713
 51
90.00004280428696
  0
LINE
  5
157
100
AcDbEntity
  8
dimensions exploded
  6
ByLayer
 62
  256
370
   -1
100
AcDbLine
 10
15.61111111111127
 20
10.75
 11
15.61111111111127
 21
9.5
  0
LINE
  5
158
100
AcDbEntity
  8
dimensions exploded
  6
ByLayer
 62
  256
370
   -1
100
AcDbLine
 10
17.27777777777805
 20
9.5
 11
17.27777777777805
 21
11.16666666666667
  0
LINE
  5
159
100
AcDbEntity
  8
dimensions exploded
  6
ByLayer
 62
  256
370
   -1
100
AcDbLine
 10
16.44444444444472
 20
9.5
 11
16.44444444444472
 21
11.16666666666667
  0
LINE
  5
15A
100
AcDbEntity
  8
dimensions exploded
  6
ByLayer
 62
  256
370
   -1
100
AcDbLine
 10
16.44444444444472
 20
11.16666666666667
 11
17.69444444444472
 21
11.16666666666667
  0
ARC
  5
15B
100
AcDbEntity
  8
dimensions exploded
  6
ByLayer
 62
  256
370
   -1
100
AcDbCircle
 10
17.69444475572604
 20
10.75000031128133
 40
0.4166663553854564
100
AcDbArc
 50
359.999957195713
 51
90.00004280428696
  0
LINE
  5
15C
100
AcDbEntity
  8
dimensions exploded
  6
ByLayer
 62
  256
370
   -1
100
AcDbLine
 10
18.11111111111138
 20
10.75
 11
18.11111111111138
 21
9.5
  0
LINE
  5
15D
100
AcDbEntity
  8
dimensions exploded
  6
ByLayer
 62
  256
370
   -1
100
AcDbLine
 10
21.93055555555594
 20
12
 11
21.93055555555594
 21
9.5
  0
LINE
  5
15E
100
AcDbEntity
  8
dimensions exploded
  6
ByLayer
 62
  256
370
   -1
100
AcDbLine
 10
21.93055555555594
 20
9.5
 11
21.2361111111115
 21
9.5
  0
ARC
  5
15F
100
AcDbEntity
  8
dimensions exploded
  6
ByLayer
 62
  256
370
   -1
100
AcDbCircle
 10
21.23611079983017
 20
9.91666635538534
 40
0.4166663553854564
100
AcDbArc
 50
179.999957195713
 51
270.000042804287
  0
LINE
  5
160
100
AcDbEntity
  8
dimensions exploded
  6
ByLayer
 62
  256
370
   -1
100
AcDbLine
 10
20.81944444444483
 20
9.916666666666666
 11
20.81944444444483
 21
10.75
  0
ARC
  5
161
100
AcDbEntity
  8
dimensions exploded
  6
ByLayer
 62
  256
370
   -1
100
AcDbCircle
 10
21.23611079983017
 20
10.75000031128133
 40
0.4166663553854564
100
AcDbArc
 50
89.99995719571302
 51
180.000042804287
  0
LINE
  5
162
100
AcDbEntity
  8
dimensions exploded
  6
ByLayer
 62
  256
370
   -1
100
AcDbLine
 10
21.2361111111115
 20
11.16666666666667
 11
21.93055555555594
 21
11.16666666666667
  0
LINE
  5
163
100
AcDbEntity
  8
dimensions exploded
  6
ByLayer
 62
  256
370
   -1
100
AcDbLine
 10
23.87500000000039
 20
9.5
 11
23.18055555555594
 21
9.5
  0
ARC
  5
164
100
AcDbEntity
  8
dimensions exploded
  6
ByLayer
 62
  256
370
   -1
100
AcDbCircle
 10
23.18055524427461
 20
9.91666635538534
 40
0.4166663553854564
100
AcDbArc
 50
179.999957195713
 51
270.000042804287
  0
LINE
  5
165
100
AcDbEntity
  8
dimensions exploded
  6
ByLayer
 62
  256
370
   -1
100
AcDbLine
 10
22.76388888888928
 20
9.916666666666666
 11
22.76388888888928
 21
10.61111111111111
  0
ARC
  5
166
100
AcDbEntity
  8
dimensions exploded
  6
ByLayer
 62
  256
370
   -1
100
AcDbCircle
 10
23.31944444444483
 20
10.61111111111111
 40
0.5555555555555556
100
AcDbArc
 50
0
 51
180
  0
LINE
  5
167
100
AcDbEntity
  8
dimensions exploded
  6
ByLayer
 62
  256
370
   -1
100
AcDbLine
 10
23.87500000000039
 20
10.61111111111111
 11
23.87500000000039
 21
10.33333333333333
  0
LINE
  5
168
100
AcDbEntity
  8
dimensions exploded
  6
ByLayer
 62
  256
370
   -1
100
AcDbLine
 10
23.87500000000039
 20
10.33333333333333
 11
22.76388888888928
 21
10.33333333333333
  0
LINE
  5
169
100
AcDbEntity
  8
dimensions exploded
  6
ByLayer
 62
  256
370
   -1
100
AcDbLine
 10
25.81944444444483
 20
9.5
 11
25.12500000000039
 21
9.5
  0
ARC
  5
16A
100
AcDbEntity
  8
dimensions exploded
  6
ByLayer
 62
  256
370
   -1
100
AcDbCircle
 10
25.12499968871906
 20
9.91666635538534
 40
0.4166663553854564
100
AcDbArc
 50
179.999957195713
 51
270.000042804287
  0
LINE
  5
16B
100
AcDbEntity
  8
dimensions exploded
  6
ByLayer
 62
  256
370
   -1
100
AcDbLine
 10
24.70833333333372
 20
9.916666666666666
 11
24.70833333333372
 21
10.61111111111111
  0
ARC
  5
16C
100
AcDbEntity
  8
dimensions exploded
  6
ByLayer
 62
  256
370
   -1
100
AcDbCircle
 10
25.26388888888928
 20
10.61111111111111
 40
0.5555555555555556
100
AcDbArc
 50
0
 51
180
  0
LINE
  5
16D
100
AcDbEntity
  8
dimensions exploded
  6
ByLayer
 62
  256
370
   -1
100
AcDbLine
 10
25.81944444444483
 20
10.61111111111111
 11
25.81944444444483
 21
10.33333333333333
  0
LINE
  5
16E
100
AcDbEntity
  8
dimensions exploded
  6
ByLayer
 62
  256
370
   -1
100
AcDbLine
 10
25.81944444444483
 20
10.33333333333333
 11
24.70833333333372
 21
10.33333333333333
  0
LINE
  5
16F
100
AcDbEntity
  8
dimensions exploded
  6
ByLayer
 62
  256
370
   -1
100
AcDbLine
 10
26.65277777777817
 20
8.666666666666666
 11
26.65277777777817
 21
11.16666666666667
  0
LINE
  5
170
100
AcDbEntity
  8
dimensions exploded
  6
ByLayer
 62
  256
370
   -1
100
AcDbLine
 10
26.65277777777817
 20
11.16666666666667
 11
27.34722222222261
 21
11.16666666666667
  0
ARC
  5
171
100
AcDbEntity
  8
dimensions exploded
  6
ByLayer
 62
  256
370
   -1
100
AcDbCircle
 10
27.34721257511171
 20
10.7499903528891
 40
0.4166763138892406
100
AcDbArc
 50
0.001326542259511873
 51
89.99867345774048
  0
LINE
  5
172
100
AcDbEntity
  8
dimensions exploded
  6
ByLayer
 62
  256
370
   -1
100
AcDbLine
 10
27.76388888888928
 20
10.75
 11
27.76388888888928
 21
9.916666666666666
  0
ARC
  5
173
100
AcDbEntity
  8
dimensions exploded
  6
ByLayer
 62
  256
370
   -1
100
AcDbCircle
 10
27.34721257511171
 20
9.916676313777563
 40
0.4166763138892406
100
AcDbArc
 50
270.0013265422595
 51
359.9986734577404
  0
LINE
  5
174
100
AcDbEntity
  8
dimensions exploded
  6
ByLayer
 62
  256
370
   -1
100
AcDbLine
 10
27.34722222222261
 20
9.5
 11
26.65277777777817
 21
9.5
  0
LINE
  5
175
100
AcDbEntity
  8
dimensions exploded
  6
ByLayer
 62
  256
370
   -1
100
AcDbLine
 10
18
 20
0
 11
19
 21
9
  0
SOLID
  5
176
100
AcDbEntity
  8
dimensions exploded
  6
ByLayer
 62
  256
370
   -1
100
AcDbTrace
 10
18
 20
0
 30
0
 11
18
 21
0
 31
0
 12
18
 22
0
 32
0
 13
18
 23
0
 33
0
  0
LINE
  5
177
100
AcDbEntity
  8
dimensions exploded
  6
ByLayer
 62
  256
370
   -1
100
AcDbLine
 10
20
 20
80
 11
26
 21
70
  0
SOLID
  5
178
100
AcDbEntity
  8
dimensions exploded
  6
ByLayer
 62
  256
370
   -1
100
AcDbTrace
 10
20
 20
80
 30
0
 11
20
 21
80
 31
0
 12
20
 22
80
 32
0
 13
20
 23
80
 33
0
  0
LINE
  5
179
100
AcDbEntity
  8
dimensions exploded
  6
ByLayer
 62
  256
370
   -1
100
AcDbLine
 10
0
 20
-20
 11
40
 21
-20
  0
SOLID
  5
17A
100
AcDbEntity
  8
dimensions exploded
  6
ByLayer
 62
  256
370
   -1
100
AcDbTrace
 10
0
 20
-20
 30
0
 11
0
 21
-20
 31
0
 12
0
 22
-20
 32
0
 13
0
 23
-20
 33
0
  0
SOLID
  5
17B
100
AcDbEntity
  8
dimensions exploded
  6
ByLayer
 62
  256
370
   -1
100
AcDbTrace
 10
40
 20
-20
 30
0
 11
40
 21
-20
 31
0
 12
40
 22
-20
 32
0
 13
40
 23
-20
 33
0
  0
LINE
  5
17C
100
AcDbEntity
  8
dimensions exploded
  6
ByLayer
 62
  256
370
   -1
100
AcDbLine
 10
-1.148106374200643e-16
 20
-0.625
 11
-2.296212748401287e-16
 21
-21.25
  0
LINE
  5
17D
100
AcDbEntity
  8
dimensions exploded
  6
ByLayer
 62
  256
370
   -1
100
AcDbLine
 10
40
 20
2.374999325650432
 11
40
 21
-21.25
  0
LINE
  5
17E
100
AcDbEntity
  8
dimensions exploded
  6
ByLayer
 62
  256
370
   -1
100
AcDbLine
 10
-16
 20
0
 11
-16
 21
80
  0
SOLID
  5
17F
100
AcDbEntity
  8
dimensions exploded
  6
ByLayer
 62
  256
370
   -1
100
AcDbTrace
 10
-16
 20
0
 30
0
 11
-16
 21
0
 31
0
 12
-16
 22
0
 32
0
 13
-16
 23
0
 33
0
  0
SOLID
  5
180
100
AcDbEntity
  8
dimensions exploded
  6
ByLayer
 62
  256
370
   -1
100
AcDbTrace
 10
-16
 20
80
 30
0
 11
-16
 21
80
 31
0
 12
-16
 22
80
 32
0
 13
-16
 23
80
 33
0
  0
LINE
  5
181
100
AcDbEntity
  8
dimensions exploded
  6
ByLayer
 62
  256
370
   -1
100
AcDbLine
 10
2.375
 20
7.654042494670958e-17
 11
-17.25
 21
1.530808498934192e-16
  0
LINE
  5
182
100
AcDbEntity
  8
dimensions exploded
  6
ByLayer
 62
  256
370
   -1
100
AcDbLine
 10
2.375
 20
80
 11
-17.25
 21
80
  0
LINE
  5
183
100
AcDbEntity
  8
dimensions exploded
  6
ByLayer
 62
  256
370
   -1
100
AcDbLine
 10
4.940000000000001
 20
31
 11
7.940000000000001
 21
31
  0
SOLID
  5
184
100
AcDbEntity
  8
dimensions exploded
  6
ByLayer
 62
  256
370
   -1
100
AcDbTrace
 10
4.940000000000001
 20
31
 30
0
 11
4.940000000000001
 21
31
 31
0
 12
4.940000000000001
 22
31
 32
0
 13
4.940000000000001
 23
31
 33
0
  0
SOLID
  5
185
100
AcDbEntity
  8
dimensions exploded
  6
ByLayer
 62
  256
370
   -1
100
AcDbTrace
 10
7.940000000000001
 20
31
 30
0
 11
7.940000000000001
 21
31
 31
0
 12
7.940000000000001
 22
31
 32
0
 13
7.940000000000001
 23
31
 33
0
  0
LINE
  5
186
100
AcDbEntity
  8
dimensions exploded
  6
ByLayer
 62
  256
370
   -1
100
AcDbLine
 10
4.940000000000001
 20
28.575
 11
4.940000000000001
 21
32.25
  0
LINE
  5
187
100
AcDbEntity
  8
dimensions exploded
  6
ByLayer
 62
  256
370
   -1
100
AcDbLine
 10
7.940000000000001
 20
28.575
 11
7.940000000000001
 21
32.25
  0
LINE
  5
188
100
AcDbEntity
  8
dimensions exploded
  6
ByLayer
 62
  256
370
   -1
100
AcDbLine
 10
18.23
 20
60
 11
28.23
 21
60
  0
SOLID
  5
189
100
AcDbEntity
  8
dimensions exploded
  6
ByLayer
 62
  256
370
   -1
100
AcDbTrace
 10
18.23
 20
60
 30
0
 11
18.23
 21
60
 31
0
 12
18.23
 22
60
 32
0
 13
18.23
 23
60
 33
0
  0
SOLID
  5
18A
100
AcDbEntity
  8
dimensions exploded
  6
ByLayer
 62
  256
370
   -1
100
AcDbTrace
 10
28.23
 20
60
 30
0
 11
28.23
 21
60
 31
0
 12
28.23
 22
60
 32
0
 13
28.23
 23
60
 33
0
  0
LINE
  5
18B
100
AcDbEntity
  8
dimensions exploded
  6
ByLayer
 62
  256
370
   -1
100
AcDbLine
 10
18.23
 20
53.515
 11
18.23
 21
61.25
  0
LINE
  5
18C
100
AcDbEntity
  8
dimensions exploded
  6
ByLayer
 62
  256
370
   -1
100
AcDbLine
 10
28.23
 20
53.515
 11
28.23
 21
61.25
  0
LINE
  5
18D
100
AcDbEntity
  8
dimensions exploded
  6
ByLayer
 62
  256
370
   -1
100
AcDbLine
 10
2.848888888888889
 20
-2.430555555555555
 11
3.404444444444444
 21
-1.875
  0
LINE
  5
18E
100
AcDbEntity
  8
dimensions exploded
  6
ByLayer
 62
  256
370
   -1
100
AcDbLine
 10
3.404444444444444
 20
-1.875
 11
3.404444444444444
 21
-4.375
  0
LINE
  5
18F
100
AcDbEntity
  8
dimensions exploded
  6
ByLayer
 62
  256
370
   -1
100
AcDbLine
 10
4.237777777777778
 20
-2.291666666666667
 11
4.312208333333333
 21
-2.152777777777778
  0
ARC
  5
190
100
AcDbEntity
  8
dimensions exploded
  6
ByLayer
 62
  256
370
   -1
100
AcDbCircle
 10
4.793333333333333
 20
-2.430555555555555
 40
0.5555553612846883
100
AcDbArc
 50
329.9999884324239
 51
149.9999884324239
  0
LINE
  5
191
100
AcDbEntity
  8
dimensions exploded
  6
ByLayer
 62
  256
370
   -1
100
AcDbLine
 10
5.274458333333333
 20
-2.708333333333333
 11
4.237777777777778
 21
-4.375
  0
LINE
  5
192
100
AcDbEntity
  8
dimensions exploded
  6
ByLayer
 62
  256
370
   -1
100
AcDbLine
 10
4.237777777777778
 20
-4.375
 11
5.348888888888888
 21
-4.375
  0
LINE
  5
193
100
AcDbEntity
  8
dimensions exploded
  6
ByLayer
 62
  256
370
   -1
100
AcDbLine
 10
6.182222222222222
 20
-4.375
 11
6.182222222222222
 21
-4.236111111111111
  0
LINE
  5
194
100
AcDbEntity
  8
dimensions exploded
  6
ByLayer
 62
  256
370
   -1
100
AcDbLine
 10
8.126666666666667
 20
-3.263888888888889
 11
7.571111111111111
 21
-3.263888888888889
  0
ARC
  5
195
100
AcDbEntity
  8
dimensions exploded
  6
ByLayer
 62
  256
370
   -1
100
AcDbCircle
 10
7.571110696069343
 20
-2.708333748375102
 40
0.5555551405139421
100
AcDbArc
 50
179.999957195713
 51
270.000042804287
  0
LINE
  5
196
100
AcDbEntity
  8
dimensions exploded
  6
ByLayer
 62
  256
370
   -1
100
AcDbLine
 10
7.015555555555555
 20
-2.708333333333333
 11
7.015555555555555
 21
-2.430555555555555
  0
ARC
  5
197
100
AcDbEntity
  8
dimensions exploded
  6
ByLayer
 62
  256
370
   -1
100
AcDbCircle
 10
7.571111111111111
 20
-2.430555555555555
 40
0.5555555555555556
100
AcDbArc
 50
0
 51
180
  0
LINE
  5
198
100
AcDbEntity
  8
dimensions exploded
  6
ByLayer
 62
  256
370
   -1
100
AcDbLine
 10
8.126666666666667
 20
-2.430555555555555
 11
8.126666666666667
 21
-3.263888888888889
  0
ARC
  5
199
100
AcDbEntity
  8
dimensions exploded
  6
ByLayer
 62
  256
370
   -1
100
AcDbCircle
 10
6.969258333332499
 20
-3.263888194443819
 40
1.157408333334375
100
AcDbArc
 50
286.2602390857832
 51
359.9999656225289
  0
LINE
  5
19A
100
AcDbEntity
  8
dimensions exploded
  6
ByLayer
 62
  256
370
   -1
100
AcDbLine
 10
8.960000000000001
 20
-2.291666666666667
 11
9.034430555555556
 21
-2.152777777777778
  0
ARC
  5
19B
100
AcDbEntity
  8
dimensions exploded
  6
ByLayer
 62
  256
370
   -1
100
AcDbCircle
 10
9.515555555555556
 20
-2.430555555555555
 40
0.5555553612846883
100
AcDbArc
 50
329.9999884324239
 51
149.9999884324239
  0
LINE
  5
19C
100
AcDbEntity
  8
dimensions exploded
  6
ByLayer
 62
  256
370
   -1
100
AcDbLine
 10
9.996680555555557
 20
-2.708333333333333
 11
8.960000000000001
 21
-4.375
  0
LINE
  5
19D
100
AcDbEntity
  8
dimensions exploded
  6
ByLayer
 62
  256
370
   -1
100
AcDbLine
 10
8.960000000000001
 20
-4.375
 11
10.07111111111111
 21
-4.375
  0
LINE
  5
19E
100
AcDbEntity
  8
dimensions exploded
  6
ByLayer
 62
  256
370
   -1
100
AcDbLine
 10
7.571111111111112
 20
-8.291666666666666
 11
7.645541666666667
 21
-8.152777777777779
  0
ARC
  5
19F
100
AcDbEntity
  8
dimensions exploded
  6
ByLayer
 62
  256
370
   -1
100
AcDbCircle
 10
8.126666666666667
 20
-8.430555555555555
 40
0.5555553612846883
100
AcDbArc
 50
329.9999884324239
 51
149.9999884324239
  0
LINE
  5
1A0
100
AcDbEntity
  8
dimensions exploded
  6
ByLayer
 62
  256
370
   -1
100
AcDbLine
 10
8.607791666666667
 20
-8.708333333333334
 11
7.571111111111112
 21
-10.375
  0
LINE
  5
1A1
100
AcDbEntity
  8
dimensions exploded
  6
ByLayer
 62
  256
370
   -1
100
AcDbLine
 10
7.571111111111112
 20
-10.375
 11
8.682222222222222
 21
-10.375
  0
LINE
  5
1A2
100
AcDbEntity
  8
dimensions exploded
  6
ByLayer
 62
  256
370
   -1
100
AcDbLine
 10
9.515555555555556
 20
-8.291666666666666
 11
9.589986111111113
 21
-8.152777777777779
  0
ARC
  5
1A3
100
AcDbEntity
  8
dimensions exploded
  6
ByLayer
 62
  256
370
   -1
100
AcDbCircle
 10
10.07111111111111
 20
-8.430555555555555
 40
0.5555553612846883
100
AcDbArc
 50
329.9999884324239
 51
149.9999884324239
  0
LINE
  5
1A4
100
AcDbEntity
  8
dimensions exploded
  6
ByLayer
 62
  256
370
   -1
100
AcDbLine
 10
10.55223611111111
 20
-8.708333333333334
 11
9.515555555555556
 21
-10.375
  0
LINE
  5
1A5
100
AcDbEntity
  8
dimensions exploded
  6
ByLayer
 62
  256
370
   -1
100
AcDbLine
 10
9.515555555555556
 20
-10.375
 11
10.62666666666667
 21
-10.375
  0
LINE
  5
1A6
100
AcDbEntity
  8
dimensions exploded
  6
ByLayer
 62
  256
370
   -1
100
AcDbLine
 10
11.46
 20
-10.375
 11
11.46
 21
-10.23611111111111
  0
LINE
  5
1A7
100
AcDbEntity
  8
dimensions exploded
  6
ByLayer
 62
  256
370
   -1
100
AcDbLine
 10
13.40444444444445
 20
-9.263888888888889
 11
12.84888888888889
 21
-9.263888888888889
  0
ARC
  5
1A8
100
AcDbEntity
  8
dimensions exploded
  6
ByLayer
 62
  256
370
   -1
100
AcDbCircle
 10
12.84888847384712
 20
-8.708333748375102
 40
0.5555551405139421
100
AcDbArc
 50
179.999957195713
 51
270.000042804287
  0
LINE
  5
1A9
100
AcDbEntity
  8
dimensions exploded
  6
ByLayer
 62
  256
370
   -1
100
AcDbLine
 10
12.29333333333333
 20
-8.708333333333334
 11
12.29333333333333
 21
-8.430555555555555
  0
ARC
  5
1AA
100
AcDbEntity
  8
dimensions exploded
  6
ByLayer
 62
  256
370
   -1
100
AcDbCircle
 10
12.84888888888889
 20
-8.430555555555555
 40
0.5555555555555556
100
AcDbArc
 50
0
 51
180
  0
LINE
  5
1AB
100
AcDbEntity
  8
dimensions exploded
  6
ByLayer
 62
  256
370
   -1
100
AcDbLine
 10
13.40444444444445
 20
-8.430555555555555
 11
13.40444444444445
 21
-9.263888888888889
  0
ARC
  5
1AC
100
AcDbEntity
  8
dimensions exploded
  6
ByLayer
 62
  256
370
   -1
100
AcDbCircle
 10
12.24703611111028
 20
-9.263888194443819
 40
1.157408333334375
100
AcDbArc
 50
286.2602390857832
 51
359.9999656225289
  0
LINE
  5
1AD
100
AcDbEntity
  8
dimensions exploded
  6
ByLayer
 62
  256
370
   -1
100
AcDbLine
 10
14.23777777777778
 20
-8.291666666666666
 11
14.31220833333333
 21
-8.152777777777779
  0
ARC
  5
1AE
100
AcDbEntity
  8
dimensions exploded
  6
ByLayer
 62
  256
370
   -1
100
AcDbCircle
 10
14.79333333333333
 20
-8.430555555555555
 40
0.5555553612846883
100
AcDbArc
 50
329.9999884324239
 51
149.9999884324239
  0
LINE
  5
1AF
100
AcDbEntity
  8
dimensions exploded
  6
ByLayer
 62
  256
370
   -1
100
AcDbLine
 10
15.27445833333334
 20
-8.708333333333334
 11
14.23777777777778
 21
-10.375
  0
LINE
  5
1B0
100
AcDbEntity
  8
dimensions exploded
  6
ByLayer
 62
  256
370
   -1
100
AcDbLine
 10
14.23777777777778
 20
-10.375
 11
15.34888888888889
 21
-10.375
  0
LINE
  5
1B1
100
AcDbEntity
  8
dimensions exploded
  6
ByLayer
 62
  256
370
   -1
100
AcDbLine
 10
0.02555555555547873
 20
23.01388888888889
 11
0.5811111111110343
 21
23.01388888888889
  0
ARC
  5
1B2
100
AcDbEntity
  8
dimensions exploded
  6
ByLayer
 62
  256
370
   -1
100
AcDbCircle
 10
0.5811115261528029
 20
22.4583337483751
 40
0.5555551405139421
100
AcDbArc
 50
359.999957195713
 51
90.00004280428698
  0
LINE
  5
1B3
100
AcDbEntity
  8
dimensions exploded
  6
ByLayer
 62
  256
370
   -1
100
AcDbLine
 10
1.13666666666659
 20
22.45833333333333
 11
1.13666666666659
 21
22.18055555555556
  0
ARC
  5
1B4
100
AcDbEntity
  8
dimensions exploded
  6
ByLayer
 62
  256
370
   -1
100
AcDbCircle
 10
0.5811111111110343
 20
22.18055555555556
 40
0.5555555555555556
100
AcDbArc
 50
180
 51
0
  0
LINE
  5
1B5
100
AcDbEntity
  8
dimensions exploded
  6
ByLayer
 62
  256
370
   -1
100
AcDbLine
 10
0.02555555555547873
 20
22.18055555555556
 11
0.02555555555547873
 21
23.01388888888889
  0
ARC
  5
1B6
100
AcDbEntity
  8
dimensions exploded
  6
ByLayer
 62
  256
370
   -1
100
AcDbCircle
 10
1.182963888889645
 20
23.01388819444382
 40
1.157408333334375
100
AcDbArc
 50
106.2602390857831
 51
179.9999656225289
  0
LINE
  5
1B7
100
AcDbEntity
  8
dimensions exploded
  6
ByLayer
 62
  256
370
   -1
100
AcDbLine
 10
1.970000000000078
 20
21.625
 11
1.970000000000078
 21
21.76388888888889
  0
LINE
  5
1B8
100
AcDbEntity
  8
dimensions exploded
  6
ByLayer
 62
  256
370
   -1
100
AcDbLine
 10
3.358888888888967
 20
24.125
 11
2.803333333333411
 21
22.18055555555556
  0
LINE
  5
1B9
100
AcDbEntity
  8
dimensions exploded
  6
ByLayer
 62
  256
370
   -1
100
AcDbLine
 10
2.803333333333411
 20
22.18055555555556
 11
4.1922222222223
 21
22.18055555555556
  0
LINE
  5
1BA
100
AcDbEntity
  8
dimensions exploded
  6
ByLayer
 62
  256
370
   -1
100
AcDbLine
 10
3.775555555555633
 20
22.73611111111111
 11
3.775555555555633
 21
21.625
  0
LINE
  5
1BB
100
AcDbEntity
  8
dimensions exploded
  6
ByLayer
 62
  256
370
   -1
100
AcDbLine
 10
5.58111111111119
 20
24.125
 11
5.025555555555634
 21
22.18055555555556
  0
LINE
  5
1BC
100
AcDbEntity
  8
dimensions exploded
  6
ByLayer
 62
  256
370
   -1
100
AcDbLine
 10
5.025555555555634
 20
22.18055555555556
 11
6.414444444444523
 21
22.18055555555556
  0
LINE
  5
1BD
100
AcDbEntity
  8
dimensions exploded
  6
ByLayer
 62
  256
370
   -1
100
AcDbLine
 10
5.997777777777856
 20
22.73611111111111
 11
5.997777777777856
 21
21.625
  0
LINE
  5
1BE
100
AcDbEntity
  8
dimensions exploded
  6
ByLayer
 62
  256
370
   -1
100
AcDbLine
 10
7.726111111110955
 20
46.70833333333334
 11
7.800541666666511
 21
46.84722222222222
  0
ARC
  5
1BF
100
AcDbEntity
  8
dimensions exploded
  6
ByLayer
 62
  256
370
   -1
100
AcDbCircle
 10
8.281666666666512
 20
46.56944444444444
 40
0.5555553612846883
100
AcDbArc
 50
329.9999884324239
 51
149.9999884324239
  0
LINE
  5
1C0
100
AcDbEntity
  8
dimensions exploded
  6
ByLayer
 62
  256
370
   -1
100
AcDbLine
 10
8.76279166666651
 20
46.29166666666666
 11
7.726111111110955
 21
44.625
  0
LINE
  5
1C1
100
AcDbEntity
  8
dimensions exploded
  6
ByLayer
 62
  256
370
   -1
100
AcDbLine
 10
7.726111111110955
 20
44.625
 11
8.837222222222067
 21
44.625
  0
LINE
  5
1C2
100
AcDbEntity
  8
dimensions exploded
  6
ByLayer
 62
  256
370
   -1
100
AcDbLine
 10
9.670555555555399
 20
47.125
 11
10.22611111111095
 21
47.125
  0
ARC
  5
1C3
100
AcDbEntity
  8
dimensions exploded
  6
ByLayer
 62
  256
370
   -1
100
AcDbCircle
 10
10.22611111111095
 20
46.56944444444444
 40
0.5555555555555556
100
AcDbArc
 50
270
 51
90
  0
LINE
  5
1C4
100
AcDbEntity
  8
dimensions exploded
  6
ByLayer
 62
  256
370
   -1
100
AcDbLine
 10
9.948333333333178
 20
46.01388888888889
 11
10.22611111111095
 21
46.01388888888889
  0
ARC
  5
1C5
100
AcDbEntity
  8
dimensions exploded
  6
ByLayer
 62
  256
370
   -1
100
AcDbCircle
 10
10.22611152615272
 20
45.4583337483751
 40
0.5555551405139421
100
AcDbArc
 50
359.999957195713
 51
90.00004280428698
  0
LINE
  5
1C6
100
AcDbEntity
  8
dimensions exploded
  6
ByLayer
 62
  256
370
   -1
100
AcDbLine
 10
10.78166666666651
 20
45.45833333333334
 11
10.78166666666651
 21
45.18055555555556
  0
ARC
  5
1C7
100
AcDbEntity
  8
dimensions exploded
  6
ByLayer
 62
  256
370
   -1
100
AcDbCircle
 10
10.22611152615272
 20
45.18055514051379
 40
0.5555551405139421
100
AcDbArc
 50
269.999957195713
 51
4.280428697680878e-05
  0
LINE
  5
1C8
100
AcDbEntity
  8
dimensions exploded
  6
ByLayer
 62
  256
370
   -1
100
AcDbLine
 10
10.22611111111095
 20
44.625
 11
9.670555555555399
 21
44.625
  0
LINE
  5
1C9
100
AcDbEntity
  8
dimensions exploded
  6
ByLayer
 62
  256
370
   -1
100
AcDbLine
 10
11.615
 20
44.625
 11
11.615
 21
44.76388888888889
  0
LINE
  5
1CA
100
AcDbEntity
  8
dimensions exploded
  6
ByLayer
 62
  256
370
   -1
100
AcDbLine
 10
12.44833333333333
 20
46.70833333333334
 11
12.52276388888889
 21
46.84722222222222
  0
ARC
  5
1CB
100
AcDbEntity
  8
dimensions exploded
  6
ByLayer
 62
  256
370
   -1
100
AcDbCircle
 10
13.00388888888889
 20
46.56944444444444
 40
0.5555553612846883
100
AcDbArc
 50
329.9999884324239
 51
149.9999884324239
  0
LINE
  5
1CC
100
AcDbEntity
  8
dimensions exploded
  6
ByLayer
 62
  256
370
   -1
100
AcDbLine
 10
13.48501388888889
 20
46.29166666666666
 11
12.44833333333333
 21
44.625
  0
LINE
  5
1CD
100
AcDbEntity
  8
dimensions exploded
  6
ByLayer
 62
  256
370
   -1
100
AcDbLine
 10
12.44833333333333
 20
44.625
 11
13.55944444444444
 21
44.625
  0
LINE
  5
1CE
100
AcDbEntity
  8
dimensions exploded
  6
ByLayer
 62
  256
370
   -1
100
AcDbLine
 10
14.39277777777778
 20
47.125
 11
14.94833333333333
 21
47.125
  0
ARC
  5
1CF
100
AcDbEntity
  8
dimensions exploded
  6
ByLayer
 62
  256
370
   -1
100
AcDbCircle
 10
14.94833333333333
 20
46.56944444444444
 40
0.5555555555555556
100
AcDbArc
 50
270
 51
90
  0
LINE
  5
1D0
100
AcDbEntity
  8
dimensions exploded
  6
ByLayer
 62
  256
370
   -1
100
AcDbLine
 10
14.67055555555556
 20
46.01388888888889
 11
14.94833333333333
 21
46.01388888888889
  0
ARC
  5
1D1
100
AcDbEntity
  8
dimensions exploded
  6
ByLayer
 62
  256
370
   -1
100
AcDbCircle
 10
14.9483337483751
 20
45.4583337483751
 40
0.5555551405139421
100
AcDbArc
 50
359.999957195713
 51
90.00004280428698
  0
LINE
  5
1D2
100
AcDbEntity
  8
dimensions exploded
  6
ByLayer
 62
  256
370
   -1
100
AcDbLine
 10
15.50388888888889
 20
45.45833333333334
 11
15.50388888888889
 21
45.18055555555556
  0
ARC
  5
1D3
100
AcDbEntity
  8
dimensions exploded
  6
ByLayer
 62
  256
370
   -1
100
AcDbCircle
 10
14.9483337483751
 20
45.18055514051379
 40
0.5555551405139421
100
AcDbArc
 50
269.999957195713
 51
4.280428697680878e-05
  0
LINE
  5
1D4
100
AcDbEntity
  8
dimensions exploded
  6
ByLayer
 62
  256
370
   -1
100
AcDbLine
 10
14.94833333333333
 20
44.625
 11
14.39277777777778
 21
44.625
  0
LINE
  5
1D5
100
AcDbEntity
  8
dimensions exploded
  6
ByLayer
 62
  256
370
   -1
100
AcDbLine
 10
1.748888888888889
 20
85.56944444444444
 11
2.304444444444445
 21
86.125
  0
LINE
  5
1D6
100
AcDbEntity
  8
dimensions exploded
  6
ByLayer
 62
  256
370
   -1
100
AcDbLine
 10
2.304444444444445
 20
86.125
 11
2.304444444444445
 21
83.625
  0
ARC
  5
1D7
100
AcDbEntity
  8
dimensions exploded
  6
ByLayer
 62
  256
370
   -1
100
AcDbCircle
 10
3.693333333333333
 20
85.77777777777777
 40
0.3472222222222222
100
AcDbArc
 50
36.86989764584401
 51
143.130102354156
  0
ARC
  5
1D8
100
AcDbEntity
  8
dimensions exploded
  6
ByLayer
 62
  256
370
   -1
100
AcDbCircle
 10
5.498888888888889
 20
84.875
 40
2.361111111111111
100
AcDbArc
 50
151.927513064147
 51
208.072486935853
  0
ARC
  5
1D9
100
AcDbEntity
  8
dimensions exploded
  6
ByLayer
 62
  256
370
   -1
100
AcDbCircle
 10
3.693333333333333
 20
83.97222222222223
 40
0.3472222222222222
100
AcDbArc
 50
216.869897645844
 51
323.130102354156
  0
ARC
  5
1DA
100
AcDbEntity
  8
dimensions exploded
  6
ByLayer
 62
  256
370
   -1
100
AcDbCircle
 10
1.887777777777778
 20
84.875
 40
2.361111111111111
100
AcDbArc
 50
331.927513064147
 51
28.07248693585297
  0
LINE
  5
1DB
100
AcDbEntity
  8
dimensions exploded
  6
ByLayer
 62
  256
370
   -1
100
AcDbLine
 10
5.082222222222223
 20
83.625
 11
5.082222222222223
 21
83.76388888888889
  0
LINE
  5
1DC
100
AcDbEntity
  8
dimensions exploded
  6
ByLayer
 62
  256
370
   -1
100
AcDbLine
 10
5.915555555555556
 20
85.84722222222223
 11
5.915555555555556
 21
86.125
  0
LINE
  5
1DD
100
AcDbEntity
  8
dimensions exploded
  6
ByLayer
 62
  256
370
   -1
100
AcDbLine
 10
5.915555555555556
 20
86.125
 11
7.026666666666667
 21
86.125
  0
LINE
  5
1DE
100
AcDbEntity
  8
dimensions exploded
  6
ByLayer
 62
  256
370
   -1
100
AcDbLine
 10
7.026666666666667
 20
86.125
 11
6.471111111111111
 21
83.625
  0
LINE
  5
1DF
100
AcDbEntity
  8
dimensions exploded
  6
ByLayer
 62
  256
370
   -1
100
AcDbLine
 10
7.86
 20
85.70833333333333
 11
7.934430555555556
 21
85.84722222222223
  0
ARC
  5
1E0
100
AcDbEntity
  8
dimensions exploded
  6
ByLayer
 62
  256
370
   -1
100
AcDbCircle
 10
8.415555555555557
 20
85.56944444444444
 40
0.5555553612846883
100
AcDbArc
 50
329.9999884324239
 51
149.9999884324239
  0
LINE
  5
1E1
100
AcDbEntity
  8
dimensions exploded
  6
ByLayer
 62
  256
370
   -1
100
AcDbLine
 10
8.896680555555555
 20
85.29166666666667
 11
7.86
 21
83.625
  0
LINE
  5
1E2
100
AcDbEntity
  8
dimensions exploded
  6
ByLayer
 62
  256
370
   -1
100
AcDbLine
 10
7.86
 20
83.625
 11
8.971111111111112
 21
83.625
  0
LINE
  5
1E3
100
AcDbEntity
  8
dimensions exploded
  6
ByLayer
 62
  256
370
   -1
100
AcDbLine
 10
10.18222222222223
 20
90.70833333333333
 11
10.25665277777778
 21
90.84722222222223
  0
ARC
  5
1E4
100
AcDbEntity
  8
dimensions exploded
  6
ByLayer
 62
  256
370
   -1
100
AcDbCircle
 10
10.73777777777778
 20
90.56944444444444
 40
0.5555553612846883
100
AcDbArc
 50
329.9999884324239
 51
149.9999884324239
  0
LINE
  5
1E5
100
AcDbEntity
  8
dimensions exploded
  6
ByLayer
 62
  256
370
   -1
100
AcDbLine
 10
11.21890277777778
 20
90.29166666666667
 11
10.18222222222223
 21
88.625
  0
LINE
  5
1E6
100
AcDbEntity
  8
dimensions exploded
  6
ByLayer
 62
  256
370
   -1
100
AcDbLine
 10
10.18222222222223
 20
88.625
 11
11.29333333333334
 21
88.625
  0
LINE
  5
1E7
100
AcDbEntity
  8
dimensions exploded
  6
ByLayer
 62
  256
370
   -1
100
AcDbLine
 10
13.23777777777778
 20
89.18055555555556
 11
13.23777777777778
 21
89.45833333333333
  0
ARC
  5
1E8
100
AcDbEntity
  8
dimensions exploded
  6
ByLayer
 62
  256
370
   -1
100
AcDbCircle
 10
12.68222222222223
 20
89.45833333333333
 40
0.5555555555555556
100
AcDbArc
 50
0
 51
180
  0
LINE
  5
1E9
100
AcDbEntity
  8
dimensions exploded
  6
ByLayer
 62
  256
370
   -1
100
AcDbLine
 10
12.12666666666667
 20
89.45833333333333
 11
12.12666666666667
 21
89.18055555555556
  0
ARC
  5
1EA
100
AcDbEntity
  8
dimensions exploded
  6
ByLayer
 62
  256
370
   -1
100
AcDbCircle
 10
12.68222222222223
 20
89.18055555555556
 40
0.5555555555555556
100
AcDbArc
 50
180
 51
0
  0
ARC
  5
1EB
100
AcDbEntity
  8
dimensions exploded
  6
ByLayer
 62
  256
370
   -1
100
AcDbCircle
 10
12.68222222222223
 20
90.56944444444444
 40
0.5555555555555556
100
AcDbArc
 50
270
 51
90
  0
ARC
  5
1EC
100
AcDbEntity
  8
dimensions exploded
  6
ByLayer
 62
  256
370
   -1
100
AcDbCircle
 10
12.68222222222223
 20
90.56944444444444
 40
0.5555555555555556
100
AcDbArc
 50
90
 51
270
  0
LINE
  5
1ED
100
AcDbEntity
  8
dimensions exploded
  6
ByLayer
 62
  256
370
   -1
100
AcDbLine
 10
14.07111111111112
 20
88.625
 11
14.07111111111112
 21
88.76388888888889
  0
LINE
  5
1EE
100
AcDbEntity
  8
dimensions exploded
  6
ByLayer
 62
  256
370
   -1
100
AcDbLine
 10
15.46
 20
91.125
 11
14.90444444444445
 21
89.18055555555556
  0
LINE
  5
1EF
100
AcDbEntity
  8
dimensions exploded
  6
ByLayer
 62
  256
370
   -1
100
AcDbLine
 10
14.90444444444445
 20
89.18055555555556
 11
16.29333333333334
 21
89.18055555555556
  0
LINE
  5
1F0
100
AcDbEntity
  8
dimensions exploded
  6
ByLayer
 62
  256
370
   -1
100
AcDbLine
 10
15.87666666666667
 20
89.73611111111111
 11
15.87666666666667
 21
88.625
  0
LINE
  5
1F1
100
AcDbEntity
  8
dimensions exploded
  6
ByLayer
 62
  256
370
   -1
100
AcDbLine
 10
17.12666666666667
 20
90.70833333333333
 11
17.20109722222223
 21
90.84722222222223
  0
ARC
  5
1F2
100
AcDbEntity
  8
dimensions exploded
  6
ByLayer
 62
  256
370
   -1
100
AcDbCircle
 10
17.68222222222223
 20
90.56944444444444
 40
0.5555553612846883
100
AcDbArc
 50
329.9999884324239
 51
149.9999884324239
  0
LINE
  5
1F3
100
AcDbEntity
  8
dimensions exploded
  6
ByLayer
 62
  256
370
   -1
100
AcDbLine
 10
18.16334722222223
 20
90.29166666666667
 11
17.12666666666667
 21
88.625
  0
LINE
  5
1F4
100
AcDbEntity
  8
dimensions exploded
  6
ByLayer
 62
  256
370
   -1
100
AcDbLine
 10
17.12666666666667
 20
88.625
 11
18.23777777777778
 21
88.625
  0
LINE
  5
1F5
100
AcDbEntity
  8
dimensions exploded
  6
ByLayer
 62
  256
370
   -1
100
AcDbLine
 10
-5.708333333333335
 20
10.08611111111103
 11
-5.847222222222222
 21
10.16054166666659
  0
ARC
  5
1F6
100
AcDbEntity
  8
dimensions exploded
  6
ByLayer
 62
  256
370
   -1
100
AcDbCircle
 10
-5.569444444444446
 20
10.64166666666659
 40
0.5555553612846883
100
AcDbArc
 50
59.99998843242388
 51
239.9999884324239
  0
LINE
  5
1F7
100
AcDbEntity
  8
dimensions exploded
  6
ByLayer
 62
  256
370
   -1
100
AcDbLine
 10
-5.291666666666667
 20
11.12279166666659
 11
-3.625000000000001
 21
10.08611111111103
  0
LINE
  5
1F8
100
AcDbEntity
  8
dimensions exploded
  6
ByLayer
 62
  256
370
   -1
100
AcDbLine
 10
-3.625000000000001
 20
10.08611111111103
 11
-3.625000000000001
 21
11.19722222222214
  0
LINE
  5
1F9
100
AcDbEntity
  8
dimensions exploded
  6
ByLayer
 62
  256
370
   -1
100
AcDbLine
 10
-5.847222222222222
 20
12.03055555555548
 11
-6.125000000000001
 21
12.03055555555548
  0
LINE
  5
1FA
100
AcDbEntity
  8
dimensions exploded
  6
ByLayer
 62
  256
370
   -1
100
AcDbLine
 10
-6.125000000000001
 20
12.03055555555548
 11
-6.125000000000001
 21
13.14166666666659
  0
LINE
  5
1FB
100
AcDbEntity
  8
dimensions exploded
  6
ByLayer
 62
  256
370
   -1
100
AcDbLine
 10
-6.125000000000001
 20
13.14166666666659
 11
-3.625000000000001
 21
12.58611111111103
  0
LINE
  5
1FC
100
AcDbEntity
  8
dimensions exploded
  6
ByLayer
 62
  256
370
   -1
100
AcDbLine
 10
-3.625000000000001
 20
13.97499999999992
 11
-3.76388888888889
 21
13.97499999999992
  0
LINE
  5
1FD
100
AcDbEntity
  8
dimensions exploded
  6
ByLayer
 62
  256
370
   -1
100
AcDbLine
 10
-4.736111111111112
 20
15.91944444444437
 11
-4.736111111111112
 21
15.36388888888881
  0
ARC
  5
1FE
100
AcDbEntity
  8
dimensions exploded
  6
ByLayer
 62
  256
370
   -1
100
AcDbCircle
 10
-5.291666251624897
 20
15.36388847384704
 40
0.5555551405139421
100
AcDbArc
 50
269.999957195713
 51
4.280428697680878e-05
  0
LINE
  5
1FF
100
AcDbEntity
  8
dimensions exploded
  6
ByLayer
 62
  256
370
   -1
100
AcDbLine
 10
-5.291666666666669
 20
14.80833333333326
 11
-5.569444444444447
 21
14.80833333333326
  0
ARC
  5
200
100
AcDbEntity
  8
dimensions exploded
  6
ByLayer
 62
  256
370
   -1
100
AcDbCircle
 10
-5.569444444444447
 20
15.36388888888881
 40
0.5555555555555556
100
AcDbArc
 50
90
 51
270
  0
LINE
  5
201
100
AcDbEntity
  8
dimensions exploded
  6
ByLayer
 62
  256
370
   -1
100
AcDbLine
 10
-5.569444444444447
 20
15.91944444444437
 11
-4.736111111111112
 21
15.91944444444437
  0
ARC
  5
202
100
AcDbEntity
  8
dimensions exploded
  6
ByLayer
 62
  256
370
   -1
100
AcDbCircle
 10
-4.736111805556182
 20
14.7620361111102
 40
1.157408333334375
100
AcDbArc
 50
16.26023908578313
 51
89.99996562252883
  0
LINE
  5
203
100
AcDbEntity
  8
dimensions exploded
  6
ByLayer
 62
  256
370
   -1
100
AcDbLine
 10
-6.125000000000001
 20
17.86388888888881
 11
-6.125000000000001
 21
16.7527777777777
  0
LINE
  5
204
100
AcDbEntity
  8
dimensions exploded
  6
ByLayer
 62
  256
370
   -1
100
AcDbLine
 10
-6.125000000000001
 20
16.7527777777777
 11
-5.01388888888889
 21
16.7527777777777
  0
LINE
  5
205
100
AcDbEntity
  8
dimensions exploded
  6
ByLayer
 62
  256
370
   -1
100
AcDbLine
 10
-5.01388888888889
 20
16.7527777777777
 11
-5.01388888888889
 21
17.30833333333326
  0
ARC
  5
206
100
AcDbEntity
  8
dimensions exploded
  6
ByLayer
 62
  256
370
   -1
100
AcDbCircle
 10
-4.458333748375105
 20
17.30833374837503
 40
0.5555551405139421
100
AcDbArc
 50
89.99995719571302
 51
180.000042804287
  0
LINE
  5
207
100
AcDbEntity
  8
dimensions exploded
  6
ByLayer
 62
  256
370
   -1
100
AcDbLine
 10
-4.458333333333333
 20
17.86388888888881
 11
-4.180555555555558
 21
17.86388888888881
  0
ARC
  5
208
100
AcDbEntity
  8
dimensions exploded
  6
ByLayer
 62
  256
370
   -1
100
AcDbCircle
 10
-4.180555140513786
 20
17.30833374837503
 40
0.5555551405139421
100
AcDbArc
 50
359.999957195713
 51
90.00004280428698
  0
LINE
  5
209
100
AcDbEntity
  8
dimensions exploded
  6
ByLayer
 62
  256
370
   -1
100
AcDbLine
 10
-3.625000000000001
 20
17.30833333333326
 11
-3.625000000000001
 21
16.7527777777777
  0
LINE
  5
20A
100
AcDbEntity
  8
dimensions exploded
  6
ByLayer
 62
  256
370
   -1
100
AcDbLine
 10
-12.125
 20
23.66722222222214
 11
-12.125
 21
22.55611111111103
  0
LINE
  5
20B
100
AcDbEntity
  8
dimensions exploded
  6
ByLayer
 62
  256
370
   -1
100
AcDbLine
 10
-12.125
 20
22.55611111111103
 11
-11.01388888888889
 21
22.55611111111103
  0
LINE
  5
20C
100
AcDbEntity
  8
dimensions exploded
  6
ByLayer
 62
  256
370
   -1
100
AcDbLine
 10
-11.01388888888889
 20
22.55611111111103
 11
-11.01388888888889
 21
23.11166666666659
  0
ARC
  5
20D
100
AcDbEntity
  8
dimensions exploded
  6
ByLayer
 62
  256
370
   -1
100
AcDbCircle
 10
-10.45833374837511
 20
23.11166708170835
 40
0.5555551405139421
100
AcDbArc
 50
89.99995719571302
 51
180.000042804287
  0
LINE
  5
20E
100
AcDbEntity
  8
dimensions exploded
  6
ByLayer
 62
  256
370
   -1
100
AcDbLine
 10
-10.45833333333333
 20
23.66722222222214
 11
-10.18055555555556
 21
23.66722222222214
  0
ARC
  5
20F
100
AcDbEntity
  8
dimensions exploded
  6
ByLayer
 62
  256
370
   -1
100
AcDbCircle
 10
-10.18055514051379
 20
23.11166708170835
 40
0.5555551405139421
100
AcDbArc
 50
359.999957195713
 51
90.00004280428698
  0
LINE
  5
210
100
AcDbEntity
  8
dimensions exploded
  6
ByLayer
 62
  256
370
   -1
100
AcDbLine
 10
-9.625000000000002
 20
23.11166666666659
 11
-9.625000000000002
 21
22.55611111111103
  0
LINE
  5
211
100
AcDbEntity
  8
dimensions exploded
  6
ByLayer
 62
  256
370
   -1
100
AcDbLine
 10
-11.70833333333333
 20
24.50055555555563
 11
-11.84722222222222
 21
24.57498611111119
  0
ARC
  5
212
100
AcDbEntity
  8
dimensions exploded
  6
ByLayer
 62
  256
370
   -1
100
AcDbCircle
 10
-11.56944444444444
 20
25.05611111111119
 40
0.5555553612846883
100
AcDbArc
 50
59.99998843242388
 51
239.9999884324239
  0
LINE
  5
213
100
AcDbEntity
  8
dimensions exploded
  6
ByLayer
 62
  256
370
   -1
100
AcDbLine
 10
-11.29166666666667
 20
25.53723611111118
 11
-9.625000000000002
 21
24.50055555555563
  0
LINE
  5
214
100
AcDbEntity
  8
dimensions exploded
  6
ByLayer
 62
  256
370
   -1
100
AcDbLine
 10
-9.625000000000002
 20
24.50055555555563
 11
-9.625000000000002
 21
25.61166666666674
  0
LINE
  5
215
100
AcDbEntity
  8
dimensions exploded
  6
ByLayer
 62
  256
370
   -1
100
AcDbLine
 10
-9.625000000000002
 20
26.44500000000007
 11
-9.763888888888891
 21
26.44500000000007
  0
LINE
  5
216
100
AcDbEntity
  8
dimensions exploded
  6
ByLayer
 62
  256
370
   -1
100
AcDbLine
 10
-10.18055555555556
 20
28.38944444444452
 11
-10.45833333333333
 21
28.38944444444452
  0
ARC
  5
217
100
AcDbEntity
  8
dimensions exploded
  6
ByLayer
 62
  256
370
   -1
100
AcDbCircle
 10
-10.45833333333333
 20
27.83388888888896
 40
0.5555555555555556
100
AcDbArc
 50
90
 51
270
  0
LINE
  5
218
100
AcDbEntity
  8
dimensions exploded
  6
ByLayer
 62
  256
370
   -1
100
AcDbLine
 10
-10.45833333333333
 20
27.27833333333341
 11
-10.18055555555556
 21
27.27833333333341
  0
ARC
  5
219
100
AcDbEntity
  8
dimensions exploded
  6
ByLayer
 62
  256
370
   -1
100
AcDbCircle
 10
-10.18055555555556
 20
27.83388888888896
 40
0.5555555555555556
100
AcDbArc
 50
270
 51
90
  0
ARC
  5
21A
100
AcDbEntity
  8
dimensions exploded
  6
ByLayer
 62
  256
370
   -1
100
AcDbCircle
 10
-11.56944444444444
 20
27.83388888888896
 40
0.5555555555555556
100
AcDbArc
 50
360
 51
180
  0
ARC
  5
21B
100
AcDbEntity
  8
dimensions exploded
  6
ByLayer
 62
  256
370
   -1
100
AcDbCircle
 10
-11.56944444444444
 20
27.83388888888896
 40
0.5555555555555556
100
AcDbArc
 50
180
 51
360
  0
LINE
  5
21C
100
AcDbEntity
  8
dimensions exploded
  6
ByLayer
 62
  256
370
   -1
100
AcDbLine
 10
-10.73611111111111
 20
30.33388888888896
 11
-10.73611111111111
 21
29.77833333333341
  0
ARC
  5
21D
100
AcDbEntity
  8
dimensions exploded
  6
ByLayer
 62
  256
370
   -1
100
AcDbCircle
 10
-11.2916662516249
 20
29.77833291829164
 40
0.5555551405139421
100
AcDbArc
 50
269.999957195713
 51
4.280428697680878e-05
  0
LINE
  5
21E
100
AcDbEntity
  8
dimensions exploded
  6
ByLayer
 62
  256
370
   -1
100
AcDbLine
 10
-11.29166666666667
 20
29.22277777777785
 11
-11.56944444444444
 21
29.22277777777785
  0
ARC
  5
21F
100
AcDbEntity
  8
dimensions exploded
  6
ByLayer
 62
  256
370
   -1
100
AcDbCircle
 10
-11.56944444444444
 20
29.77833333333341
 40
0.5555555555555556
100
AcDbArc
 50
90
 51
270
  0
LINE
  5
220
100
AcDbEntity
  8
dimensions exploded
  6
ByLayer
 62
  256
370
   -1
100
AcDbLine
 10
-11.56944444444444
 20
30.33388888888896
 11
-10.73611111111111
 21
30.33388888888896
  0
ARC
  5
221
100
AcDbEntity
  8
dimensions exploded
  6
ByLayer
 62
  256
370
   -1
100
AcDbCircle
 10
-10.73611180555618
 20
29.1764805555548
 40
1.157408333334375
100
AcDbArc
 50
16.26023908578313
 51
89.99996562252883
  0
LINE
  5
222
100
AcDbEntity
  8
dimensions exploded
  6
ByLayer
 62
  256
370
   -1
100
AcDbLine
 10
18.88888888888889
 20
-16.875
 11
18.33333333333333
 21
-18.81944444444444
  0
LINE
  5
223
100
AcDbEntity
  8
dimensions exploded
  6
ByLayer
 62
  256
370
   -1
100
AcDbLine
 10
18.33333333333333
 20
-18.81944444444444
 11
19.72222222222222
 21
-18.81944444444444
  0
LINE
  5
224
100
AcDbEntity
  8
dimensions exploded
  6
ByLayer
 62
  256
370
   -1
100
AcDbLine
 10
19.30555555555555
 20
-18.26388888888889
 11
19.30555555555555
 21
-19.375
  0
ARC
  5
225
100
AcDbEntity
  8
dimensions exploded
  6
ByLayer
 62
  256
370
   -1
100
AcDbCircle
 10
21.11111111111111
 20
-17.22222222222222
 40
0.3472222222222222
100
AcDbArc
 50
36.86989764584401
 51
143.130102354156
  0
ARC
  5
226
100
AcDbEntity
  8
dimensions exploded
  6
ByLayer
 62
  256
370
   -1
100
AcDbCircle
 10
22.91666666666667
 20
-18.125
 40
2.361111111111111
100
AcDbArc
 50
151.927513064147
 51
208.072486935853
  0
ARC
  5
227
100
AcDbEntity
  8
dimensions exploded
  6
ByLayer
 62
  256
370
   -1
100
AcDbCircle
 10
21.11111111111111
 20
-19.02777777777778
 40
0.3472222222222222
100
AcDbArc
 50
216.869897645844
 51
323.130102354156
  0
ARC
  5
228
100
AcDbEntity
  8
dimensions exploded
  6
ByLayer
 62
  256
370
   -1
100
AcDbCircle
 10
19.30555555555556
 20
-18.125
 40
2.361111111111111
100
AcDbArc
 50
331.927513064147
 51
28.07248693585297
  0
LINE
  5
229
100
AcDbEntity
  8
dimensions exploded
  6
ByLayer
 62
  256
370
   -1
100
AcDbLine
 10
-17.18055555555556
 20
39.58333333333333
 11
-17.45833333333334
 21
39.58333333333333
  0
ARC
  5
22A
100
AcDbEntity
  8
dimensions exploded
  6
ByLayer
 62
  256
370
   -1
100
AcDbCircle
 10
-17.45833333333334
 20
39.02777777777778
 40
0.5555555555555556
100
AcDbArc
 50
90
 51
270
  0
LINE
  5
22B
100
AcDbEntity
  8
dimensions exploded
  6
ByLayer
 62
  256
370
   -1
100
AcDbLine
 10
-17.45833333333334
 20
38.47222222222222
 11
-17.18055555555556
 21
38.47222222222222
  0
ARC
  5
22C
100
AcDbEntity
  8
dimensions exploded
  6
ByLayer
 62
  256
370
   -1
100
AcDbCircle
 10
-17.18055555555556
 20
39.02777777777778
 40
0.5555555555555556
100
AcDbArc
 50
270
 51
90
  0
ARC
  5
22D
100
AcDbEntity
  8
dimensions exploded
  6
ByLayer
 62
  256
370
   -1
100
AcDbCircle
 10
-18.56944444444444
 20
39.02777777777778
 40
0.5555555555555556
100
AcDbArc
 50
360
 51
180
  0
ARC
  5
22E
100
AcDbEntity
  8
dimensions exploded
  6
ByLayer
 62
  256
370
   -1
100
AcDbCircle
 10
-18.56944444444444
 20
39.02777777777778
 40
0.5555555555555556
100
AcDbArc
 50
180
 51
360
  0
ARC
  5
22F
100
AcDbEntity
  8
dimensions exploded
  6
ByLayer
 62
  256
370
   -1
100
AcDbCircle
 10
-18.77777777777778
 20
40.97222222222222
 40
0.3472222222222222
100
AcDbArc
 50
126.869897645844
 51
233.130102354156
  0
ARC
  5
230
100
AcDbEntity
  8
dimensions exploded
  6
ByLayer
 62
  256
370
   -1
100
AcDbCircle
 10
-17.875
 20
42.77777777777777
 40
2.361111111111111
100
AcDbArc
 50
241.927513064147
 51
298.072486935853
  0
ARC
  5
231
100
AcDbEntity
  8
dimensions exploded
  6
ByLayer
 62
  256
370
   -1
100
AcDbCircle
 10
-16.97222222222222
 20
40.97222222222222
 40
0.3472222222222222
100
AcDbArc
 50
306.869897645844
 51
53.13010235415599
  0
ARC
  5
232
100
AcDbEntity
  8
dimensions exploded
  6
ByLayer
 62
  256
370
   -1
100
AcDbCircle
 10
-17.875
 20
39.16666666666666
 40
2.361111111111111
100
AcDbArc
 50
61.92751306414704
 51
118.072486935853
  0
LINE
  5
233
100
AcDbEntity
  8
dimensions exploded
  6
ByLayer
 62
  256
370
   -1
100
AcDbLine
 10
5.884444444444368
 20
34.125
 11
6.439999999999923
 21
34.125
  0
ARC
  5
234
100
AcDbEntity
  8
dimensions exploded
  6
ByLayer
 62
  256
370
   -1
100
AcDbCircle
 10
6.439999999999923
 20
33.56944444444444
 40
0.5555555555555556
100
AcDbArc
 50
270
 51
90
  0
LINE
  5
235
100
AcDbEntity
  8
dimensions exploded
  6
ByLayer
 62
  256
370
   -1
100
AcDbLine
 10
6.162222222222145
 20
33.01388888888889
 11
6.439999999999923
 21
33.01388888888889
  0
ARC
  5
236
100
AcDbEntity
  8
dimensions exploded
  6
ByLayer
 62
  256
370
   -1
100
AcDbCircle
 10
6.440000415041692
 20
32.4583337483751
 40
0.5555551405139421
100
AcDbArc
 50
359.999957195713
 51
90.00004280428698
  0
LINE
  5
237
100
AcDbEntity
  8
dimensions exploded
  6
ByLayer
 62
  256
370
   -1
100
AcDbLine
 10
6.995555555555478
 20
32.45833333333334
 11
6.995555555555478
 21
32.18055555555556
  0
ARC
  5
238
100
AcDbEntity
  8
dimensions exploded
  6
ByLayer
 62
  256
370
   -1
100
AcDbCircle
 10
6.440000415041692
 20
32.18055514051379
 40
0.5555551405139421
100
AcDbArc
 50
269.999957195713
 51
4.280428697680878e-05
  0
LINE
  5
239
100
AcDbEntity
  8
dimensions exploded
  6
ByLayer
 62
  256
370
   -1
100
AcDbLine
 10
6.439999999999923
 20
31.625
 11
5.884444444444368
 21
31.625
  0
LINE
  5
23A
100
AcDbEntity
  8
dimensions exploded
  6
ByLayer
 62
  256
370
   -1
100
AcDbLine
 10
21.98
 20
62.56944444444444
 11
22.53555555555556
 21
63.125
  0
LINE
  5
23B
100
AcDbEntity
  8
dimensions exploded
  6
ByLayer
 62
  256
370
   -1
100
AcDbLine
 10
22.53555555555556
 20
63.125
 11
22.53555555555556
 21
60.625
  0
ARC
  5
23C
100
AcDbEntity
  8
dimensions exploded
  6
ByLayer
 62
  256
370
   -1
100
AcDbCircle
 10
23.92444444444445
 20
62.77777777777778
 40
0.3472222222222222
100
AcDbArc
 50
36.86989764584401
 51
143.130102354156
  0
ARC
  5
23D
100
AcDbEntity
  8
dimensions exploded
  6
ByLayer
 62
  256
370
   -1
100
AcDbCircle
 10
25.73
 20
61.875
 40
2.361111111111111
100
AcDbArc
 50
151.927513064147
 51
208.072486935853
  0
ARC
  5
23E
100
AcDbEntity
  8
dimensions exploded
  6
ByLayer
 62
  256
370
   -1
100
AcDbCircle
 10
23.92444444444445
 20
60.97222222222222
 40
0.3472222222222222
100
AcDbArc
 50
216.869897645844
 51
323.130102354156
  0
ARC
  5
23F
100
AcDbEntity
  8
dimensions exploded
  6
ByLayer
 62
  256
370
   -1
100
AcDbCircle
 10
22.11888888888889
 20
61.875
 40
2.361111111111111
100
AcDbArc
 50
331.927513064147
 51
28.07248693585297
  0
ENDSEC
  0
SECTION
  2
OBJECTS
  0
DICTIONARY
  5
C
330
0
100
AcDbDictionary
281
    1
  3
ACAD_GROUP
350
D
  0
DICTIONARY
  5
D
330
C
100
AcDbDictionary
281
    1
  0
ENDSEC
  0
EOF
